<?xml version="1.0" encoding="UTF-8" standalone="no"?>
<svg width="282px" height="281px" viewBox="0 0 282 281" version="1.1" xmlns="http://www.w3.org/2000/svg" xmlns:xlink="http://www.w3.org/1999/xlink" xmlns:sketch="http://www.bohemiancoding.com/sketch/ns">
    <!-- Generator: Sketch 3.4 (15575) - http://www.bohemiancoding.com/sketch -->
    <title>Shape</title>
    <desc>Created with Sketch.</desc>
    <defs></defs>
    <g id="Page-1" stroke="none" stroke-width="1" fill="none" fill-rule="evenodd" sketch:type="MSPage">
        <g id="lock-open" sketch:type="MSLayerGroup" fill="#444444">
            <g id="Shape" sketch:type="MSShapeGroup">
                <path d="M160.1,118.9 L160.1,50.7 C160.1,23 182.9,0 212.6,0 L229.7,0 C258.4,0 282.3,23 281.5,50.7 L281.5,101.5 L260.3,101.5 L260.3,50.7 C260.3,33.4 248,21.1 228.9,21.1 L212.6,21.1 C194.5,21.1 181.2,33.6 181.2,50.7 L181.2,118.9 L220.8,118.9 L220.8,251.8 C220.8,268.1 209.6,280.4 193.4,280.4 L28.8,280.4 C12.7,280.4 0.5,268.1 0.5,251.8 L0.5,118.9 L160.1,118.9 Z M199.9,251.8 C199.9,256.4 198,259.3 193.4,259.3 L28.8,259.3 C24.3,259.3 21.3,256.3 21.3,251.8 L21.3,140 L199.8,140 L199.8,251.8 L199.9,251.8 Z M88.1,189.4 C88.1,175.8 98.9,165.9 111.6,165.9 C125.2,165.9 135.1,176.7 135.1,189.4 C135.1,198.4 130.6,205.7 123.4,210.2 L123.4,236.4 L99,236.4 L99,210.2 C92.7,205.7 88.1,197.5 88.1,189.4 Z"></path>
            </g>
        </g>
    </g>
</svg>