<svg xmlns="http://www.w3.org/2000/svg" xmlns:xlink="http://www.w3.org/1999/xlink" version="1.1" x="0px" y="0px" viewBox="0 0 100 100" enable-background="new 0 0 100 100" xml:space="preserve"><g><path d="M25.367,36.04c-7.521,0-13.641,6.119-13.641,13.641c0,7.522,6.119,13.642,13.641,13.642s13.641-6.119,13.641-13.642   C39.008,42.159,32.889,36.04,25.367,36.04z M25.367,62.322c-6.97,0-12.641-5.671-12.641-12.642c0-6.97,5.671-12.641,12.641-12.641   s12.641,5.67,12.641,12.641C38.008,56.651,32.337,62.322,25.367,62.322z"></path><path d="M46.168,61.195c0.279-2.834,0.303-6.48,0.303-11.195c0-2.592-0.494-5.064-1.357-7.358c0.456-0.274,1.346-0.843,2.035-1.511   c0.964-0.936-0.485-2.158-1.044-2.384c-0.735-0.303-2.44-1.325-2.892-1.64c-0.451-0.318-5.81-5.821-5.81-5.821   s-0.331-0.578-0.654-0.282c-0.22,0.201-0.594,0.594-0.812,0.826c-3.082-1.78-6.645-2.814-10.452-2.814   C13.913,29.016,4.5,38.429,4.5,50c0,20.592,0.393,20.984,20.984,20.984c15.306,0,19.45-0.225,20.57-8.789H94.5v4.392h1v-5.389   L46.168,61.195z M25.484,69.984C5.5,69.984,5.5,69.984,5.5,50c0-11.02,8.965-19.984,19.984-19.984   c5.452,0,10.396,2.199,14.006,5.751l2.248,2.647c2.34,3.272,3.732,7.266,3.732,11.586C45.471,69.984,45.471,69.984,25.484,69.984z"></path></g></svg>