<?xml version="1.0" encoding="utf-8"?>
<!-- Generator: Adobe Illustrator 18.1.1, SVG Export Plug-In . SVG Version: 6.00 Build 0)  -->
<!DOCTYPE svg PUBLIC "-//W3C//DTD SVG 1.1//EN" "http://www.w3.org/Graphics/SVG/1.1/DTD/svg11.dtd">
<svg version="1.1" id="Layer_1" xmlns="http://www.w3.org/2000/svg" xmlns:xlink="http://www.w3.org/1999/xlink" x="0px" y="0px"
	 width="300px" height="300px" viewBox="-442 1 300 300" enable-background="new -442 1 300 300" xml:space="preserve">
<path fill="#444444" d="M-165,262.3l-69.2-69.2c15.9-19.8,24.2-43.8,24.2-69.4c0-29.9-11.5-57.9-32.4-78.7
	c-20.9-20.9-48.8-32.4-78.7-32.4c-29.9,0-57.9,11.5-78.7,32.4c-20.9,20.9-32.4,48.8-32.4,78.7c0,29.9,11.5,57.9,32.4,78.7
	c20.9,20.9,48.8,32.4,78.7,32.4c25.6,0,49.6-8.4,69.4-24.2l69.2,69.2c2,2,5,3.2,8.3,3.2c3.2,0,6.2-1.1,8.2-3.1
	c2.9-2.4,4.5-5.4,4.6-8.7C-161.1,267.9-162.4,264.8-165,262.3z M-234.5,124.5c0,23.3-8.9,45.1-25.2,61.3
	c-16.2,16.2-38,25.2-61.3,25.2c-22.6,0-45.5-9.4-61.3-25.2c-16.2-16.2-25.2-38-25.2-61.3c0-23.3,8.9-45.1,25.2-61.3
	C-366,47-344.3,38-321,38c23.3,0,45.1,8.9,61.3,25.2C-243.5,79.5-234.5,101.2-234.5,124.5z"/>
<g display="none">
	<g id="svgGrid" display="inline">
		<line fill="none" stroke="#B35047" x1="-422" y1="0.1" x2="-422" y2="300.5"/>
		<line fill="none" stroke="#B35047" x1="-402" y1="0.1" x2="-402" y2="300.5"/>
		<line fill="none" stroke="#B35047" x1="-382" y1="0.1" x2="-382" y2="300.5"/>
		<line fill="none" stroke="#B35047" x1="-361.9" y1="0.1" x2="-361.9" y2="300.5"/>
		<line fill="none" stroke="#B35047" x1="-341.9" y1="0.1" x2="-341.9" y2="300.5"/>
		<line fill="none" stroke="#B35047" x1="-321.9" y1="0.1" x2="-321.9" y2="300.5"/>
		<line fill="none" stroke="#B35047" x1="-301.9" y1="0.1" x2="-301.9" y2="300.5"/>
		<line fill="none" stroke="#B35047" x1="-281.9" y1="0.1" x2="-281.9" y2="300.4"/>
		<line fill="none" stroke="#B35047" x1="-261.9" y1="0.1" x2="-261.9" y2="300.5"/>
		<line fill="none" stroke="#B35047" x1="-241.8" y1="0.1" x2="-241.8" y2="300.5"/>
		<line fill="none" stroke="#B35047" x1="-221.8" y1="0.1" x2="-221.8" y2="300.5"/>
		<line fill="none" stroke="#B35047" x1="-201.8" y1="0.1" x2="-201.8" y2="300.5"/>
		<line fill="none" stroke="#B35047" x1="-181.8" y1="0.1" x2="-181.8" y2="300.5"/>
		<line fill="none" stroke="#B35047" x1="-161.8" y1="0.1" x2="-161.8" y2="300.5"/>
		<line fill="none" stroke="#B35047" x1="-442" y1="20.1" x2="-142" y2="20.1"/>
		<line fill="none" stroke="#B35047" x1="-442" y1="40.2" x2="-142" y2="40.2"/>
		<line fill="none" stroke="#B35047" x1="-442" y1="60.2" x2="-142" y2="60.2"/>
		<line fill="none" stroke="#B35047" x1="-442" y1="80.2" x2="-142" y2="80.2"/>
		<line fill="none" stroke="#B35047" x1="-442" y1="100.2" x2="-142" y2="100.2"/>
		<line fill="none" stroke="#B35047" x1="-442" y1="120.2" x2="-142" y2="120.2"/>
		<line fill="none" stroke="#B35047" x1="-442" y1="140.2" x2="-142" y2="140.2"/>
		<line fill="none" stroke="#B35047" x1="-442" y1="160.2" x2="-142" y2="160.2"/>
		<line fill="none" stroke="#B35047" x1="-442" y1="180.3" x2="-142" y2="180.3"/>
		<line fill="none" stroke="#B35047" x1="-442" y1="200.3" x2="-142" y2="200.3"/>
		<line fill="none" stroke="#B35047" x1="-442" y1="220.3" x2="-142" y2="220.3"/>
		<line fill="none" stroke="#B35047" x1="-442" y1="240.3" x2="-142" y2="240.3"/>
		<line fill="none" stroke="#B35047" x1="-442" y1="260.4" x2="-142" y2="260.4"/>
		<line fill="none" stroke="#B35047" x1="-442" y1="280.4" x2="-142" y2="280.4"/>
		<path fill="none" stroke="#B35047" d="M-142,301.9"/>
		<path fill="none" stroke="#B35047" d="M-442,300.4"/>
	</g>
	
		<circle id="circle" display="inline" fill="none" stroke="#0B16F4" stroke-width="2" stroke-miterlimit="10" cx="-292" cy="150.9" r="149.2"/>
	
		<rect id="square" x="-422" y="20" display="inline" fill="none" stroke="#0BF40B" stroke-width="2" stroke-miterlimit="10" width="260.2" height="261"/>
</g>
</svg>
