<?xml version="1.0" encoding="UTF-8" standalone="no"?>
<svg width="30px" height="25px" viewBox="0 0 30 25" version="1.1" xmlns="http://www.w3.org/2000/svg" xmlns:xlink="http://www.w3.org/1999/xlink" xmlns:sketch="http://www.bohemiancoding.com/sketch/ns">
    <!-- Generator: Sketch 3.4 (15575) - http://www.bohemiancoding.com/sketch -->
    <title>Slice 1</title>
    <desc>Created with Sketch.</desc>
    <defs></defs>
    <g id="Page-1" stroke="none" stroke-width="1" fill="none" fill-rule="evenodd" sketch:type="MSPage">
        <path d="M27.6126018,12.3891443 C27.3851382,5.85116201 21.8718653,0.619012231 15.1039309,0.619012231 C9.2332021,0.619012231 4.30653063,4.55588984 2.95501017,9.86697311 L4.74296323,9.86697311 C6.04952818,5.4951757 10.1936855,2.30045966 15.1039309,2.30045966 C20.9183366,2.30045966 25.6585477,6.78003183 25.8850884,12.3891443 L27.6126018,12.3891443 Z M27.2528516,15.7520391 C25.9013311,21.0631224 20.9746596,25 15.1039309,25 C8.33599642,25 2.82272358,19.7678502 2.59525994,13.229868 L4.32277329,13.229868 C4.54931404,18.8389804 9.28952513,23.3185526 15.1039309,23.3185526 C20.0141763,23.3185526 24.1583336,20.1238365 25.4648985,15.7520391 L27.2528516,15.7520391 Z" id="Oval-1" fill="#000000" sketch:type="MSShapeGroup"></path>
        <path d="M28.5610616,13.0172669 L28.57161,13.019509 L29.9699803,6.44069396 L28.2813639,6.08176747 L27.2291336,11.0321218 L22.1527363,9.95310019 L21.8031437,11.597804 L28.5576091,13.0335099 L28.5610616,13.0172669 Z" id="Rectangle-1" fill="#000000" sketch:type="MSShapeGroup"></path>
        <path d="M2.82007008,12.6007225 L1.97314934,12.3737908 L0.0147915534,19.6824815 L1.68230895,20.1292915 L3.21264789,14.4179888 L9.06212084,15.9853504 L9.49731146,14.3611969 L2.82724185,12.5739571 L2.82007008,12.6007225 Z" id="Rectangle-1" fill="#000000" sketch:type="MSShapeGroup"></path>
    </g>
</svg>