<?xml version="1.0" encoding="utf-8"?>
<!-- Generator: Adobe Illustrator 18.1.1, SVG Export Plug-In . SVG Version: 6.00 Build 0)  -->
<!DOCTYPE svg PUBLIC "-//W3C//DTD SVG 1.1//EN" "http://www.w3.org/Graphics/SVG/1.1/DTD/svg11.dtd">
<svg version="1.1" id="Layer_1" xmlns:sketch="http://www.bohemiancoding.com/sketch/ns"
	 xmlns="http://www.w3.org/2000/svg" xmlns:xlink="http://www.w3.org/1999/xlink" x="0px" y="0px" width="300px" height="300px"
	 viewBox="-174 0 300 300" enable-background="new -174 0 300 300" xml:space="preserve">
<g display="none">
	<g id="svgGrid" display="inline">
		<line fill="none" stroke="#B35047" x1="-154" y1="-1.9" x2="-154" y2="298.5"/>
		<line fill="none" stroke="#B35047" x1="-134" y1="-1.9" x2="-134" y2="298.5"/>
		<line fill="none" stroke="#B35047" x1="-114" y1="-1.9" x2="-114" y2="298.5"/>
		<line fill="none" stroke="#B35047" x1="-93.9" y1="-1.9" x2="-93.9" y2="298.5"/>
		<line fill="none" stroke="#B35047" x1="-73.9" y1="-1.9" x2="-73.9" y2="298.5"/>
		<line fill="none" stroke="#B35047" x1="-53.9" y1="-1.9" x2="-53.9" y2="298.5"/>
		<line fill="none" stroke="#B35047" x1="-33.9" y1="-1.9" x2="-33.9" y2="298.5"/>
		<line fill="none" stroke="#B35047" x1="-13.9" y1="-1.9" x2="-13.9" y2="298.4"/>
		<line fill="none" stroke="#B35047" x1="6.1" y1="-1.9" x2="6.1" y2="298.5"/>
		<line fill="none" stroke="#B35047" x1="26.2" y1="-1.9" x2="26.2" y2="298.5"/>
		<line fill="none" stroke="#B35047" x1="46.2" y1="-1.9" x2="46.2" y2="298.5"/>
		<line fill="none" stroke="#B35047" x1="66.2" y1="-1.9" x2="66.2" y2="298.5"/>
		<line fill="none" stroke="#B35047" x1="86.2" y1="-1.9" x2="86.2" y2="298.5"/>
		<line fill="none" stroke="#B35047" x1="106.2" y1="-1.9" x2="106.2" y2="298.5"/>
		<line fill="none" stroke="#B35047" x1="-174" y1="18.1" x2="126" y2="18.1"/>
		<line fill="none" stroke="#B35047" x1="-174" y1="38.2" x2="126" y2="38.2"/>
		<line fill="none" stroke="#B35047" x1="-174" y1="58.2" x2="126" y2="58.2"/>
		<line fill="none" stroke="#B35047" x1="-174" y1="78.2" x2="126" y2="78.2"/>
		<line fill="none" stroke="#B35047" x1="-174" y1="98.2" x2="126" y2="98.2"/>
		<line fill="none" stroke="#B35047" x1="-174" y1="118.2" x2="126" y2="118.2"/>
		<line fill="none" stroke="#B35047" x1="-174" y1="138.2" x2="126" y2="138.2"/>
		<line fill="none" stroke="#B35047" x1="-174" y1="158.2" x2="126" y2="158.2"/>
		<line fill="none" stroke="#B35047" x1="-174" y1="178.3" x2="126" y2="178.3"/>
		<line fill="none" stroke="#B35047" x1="-174" y1="198.3" x2="126" y2="198.3"/>
		<line fill="none" stroke="#B35047" x1="-174" y1="218.3" x2="126" y2="218.3"/>
		<line fill="none" stroke="#B35047" x1="-174" y1="238.3" x2="126" y2="238.3"/>
		<line fill="none" stroke="#B35047" x1="-174" y1="258.4" x2="126" y2="258.4"/>
		<line fill="none" stroke="#B35047" x1="-174" y1="278.4" x2="126" y2="278.4"/>
		<path fill="none" stroke="#B35047" d="M126,299.9"/>
		<path fill="none" stroke="#B35047" d="M-174,298.4"/>
	</g>
	
		<circle id="circle" display="inline" fill="none" stroke="#0B16F4" stroke-width="2" stroke-miterlimit="10" cx="-24" cy="148.9" r="149.2"/>
	
		<rect id="square" x="-154" y="18" display="inline" fill="none" stroke="#0BF40B" stroke-width="2" stroke-miterlimit="10" width="260.2" height="261"/>
</g>
<g>
	<g display="none">
		<rect x="-134" y="98" display="inline" fill="#444444" width="221.2" height="20"/>
	</g>
	<g display="none">
		<path display="inline" fill="#444444" d="M29.7,300.6H-78c-20.1,0-36.5-16.4-36.5-36.5V104.7c0-4.2,180.7,0,180.7,0v159.4
			C66.2,284.2,49.8,300.6,29.7,300.6z M-94.5,112v152.1c0,9.1,7.4,16.5,16.5,16.5H29.7c9.1,0,16.5-7.4,16.5-16.5V112.5
			C46.2,103.4-94.5,102.9-94.5,112z"/>
	</g>
	<g>
		<rect x="-34" y="150.2" fill="#444444" width="20" height="97.3"/>
		<rect x="-74" y="150.2" fill="#444444" width="20" height="97.3"/>
		<rect x="6" y="150.2" fill="#444444" width="20" height="97.3"/>
		<path fill="#444444" d="M-114.5,100.5v170.9c0,16.3,12.2,28.6,28.3,28.6H39.4c16.2,0,27.4-12.3,27.4-28.6V100.5H-114.5z
			 M39.4,278.9H-86.2c-4.5,0-7.5-3-7.5-7.5V118.6H45.8v152.8h0.1C45.9,276,44,278.9,39.4,278.9z"/>
	</g>
	<path fill="#444444" d="M41.6,97l-12-28.7c-1.8-4.4-5-8.2-9.7-11.3s-9.4-4.7-14.2-4.7h-57.4c-4.8,0-9.5,1.6-14.2,4.7
		c-4.7,3.1-7.9,6.9-9.7,11.3l-12,28.7H-134v22H87.2V97H41.6z M-54.4,77.3c0.8-1.1,1.9-1.7,3.1-2H5.6c1.2,0.2,2.2,0.9,3.1,2L16.8,97
		h-79.4L-54.4,77.3z"/>
</g>
</svg>
