<?xml version="1.0" encoding="UTF-8" standalone="no"?>
<svg width="22px" height="30px" viewBox="0 0 22 30" version="1.1" xmlns="http://www.w3.org/2000/svg" xmlns:xlink="http://www.w3.org/1999/xlink" xmlns:sketch="http://www.bohemiancoding.com/sketch/ns">
    <!-- Generator: Sketch 3.4 (15575) - http://www.bohemiancoding.com/sketch -->
    <title>Rectangle 14</title>
    <desc>Created with Sketch.</desc>
    <defs></defs>
    <g id="Page-1" stroke="none" stroke-width="1" fill="none" fill-rule="evenodd" sketch:type="MSPage">
        <path d="M7,0 L15,0 L15,30 L7,30 L7,0 Z M8,1 L14,1 L14,29 L8,29 L8,1 Z M8,10 L11,10 L11,11 L8,11 L8,10 Z M8,13 L9.8,13 L9.8,14 L8,14 L8,13 Z M8,19 L11,19 L11,20 L8,20 L8,19 Z M8,25 L9.8,25 L9.8,26 L8,26 L8,25 Z M8,16 L9.8,16 L9.8,17 L8,17 L8,16 Z M8,22 L9.8,22 L9.8,23 L8,23 L8,22 Z M8,4 L9.8,4 L9.8,5 L8,5 L8,4 Z M8,7 L9.8,7 L9.8,8 L8,8 L8,7 Z" id="Rectangle-14" fill="#000000" sketch:type="MSShapeGroup" transform="translate(11.000000, 15.000000) rotate(-330.000000) translate(-11.000000, -15.000000) "></path>
    </g>
</svg>