<?xml version="1.0" encoding="UTF-8" standalone="no"?>
<svg width="772px" height="271px" viewBox="0 0 772 271" version="1.1" xmlns="http://www.w3.org/2000/svg" xmlns:xlink="http://www.w3.org/1999/xlink" xmlns:sketch="http://www.bohemiancoding.com/sketch/ns">
    <!-- Generator: Sketch 3.4 (15575) - http://www.bohemiancoding.com/sketch -->
    <title>Flinn Logo 8.5x11 (1)</title>
    <desc>Created with Sketch.</desc>
    <defs>
        <path id="path-1" d="M0.06,0.224 L771.768,0.224 L771.768,270.94 L0.06,270.94"></path>
        <path id="path-3" d="M0.06,0.224 L771.768,0.224 L771.768,270.94 L0.06,270.94"></path>
    </defs>
    <g id="Page-1" stroke="none" stroke-width="1" fill="none" fill-rule="evenodd" sketch:type="MSPage">
        <g id="Flinn-Logo-8.5x11-(1)" sketch:type="MSLayerGroup">
            <path d="M111.565,244.864 C112.786,246.229 113.805,247.307 116.179,248.598 C119.372,250.291 122.628,250.909 125.41,250.909 C130.16,250.909 134.233,248.664 134.233,245.336 C134.233,241.536 129.417,240.93 125.885,240.454 C123.236,240.114 120.593,239.774 118.014,239.233 C115.096,238.623 105.116,236.516 105.116,226.204 C105.116,213.85 116.114,210.186 124.391,210.186 C135.455,210.186 141.428,215.545 145.566,219.28 L136.747,225.59 C135.252,224.096 133.895,222.809 131.995,221.719 C130.297,220.774 127.243,219.625 124.188,219.625 C119.437,219.625 117.062,222.334 117.062,224.643 C117.062,228.305 121.134,228.848 123.17,229.121 C128.262,229.729 135.115,231.022 137.83,231.969 C143.326,234.004 146.113,238.28 146.113,243.711 C146.113,247.17 144.821,250.975 142.308,253.893 C137.961,258.912 131.042,260.336 124.325,260.336 C110.821,260.336 105.457,254.094 102.473,250.635 L111.565,244.864" id="Fill-1" fill="#450E42" sketch:type="MSShapeGroup"></path>
            <path d="M202.985,248.325 C201.222,251.112 199.524,253.821 195.714,256.471 C193.684,257.899 188.998,260.682 182.347,260.682 C169.657,260.682 159.41,251.444 159.41,235.231 C159.41,221.047 169.044,209.852 182.621,209.852 C188.122,209.852 193.011,211.746 196.607,214.598 C199.93,217.243 201.496,219.885 202.848,222.262 L193.35,227.014 C192.666,225.454 191.86,223.823 189.748,222.061 C187.438,220.231 185.133,219.684 183.168,219.684 C175.427,219.684 171.354,226.881 171.354,234.885 C171.354,245.409 176.719,250.635 183.168,250.635 C189.408,250.635 191.921,246.287 193.547,243.506 L202.985,248.325" id="Fill-2" fill="#450E42" sketch:type="MSShapeGroup"></path>
            <path d="M214.797,211.342 L226.737,211.342 L226.737,259.256 L214.797,259.256 L214.797,211.342 Z" id="Fill-3" fill="#450E42" sketch:type="MSShapeGroup"></path>
            <path d="M245.738,211.342 L281.168,211.342 L281.168,220.637 L257.683,220.637 L257.683,229.325 L279.602,229.325 L279.602,238.416 L257.683,238.416 L257.683,249.819 L283.264,249.819 L283.264,259.256 L245.738,259.256 L245.738,211.342" id="Fill-4" fill="#450E42" sketch:type="MSShapeGroup"></path>
            <path d="M299.155,211.342 L310.892,211.342 L321.271,228.985 C325.07,235.702 326.22,237.881 328.464,242.08 L327.916,211.342 L339.397,211.342 L339.397,259.256 L327.655,259.256 L318.698,244.121 C314.353,236.993 313.536,235.5 310.279,229.121 L310.618,259.256 L299.155,259.256 L299.155,211.342" id="Fill-5" fill="#450E42" sketch:type="MSShapeGroup"></path>
            <path d="M351.336,211.276 L388.259,211.276 L388.259,220.774 L375.833,220.774 L375.833,259.256 L363.828,259.256 L363.828,220.774 L351.336,220.774 L351.336,211.276" id="Fill-6" fill="#450E42" sketch:type="MSShapeGroup"></path>
            <path d="M400.34,211.342 L412.287,211.342 L412.287,259.256 L400.34,259.256 L400.34,211.342 Z" id="Fill-7" fill="#450E42" sketch:type="MSShapeGroup"></path>
            <path d="M468.002,211.342 L468.002,220.565 L443.166,220.565 L443.166,230.61 L466.031,230.61 L466.031,239.911 L443.166,239.911 L443.166,259.256 L431.216,259.256 L431.216,211.342 L468.002,211.342" id="Fill-8" fill="#450E42" sketch:type="MSShapeGroup"></path>
            <path d="M480.419,211.342 L492.363,211.342 L492.363,259.256 L480.419,259.256 L480.419,211.342 Z" id="Fill-9" fill="#450E42" sketch:type="MSShapeGroup"></path>
            <g id="Group-13">
                <mask id="mask-2" sketch:name="Clip 11" fill="white">
                    <use xlink:href="#path-1"></use>
                </mask>
                <g id="Clip-11"></g>
                <path d="M551.541,248.325 C549.777,251.112 548.08,253.821 544.291,256.471 C542.25,257.899 537.558,260.682 530.918,260.682 C518.218,260.682 507.976,251.444 507.976,235.231 C507.976,221.047 517.615,209.852 531.174,209.852 C536.681,209.852 541.566,211.746 545.166,214.598 C548.49,217.243 550.05,219.885 551.408,222.262 L541.904,227.014 C541.225,225.454 540.416,223.823 538.308,222.061 C536.009,220.231 533.693,219.684 531.722,219.684 C523.993,219.684 519.916,226.881 519.916,234.885 C519.916,245.409 525.279,250.635 531.722,250.635 C537.963,250.635 540.48,246.287 542.113,243.506 L551.541,248.325" id="Fill-10" fill="#450E42" sketch:type="MSShapeGroup" mask="url(#mask-2)"></path>
                <path d="M561.865,247.854 L572.712,247.854 L572.712,256.536 C572.712,259.12 572.648,261.895 571.357,264.485 C569.058,268.957 564.775,270.178 561.996,271 L561.996,266.182 C565.048,264.955 565.734,262.854 565.992,259.256 L561.865,259.256 L561.865,247.854" id="Fill-12" fill="#450E42" sketch:type="MSShapeGroup" mask="url(#mask-2)"></path>
            </g>
            <path d="M597.283,211.342 L609.226,211.342 L609.226,259.256 L597.283,259.256 L597.283,211.342 Z" id="Fill-14" fill="#450E42" sketch:type="MSShapeGroup"></path>
            <path d="M626.679,211.342 L638.416,211.342 L648.794,228.985 C652.595,235.702 653.744,237.881 655.988,242.08 L655.441,211.342 L666.914,211.342 L666.914,259.256 L655.183,259.256 L646.222,244.121 C641.88,236.993 641.058,235.5 637.802,229.121 L638.142,259.256 L626.679,259.256 L626.679,211.342" id="Fill-15" fill="#450E42" sketch:type="MSShapeGroup"></path>
            <path d="M726.035,248.325 C724.267,251.112 722.572,253.821 718.765,256.471 C716.73,257.899 712.044,260.682 705.398,260.682 C692.708,260.682 682.462,251.444 682.462,235.231 C682.462,221.047 692.095,209.852 705.671,209.852 C711.169,209.852 716.056,211.746 719.654,214.598 C722.97,217.243 724.541,219.885 725.894,222.262 L716.402,227.014 C715.71,225.454 714.908,223.823 712.8,222.061 C710.49,220.231 708.191,219.684 706.218,219.684 C698.466,219.684 694.406,226.881 694.406,234.885 C694.406,245.409 699.759,250.635 706.218,250.635 C712.46,250.635 714.978,246.287 716.587,243.506 L726.035,248.325" id="Fill-16" fill="#450E42" sketch:type="MSShapeGroup"></path>
            <g id="Group-20">
                <mask id="mask-4" sketch:name="Clip 18" fill="white">
                    <use xlink:href="#path-3"></use>
                </mask>
                <g id="Clip-18"></g>
                <path d="M597.447,174.553 L764.761,174.553 L764.761,261.211" id="Stroke-17" stroke="#008F5F" stroke-width="14.014" sketch:type="MSShapeGroup" mask="url(#mask-4)"></path>
                <path d="M0.881,1.098 C30.283,-0.216 61.015,0.226 90.85,0.665 L100.08,38.409 C79.442,39.286 62.325,39.719 42.14,39.286 L40.821,41.475 L41.259,64.746 C58.378,66.931 77.247,64.746 94.375,66.497 L85.147,104.682 C72.867,106.881 56.188,105.119 41.259,105.995 C40.821,127.939 39.053,150.764 42.14,171.403 L41.259,173.592 L7.035,198.153 C1.324,189.385 1.324,176.661 0,166.123 L0.881,1.098" id="Fill-19" fill="#008F5F" sketch:type="MSShapeGroup" mask="url(#mask-4)"></path>
            </g>
            <path d="M113.695,1.54 C129.055,0.665 138.706,1.098 152.32,1.54 C153.63,44.108 152.742,87.563 153.197,130.586 L154.959,132.326 L204.54,132.775 C203.226,146.379 198.835,159.543 195.321,172.719 C163.285,173.592 141.783,174.467 113.695,173.159 L112.825,166.123 L113.695,1.54" id="Fill-21" fill="#008F5F" sketch:type="MSShapeGroup"></path>
            <path d="M219.49,1.54 C232.217,0.665 246.259,1.098 258.98,1.54 L259.424,11.635 L259.424,172.719 C246.259,173.592 232.217,173.592 219.49,172.719 L219.046,169.205 L219.49,1.54" id="Fill-22" fill="#008F5F" sketch:type="MSShapeGroup"></path>
            <path d="M278.748,2.854 C291.476,1.979 305.089,1.098 317.802,2.422 C331.848,19.979 344.591,38.409 358.639,55.516 L359.52,55.516 C360.829,38.409 359.52,18.653 360.391,2.422 C373.55,1.54 387.602,1.54 400.326,2.422 L400.326,173.159 C388.479,174.909 373.988,174.034 361.71,173.592 C359.52,159.543 361.71,142.42 359.941,127.06 C346.349,109.078 333.172,90.202 319.136,73.083 C319.136,104.682 317.384,140.664 320.45,172.719 C309.918,181.934 297.623,191.575 285.328,198.608 C279.624,187.2 279.624,173.592 278.31,159.989 L278.748,2.854" id="Fill-23" fill="#008F5F" sketch:type="MSShapeGroup"></path>
            <path d="M420.524,2.854 C432.382,1.54 445.558,2.422 458.291,1.979 L499.535,55.972 L500.847,55.516 L501.297,2.422 C514.025,1.098 527.616,1.54 540.787,1.979 L541.236,20.854 L541.236,173.592 C528.931,174.909 515.781,174.034 503.038,174.034 L501.297,171.834 L500.4,126.622 C486.812,109.078 474.945,90.629 460.918,73.083 L460.042,73.516 C460.464,106.433 458.713,141.55 461.341,173.592 C451.262,183.686 438.53,191.141 427.111,199.483 C420.524,188.946 421.407,174.909 420.091,162.172 L420.524,2.854" id="Fill-24" fill="#008F5F" sketch:type="MSShapeGroup"></path>
        </g>
    </g>
</svg>