<?xml version="1.0" encoding="UTF-8" standalone="no"?>
<!-- Generated by Microsoft Visio 11.0, SVG Export, v1.0 AP6205.svg Page-1 -->

<svg
   xmlns:v="http://schemas.microsoft.com/visio/2003/SVGExtensions/"
   xmlns:dc="http://purl.org/dc/elements/1.1/"
   xmlns:cc="http://creativecommons.org/ns#"
   xmlns:rdf="http://www.w3.org/1999/02/22-rdf-syntax-ns#"
   xmlns:svg="http://www.w3.org/2000/svg"
   xmlns="http://www.w3.org/2000/svg"
   xmlns:xlink="http://www.w3.org/1999/xlink"
   xmlns:sodipodi="http://sodipodi.sourceforge.net/DTD/sodipodi-0.dtd"
   xmlns:inkscape="http://www.inkscape.org/namespaces/inkscape"
   width="11in"
   height="8.5in"
   viewBox="0 0 792 612"
   xml:space="preserve"
   color-interpolation-filters="sRGB"
   class="st1"
   id="svg3336"
   version="1.1"
   inkscape:version="0.91 r13725"
   sodipodi:docname="AP6205-V2.svg"><metadata
     id="metadata3425"><rdf:RDF><cc:Work
         rdf:about=""><dc:format>image/svg+xml</dc:format><dc:type
           rdf:resource="http://purl.org/dc/dcmitype/StillImage" /><dc:title></dc:title></cc:Work></rdf:RDF></metadata><sodipodi:namedview
     pagecolor="#ffffff"
     bordercolor="#666666"
     borderopacity="1"
     objecttolerance="10"
     gridtolerance="10"
     guidetolerance="10"
     inkscape:pageopacity="0"
     inkscape:pageshadow="2"
     inkscape:window-width="1360"
     inkscape:window-height="705"
     id="namedview3423"
     showgrid="false"
     inkscape:snap-bbox="true"
     inkscape:snap-global="true"
     inkscape:zoom="0.70065359"
     inkscape:cx="495"
     inkscape:cy="382.5"
     inkscape:window-x="-8"
     inkscape:window-y="-8"
     inkscape:window-maximized="1"
     inkscape:current-layer="svg3336" /><v:documentProperties
     v:langID="1033"
     v:viewMarkup="false" /><style
     type="text/css"
     id="style3338"><![CDATA[
		.st1 {fill:none;fill-rule:evenodd;font-size:12;overflow:visible;stroke-linecap:square;stroke-miterlimit:3}
		.st2 {stroke:#000000;stroke-linecap:round;stroke-linejoin:round;stroke-width:0.24}
		.st3 {fill:#ffffff;stroke:#000000;stroke-linecap:round;stroke-linejoin:round;stroke-width:0.24}
		.st4 {fill:#ffffff;stroke:#000000;stroke-dasharray:1.68,1.2;stroke-linecap:round;stroke-linejoin:round;stroke-width:0.24}
		.st5 {stroke:#000000;stroke-dasharray:1.68,1.2;stroke-linecap:round;stroke-linejoin:round;stroke-width:0.24}
	]]></style><defs
     id="Masters"><symbol
       id="master0"
       v:mID="0"
       class="st1"><title
         id="title3342">2946K</title><g
         id="group1-2"
         v:mID="1"
         v:groupContext="group"><title
           id="title3345">2946K</title><g
           id="group2-3"
           transform="translate(612,462) rotate(90)"
           v:mID="2"
           v:groupContext="group"><title
             id="title3348">AP6205.56</title><g
             id="group3-4"
             transform="translate(-462,612) rotate(-90)"
             v:mID="3"
             v:groupContext="group"><title
               id="title3351">Sheet.3</title><g
               id="master-shape4-5"
               v:mID="4"
               v:groupContext="shape"
               transform="translate(36,0)"><title
                 id="title3354">Sheet.4</title><path
                 d="M0 612 L216 612"
                 class="st2"
                 id="path3356" /></g><g
               id="master-shape5-8"
               v:mID="5"
               v:groupContext="shape"
               transform="translate(839.732,801.831) rotate(115.641)"><title
                 id="title3359">Sheet.5</title><path
                 d="M0 612 L83.19 612"
                 class="st2"
                 id="path3361" /></g><g
               id="master-shape6-11"
               v:mID="6"
               v:groupContext="shape"
               transform="translate(551.732,272.169) rotate(64.359)"><title
                 id="title3364">Sheet.6</title><path
                 d="M0 612 L83.19 612"
                 class="st2"
                 id="path3366" /></g><g
               id="master-shape7-14"
               v:mID="7"
               v:groupContext="shape"
               transform="translate(426.704,1004.79) rotate(152.488)"><title
                 id="title3369">Sheet.7</title><path
                 d="M0 612 L162.36 612"
                 class="st2"
                 id="path3371" /></g><g
               id="master-shape8-17"
               v:mID="8"
               v:groupContext="shape"
               transform="translate(426.704,-80.7914) rotate(27.512)"><title
                 id="title3374">Sheet.8</title><path
                 d="M0 612 L162.36 612"
                 class="st2"
                 id="path3376" /></g></g><g
             id="master-shape9-20"
             v:mID="9"
             v:groupContext="shape"
             transform="translate(101.562,-132)"><title
               id="title3379">Rectangle.123</title><v:userDefs><v:ud
                 v:nameU="visVersion"
                 v:val="VT0(10):26" /></v:userDefs><rect
               x="0"
               y="588"
               width="37.5"
               height="24"
               class="st3"
               id="rect3381" /></g></g><g
           id="group10-22"
           transform="translate(128.625,-8.625)"
           v:mID="10"
           v:groupContext="group"><title
             id="title3384">L3 Sink</title><g
             id="master-shape11-23"
             v:mID="11"
             v:groupContext="shape"><title
               id="title3387">Rectangle.363</title><v:userDefs><v:ud
                 v:nameU="visVersion"
                 v:val="VT0(12):26" /></v:userDefs><rect
               x="0"
               y="569.25"
               width="30.75"
               height="42.75"
               class="st3"
               id="rect3389" /></g><g
             id="master-shape12-25"
             v:mID="12"
             v:groupContext="shape"
             transform="translate(3.375,-3.375)"><title
               id="title3392">Rectangle.364</title><v:userDefs><v:ud
                 v:nameU="visVersion"
                 v:val="VT0(12):26" /></v:userDefs><rect
               x="0"
               y="576"
               width="24"
               height="36"
               class="st3"
               id="rect3394" /></g></g><g
           id="master-shape13-27"
           v:mID="13"
           v:groupContext="shape"
           transform="translate(45,-3)"><title
             id="title3397">Rectangle.52</title><v:userDefs><v:ud
               v:nameU="visVersion"
               v:val="VT0(12):26" /></v:userDefs><path
             d="M0 612 L72 612 L72 564 L0 564 L0 612 Z"
             class="st4"
             id="path3399" /></g><g
           id="master-shape14-29"
           v:mID="14"
           v:groupContext="shape"
           transform="translate(171,-3)"><title
             id="title3402">Rectangle.23</title><v:userDefs><v:ud
               v:nameU="visVersion"
               v:val="VT0(12):26" /></v:userDefs><path
             d="M0 612 L72 612 L72 564 L0 564 L0 612 Z"
             class="st4"
             id="path3404" /></g><g
           id="master-shape15-31"
           v:mID="15"
           v:groupContext="shape"
           transform="translate(117,-3)"><title
             id="title3407">Sheet.15</title><path
             d="M0 612 L54 612"
             class="st5"
             id="path3409" /></g><g
           id="master-shape16-34"
           v:mID="16"
           v:groupContext="shape"
           transform="translate(117,-51)"><title
             id="title3412">Sheet.16</title><path
             d="M0 612 L54 612"
             class="st5"
             id="path3414" /></g></g></symbol></defs><g
     v:mID="0"
     v:index="1"
     v:groupContext="foregroundPage"
     id="g3416"><title
       id="title3418">Page-1</title><v:pageProperties
       v:drawingScale="12"
       v:pageScale="0.5"
       v:drawingUnits="19"
       v:shadowOffsetX="9"
       v:shadowOffsetY="-9" /><use
       id="shape1-1"
       v:mID="1"
       xlink:href="#master0"
       transform="translate(243,-255)"><title
         id="title3421">2946K</title></use></g><path
     style="fill:#c8beb7;stroke:#000000;stroke-width:2.59581256;stroke-opacity:1"
     d="M 83.429776,546.54818 C 74.585389,518.45027 53.574348,452.68416 36.738563,400.40127 19.902778,348.11837 7.1708784,303.82563 8.4454301,301.97292 10.80334,298.54541 349.42164,32.835948 372.78338,16.081546 L 385.56573,6.9144002 571.17282,152.22112 c 102.08389,79.91865 186.83523,147.15178 188.33628,149.40693 1.62384,2.43966 -16.01198,63.14246 -43.54469,149.88127 l -46.27386,145.78097 -285.09006,0.17246 -285.090034,0.17244 -16.08068,-51.0871 z m 56.549344,38.99749 c -2.07804,-1.25975 -5.47846,-1.25975 -7.5565,0 -2.07805,1.25974 -0.37783,2.29045 3.77825,2.29045 4.15607,0 5.85629,-1.03071 3.77825,-2.29045 z m 15.11302,0 c -2.07804,-1.25975 -5.47846,-1.25975 -7.55652,0 -2.07802,1.25974 -0.3778,2.29045 3.77827,2.29045 4.15607,0 5.8563,-1.03071 3.77825,-2.29045 z m 15.11301,0 c -2.07801,-1.25975 -5.47846,-1.25975 -7.55649,0 -2.07805,1.25974 -0.37783,2.29045 3.77826,2.29045 4.15608,0 5.85629,-1.03071 3.77823,-2.29045 z m 15.11303,0 c -2.07804,-1.25975 -5.47846,-1.25975 -7.5565,0 -2.07805,1.25974 -0.37782,2.29045 3.77825,2.29045 4.15607,0 5.85628,-1.03071 3.77825,-2.29045 z m 15.11303,0 c -2.07803,-1.25975 -5.47847,-1.25975 -7.5565,0 -2.07805,1.25974 -0.37783,2.29045 3.77824,2.29045 4.15609,0 5.8563,-1.03071 3.77826,-2.29045 z m 66.36505,-0.36829 c -12.12536,-0.86418 -31.16777,-0.85836 -42.31647,0.0122 -11.14867,0.87118 -1.2279,1.57825 22.04613,1.57116 23.27407,-0.009 32.39571,-0.71989 20.27034,-1.58404 l 0,-7.4e-4 z m 33.38089,0.36829 c -2.07802,-1.25975 -5.47847,-1.25975 -7.5565,0 -2.07804,1.25974 -0.37784,2.29045 3.77824,2.29045 4.15611,0 5.85631,-1.03071 3.77826,-2.29045 z m 14.36948,-59.42471 -1.49919,-62.44742 -0.86281,58.85424 c -0.58752,40.07581 -2.03803,59.97607 -4.54602,62.37028 -2.45003,2.33882 -1.65924,3.5418 2.36201,3.59316 5.82662,0.0744 5.99102,-2.18076 4.54601,-62.37026 z m 15.85657,59.42471 c -2.07805,-1.25975 -5.47846,-1.25975 -7.55653,0 -2.07801,1.25974 -0.3778,2.29045 3.77828,2.29045 4.15609,0 5.85629,-1.03071 3.77825,-2.29045 z m 15.11301,0 c -2.07802,-1.25975 -5.47848,-1.25975 -7.5565,0 -2.07804,1.25974 -0.37783,2.29045 3.77827,2.29045 4.15608,0 5.85628,-1.03071 3.77823,-2.29045 z m 15.11303,0 c -2.07805,-1.25975 -5.47846,-1.25975 -7.55651,0 -2.07803,1.25974 -0.37782,2.29045 3.77826,2.29045 4.15607,0 5.85631,-1.03071 3.77825,-2.29045 z m 105.79117,-0.38238 c -18.70237,-0.79667 -49.30624,-0.79667 -68.00862,0 -18.70236,0.79673 -3.40042,1.44861 34.00431,1.44861 37.40473,0 52.70667,-0.65188 34.00431,-1.44861 z m 45.33906,0.38238 c -2.07804,-1.25975 -5.47848,-1.25975 -7.55652,0 -2.07802,1.25974 -0.37781,2.29045 3.77827,2.29045 4.15605,0 5.8563,-1.03071 3.77825,-2.29045 z m 15.113,0 c -2.07801,-1.25975 -5.47846,-1.25975 -7.55649,0 -2.07805,1.25974 -0.37783,2.29045 3.77825,2.29045 4.15608,0 5.85631,-1.03071 3.77824,-2.29045 z m 15.11304,0 c -2.07804,-1.25975 -5.47847,-1.25975 -7.55651,0 -2.07805,1.25974 -0.37782,2.29045 3.77826,2.29045 4.15607,0 5.85628,-1.03071 3.77825,-2.29045 z m 15.11302,0 c -2.07804,-1.25975 -5.47847,-1.25975 -7.55652,0 -2.07802,1.25974 -0.37781,2.29045 3.77826,2.29045 4.15609,0 5.85631,-1.03071 3.77826,-2.29045 z m 15.11303,0 c -2.07804,-1.25975 -5.47849,-1.25975 -7.55652,0 -2.07805,1.25974 -0.37783,2.29045 3.77828,2.29045 4.15606,0 5.85628,-1.03071 3.77824,-2.29045 z m 74.1494,-59.43235 -0.66005,-62.43978 -0.93829,60.02177 -0.9383,60.02176 -33.91725,1.4473 -33.91726,1.4474 35.5156,0.97064 35.51562,0.97072 -0.66007,-62.43981 z m -523.2713,38.59914 c -0.83851,-3.12197 -1.52456,-0.56762 -1.52456,5.67636 0,6.244 0.68605,8.79835 1.52456,5.67634 0.8385,-3.122 0.8385,-8.23069 0,-11.3527 z m 332.48647,0 c -0.8385,-3.12197 -1.52456,-0.56762 -1.52456,5.67636 0,6.244 0.68606,8.79835 1.52456,5.67634 0.8385,-3.122 0.8385,-8.23069 0,-11.3527 z m -29.20525,-82.8746 0,-84.00991 13.60173,0 13.60171,0 0.67084,69.25141 0.67083,69.25139 0.91812,-68.95089 c 0.89412,-67.14669 1.09405,-69.00191 7.64133,-70.9035 3.69778,-1.07396 -23.88066,-2.06962 -61.28539,-2.21257 -37.40474,-0.14284 -66.30838,0.7708 -64.23034,2.03053 2.83063,1.71602 3.77827,23.26575 3.77827,85.92195 l 0,83.63147 42.31644,0 42.31646,0 0,-84.00988 z m -303.28122,60.16923 c -0.83851,-3.12199 -1.52456,-0.56764 -1.52456,5.67635 0,6.24397 0.68605,8.79832 1.52456,5.67636 0.8385,-3.122 0.8385,-8.23071 0,-11.35271 z m 332.48647,0 c -0.8385,-3.12199 -1.52456,-0.56764 -1.52456,5.67635 0,6.24397 0.68606,8.79832 1.52456,5.67636 0.8385,-3.122 0.8385,-8.23071 0,-11.35271 z M 176.3287,396.68488 l 52.0616,-1.35652 -53.65123,-1.02075 -53.65124,-1.02073 0.67084,71.52194 0.67084,71.52193 0.9188,-69.14469 0.91883,-69.14464 52.06156,-1.35654 z m 137.18504,49.95961 c -0.83851,-3.12196 -1.5246,-0.56761 -1.5246,5.67635 0,6.24401 0.68609,8.79835 1.5246,5.67635 0.8385,-3.12197 0.8385,-8.2307 0,-11.3527 z m 332.48648,0 c -0.83849,-3.12196 -1.52458,-0.56761 -1.52458,5.67635 0,6.24401 0.68609,8.79835 1.52458,5.67635 0.8385,-3.12197 0.8385,-8.2307 0,-11.3527 z M 313.51374,423.93913 c -0.83851,-3.12199 -1.5246,-0.56762 -1.5246,5.67636 0,6.24395 0.68609,8.79831 1.5246,5.67633 0.8385,-3.12199 0.8385,-8.23069 0,-11.35269 z m 332.48648,0 c -0.83849,-3.12199 -1.52458,-0.56762 -1.52458,5.67636 0,6.24395 0.68609,8.79831 1.52458,5.67633 0.8385,-3.12199 0.8385,-8.23069 0,-11.35269 z M 315.2743,404.63957 c 1.38217,-10.86258 0.8428,-11.31973 -12.49367,-10.58933 -13.16843,0.7212 -13.31223,0.86176 -2.60348,2.54467 8.79461,1.38208 11.33478,3.7552 11.33478,10.5893 0,12.35018 2.04298,10.96842 3.76237,-2.54464 z m 330.61537,-4.69091 c -0.93585,-3.66396 -4.8046,-6.38351 -8.59727,-6.04339 l -6.89571,0.61843 6.80087,1.96796 c 4.46785,1.29287 6.88271,5.36465 7.03949,11.86955 0.13109,5.44586 0.93963,7.2798 1.79643,4.07542 0.85678,-3.20437 0.79207,-8.82395 -0.14379,-12.48797 l 8e-5,0 z m -406.16459,-5.12819 c -2.07805,-1.25975 -5.47848,-1.25975 -7.55653,0 -2.07804,1.25976 -0.37783,2.29045 3.77826,2.29045 4.15608,0 5.85628,-1.03069 3.77827,-2.29045 z m 15.11301,0 c -2.07805,-1.25975 -5.47847,-1.25975 -7.55652,0 -2.07802,1.25976 -0.37782,2.29045 3.77826,2.29045 4.15609,0 5.8563,-1.03069 3.77826,-2.29045 z m 15.11302,0 c -2.07804,-1.25975 -5.47847,-1.25975 -7.5565,0 -2.07804,1.25976 -0.37784,2.29045 3.77825,2.29045 4.15608,0 5.85629,-1.03069 3.77825,-2.29045 z m 15.11303,0 c -2.07805,-1.25975 -5.47846,-1.25975 -7.55653,0 -2.07804,1.25976 -0.3778,2.29045 3.77827,2.29045 4.15608,0 5.8563,-1.03069 3.77826,-2.29045 z m 45.33906,0 c -2.07805,-1.25975 -5.47846,-1.25975 -7.55653,0 -2.07801,1.25976 -0.3778,2.29045 3.77828,2.29045 4.15609,0 5.85629,-1.03069 3.77825,-2.29045 z m 151.13021,0 c -2.07804,-1.25975 -5.47846,-1.25975 -7.5565,0 -2.07804,1.25976 -0.37782,2.29045 3.77825,2.29045 4.15609,0 5.8563,-1.03069 3.77825,-2.29045 z m 15.11304,0 c -2.07804,-1.25975 -5.4785,-1.25975 -7.55651,0 -2.07805,1.25976 -0.37783,2.29045 3.77826,2.29045 4.15607,0 5.85628,-1.03069 3.77825,-2.29045 z m 90.83513,-0.37282 c -15.29115,-0.82243 -41.13442,-0.82602 -57.42949,-0.006 -16.29507,0.81808 -3.78412,1.49099 27.80209,1.49538 31.58623,0.003 44.91853,-0.66499 29.6274,-1.48743 l 0,-2.2e-4 z m 39.13685,0.37282 c -2.07804,-1.25975 -5.47848,-1.25975 -7.5565,0 -2.07805,1.25976 -0.37783,2.29045 3.77826,2.29045 4.15607,0 5.85628,-1.03069 3.77824,-2.29045 z"
     id="path3427"
     inkscape:connector-curvature="0" /></svg>