<?xml version="1.0" encoding="UTF-8" standalone="no"?>
<!-- Generated by Microsoft Visio 11.0, SVG Export, v1.0 AP7882.svg Page-1 -->

<svg
   xmlns:v="http://schemas.microsoft.com/visio/2003/SVGExtensions/"
   xmlns:dc="http://purl.org/dc/elements/1.1/"
   xmlns:cc="http://creativecommons.org/ns#"
   xmlns:rdf="http://www.w3.org/1999/02/22-rdf-syntax-ns#"
   xmlns:svg="http://www.w3.org/2000/svg"
   xmlns="http://www.w3.org/2000/svg"
   xmlns:xlink="http://www.w3.org/1999/xlink"
   xmlns:sodipodi="http://sodipodi.sourceforge.net/DTD/sodipodi-0.dtd"
   xmlns:inkscape="http://www.inkscape.org/namespaces/inkscape"
   width="4.00667in"
   height="2.09in"
   viewBox="0 0 288.48 150.48"
   xml:space="preserve"
   color-interpolation-filters="sRGB"
   class="st1"
   id="svg3336"
   version="1.1"
   inkscape:version="0.91 r13725"
   sodipodi:docname="AP7882-V2C.svg"><metadata
     id="metadata3423"><rdf:RDF><cc:Work
         rdf:about=""><dc:format>image/svg+xml</dc:format><dc:type
           rdf:resource="http://purl.org/dc/dcmitype/StillImage" /><dc:title></dc:title></cc:Work></rdf:RDF></metadata><sodipodi:namedview
     pagecolor="#ffffff"
     bordercolor="#666666"
     borderopacity="1"
     objecttolerance="10"
     gridtolerance="10"
     guidetolerance="10"
     inkscape:pageopacity="0"
     inkscape:pageshadow="2"
     inkscape:window-width="1360"
     inkscape:window-height="705"
     id="namedview3421"
     showgrid="false"
     inkscape:zoom="2.3008448"
     inkscape:cx="98.591072"
     inkscape:cy="94.050586"
     inkscape:window-x="-8"
     inkscape:window-y="-8"
     inkscape:window-maximized="1"
     inkscape:current-layer="svg3336"
     inkscape:snap-global="false" /><v:documentProperties
     v:langID="1033"
     v:viewMarkup="false" /><g
     v:mID="0"
     v:index="1"
     v:groupContext="foregroundPage"
     id="g3414"><title
       id="title3416">Page-1</title><v:pageProperties
       v:drawingScale="12"
       v:pageScale="0.5"
       v:drawingUnits="19"
       v:shadowOffsetX="9"
       v:shadowOffsetY="-9" /><use
       id="shape1-1"
       v:mID="1"
       xlink:href="#master3"
       transform="translate(0.24,-0.24)"><title
         id="title3419">Sheet.1</title></use></g><style
     type="text/css"
     id="style3338"><![CDATA[
		.st1 {fill:none;fill-rule:evenodd;font-size:12;overflow:visible;stroke-linecap:square;stroke-miterlimit:3}
		.st2 {stroke:#000000;stroke-linecap:round;stroke-linejoin:round;stroke-width:0.24}
		.st3 {fill:#ffffff;stroke:#000000;stroke-dasharray:1.68,1.2;stroke-linecap:round;stroke-linejoin:round;stroke-width:0.24}
		.st4 {fill:#ffffff;stroke:#000000;stroke-linecap:round;stroke-linejoin:round;stroke-width:0.24}
	]]></style><path
     style="fill:#c8beb7;stroke:#000000;stroke-width:0.38983816;stroke-opacity:1"
     d="M 43.147526,182.52432 C 41.896858,179.89748 31.875508,159.00712 20.877863,136.10129 9.5912803,112.59365 1.0296236,94.307648 1.2207486,94.117571 1.4069808,93.932359 41.714979,72.866982 90.79408,47.305629 170.88716,5.591581 180.13256,0.86974366 181.04161,1.2141442 182.4403,1.7440475 358.95927,93.700206 359.37963,94.117922 c 0.19116,0.189956 -9.34639,20.514528 -21.89646,46.661498 l -22.23514,46.32495 -134.91328,0.098 -134.913279,0.098 -2.273945,-4.77608 z m 15.718036,1.65626 c 0.140568,-0.22744 -0.255843,-0.38984 -0.951587,-0.38984 -0.864119,0 -1.200998,-0.18787 -1.2233,-0.68222 -0.01934,-0.42845 -0.10551,-0.49617 -0.231693,-0.18205 -0.352585,0.87772 0.20757,1.64395 1.201825,1.64395 0.530102,0 1.072242,-0.17543 1.204755,-0.38984 z m 3.508544,0 c 0.143663,-0.23245 -0.328486,-0.38984 -1.169515,-0.38984 -0.841029,0 -1.313177,0.15739 -1.169514,0.38984 0.132514,0.21441 0.658795,0.38984 1.169514,0.38984 0.51072,0 1.037001,-0.17543 1.169515,-0.38984 z m 3.508543,0 c 0.143664,-0.23245 -0.328485,-0.38984 -1.169514,-0.38984 -0.841029,0 -1.313178,0.15739 -1.169515,0.38984 0.132514,0.21441 0.658796,0.38984 1.169515,0.38984 0.510719,0 1.037001,-0.17543 1.169514,-0.38984 z m 3.703463,0 c 0,-0.21441 -0.624349,-0.38984 -1.387442,-0.38984 -0.825689,0 -1.289889,0.15784 -1.146506,0.38984 0.132514,0.21441 0.756863,0.38984 1.387442,0.38984 0.630578,0 1.146506,-0.17543 1.146506,-0.38984 z m 3.703462,0 c 0.143383,-0.232 -0.320817,-0.38984 -1.146506,-0.38984 -0.763092,0 -1.387442,0.17543 -1.387442,0.38984 0,0.21441 0.515928,0.38984 1.146507,0.38984 0.630578,0 1.254928,-0.17543 1.387441,-0.38984 z m 3.508544,0 c 0.143663,-0.23245 -0.328486,-0.38984 -1.169515,-0.38984 -0.841029,0 -1.313177,0.15739 -1.169514,0.38984 0.132514,0.21441 0.658795,0.38984 1.169514,0.38984 0.51072,0 1.037001,-0.17543 1.169515,-0.38984 z m 3.508543,0 c 0.143664,-0.23245 -0.328485,-0.38984 -1.169514,-0.38984 -0.841029,0 -1.313178,0.15739 -1.169515,0.38984 0.132514,0.21441 0.658796,0.38984 1.169515,0.38984 0.510719,0 1.037001,-0.17543 1.169514,-0.38984 z m 3.703463,0 c 0,-0.21441 -0.624349,-0.38984 -1.387442,-0.38984 -0.825689,0 -1.289889,0.15784 -1.146506,0.38984 0.132514,0.21441 0.756863,0.38984 1.387442,0.38984 0.630578,0 1.146506,-0.17543 1.146506,-0.38984 z m 3.703462,0 c 0.143383,-0.232 -0.320817,-0.38984 -1.146506,-0.38984 -0.763092,0 -1.387442,0.17543 -1.387442,0.38984 0,0.21441 0.515928,0.38984 1.146507,0.38984 0.630578,0 1.254928,-0.17543 1.387441,-0.38984 z m 3.508544,0 c 0.143663,-0.23245 -0.328486,-0.38984 -1.169515,-0.38984 -0.841029,0 -1.313177,0.15739 -1.169514,0.38984 0.132514,0.21441 0.658795,0.38984 1.169514,0.38984 0.51072,0 1.037001,-0.17543 1.169515,-0.38984 z m 3.508543,0 c 0.143664,-0.23245 -0.328485,-0.38984 -1.169514,-0.38984 -0.841029,0 -1.313178,0.15739 -1.169515,0.38984 0.132514,0.21441 0.658796,0.38984 1.169515,0.38984 0.510719,0 1.037001,-0.17543 1.169514,-0.38984 z m 3.703463,0 c 0,-0.21441 -0.624349,-0.38984 -1.387442,-0.38984 -0.825689,0 -1.289889,0.15784 -1.146506,0.38984 0.132514,0.21441 0.756863,0.38984 1.387442,0.38984 0.630578,0 1.146506,-0.17543 1.146506,-0.38984 z m 3.703464,0 c 0.14338,-0.232 -0.32082,-0.38984 -1.14651,-0.38984 -0.76309,0 -1.38744,0.17543 -1.38744,0.38984 0,0.21441 0.51593,0.38984 1.14651,0.38984 0.63058,0 1.25492,-0.17543 1.38744,-0.38984 z m 3.50854,0 c 0.14367,-0.23245 -0.32848,-0.38984 -1.16951,-0.38984 -0.84103,0 -1.31318,0.15739 -1.16952,0.38984 0.13252,0.21441 0.6588,0.38984 1.16952,0.38984 0.51072,0 1.037,-0.17543 1.16951,-0.38984 z m 3.50855,0 c 0.14366,-0.23245 -0.32849,-0.38984 -1.16952,-0.38984 -0.84103,0 -1.31318,0.15739 -1.16951,0.38984 0.13251,0.21441 0.65879,0.38984 1.16951,0.38984 0.51072,0 1.037,-0.17543 1.16952,-0.38984 z m 3.70346,0 c 0,-0.21441 -0.62435,-0.38984 -1.38744,-0.38984 -0.82569,0 -1.28989,0.15784 -1.14651,0.38984 0.13251,0.21441 0.75686,0.38984 1.38744,0.38984 0.63058,0 1.14651,-0.17543 1.14651,-0.38984 z m 3.50854,0 c 0,-0.21441 -0.52628,-0.38984 -1.16951,-0.38984 -0.64324,0 -1.16952,0.17543 -1.16952,0.38984 0,0.21441 0.52628,0.38984 1.16952,0.38984 0.64323,0 1.16951,-0.17543 1.16951,-0.38984 z m 3.70346,0 c 0.14367,-0.23245 -0.32848,-0.38984 -1.16951,-0.38984 -0.84103,0 -1.31318,0.15739 -1.16952,0.38984 0.13252,0.21441 0.6588,0.38984 1.16952,0.38984 0.51072,0 1.037,-0.17543 1.16951,-0.38984 z m 3.50855,0 c 0.14366,-0.23245 -0.32849,-0.38984 -1.16952,-0.38984 -0.84103,0 -1.31317,0.15739 -1.16951,0.38984 0.13251,0.21441 0.65879,0.38984 1.16951,0.38984 0.51072,0 1.037,-0.17543 1.16952,-0.38984 z m 3.50854,0 c 0.14366,-0.23245 -0.32848,-0.38984 -1.16951,-0.38984 -0.84103,0 -1.31318,0.15739 -1.16952,0.38984 0.13252,0.21441 0.6588,0.38984 1.16952,0.38984 0.51072,0 1.037,-0.17543 1.16951,-0.38984 z m 3.70346,0 c 0,-0.21441 -0.62435,-0.38984 -1.38744,-0.38984 -0.82569,0 -1.28989,0.15784 -1.1465,0.38984 0.13251,0.21441 0.75686,0.38984 1.38744,0.38984 0.63058,0 1.1465,-0.17543 1.1465,-0.38984 z m 3.70347,0 c 0.14338,-0.232 -0.32082,-0.38984 -1.14651,-0.38984 -0.76309,0 -1.38744,0.17543 -1.38744,0.38984 0,0.21441 0.51593,0.38984 1.1465,0.38984 0.63058,0 1.25493,-0.17543 1.38745,-0.38984 z m 3.50854,0 c 0.14366,-0.23245 -0.32849,-0.38984 -1.16952,-0.38984 -0.84102,0 -1.31317,0.15739 -1.16951,0.38984 0.13251,0.21441 0.6588,0.38984 1.16951,0.38984 0.51072,0 1.03701,-0.17543 1.16952,-0.38984 z m 3.50854,0 c 0.14367,-0.23245 -0.32848,-0.38984 -1.16951,-0.38984 -0.84103,0 -1.31318,0.15739 -1.16952,0.38984 0.13252,0.21441 0.6588,0.38984 1.16952,0.38984 0.51072,0 1.037,-0.17543 1.16951,-0.38984 z m 3.70347,0 c 0,-0.21441 -0.62435,-0.38984 -1.38745,-0.38984 -0.82569,0 -1.28989,0.15784 -1.1465,0.38984 0.13251,0.21441 0.75686,0.38984 1.38744,0.38984 0.63058,0 1.14651,-0.17543 1.14651,-0.38984 z m 3.70346,0 c 0.14338,-0.232 -0.32082,-0.38984 -1.14651,-0.38984 -0.76309,0 -1.38744,0.17543 -1.38744,0.38984 0,0.21441 0.51593,0.38984 1.14651,0.38984 0.63057,0 1.25492,-0.17543 1.38744,-0.38984 z m 3.50854,0 c 0.14366,-0.23245 -0.32848,-0.38984 -1.16951,-0.38984 -0.84103,0 -1.31318,0.15739 -1.16952,0.38984 0.13252,0.21441 0.6588,0.38984 1.16952,0.38984 0.51072,0 1.037,-0.17543 1.16951,-0.38984 z m 3.50854,0 c 0.14367,-0.23245 -0.32848,-0.38984 -1.16951,-0.38984 -0.84103,0 -1.31318,0.15739 -1.16951,0.38984 0.13251,0.21441 0.65879,0.38984 1.16951,0.38984 0.51072,0 1.037,-0.17543 1.16951,-0.38984 z m 3.70347,0 c 0,-0.21441 -0.62435,-0.38984 -1.38744,-0.38984 -0.82569,0 -1.28989,0.15784 -1.14651,0.38984 0.13251,0.21441 0.75686,0.38984 1.38744,0.38984 0.63058,0 1.14651,-0.17543 1.14651,-0.38984 z m 3.70346,0 c 0.14338,-0.232 -0.32082,-0.38984 -1.14651,-0.38984 -0.76309,0 -1.38744,0.17543 -1.38744,0.38984 0,0.21441 0.51593,0.38984 1.14651,0.38984 0.63058,0 1.25493,-0.17543 1.38744,-0.38984 z m 3.50854,0 c 0.14367,-0.23245 -0.32848,-0.38984 -1.16951,-0.38984 -0.84103,0 -1.31318,0.15739 -1.16952,0.38984 0.13252,0.21441 0.6588,0.38984 1.16952,0.38984 0.51072,0 1.037,-0.17543 1.16951,-0.38984 z m 3.50855,0 c 0.14366,-0.23245 -0.32849,-0.38984 -1.16952,-0.38984 -0.84103,0 -1.31318,0.15739 -1.16951,0.38984 0.13251,0.21441 0.65879,0.38984 1.16951,0.38984 0.51072,0 1.037,-0.17543 1.16952,-0.38984 z m 3.70346,0 c 0,-0.21441 -0.62435,-0.38984 -1.38744,-0.38984 -0.82569,0 -1.28989,0.15784 -1.14651,0.38984 0.13252,0.21441 0.75686,0.38984 1.38744,0.38984 0.63058,0 1.14651,-0.17543 1.14651,-0.38984 z m 3.50854,0 c 0,-0.21441 -0.52628,-0.38984 -1.16951,-0.38984 -0.64323,0 -1.16952,0.17543 -1.16952,0.38984 0,0.21441 0.52629,0.38984 1.16952,0.38984 0.64323,0 1.16951,-0.17543 1.16951,-0.38984 z m 3.70347,0 c 0.14338,-0.232 -0.32082,-0.38984 -1.14651,-0.38984 -0.76309,0 -1.38744,0.17543 -1.38744,0.38984 0,0.21441 0.51592,0.38984 1.1465,0.38984 0.63058,0 1.25493,-0.17543 1.38745,-0.38984 z m 3.50854,0 c 0.14366,-0.23245 -0.32849,-0.38984 -1.16952,-0.38984 -0.84102,0 -1.31317,0.15739 -1.16951,0.38984 0.13251,0.21441 0.6588,0.38984 1.16951,0.38984 0.51072,0 1.037,-0.17543 1.16952,-0.38984 z m 3.50854,0 c 0.14367,-0.23245 -0.32848,-0.38984 -1.16951,-0.38984 -0.84103,0 -1.31318,0.15739 -1.16952,0.38984 0.13252,0.21441 0.6588,0.38984 1.16952,0.38984 0.51072,0 1.037,-0.17543 1.16951,-0.38984 z m 3.70346,0 c 0,-0.21441 -0.62434,-0.38984 -1.38744,-0.38984 -0.82569,0 -1.28989,0.15784 -1.1465,0.38984 0.13251,0.21441 0.75686,0.38984 1.38744,0.38984 0.63058,0 1.1465,-0.17543 1.1465,-0.38984 z m 3.70347,0 c 0.14338,-0.232 -0.32082,-0.38984 -1.14651,-0.38984 -0.76309,0 -1.38744,0.17543 -1.38744,0.38984 0,0.21441 0.51593,0.38984 1.14651,0.38984 0.63057,0 1.25492,-0.17543 1.38744,-0.38984 z m 3.50854,0 c 0.14366,-0.23245 -0.32848,-0.38984 -1.16951,-0.38984 -0.84103,0 -1.31318,0.15739 -1.16952,0.38984 0.13252,0.21441 0.6588,0.38984 1.16952,0.38984 0.51072,0 1.037,-0.17543 1.16951,-0.38984 z m 3.50854,0 c 0.14367,-0.23245 -0.32848,-0.38984 -1.16951,-0.38984 -0.84103,0 -1.31318,0.15739 -1.16951,0.38984 0.13251,0.21441 0.65879,0.38984 1.16951,0.38984 0.51072,0 1.037,-0.17543 1.16951,-0.38984 z m 3.70347,0 c 0,-0.21441 -0.62435,-0.38984 -1.38745,-0.38984 -0.82568,0 -1.28988,0.15784 -1.1465,0.38984 0.13251,0.21441 0.75686,0.38984 1.38744,0.38984 0.63058,0 1.14651,-0.17543 1.14651,-0.38984 z m 3.70346,0 c 0.14338,-0.232 -0.32082,-0.38984 -1.14651,-0.38984 -0.76309,0 -1.38744,0.17543 -1.38744,0.38984 0,0.21441 0.51593,0.38984 1.14651,0.38984 0.63058,0 1.25493,-0.17543 1.38744,-0.38984 z m 6.2615,-0.039 c 0.11927,-0.19297 -0.31979,-0.35086 -0.97568,-0.35086 l -1.19252,0 0,-29.6277 0,-29.6277 1.16951,0 c 0.64324,0 1.16952,-0.17543 1.16952,-0.38984 0,-0.21441 -0.51166,-0.38984 -1.13703,-0.38984 -0.62536,0 -1.22551,-0.21928 -1.33366,-0.48729 -0.10814,-0.26802 -0.21047,13.23987 -0.2274,30.01753 l -0.0308,30.50484 -1.38744,0 c -0.76309,0 -1.28986,0.15789 -1.1706,0.35086 0.11926,0.19297 1.27038,0.35085 2.55804,0.35085 1.28766,0 2.43878,-0.15788 2.55804,-0.35085 z m 3.48445,0.039 c 0.14367,-0.23245 -0.32848,-0.38984 -1.16951,-0.38984 -0.84103,0 -1.31318,0.15739 -1.16952,0.38984 0.13252,0.21441 0.6588,0.38984 1.16952,0.38984 0.51072,0 1.037,-0.17543 1.16951,-0.38984 z m 3.50855,0 c 0.14366,-0.23245 -0.32849,-0.38984 -1.16952,-0.38984 -0.84103,0 -1.31318,0.15739 -1.16951,0.38984 0.13251,0.21441 0.65879,0.38984 1.16951,0.38984 0.51072,0 1.037,-0.17543 1.16952,-0.38984 z m 3.70346,0 c 0,-0.21441 -0.52628,-0.38984 -1.16952,-0.38984 -0.64323,0 -1.16951,0.17543 -1.16951,0.38984 0,0.21441 0.52628,0.38984 1.16951,0.38984 0.64324,0 1.16952,-0.17543 1.16952,-0.38984 z m 3.70346,0 c 0.14338,-0.232 -0.32082,-0.38984 -1.1465,-0.38984 -0.7631,0 -1.38745,0.17543 -1.38745,0.38984 0,0.21441 0.51593,0.38984 1.14651,0.38984 0.63058,0 1.25493,-0.17543 1.38744,-0.38984 z m 3.50855,0 c 0.14366,-0.23245 -0.32849,-0.38984 -1.16952,-0.38984 -0.84103,0 -1.31318,0.15739 -1.16951,0.38984 0.13251,0.21441 0.65879,0.38984 1.16951,0.38984 0.51072,0 1.037,-0.17543 1.16952,-0.38984 z m 3.50854,0 c 0.14366,-0.23245 -0.32849,-0.38984 -1.16952,-0.38984 -0.84102,0 -1.31317,0.15739 -1.16951,0.38984 0.13251,0.21441 0.6588,0.38984 1.16951,0.38984 0.51072,0 1.03701,-0.17543 1.16952,-0.38984 z m 3.70346,0 c 0,-0.21441 -0.62435,-0.38984 -1.38744,-0.38984 -0.82569,0 -1.28989,0.15784 -1.14651,0.38984 0.13252,0.21441 0.75687,0.38984 1.38745,0.38984 0.63057,0 1.1465,-0.17543 1.1465,-0.38984 z m 3.70346,0 c 0.14339,-0.232 -0.32081,-0.38984 -1.1465,-0.38984 -0.76309,0 -1.38744,0.17543 -1.38744,0.38984 0,0.21441 0.51592,0.38984 1.1465,0.38984 0.63058,0 1.25493,-0.17543 1.38744,-0.38984 z m 3.50855,0 c 0.14366,-0.23245 -0.32849,-0.38984 -1.16952,-0.38984 -0.84103,0 -1.31317,0.15739 -1.16951,0.38984 0.13251,0.21441 0.65879,0.38984 1.16951,0.38984 0.51072,0 1.037,-0.17543 1.16952,-0.38984 z m 3.50854,0 c 0.14366,-0.23245 -0.32848,-0.38984 -1.16951,-0.38984 -0.84103,0 -1.31318,0.15739 -1.16952,0.38984 0.13252,0.21441 0.6588,0.38984 1.16952,0.38984 0.51072,0 1.037,-0.17543 1.16951,-0.38984 z m 3.70346,0 c 0,-0.21441 -0.62435,-0.38984 -1.38744,-0.38984 -0.82569,0 -1.28989,0.15784 -1.1465,0.38984 0.13251,0.21441 0.75686,0.38984 1.38744,0.38984 0.63058,0 1.1465,-0.17543 1.1465,-0.38984 z m 3.70347,0 c 0.14338,-0.232 -0.32082,-0.38984 -1.14651,-0.38984 -0.76309,0 -1.38744,0.17543 -1.38744,0.38984 0,0.21441 0.51593,0.38984 1.1465,0.38984 0.63058,0 1.25493,-0.17543 1.38745,-0.38984 z m 3.50854,0 c 0.14366,-0.23245 -0.32849,-0.38984 -1.16952,-0.38984 -0.84102,0 -1.31317,0.15739 -1.16951,0.38984 0.13251,0.21441 0.6588,0.38984 1.16951,0.38984 0.51072,0 1.03701,-0.17543 1.16952,-0.38984 z m 3.50854,0 c 0.14367,-0.23245 -0.32848,-0.38984 -1.16951,-0.38984 -0.84103,0 -1.31318,0.15739 -1.16952,0.38984 0.13252,0.21441 0.6588,0.38984 1.16952,0.38984 0.51072,0 1.037,-0.17543 1.16951,-0.38984 z m 3.70347,0 c 0,-0.21441 -0.62435,-0.38984 -1.38745,-0.38984 -0.82569,0 -1.28989,0.15784 -1.1465,0.38984 0.13251,0.21441 0.75686,0.38984 1.38744,0.38984 0.63058,0 1.14651,-0.17543 1.14651,-0.38984 z m 3.50854,0 c 0,-0.21441 -0.52628,-0.38984 -1.16952,-0.38984 -0.64323,0 -1.16951,0.17543 -1.16951,0.38984 0,0.21441 0.52628,0.38984 1.16951,0.38984 0.64324,0 1.16952,-0.17543 1.16952,-0.38984 z m 3.70346,0 c 0.14366,-0.23245 -0.32848,-0.38984 -1.16951,-0.38984 -0.84103,0 -1.31318,0.15739 -1.16952,0.38984 0.13252,0.21441 0.6588,0.38984 1.16952,0.38984 0.51072,0 1.037,-0.17543 1.16951,-0.38984 z m 3.50854,0 c 0.14367,-0.23245 -0.32848,-0.38984 -1.16951,-0.38984 -0.84103,0 -1.31318,0.15739 -1.16951,0.38984 0.13251,0.21441 0.65879,0.38984 1.16951,0.38984 0.51072,0 1.037,-0.17543 1.16951,-0.38984 z m 3.50855,0 c 0.14366,-0.23245 -0.32849,-0.38984 -1.16952,-0.38984 -0.84103,0 -1.31317,0.15739 -1.16951,0.38984 0.13251,0.21441 0.65879,0.38984 1.16951,0.38984 0.51072,0 1.037,-0.17543 1.16952,-0.38984 z m 3.70346,0 c 0,-0.21441 -0.62435,-0.38984 -1.38744,-0.38984 -0.82569,0 -1.28989,0.15784 -1.14651,0.38984 0.13252,0.21441 0.75687,0.38984 1.38744,0.38984 0.63058,0 1.14651,-0.17543 1.14651,-0.38984 z m 3.70346,0 c 0.14339,-0.232 -0.32081,-0.38984 -1.1465,-0.38984 -0.7631,0 -1.38744,0.17543 -1.38744,0.38984 0,0.21441 0.51592,0.38984 1.1465,0.38984 0.63058,0 1.25493,-0.17543 1.38744,-0.38984 z m 3.50855,0 c 0.14366,-0.23245 -0.32849,-0.38984 -1.16952,-0.38984 -0.84103,0 -1.31318,0.15739 -1.16951,0.38984 0.13251,0.21441 0.65879,0.38984 1.16951,0.38984 0.51072,0 1.037,-0.17543 1.16952,-0.38984 z m 3.50854,0 c 0.14366,-0.23245 -0.32849,-0.38984 -1.16951,-0.38984 -0.84103,0 -1.31318,0.15739 -1.16952,0.38984 0.13252,0.21441 0.6588,0.38984 1.16952,0.38984 0.51071,0 1.037,-0.17543 1.16951,-0.38984 z m 3.70346,0 c 0,-0.21441 -0.62435,-0.38984 -1.38744,-0.38984 -0.82569,0 -1.28989,0.15784 -1.14651,0.38984 0.13252,0.21441 0.75687,0.38984 1.38745,0.38984 0.63058,0 1.1465,-0.17543 1.1465,-0.38984 z m 1.43824,-1.85173 c -0.0981,-0.37522 -0.17828,-0.0682 -0.17828,0.68221 0,0.75044 0.0802,1.05744 0.17828,0.68222 0.0981,-0.37522 0.0981,-0.98921 0,-1.36443 z m -247.540239,-2.5294 c -0.09325,-0.48493 -0.17308,-0.17998 -0.177407,0.67767 -0.0043,0.85764 0.07197,1.2544 0.16954,0.88168 0.09757,-0.37272 0.101113,-1.07443 0.0079,-1.55935 l -8e-6,0 z m 247.547229,-1.16952 c -0.0932,-0.48492 -0.17308,-0.17997 -0.1774,0.67767 -0.004,0.85765 0.072,1.2544 0.16954,0.88168 0.0976,-0.37272 0.10111,-1.07443 0.008,-1.55935 l -10e-6,0 z M 56.607331,175.90106 c -0.09325,-0.48492 -0.17308,-0.17997 -0.177407,0.67768 -0.0043,0.85764 0.07197,1.2544 0.16954,0.88168 0.09757,-0.37272 0.101113,-1.07443 0.0079,-1.55936 l -8e-6,0 z m 247.547229,-0.77967 c -0.0932,-0.48493 -0.17308,-0.17998 -0.1774,0.67767 -0.004,0.85764 0.072,1.2544 0.16954,0.88168 0.0976,-0.37272 0.10111,-1.07443 0.008,-1.55935 l -10e-6,0 z m -137.49875,-21.54311 0,-23.19537 -30.79721,0 -30.79722,0 0,23.19537 0,23.19537 30.79722,0 30.79721,0 0,-23.19537 z M 56.607331,172.39252 c -0.09325,-0.48492 -0.17308,-0.17997 -0.177407,0.67767 -0.0043,0.85765 0.07197,1.2544 0.16954,0.88168 0.09757,-0.37272 0.101113,-1.07443 0.0079,-1.55935 l -8e-6,0 z m 247.547229,-0.77968 c -0.0932,-0.48492 -0.17308,-0.17997 -0.1774,0.67768 -0.004,0.85764 0.072,1.2544 0.16954,0.88168 0.0976,-0.37272 0.10111,-1.07443 0.008,-1.55936 l -10e-6,0 z M 56.607331,168.88398 c -0.09325,-0.48493 -0.17308,-0.17998 -0.177407,0.67767 -0.0043,0.85764 0.07197,1.2544 0.16954,0.88168 0.09757,-0.37272 0.101113,-1.07443 0.0079,-1.55935 l -8e-6,0 z m 247.540239,-0.97914 c -0.0981,-0.37522 -0.17828,-0.0682 -0.17828,0.68221 0,0.75044 0.0802,1.05744 0.17828,0.68222 0.0981,-0.37522 0.0981,-0.98921 0,-1.36443 z M 56.607331,165.37543 c -0.09325,-0.48492 -0.17308,-0.17997 -0.177407,0.67767 -0.0043,0.85765 0.07197,1.25441 0.16954,0.88169 0.09757,-0.37272 0.101113,-1.07443 0.0079,-1.55936 l -8e-6,0 z m 247.547229,-1.16951 c -0.0932,-0.48492 -0.17308,-0.17997 -0.1774,0.67767 -0.004,0.85764 0.072,1.2544 0.16954,0.88168 0.0976,-0.37272 0.10111,-1.07443 0.008,-1.55935 l -10e-6,0 z M 56.607331,161.47705 c -0.09325,-0.48492 -0.17308,-0.17997 -0.177407,0.67767 -0.0043,0.85765 0.07197,1.2544 0.16954,0.88168 0.09757,-0.37272 0.101113,-1.07442 0.0079,-1.55935 l -8e-6,0 z m 247.547229,-0.77967 c -0.0932,-0.48493 -0.17308,-0.17998 -0.1774,0.67767 -0.004,0.85764 0.072,1.2544 0.16954,0.88168 0.0976,-0.37272 0.10111,-1.07443 0.008,-1.55935 l -10e-6,0 z M 56.607331,157.96851 c -0.09325,-0.48493 -0.17308,-0.17997 -0.177407,0.67767 -0.0043,0.85764 0.07197,1.2544 0.16954,0.88168 0.09757,-0.37272 0.101113,-1.07443 0.0079,-1.55935 l -8e-6,0 z m 247.547229,-0.77968 c -0.0932,-0.48492 -0.17308,-0.17997 -0.1774,0.67767 -0.004,0.85765 0.072,1.25441 0.16954,0.88168 0.0976,-0.37272 0.10111,-1.07442 0.008,-1.55935 l -10e-6,0 z M 56.607331,154.45996 c -0.09325,-0.48492 -0.17308,-0.17997 -0.177407,0.67768 -0.0043,0.85764 0.07197,1.2544 0.16954,0.88168 0.09757,-0.37272 0.101113,-1.07443 0.0079,-1.55936 l -8e-6,0 z m 247.547229,-0.77967 c -0.0932,-0.48493 -0.17308,-0.17997 -0.1774,0.67767 -0.004,0.85764 0.072,1.2544 0.16954,0.88168 0.0976,-0.37272 0.10111,-1.07443 0.008,-1.55935 l -10e-6,0 z M 56.607331,150.95142 c -0.09325,-0.48492 -0.17308,-0.17997 -0.177407,0.67767 -0.0043,0.85765 0.07197,1.2544 0.16954,0.88168 0.09757,-0.37272 0.101113,-1.07443 0.0079,-1.55935 l -8e-6,0 z m 247.547229,-1.16951 c -0.0932,-0.48493 -0.17308,-0.17998 -0.1774,0.67767 -0.004,0.85764 0.072,1.2544 0.16954,0.88168 0.0976,-0.37272 0.10111,-1.07443 0.008,-1.55935 l -10e-6,0 z M 56.607331,147.05304 c -0.09325,-0.48492 -0.17308,-0.17997 -0.177407,0.67767 -0.0043,0.85764 0.07197,1.2544 0.16954,0.88168 0.09757,-0.37272 0.101113,-1.07443 0.0079,-1.55935 l -8e-6,0 z m 247.547229,-0.77968 c -0.0932,-0.48492 -0.17308,-0.17997 -0.1774,0.67767 -0.004,0.85765 0.072,1.25441 0.16954,0.88169 0.0976,-0.37272 0.10111,-1.07443 0.008,-1.55936 l -10e-6,0 z M 56.607331,143.5445 c -0.09325,-0.48493 -0.17308,-0.17998 -0.177407,0.67767 -0.0043,0.85764 0.07197,1.2544 0.16954,0.88168 0.09757,-0.37272 0.101113,-1.07443 0.0079,-1.55935 l -8e-6,0 z m 247.547229,-0.77968 c -0.0932,-0.48492 -0.17308,-0.17997 -0.1774,0.67767 -0.004,0.85765 0.072,1.2544 0.16954,0.88168 0.0976,-0.37272 0.10111,-1.07443 0.008,-1.55935 l -10e-6,0 z m -203.77123,-0.63116 c 2.11085,-1.54876 1.86413,-5.32236 -0.425391,-6.50632 -2.877516,-1.48802 -5.742343,-0.0964 -6.083311,2.95504 -0.419751,3.75646 3.393408,5.837 6.508702,3.55128 z m 75.07039,0.54319 c 2.95435,-1.23441 3.13396,-5.64844 0.29146,-7.16236 -2.76792,-1.47421 -5.9779,0.41686 -5.96199,3.51234 0.01,1.87925 0.8196,3.19612 2.33036,3.78891 1.35414,0.53134 1.77829,0.5137 3.34017,-0.13889 z m -118.846389,-2.6409 c -0.09325,-0.48492 -0.17308,-0.17997 -0.177407,0.67767 -0.0043,0.85765 0.07197,1.25441 0.16954,0.88169 0.09757,-0.37272 0.101113,-1.07443 0.0079,-1.55936 l -8e-6,0 z m 247.547229,-0.77967 c -0.0932,-0.48493 -0.17308,-0.17998 -0.1774,0.67767 -0.004,0.85764 0.072,1.2544 0.16954,0.88168 0.0976,-0.37272 0.10111,-1.07443 0.008,-1.55935 l -10e-6,0 z M 56.607331,136.52741 c -0.09325,-0.48492 -0.17308,-0.17997 -0.177407,0.67767 -0.0043,0.85764 0.07197,1.2544 0.16954,0.88168 0.09757,-0.37272 0.101113,-1.07443 0.0079,-1.55935 l -8e-6,0 z m 247.547229,-1.16952 c -0.0932,-0.48492 -0.17308,-0.17997 -0.1774,0.67768 -0.004,0.85764 0.072,1.2544 0.16954,0.88168 0.0976,-0.37272 0.10111,-1.07443 0.008,-1.55936 l -10e-6,0 z M 56.600342,132.8194 c -0.09806,-0.37522 -0.178285,-0.0682 -0.178285,0.68222 0,0.75044 0.08023,1.05743 0.178285,0.68221 0.09805,-0.37521 0.09805,-0.98921 0,-1.36443 z m 247.554218,-0.97005 c -0.0932,-0.48492 -0.17308,-0.17997 -0.1774,0.67767 -0.004,0.85765 0.072,1.2544 0.16954,0.88168 0.0976,-0.37272 0.10111,-1.07442 0.008,-1.55935 l -10e-6,0 z M 56.607331,129.12048 c -0.09325,-0.48492 -0.17308,-0.17997 -0.177407,0.67768 -0.0043,0.85764 0.07197,1.2544 0.16954,0.88168 0.09757,-0.37272 0.101113,-1.07443 0.0079,-1.55936 l -8e-6,0 z m 247.547229,-0.77967 c -0.0932,-0.48493 -0.17308,-0.17997 -0.1774,0.67767 -0.004,0.85764 0.072,1.2544 0.16954,0.88168 0.0976,-0.37272 0.10111,-1.07443 0.008,-1.55935 l -10e-6,0 z M 56.607331,125.61194 c -0.09325,-0.48492 -0.17308,-0.17997 -0.177407,0.67767 -0.0043,0.85765 0.07197,1.2544 0.16954,0.88168 0.09757,-0.37272 0.101113,-1.07443 0.0079,-1.55935 l -8e-6,0 z m 247.547229,-0.77968 c -0.0932,-0.48492 -0.17308,-0.17997 -0.1774,0.67768 -0.004,0.85764 0.072,1.2544 0.16954,0.88168 0.0976,-0.37272 0.10111,-1.07443 0.008,-1.55936 l -10e-6,0 z m -83.896,-0.68676 c 0.14338,-0.232 -0.32082,-0.38984 -1.1465,-0.38984 -0.7631,0 -1.38745,0.17543 -1.38745,0.38984 0,0.21441 0.51593,0.38984 1.14651,0.38984 0.63058,0 1.25493,-0.17543 1.38744,-0.38984 z m 3.70346,0 c 0,-0.21441 -0.61399,-0.38984 -1.36443,-0.38984 -0.75044,0 -1.36443,0.17543 -1.36443,0.38984 0,0.21441 0.61399,0.38984 1.36443,0.38984 0.75044,0 1.36443,-0.17543 1.36443,-0.38984 z m 3.50855,0 c 0,-0.21441 -0.62435,-0.38984 -1.38744,-0.38984 -0.82569,0 -1.28989,0.15784 -1.14651,0.38984 0.13251,0.21441 0.75686,0.38984 1.38744,0.38984 0.63058,0 1.14651,-0.17543 1.14651,-0.38984 z m 3.50854,0 c 0,-0.21441 -0.52628,-0.38984 -1.16951,-0.38984 -0.64324,0 -1.16952,0.17543 -1.16952,0.38984 0,0.21441 0.52628,0.38984 1.16952,0.38984 0.64323,0 1.16951,-0.17543 1.16951,-0.38984 z m 3.70346,0 c 0.14339,-0.232 -0.32081,-0.38984 -1.1465,-0.38984 -0.7631,0 -1.38744,0.17543 -1.38744,0.38984 0,0.21441 0.51592,0.38984 1.1465,0.38984 0.63058,0 1.25493,-0.17543 1.38744,-0.38984 z m 3.70347,0 c 0,-0.21441 -0.614,-0.38984 -1.36444,-0.38984 -0.75044,0 -1.36443,0.17543 -1.36443,0.38984 0,0.21441 0.61399,0.38984 1.36443,0.38984 0.75044,0 1.36444,-0.17543 1.36444,-0.38984 z m 3.50854,0 c 0,-0.21441 -0.62435,-0.38984 -1.38744,-0.38984 -0.82569,0 -1.28989,0.15784 -1.14651,0.38984 0.13252,0.21441 0.75686,0.38984 1.38744,0.38984 0.63058,0 1.14651,-0.17543 1.14651,-0.38984 z m 3.50854,0 c 0,-0.21441 -0.62435,-0.38984 -1.38744,-0.38984 -0.82569,0 -1.28989,0.15784 -1.14651,0.38984 0.13252,0.21441 0.75687,0.38984 1.38745,0.38984 0.63058,0 1.1465,-0.17543 1.1465,-0.38984 z m 3.70347,0 c 0.14338,-0.232 -0.32082,-0.38984 -1.14651,-0.38984 -0.76309,0 -1.38744,0.17543 -1.38744,0.38984 0,0.21441 0.51592,0.38984 1.1465,0.38984 0.63058,0 1.25493,-0.17543 1.38745,-0.38984 z m 3.50854,0 c 0.14338,-0.232 -0.32082,-0.38984 -1.14651,-0.38984 -0.76309,0 -1.38744,0.17543 -1.38744,0.38984 0,0.21441 0.51593,0.38984 1.14651,0.38984 0.63058,0 1.25493,-0.17543 1.38744,-0.38984 z m 3.70346,0 c 0,-0.21441 -0.62435,-0.38984 -1.38744,-0.38984 -0.82569,0 -1.28989,0.15784 -1.14651,0.38984 0.13252,0.21441 0.75687,0.38984 1.38745,0.38984 0.63057,0 1.1465,-0.17543 1.1465,-0.38984 z m 3.50854,0 c 0,-0.21441 -0.62434,-0.38984 -1.38744,-0.38984 -0.82569,0 -1.28989,0.15784 -1.1465,0.38984 0.13251,0.21441 0.75686,0.38984 1.38744,0.38984 0.63058,0 1.1465,-0.17543 1.1465,-0.38984 z m 3.70347,0 c 0.14338,-0.232 -0.32082,-0.38984 -1.14651,-0.38984 -0.76309,0 -1.38744,0.17543 -1.38744,0.38984 0,0.21441 0.51593,0.38984 1.14651,0.38984 0.63057,0 1.25492,-0.17543 1.38744,-0.38984 z m 3.50854,0 c 0.14338,-0.232 -0.32082,-0.38984 -1.14651,-0.38984 -0.76309,0 -1.38744,0.17543 -1.38744,0.38984 0,0.21441 0.51593,0.38984 1.14651,0.38984 0.63058,0 1.25493,-0.17543 1.38744,-0.38984 z m 3.70346,0 c 0,-0.21441 -0.61399,-0.38984 -1.36443,-0.38984 -0.75044,0 -1.36443,0.17543 -1.36443,0.38984 0,0.21441 0.61399,0.38984 1.36443,0.38984 0.75044,0 1.36443,-0.17543 1.36443,-0.38984 z m 3.50855,0 c 0,-0.21441 -0.62435,-0.38984 -1.38744,-0.38984 -0.82569,0 -1.28989,0.15784 -1.14651,0.38984 0.13251,0.21441 0.75686,0.38984 1.38744,0.38984 0.63058,0 1.14651,-0.17543 1.14651,-0.38984 z m 3.50854,0 c 0,-0.21441 -0.52628,-0.38984 -1.16951,-0.38984 -0.64324,0 -1.16952,0.17543 -1.16952,0.38984 0,0.21441 0.52628,0.38984 1.16952,0.38984 0.64323,0 1.16951,-0.17543 1.16951,-0.38984 z m 3.70346,0 c 0.14339,-0.232 -0.32081,-0.38984 -1.1465,-0.38984 -0.7631,0 -1.38745,0.17543 -1.38745,0.38984 0,0.21441 0.51593,0.38984 1.14651,0.38984 0.63058,0 1.25493,-0.17543 1.38744,-0.38984 z m 3.70347,0 c 0,-0.21441 -0.614,-0.38984 -1.36444,-0.38984 -0.75044,0 -1.36443,0.17543 -1.36443,0.38984 0,0.21441 0.61399,0.38984 1.36443,0.38984 0.75044,0 1.36444,-0.17543 1.36444,-0.38984 z m 3.50854,0 c 0,-0.21441 -0.62435,-0.38984 -1.38744,-0.38984 -0.82569,0 -1.28989,0.15784 -1.14651,0.38984 0.13251,0.21441 0.75686,0.38984 1.38744,0.38984 0.63058,0 1.14651,-0.17543 1.14651,-0.38984 z m 3.50854,0 c 0,-0.21441 -0.62435,-0.38984 -1.38744,-0.38984 -0.82569,0 -1.28989,0.15784 -1.14651,0.38984 0.13252,0.21441 0.75687,0.38984 1.38745,0.38984 0.63057,0 1.1465,-0.17543 1.1465,-0.38984 z m 3.70346,0 c 0.14339,-0.232 -0.32081,-0.38984 -1.1465,-0.38984 -0.76309,0 -1.38744,0.17543 -1.38744,0.38984 0,0.21441 0.51592,0.38984 1.1465,0.38984 0.63058,0 1.25493,-0.17543 1.38744,-0.38984 z m 3.70347,0 c 0,-0.21441 -0.614,-0.38984 -1.36444,-0.38984 -0.75043,0 -1.36443,0.17543 -1.36443,0.38984 0,0.21441 0.614,0.38984 1.36443,0.38984 0.75044,0 1.36444,-0.17543 1.36444,-0.38984 z m 3.50854,0 c 0,-0.21441 -0.62435,-0.38984 -1.38744,-0.38984 -0.82569,0 -1.28989,0.15784 -1.14651,0.38984 0.13252,0.21441 0.75687,0.38984 1.38744,0.38984 0.63058,0 1.14651,-0.17543 1.14651,-0.38984 z M 56.607331,122.1034 c -0.09325,-0.48493 -0.17308,-0.17998 -0.177407,0.67767 -0.0043,0.85764 0.07197,1.2544 0.16954,0.88168 0.09757,-0.37272 0.101113,-1.07443 0.0079,-1.55935 l -8e-6,0 z m 157.494619,-1.94919 c -0.0932,-0.48493 -0.17308,-0.17998 -0.17741,0.67767 -0.004,0.85764 0.072,1.2544 0.16954,0.88168 0.0976,-0.37272 0.10111,-1.07443 0.008,-1.55935 l -1e-5,0 z M 56.607331,118.59485 c -0.09325,-0.48492 -0.17308,-0.17997 -0.177407,0.67768 -0.0043,0.85764 0.07197,1.2544 0.16954,0.88168 0.09757,-0.37272 0.101113,-1.07443 0.0079,-1.55936 l -8e-6,0 z m 157.494619,-1.94919 c -0.0932,-0.48492 -0.17308,-0.17997 -0.17741,0.67767 -0.004,0.85765 0.072,1.25441 0.16954,0.88169 0.0976,-0.37272 0.10111,-1.07443 0.008,-1.55936 l -1e-5,0 z M 56.607331,114.69647 c -0.09325,-0.48492 -0.17308,-0.17997 -0.177407,0.67767 -0.0043,0.85765 0.07197,1.25441 0.16954,0.88168 0.09757,-0.37272 0.101113,-1.07442 0.0079,-1.55935 l -8e-6,0 z m 157.494619,-1.55935 c -0.0932,-0.48492 -0.17308,-0.17997 -0.17741,0.67767 -0.004,0.85764 0.072,1.2544 0.16954,0.88168 0.0976,-0.37272 0.10111,-1.07443 0.008,-1.55935 l -1e-5,0 z M 56.607331,111.18793 c -0.09325,-0.48492 -0.17308,-0.17997 -0.177407,0.67767 -0.0043,0.85764 0.07197,1.2544 0.16954,0.88168 0.09757,-0.37272 0.101113,-1.07443 0.0079,-1.55935 l -8e-6,0 z m 157.487629,-1.75882 c -0.0981,-0.37522 -0.17829,-0.0682 -0.17829,0.68222 0,0.75044 0.0802,1.05743 0.17829,0.68222 0.0981,-0.37522 0.0981,-0.98922 0,-1.36444 z M 56.607331,107.67939 c -0.09325,-0.48493 -0.17308,-0.17998 -0.177407,0.67767 -0.0043,0.85764 0.07197,1.2544 0.16954,0.88168 0.09757,-0.37272 0.101113,-1.07443 0.0079,-1.55935 l -8e-6,0 z m 157.494619,-1.9492 c -0.0932,-0.48492 -0.17308,-0.17997 -0.17741,0.67768 -0.004,0.85764 0.072,1.2544 0.16954,0.88168 0.0976,-0.37272 0.10111,-1.07443 0.008,-1.55936 l -1e-5,0 z M 56.607331,104.17084 c -0.09325,-0.48492 -0.17308,-0.17997 -0.177407,0.67767 -0.0043,0.85765 0.07197,1.2544 0.16954,0.88168 0.09757,-0.37272 0.101113,-1.07442 0.0079,-1.55935 l -8e-6,0 z m 157.494619,-1.94919 c -0.0932,-0.48492 -0.17308,-0.17997 -0.17741,0.67767 -0.004,0.85765 0.072,1.2544 0.16954,0.88168 0.0976,-0.37272 0.10111,-1.07443 0.008,-1.55935 l -1e-5,0 z M 58.280805,101.48944 c 0,-0.18941 -0.438568,-0.34439 -0.974595,-0.34439 -0.562291,0 -0.974596,0.22451 -0.974596,0.5307 0,0.35587 0.321067,0.46932 0.974596,0.34439 0.536027,-0.10247 0.974595,-0.34128 0.974595,-0.5307 z m 3.508544,0.0455 c 0,-0.21441 -0.526282,-0.38984 -1.169515,-0.38984 -0.643233,0 -1.169514,0.17543 -1.169514,0.38984 0,0.21441 0.526281,0.38984 1.169514,0.38984 0.643233,0 1.169515,-0.17543 1.169515,-0.38984 z m 3.898381,0 c 0,-0.21441 -0.613995,-0.38984 -1.364433,-0.38984 -0.750439,0 -1.364434,0.17543 -1.364434,0.38984 0,0.21441 0.613995,0.38984 1.364434,0.38984 0.750438,0 1.364433,-0.17543 1.364433,-0.38984 z m 3.508544,0 c 0,-0.21441 -0.613995,-0.38984 -1.364434,-0.38984 -0.750438,0 -1.364433,0.17543 -1.364433,0.38984 0,0.21441 0.613995,0.38984 1.364433,0.38984 0.750439,0 1.364434,-0.17543 1.364434,-0.38984 z m 3.508543,0 c 0,-0.21441 -0.613995,-0.38984 -1.364433,-0.38984 -0.750439,0 -1.364434,0.17543 -1.364434,0.38984 0,0.21441 0.613995,0.38984 1.364434,0.38984 0.750438,0 1.364433,-0.17543 1.364433,-0.38984 z m 3.508544,0 c 0,-0.21441 -0.515928,-0.38984 -1.146507,-0.38984 -0.630578,0 -1.254928,0.17543 -1.387441,0.38984 -0.143383,0.232 0.320817,0.38984 1.146506,0.38984 0.763092,0 1.387442,-0.17543 1.387442,-0.38984 z m 3.703462,0 c -0.132514,-0.21441 -0.756863,-0.38984 -1.387442,-0.38984 -0.630578,0 -1.146506,0.17543 -1.146506,0.38984 0,0.21441 0.624349,0.38984 1.387442,0.38984 0.825689,0 1.289889,-0.15784 1.146506,-0.38984 z m 3.703463,0 c 0,-0.21441 -0.613995,-0.38984 -1.364434,-0.38984 -0.750438,0 -1.364433,0.17543 -1.364433,0.38984 0,0.21441 0.613995,0.38984 1.364433,0.38984 0.750439,0 1.364434,-0.17543 1.364434,-0.38984 z m 3.508543,0 c 0,-0.21441 -0.613995,-0.38984 -1.364433,-0.38984 -0.750439,0 -1.364434,0.17543 -1.364434,0.38984 0,0.21441 0.613995,0.38984 1.364434,0.38984 0.750438,0 1.364433,-0.17543 1.364433,-0.38984 z m 3.508544,0 c 0,-0.21441 -0.613995,-0.38984 -1.364434,-0.38984 -0.750438,0 -1.364433,0.17543 -1.364433,0.38984 0,0.21441 0.613995,0.38984 1.364433,0.38984 0.750439,0 1.364434,-0.17543 1.364434,-0.38984 z m 3.508543,0 c 0,-0.21441 -0.526281,-0.38984 -1.169514,-0.38984 -0.643233,0 -1.169515,0.17543 -1.169515,0.38984 0,0.21441 0.526282,0.38984 1.169515,0.38984 0.643233,0 1.169514,-0.17543 1.169514,-0.38984 z m 3.898382,0 c 0,-0.21441 -0.613995,-0.38984 -1.364434,-0.38984 -0.750438,0 -1.364433,0.17543 -1.364433,0.38984 0,0.21441 0.613995,0.38984 1.364433,0.38984 0.750439,0 1.364434,-0.17543 1.364434,-0.38984 z m 3.508542,0 c 0,-0.21441 -0.61399,-0.38984 -1.36443,-0.38984 -0.750441,0 -1.364436,0.17543 -1.364436,0.38984 0,0.21441 0.613995,0.38984 1.364436,0.38984 0.75044,0 1.36443,-0.17543 1.36443,-0.38984 z m 3.50854,0 c 0,-0.21441 -0.61399,-0.38984 -1.36443,-0.38984 -0.75044,0 -1.36443,0.17543 -1.36443,0.38984 0,0.21441 0.61399,0.38984 1.36443,0.38984 0.75044,0 1.36443,-0.17543 1.36443,-0.38984 z m 3.50855,0 c 0,-0.21441 -0.52628,-0.38984 -1.16952,-0.38984 -0.64323,0 -1.16951,0.17543 -1.16951,0.38984 0,0.21441 0.52628,0.38984 1.16951,0.38984 0.64324,0 1.16952,-0.17543 1.16952,-0.38984 z m 3.89838,0 c 0,-0.21441 -0.614,-0.38984 -1.36443,-0.38984 -0.75044,0 -1.36444,0.17543 -1.36444,0.38984 0,0.21441 0.614,0.38984 1.36444,0.38984 0.75043,0 1.36443,-0.17543 1.36443,-0.38984 z m 3.50854,0 c 0,-0.21441 -0.61399,-0.38984 -1.36443,-0.38984 -0.75044,0 -1.36443,0.17543 -1.36443,0.38984 0,0.21441 0.61399,0.38984 1.36443,0.38984 0.75044,0 1.36443,-0.17543 1.36443,-0.38984 z m 3.50855,0 c 0,-0.21441 -0.614,-0.38984 -1.36444,-0.38984 -0.75044,0 -1.36443,0.17543 -1.36443,0.38984 0,0.21441 0.61399,0.38984 1.36443,0.38984 0.75044,0 1.36444,-0.17543 1.36444,-0.38984 z m 3.50854,0 c 0,-0.21441 -0.52628,-0.38984 -1.16951,-0.38984 -0.64324,0 -1.16952,0.17543 -1.16952,0.38984 0,0.21441 0.52628,0.38984 1.16952,0.38984 0.64323,0 1.16951,-0.17543 1.16951,-0.38984 z m 3.89838,0 c 0,-0.21441 -0.61399,-0.38984 -1.36443,-0.38984 -0.75044,0 -1.36444,0.17543 -1.36444,0.38984 0,0.21441 0.614,0.38984 1.36444,0.38984 0.75044,0 1.36443,-0.17543 1.36443,-0.38984 z m 3.50855,0 c 0,-0.21441 -0.614,-0.38984 -1.36444,-0.38984 -0.75044,0 -1.36443,0.17543 -1.36443,0.38984 0,0.21441 0.61399,0.38984 1.36443,0.38984 0.75044,0 1.36444,-0.17543 1.36444,-0.38984 z m 3.50854,0 c 0,-0.21441 -0.614,-0.38984 -1.36443,-0.38984 -0.75044,0 -1.36444,0.17543 -1.36444,0.38984 0,0.21441 0.614,0.38984 1.36444,0.38984 0.75043,0 1.36443,-0.17543 1.36443,-0.38984 z m 3.50854,0 c 0,-0.21441 -0.51593,-0.38984 -1.1465,-0.38984 -0.63058,0 -1.25493,0.17543 -1.38745,0.38984 -0.14338,0.232 0.32082,0.38984 1.14651,0.38984 0.76309,0 1.38744,-0.17543 1.38744,-0.38984 z m 3.70346,0 c -0.13251,-0.21441 -0.75686,-0.38984 -1.38744,-0.38984 -0.63058,0 -1.1465,0.17543 -1.1465,0.38984 0,0.21441 0.62435,0.38984 1.38744,0.38984 0.82569,0 1.28989,-0.15784 1.1465,-0.38984 z m 3.70347,0 c 0,-0.21441 -0.614,-0.38984 -1.36444,-0.38984 -0.75043,0 -1.36443,0.17543 -1.36443,0.38984 0,0.21441 0.614,0.38984 1.36443,0.38984 0.75044,0 1.36444,-0.17543 1.36444,-0.38984 z m 3.50854,0 c 0,-0.21441 -0.61399,-0.38984 -1.36443,-0.38984 -0.75044,0 -1.36444,0.17543 -1.36444,0.38984 0,0.21441 0.614,0.38984 1.36444,0.38984 0.75044,0 1.36443,-0.17543 1.36443,-0.38984 z m 3.50854,0 c 0,-0.21441 -0.61399,-0.38984 -1.36443,-0.38984 -0.75044,0 -1.36443,0.17543 -1.36443,0.38984 0,0.21441 0.61399,0.38984 1.36443,0.38984 0.75044,0 1.36443,-0.17543 1.36443,-0.38984 z m 3.50855,0 c 0,-0.21441 -0.52628,-0.38984 -1.16952,-0.38984 -0.64323,0 -1.16951,0.17543 -1.16951,0.38984 0,0.21441 0.52628,0.38984 1.16951,0.38984 0.64324,0 1.16952,-0.17543 1.16952,-0.38984 z m 3.89838,0 c 0,-0.21441 -0.614,-0.38984 -1.36443,-0.38984 -0.75044,0 -1.36444,0.17543 -1.36444,0.38984 0,0.21441 0.614,0.38984 1.36444,0.38984 0.75043,0 1.36443,-0.17543 1.36443,-0.38984 z m 3.50854,0 c 0,-0.21441 -0.61399,-0.38984 -1.36443,-0.38984 -0.75044,0 -1.36443,0.17543 -1.36443,0.38984 0,0.21441 0.61399,0.38984 1.36443,0.38984 0.75044,0 1.36443,-0.17543 1.36443,-0.38984 z m 3.50855,0 c 0,-0.21441 -0.614,-0.38984 -1.36444,-0.38984 -0.75044,0 -1.36443,0.17543 -1.36443,0.38984 0,0.21441 0.61399,0.38984 1.36443,0.38984 0.75044,0 1.36444,-0.17543 1.36444,-0.38984 z m 3.50854,0 c 0,-0.21441 -0.52628,-0.38984 -1.16951,-0.38984 -0.64324,0 -1.16952,0.17543 -1.16952,0.38984 0,0.21441 0.52628,0.38984 1.16952,0.38984 0.64323,0 1.16951,-0.17543 1.16951,-0.38984 z m 3.89838,0 c 0,-0.21441 -0.61399,-0.38984 -1.36443,-0.38984 -0.75044,0 -1.36444,0.17543 -1.36444,0.38984 0,0.21441 0.614,0.38984 1.36444,0.38984 0.75044,0 1.36443,-0.17543 1.36443,-0.38984 z m 3.50854,0 c 0,-0.21441 -0.61399,-0.38984 -1.36443,-0.38984 -0.75044,0 -1.36443,0.17543 -1.36443,0.38984 0,0.21441 0.61399,0.38984 1.36443,0.38984 0.75044,0 1.36443,-0.17543 1.36443,-0.38984 z m 3.50855,0 c 0,-0.21441 -0.614,-0.38984 -1.36444,-0.38984 -0.75043,0 -1.36443,0.17543 -1.36443,0.38984 0,0.21441 0.614,0.38984 1.36443,0.38984 0.75044,0 1.36444,-0.17543 1.36444,-0.38984 z m 3.50854,0 c 0,-0.21441 -0.52628,-0.38984 -1.16951,-0.38984 -0.64324,0 -1.16952,0.17543 -1.16952,0.38984 0,0.21441 0.52628,0.38984 1.16952,0.38984 0.64323,0 1.16951,-0.17543 1.16951,-0.38984 z m 3.89838,0 c 0,-0.21441 -0.61399,-0.38984 -1.36443,-0.38984 -0.75044,0 -1.36443,0.17543 -1.36443,0.38984 0,0.21441 0.61399,0.38984 1.36443,0.38984 0.75044,0 1.36443,-0.17543 1.36443,-0.38984 z m 3.50855,0 c 0,-0.21441 -0.614,-0.38984 -1.36444,-0.38984 -0.75044,0 -1.36443,0.17543 -1.36443,0.38984 0,0.21441 0.61399,0.38984 1.36443,0.38984 0.75044,0 1.36444,-0.17543 1.36444,-0.38984 z m 3.50854,0 c 0,-0.21441 -0.614,-0.38984 -1.36443,-0.38984 -0.75044,0 -1.36444,0.17543 -1.36444,0.38984 0,0.21441 0.614,0.38984 1.36444,0.38984 0.75043,0 1.36443,-0.17543 1.36443,-0.38984 z m 3.50854,0 c 0,-0.21441 -0.61399,-0.38984 -1.36443,-0.38984 -0.75044,0 -1.36443,0.17543 -1.36443,0.38984 0,0.21441 0.61399,0.38984 1.36443,0.38984 0.75044,0 1.36443,-0.17543 1.36443,-0.38984 z m 3.70347,0 c -0.13252,-0.21441 -0.75687,-0.38984 -1.38745,-0.38984 -0.63057,0 -1.1465,0.17543 -1.1465,0.38984 0,0.21441 0.62435,0.38984 1.38744,0.38984 0.82569,0 1.28989,-0.15784 1.14651,-0.38984 z m 3.70346,0 c 0,-0.21441 -0.614,-0.38984 -1.36443,-0.38984 -0.75044,0 -1.36444,0.17543 -1.36444,0.38984 0,0.21441 0.614,0.38984 1.36444,0.38984 0.75043,0 1.36443,-0.17543 1.36443,-0.38984 z m 3.50854,0 c 0,-0.21441 -0.61399,-0.38984 -1.36443,-0.38984 -0.75044,0 -1.36444,0.17543 -1.36444,0.38984 0,0.21441 0.614,0.38984 1.36444,0.38984 0.75044,0 1.36443,-0.17543 1.36443,-0.38984 z m 3.50855,0 c 0,-0.21441 -0.614,-0.38984 -1.36444,-0.38984 -0.75044,0 -1.36443,0.17543 -1.36443,0.38984 0,0.21441 0.61399,0.38984 1.36443,0.38984 0.75044,0 1.36444,-0.17543 1.36444,-0.38984 z"
     id="path3425"
     inkscape:connector-curvature="0"
     transform="matrix(0.8,0,0,0.8,-1.2207031e-4,0)" /><defs
     id="Masters"><symbol
       id="master3"
       v:mID="3"
       class="st1"><title
         id="title3342">Master.3</title><g
         id="group1-2"
         v:mID="1"
         v:groupContext="group"><title
           id="title3345">Sheet.1</title><g
           id="group2-3"
           v:mID="2"
           v:groupContext="group"><title
             id="title3348">2946K.300</title><g
             id="group3-4"
             transform="translate(150.48,0.48) rotate(90)"
             v:mID="3"
             v:groupContext="group"><title
               id="title3351">AP6205.56</title><g
               id="group4-5"
               transform="translate(-0.48,150.48) rotate(-90)"
               v:mID="4"
               v:groupContext="group"><title
                 id="title3354">Sheet.4</title><g
                 id="master-shape5-6"
                 v:mID="5"
                 v:groupContext="shape"
                 transform="translate(36,0)"><title
                   id="title3357">Sheet.5</title><path
                   d="M0 150.48 L216 150.48"
                   class="st2"
                   id="path3359" /></g><g
                 id="master-shape6-9"
                 v:mID="6"
                 v:groupContext="shape"
                 transform="translate(423.661,140.597) rotate(115.641)"><title
                   id="title3362">Sheet.6</title><path
                   d="M0 150.48 L83.19 150.48"
                   class="st2"
                   id="path3364" /></g><g
                 id="master-shape7-12"
                 v:mID="7"
                 v:groupContext="shape"
                 transform="translate(135.661,10.3626) rotate(64.359)"><title
                   id="title3367">Sheet.7</title><path
                   d="M0 150.48 L83.19 150.48"
                   class="st2"
                   id="path3369" /></g><g
                 id="master-shape8-15"
                 v:mID="8"
                 v:groupContext="shape"
                 transform="translate(213.512,133.943) rotate(152.488)"><title
                   id="title3372">Sheet.8</title><path
                   d="M0 150.48 L162.36 150.48"
                   class="st2"
                   id="path3374" /></g><g
                 id="master-shape9-18"
                 v:mID="9"
                 v:groupContext="shape"
                 transform="translate(213.512,-132.983) rotate(27.512)"><title
                   id="title3377">Sheet.9</title><path
                   d="M0 150.48 L162.36 150.48"
                   class="st2"
                   id="path3379" /></g></g></g><g
             id="master-shape10-21"
             v:mID="10"
             v:groupContext="shape"
             transform="translate(45,-3)"><title
               id="title3382">Rectangle.52</title><v:userDefs><v:ud
                 v:nameU="visVersion"
                 v:val="VT0(12):26" /></v:userDefs><path
               d="M0 150.48 L126 150.48 L126 84.48 L0 84.48 L0 150.48 Z"
               class="st3"
               id="path3384" /></g><g
             id="master-shape11-23"
             v:mID="11"
             v:groupContext="shape"
             transform="translate(171,-3)"><title
               id="title3387">Rectangle.23</title><v:userDefs><v:ud
                 v:nameU="visVersion"
                 v:val="VT0(12):26" /></v:userDefs><path
               d="M0 150.48 L72 150.48 L72 102.48 L0 102.48 L0 150.48 Z"
               class="st3"
               id="path3389" /></g></g><g
           id="group12-25"
           transform="translate(84,-9)"
           v:mID="12"
           v:groupContext="group"><title
             id="title3392">L-ADA5</title><g
             id="master-shape13-26"
             v:mID="13"
             v:groupContext="shape"
             transform="translate(150.48,113.73) rotate(90)"><title
               id="title3395">Rectangle.308</title><v:userDefs><v:ud
                 v:nameU="visVersion"
                 v:val="VT0(12):26" /></v:userDefs><rect
               x="0"
               y="101.73"
               width="36.75"
               height="48.75"
               class="st4"
               id="rect3397" /></g><g
             id="master-shape14-28"
             v:mID="14"
             v:groupContext="shape"
             transform="translate(3.375,-3.375)"><title
               id="title3400">Rectangle.309</title><v:userDefs><v:ud
                 v:nameU="visVersion"
                 v:val="VT0(12):26" /></v:userDefs><rect
               x="0"
               y="120.48"
               width="42"
               height="30"
               class="st4"
               id="rect3402" /></g></g><g
           id="master-shape15-30"
           v:mID="15"
           v:groupContext="shape"
           transform="translate(75,-36)"><title
             id="title3405">Circle, ellipse</title><v:userDefs><v:ud
               v:nameU="visVersion"
               v:val="VT0(12):26" /></v:userDefs><path
             d="M0 147.48 A3 3 0 0 1 6 147.48 A3 3 0 1 1 0 147.48 Z"
             class="st4"
             id="path3407" /></g><g
           id="master-shape16-32"
           v:mID="16"
           v:groupContext="shape"
           transform="translate(135.75,-36)"><title
             id="title3410">Circle, ellipse.315</title><v:userDefs><v:ud
               v:nameU="visVersion"
               v:val="VT0(12):26" /></v:userDefs><path
             d="M0 147.48 A3 3 0 0 1 6 147.48 A3 3 0 1 1 0 147.48 Z"
             class="st4"
             id="path3412" /></g></g></symbol></defs><path
     style="color:#000000;font-style:normal;font-variant:normal;font-weight:normal;font-stretch:normal;font-size:medium;line-height:normal;font-family:sans-serif;text-indent:0;text-align:start;text-decoration:none;text-decoration-line:none;text-decoration-style:solid;text-decoration-color:#000000;letter-spacing:normal;word-spacing:normal;text-transform:none;direction:ltr;block-progression:tb;writing-mode:lr-tb;baseline-shift:baseline;text-anchor:start;white-space:normal;clip-rule:evenodd;display:inline;overflow:visible;visibility:visible;opacity:1;isolation:auto;mix-blend-mode:normal;color-interpolation:sRGB;color-interpolation-filters:linearRGB;solid-color:#000000;solid-opacity:1;fill-opacity:1;fill-rule:evenodd;stroke:none;stroke-width:1;stroke-linecap:butt;stroke-linejoin:miter;stroke-miterlimit:3;stroke-dasharray:none;stroke-dashoffset:0;stroke-opacity:1;color-rendering:auto;image-rendering:auto;shape-rendering:auto;text-rendering:auto;enable-background:accumulate;fill:#1a1a1a"
     d="m 142.31836,27.546875 c -1.3672,0 -2.57586,0.509023 -3.52344,1.480469 -1.00224,0.968931 -1.5332,2.193173 -1.5332,3.5625 0,1.393024 0.53012,2.626967 1.53516,3.597656 0.39176,0.411498 0.85296,0.693625 1.32812,0.939453 -0.90654,0.199276 -1.83514,0.491877 -2.79102,0.917969 l -0.002,0.002 -11.47265,5.294922 c -1.13465,0.4851 -1.82227,1.412524 -1.82227,2.550781 0,0.914124 0.40792,1.811346 1.14062,2.66211 l 0.008,0.0078 c 3.8e-4,4.47e-4 -3.9e-4,0.0015 0,0.002 l 5.13281,6.230469 0.002,0.002 c 0.49453,0.587591 1.24915,0.948812 2.07813,1.25 -1.61974,2.101361 -2.46485,4.641156 -2.46485,7.585937 0,4.11491 1.87087,7.675178 5.50586,10.558594 l 0,-0.002 c 3.6343,2.906865 8.01973,4.365235 13.08985,4.365235 4.03882,0 7.70928,-0.961013 10.97461,-2.88086 l 0.002,-0.002 c 3.08169,-1.801735 5.24279,-4.17322 6.5332,-7.033203 l 7.20703,0 0,-2.482422 c 0,-0.752578 -0.0741,-1.344285 -0.54297,-1.722656 -0.46059,-0.371721 -1.05232,-0.400391 -1.92382,-0.400391 l -1.77735,0 -8.56445,-10.134765 0,-0.002 c -1.25509,-1.468854 -2.72091,-2.263621 -4.3125,-2.265625 l -8.92773,0 0,-11.074218 c 0,-0.992209 -0.48911,-1.883603 -1.34961,-2.552735 -0.41723,-0.347621 -0.89826,-0.590871 -1.40821,-0.78125 0.55311,-0.25188 1.07701,-0.578512 1.53711,-1.033203 l 0.002,0 c 0.97833,-0.973024 1.48632,-2.208227 1.48632,-3.599609 0,-1.368505 -0.51004,-2.591497 -1.48632,-3.564453 l -0.004,-0.002 -0.002,-0.0039 c -1.00596,-0.969023 -2.25518,-1.470695 -3.65235,-1.472656 l -0.002,0 z m 0,1 c 1.16392,0.0016 2.11567,0.383979 2.95312,1.1875 2.8e-4,2.67e-4 -2.7e-4,0.0017 0,0.002 0.81007,0.807849 1.19336,1.724 1.19336,2.853516 0,1.1571 -0.38338,2.084478 -1.1914,2.888672 -0.84286,0.832944 -1.79379,1.226562 -2.95508,1.226562 -1.12951,0 -2.02675,-0.38829 -2.80859,-1.214844 l -0.008,-0.0078 -0.008,-0.0078 c -0.83676,-0.806039 -1.23242,-1.731172 -1.23242,-2.884765 0,-1.125912 0.3942,-2.042166 1.23242,-2.84961 l 0.006,-0.0059 0.006,-0.0059 c 0.78077,-0.80262 1.68011,-1.181641 2.8125,-1.181641 z m 0.0898,9.300781 c 1.15833,0 2.06815,0.311374 2.80664,0.929688 l 0.008,0.0059 0.008,0.0059 c 0.68555,0.530887 0.9668,1.078716 0.9668,1.767579 l 0,12.074218 9.92773,0 c 1.26789,0.0016 2.42445,0.597842 3.55078,1.916016 l 8.86133,10.486328 2.24219,0 c 0.79507,0 1.27748,0.163659 1.29492,0.177735 0.009,0.0074 0.17187,0.306178 0.17187,0.945312 l 0,1.482422 -6.80273,0 -0.12891,0.30664 c -1.17749,2.801922 -3.2621,5.08122 -6.31445,6.865235 -3.10988,1.828973 -6.58874,2.744141 -10.4707,2.744141 -4.88001,0 -9.01044,-1.381942 -12.4668,-4.146485 -3.4556,-2.741116 -5.12891,-5.958268 -5.12891,-9.775391 0,-2.756776 0.76982,-5.043358 2.24414,-6.960937 0.95746,0.291793 2.25214,0.419185 4.34961,0.355469 -1.78014,1.93957 -2.85742,4.127881 -2.85742,6.605468 0,3.059845 1.41244,5.727109 4.1211,7.888672 2.68142,2.16329 5.94961,3.246094 9.73828,3.246094 3.78834,0 7.06922,-1.070726 9.78125,-3.207031 l 0.002,-0.002 c 2.70941,-2.162173 4.12109,-4.8437 4.12109,-7.925782 l 0,-0.193359 -6.66601,-7.410156 -17.43946,0 -0.14453,0.130859 c -0.0671,0.06138 -0.0871,0.139105 -0.15234,0.201172 l -1.77344,-2.535156 c 0.54392,-0.426879 1.19137,-0.919415 2.1543,-1.615234 l 0.20703,-0.148438 0,-8.220703 2.5918,-1.117188 0,-1.546875 -12.26172,5.107422 6.57226,9.251953 c -2.14434,-0.07908 -3.70451,-0.517144 -4.43554,-1.384765 l -0.002,0 -5.13671,-6.238282 -0.004,-0.0039 c -0.63345,-0.732607 -0.90625,-1.395816 -0.90625,-2.017578 0,-0.787063 0.32553,-1.250647 1.21484,-1.630859 l 0.008,-0.002 11.48242,-5.300782 c 1.67685,-0.747478 3.23117,-1.111328 4.66601,-1.111328 z m -4.78906,5.908203 0,7.800782 c -1.00243,0.727755 -1.82935,1.342194 -2.36133,1.771484 l -0.0508,0.04102 -4.71875,-6.642579 7.13086,-2.970703 z m 1.14063,13.273438 16.5625,0 6.07617,6.753906 c -0.0463,2.71292 -1.22681,5.013304 -3.70899,6.994141 -2.53292,1.994451 -5.55952,2.990234 -9.16015,2.990234 -3.60066,0 -6.61215,-1.007066 -9.11328,-3.02539 l -0.002,-0.002 c -2.53224,-2.020784 -3.74414,-4.348038 -3.74414,-7.107422 0,-2.501971 1.02676,-4.66585 3.08985,-6.603515 z"
     id="path3346-3"
     inkscape:connector-curvature="0" /><path
     inkscape:connector-curvature="0"
     style="clip-rule:evenodd;fill-rule:evenodd"
     d="m 41.687878,137.376 3.12,4.576 0.72,0 c 0.2984,0 0.4904,0.0424 0.576,0.128 0.0856,0.0856 0.128,0.2832 0.128,0.592 l 0,0.88 -2.496,0 c -0.4376,1.2904 -1.216,2.3408 -2.336,3.152 -1.1416,0.832 -2.4216,1.248 -3.84,1.248 -1.7816,0 -3.3064,-0.6296 -4.576,-1.888 -1.2696,-1.248 -1.904,-2.752 -1.904,-4.512 0,-1.3016 0.2936,-2.4056 0.88,-3.312 0.2776,0.1384 0.832,0.192 1.664,0.16 l -0.704,-1.248 c 0.2024,-0.2024 0.5064,-0.4848 0.912,-0.848 l 0,-3.68 0.928,-0.496 0,-0.208 -3.936,2.032 2.448,4.272 c -1.0344,0.0432 -1.7336,-0.2024 -2.096,-0.736 l -1.84,-2.768 c -0.2456,-0.352 -0.368,-0.6984 -0.368,-1.04 0,-0.4272 0.1816,-0.736 0.544,-0.928 l 4.112,-2.352 c 0.6184,-0.3416 1.2,-0.512 1.744,-0.512 0.448,0 0.8216,0.1544 1.12,0.464 0.2776,0.2664 0.416,0.5864 0.416,0.96 l 0,5.136 3.376,0 c 0.512,8e-4 0.9816,0.3096 1.408,0.928 z m -5.168,-11.024 c 0.32,0.3952 0.48,0.8696 0.48,1.424 0,0.5656 -0.16,1.0456 -0.48,1.44 -0.3312,0.4056 -0.7256,0.608 -1.184,0.608 -0.448,0 -0.8264,-0.2024 -1.136,-0.608 -0.3304,-0.3944 -0.496,-0.8744 -0.496,-1.44 0,-0.5544 0.1656,-1.0296 0.496,-1.424 0.3096,-0.3944 0.688,-0.592 1.136,-0.592 0.4592,8e-4 0.8536,0.1976 1.184,0.592 z m -2.336,18.528 c 0.928,0.928 2.0528,1.392 3.376,1.392 1.3232,0 2.4528,-0.4592 3.392,-1.376 0.9384,-0.928 1.408,-2.0424 1.408,-3.344 l -2.288,-3.152 -6.096,0 c -0.8,0.9064 -1.2,1.9568 -1.2,3.152 0,1.2912 0.4696,2.4 1.408,3.328 z"
     id="path3346" /><path
     style="fill:#00ff00;stroke:#000000;stroke-width:0.43462297;stroke-opacity:1"
     d="M 34.38667,163.35004 C 13.84721,120.58311 1.4924305,94.469608 1.7228182,94.310545 1.9411029,94.15984 32.166684,78.341689 54.172604,66.861658 135.94313,24.203669 176.19047,3.3883237 179.12671,2.2371913 l 1.73849,-0.6815637 9.77902,5.0544347 c 43.78701,22.6319867 166.08143,86.4172937 167.69345,87.4641567 0.77592,0.503889 -2.9671,8.522551 -39.94511,85.574181 l -3.38944,7.06262 -134.69849,0 -134.698497,0 -11.219463,-23.36098 z m 24.5542,21.20484 c 0.743384,-0.47012 0.697348,-0.52549 -1.204805,-1.44901 -1.243978,-0.60398 -1.467105,-0.61214 -1.678458,-0.0614 -0.534738,1.3935 1.43583,2.42576 2.883263,1.51037 z m 3.736915,-0.0656 c 0.298859,-0.48357 -0.515685,-1.24197 -1.333902,-1.24197 -0.818217,0 -1.632761,0.7584 -1.333901,1.24197 0.164253,0.26577 0.76451,0.48321 1.333901,0.48321 0.569391,0 1.169649,-0.21744 1.333902,-0.48321 z m 3.476983,0 c 0.29886,-0.48357 -0.515684,-1.24197 -1.333901,-1.24197 -0.818217,0 -1.632761,0.7584 -1.333901,1.24197 0.164252,0.26577 0.76451,0.48321 1.333901,0.48321 0.569391,0 1.169649,-0.21744 1.333901,-0.48321 z m 3.464823,0.0197 c 0.340693,-0.55125 0.251273,-0.65142 -0.887117,-0.99373 -1.053261,-0.31672 -2.182034,0.30498 -1.768525,0.97405 0.380778,0.61611 2.278333,0.63017 2.655642,0.0197 l 0,-10e-6 z m 3.992847,-0.26017 c 0.09133,-0.27852 -0.22849,-0.63162 -0.710704,-0.78467 -1.035225,-0.32857 -2.791375,0.49027 -2.402153,1.12005 0.359803,0.58217 2.901786,0.30829 3.112857,-0.33538 z m 3.407905,0.24049 c 0.298859,-0.48357 -0.515685,-1.24196 -1.333902,-1.24196 -0.818217,0 -1.632761,0.75839 -1.333901,1.24196 0.164253,0.26577 0.76451,0.48321 1.333901,0.48321 0.569391,0 1.169649,-0.21744 1.333902,-0.48321 z m 3.476983,0 c 0.29886,-0.48357 -0.515684,-1.24196 -1.333901,-1.24196 -0.818217,0 -1.632761,0.75839 -1.333901,1.24196 0.164252,0.26577 0.76451,0.48321 1.333901,0.48321 0.569391,0 1.169649,-0.21744 1.333901,-0.48321 z m 3.664263,-0.16873 c 0,-0.35857 -0.179586,-0.65194 -0.399075,-0.65194 -0.219493,0 -0.659549,-0.0957 -0.977902,-0.21275 -0.795355,-0.29232 -1.84424,0.44099 -1.478105,1.03341 0.462487,0.74831 2.855082,0.60693 2.855082,-0.16872 z m 3.787848,-0.0551 c 0.08827,-0.26935 -0.122277,-0.59824 -0.467885,-0.73087 -0.959187,-0.36807 -2.450717,0.15789 -2.450717,0.8642 0,0.75872 2.666173,0.63692 2.918602,-0.13333 z m 3.413464,0.22383 c 0.298859,-0.48357 -0.515685,-1.24197 -1.333902,-1.24197 -0.818217,0 -1.632761,0.7584 -1.333901,1.24197 0.164253,0.26577 0.76451,0.48321 1.333901,0.48321 0.569391,0 1.169649,-0.21744 1.333902,-0.48321 z m 3.476983,0 c 0.29886,-0.48357 -0.515684,-1.24197 -1.333901,-1.24197 -0.818217,0 -1.632761,0.7584 -1.333901,1.24197 0.164252,0.26577 0.76451,0.48321 1.333901,0.48321 0.569391,0 1.169649,-0.21744 1.333901,-0.48321 z m 3.868097,0.0704 c 0.372872,-0.60331 -1.397387,-1.41926 -2.393364,-1.10315 -0.874623,0.2776 -1.07511,0.7142 -0.563081,1.22622 0.439196,0.4392 2.666243,0.3465 2.956445,-0.12307 z m 3.520489,-0.0704 c 0.41351,-0.66907 -0.71526,-1.29077 -1.76852,-0.97405 -1.13839,0.34231 -1.227809,0.44247 -0.887117,0.99372 0.377309,0.6105 2.274867,0.59644 2.655637,-0.0197 l 0,2e-5 z m 3.47699,0 c 0.29886,-0.48357 -0.51569,-1.24197 -1.3339,-1.24197 -0.81822,0 -1.63276,0.7584 -1.3339,1.24197 0.16425,0.26577 0.76451,0.48321 1.3339,0.48321 0.56939,0 1.16965,-0.21744 1.3339,-0.48321 z m 3.47698,0 c 0.29886,-0.48357 -0.51568,-1.24197 -1.3339,-1.24197 -0.81822,0 -1.63276,0.7584 -1.3339,1.24197 0.16425,0.26577 0.76451,0.48321 1.3339,0.48321 0.56939,0 1.16965,-0.21744 1.3339,-0.48321 z m 3.89945,0.0197 c 0.3628,-0.58702 0.22968,-0.71066 -1.10532,-1.02664 -0.59712,-0.14133 -1.37904,-0.0594 -1.7376,0.18198 -0.5795,0.39018 -0.5795,0.4865 0,0.86692 0.86698,0.56914 2.48525,0.55646 2.84292,-0.0223 l 0,0 z m 3.47698,0 c 0.40182,-0.65016 -0.0144,-0.94899 -1.32174,-0.94899 -0.61752,0 -1.232,0.10923 -1.3655,0.24272 -0.47153,0.47153 0.34355,1.16979 1.3655,1.16979 0.56939,0 1.16417,-0.20859 1.32174,-0.46354 l 0,2e-5 z m 3.45911,-0.40572 c 0,-0.78031 -1.47601,-1.05021 -2.39042,-0.43712 -0.5795,0.38855 -0.5795,0.48568 0,0.87423 0.91441,0.6131 2.39042,0.34319 2.39042,-0.43711 z m 3.47699,0.006 c 0,-0.77373 -1.4336,-1.13663 -2.05103,-0.5192 -0.24063,0.24062 -0.29919,0.66131 -0.13013,0.93485 0.43204,0.69905 2.18116,0.36573 2.18116,-0.41565 z m 3.69429,0.42201 c 0.5795,-0.38041 0.5795,-0.47552 0,-0.85593 -1.3225,-0.86817 -3.0703,-0.23747 -2.39042,0.86259 0.34112,0.55195 1.54458,0.5486 2.39042,-0.007 z m 3.71217,-0.0223 c 0.34069,-0.55125 0.25127,-0.65141 -0.88712,-0.99372 -1.05326,-0.31672 -2.18203,0.30497 -1.76852,0.97405 0.38078,0.61611 2.27833,0.63017 2.65564,0.0197 l 0,-1e-5 z m 3.67642,0.0223 c 0.5795,-0.38041 0.5795,-0.47674 0,-0.86691 -0.35856,-0.24142 -1.14048,-0.32332 -1.7376,-0.18199 -1.335,0.31598 -1.46811,0.43962 -1.10532,1.02664 0.35768,0.57873 1.97594,0.5914 2.84292,0.0223 l 0,0 z m 3.72433,-0.0419 c 0.29886,-0.48356 -0.51568,-1.24196 -1.3339,-1.24196 -0.81822,0 -1.63276,0.7584 -1.3339,1.24196 0.16425,0.26577 0.76451,0.48322 1.3339,0.48322 0.56939,0 1.16965,-0.21745 1.3339,-0.48322 z m 3.47699,0 c 0.29885,-0.48356 -0.51569,-1.24196 -1.33391,-1.24196 -0.81821,0 -1.63276,0.7584 -1.3339,1.24196 0.16426,0.26577 0.76451,0.48322 1.3339,0.48322 0.56939,0 1.16965,-0.21745 1.33391,-0.48322 z m 3.46482,0.0197 c 0.34069,-0.55125 0.25127,-0.65141 -0.88712,-0.99372 -1.05326,-0.31672 -2.18203,0.30497 -1.76852,0.97405 0.38077,0.61611 2.27833,0.63017 2.65564,0.0197 l 0,-1e-5 z m 3.99284,-0.26017 c 0.0913,-0.27852 -0.22849,-0.63162 -0.7107,-0.78467 -1.03522,-0.32856 -2.79137,0.49028 -2.40215,1.12006 0.3598,0.58217 2.90178,0.30829 3.11285,-0.33539 z m 3.40791,0.2405 c 0.29886,-0.48357 -0.51569,-1.24197 -1.3339,-1.24197 -0.81822,0 -1.63276,0.7584 -1.3339,1.24197 0.16425,0.26576 0.76451,0.48321 1.3339,0.48321 0.56939,0 1.16965,-0.21745 1.3339,-0.48321 z m 3.47698,0 c 0.29886,-0.48357 -0.51568,-1.24197 -1.3339,-1.24197 -0.81822,0 -1.63276,0.7584 -1.3339,1.24197 0.16425,0.26576 0.76451,0.48321 1.3339,0.48321 0.56939,0 1.16965,-0.21745 1.3339,-0.48321 z m 3.66427,-0.16873 c 0,-0.35857 -0.17959,-0.65194 -0.39908,-0.65194 -0.21949,0 -0.65955,-0.0957 -0.9779,-0.21275 -0.79536,-0.29232 -1.84424,0.44099 -1.47811,1.03341 0.46249,0.74831 2.85509,0.60693 2.85509,-0.16872 z m 3.78784,-0.0551 c 0.0883,-0.26935 -0.12227,-0.59824 -0.46788,-0.73087 -0.95919,-0.36807 -2.45072,0.15789 -2.45072,0.8642 0,0.75872 2.66617,0.63692 2.9186,-0.13333 z m 3.41347,0.22383 c 0.29886,-0.48357 -0.51569,-1.24197 -1.3339,-1.24197 -0.81822,0 -1.63277,0.7584 -1.33391,1.24197 0.16426,0.26577 0.76452,0.48321 1.33391,0.48321 0.56939,0 1.16964,-0.21744 1.3339,-0.48321 z m 3.47698,0 c 0.29886,-0.48357 -0.51568,-1.24197 -1.3339,-1.24197 -0.81822,0 -1.63276,0.7584 -1.3339,1.24197 0.16425,0.26577 0.76451,0.48321 1.3339,0.48321 0.56939,0 1.16965,-0.21744 1.3339,-0.48321 z m 3.8681,0.0704 c 0.37287,-0.60331 -1.39739,-1.41926 -2.39337,-1.10315 -0.87462,0.2776 -1.07511,0.7142 -0.56308,1.22622 0.4392,0.4392 2.66625,0.3465 2.95645,-0.12307 z m 3.50833,-0.0507 c 0.34069,-0.55125 0.25127,-0.65141 -0.88712,-0.99372 -1.05326,-0.31672 -2.18203,0.30498 -1.76852,0.97405 0.38078,0.61611 2.27833,0.63017 2.65564,0.0197 l 0,-2e-5 z m 3.48915,-0.0197 c 0.4135,-0.66907 -0.71527,-1.29076 -1.76853,-0.97405 -1.13839,0.34232 -1.22781,0.44248 -0.88712,0.99373 0.37731,0.6105 2.27487,0.59644 2.65565,-0.0197 l 0,1e-5 z m 3.47698,0 c 0.29886,-0.48356 -0.51569,-1.24196 -1.3339,-1.24196 -0.81822,0 -1.63276,0.7584 -1.3339,1.24196 0.16425,0.26577 0.76451,0.48322 1.3339,0.48322 0.56939,0 1.16965,-0.21745 1.3339,-0.48322 z m 3.44695,-0.38601 c 0,-0.78031 -1.47602,-1.05021 -2.39043,-0.43712 -0.57949,0.38855 -0.57949,0.48568 0,0.87423 0.91441,0.6131 2.39043,0.34319 2.39043,-0.43711 z m 4.00567,0.16052 c 0.2089,-0.6372 -2.04571,-1.20777 -2.59641,-0.65708 -0.23144,0.23145 -0.28248,0.64464 -0.1134,0.91822 0.37994,0.61475 2.48931,0.41148 2.70981,-0.26114 z m 3.38292,-0.16052 c 0,-0.44882 -0.38884,-0.62419 -1.24805,-0.56288 -1.46798,0.10475 -1.77365,0.32769 -1.36216,0.99349 0.43907,0.71044 2.61021,0.35226 2.61021,-0.43061 z m 3.47698,0.006 c 0,-0.77373 -1.43359,-1.13663 -2.05102,-0.5192 -0.24063,0.24062 -0.29919,0.66131 -0.13014,0.93485 0.43204,0.69905 2.18116,0.36573 2.18116,-0.41565 z m 3.6943,0.42201 c 0.5795,-0.38041 0.5795,-0.47552 0,-0.85593 -1.32251,-0.86817 -3.0703,-0.23747 -2.39043,0.86259 0.34113,0.55195 1.54459,0.5486 2.39043,-0.007 z m 3.71217,-0.0223 c 0.34069,-0.55125 0.25127,-0.65141 -0.88712,-0.99372 -1.05326,-0.31672 -2.18203,0.30497 -1.76853,0.97405 0.38078,0.61611 2.27834,0.63017 2.65565,0.0197 l 0,-1e-5 z m 3.67642,0.0223 c 0.5795,-0.38041 0.5795,-0.47674 0,-0.86691 -0.35856,-0.24142 -1.14049,-0.32332 -1.7376,-0.18199 -1.33501,0.31598 -1.46812,0.43962 -1.10532,1.02664 0.35767,0.57873 1.97594,0.5914 2.84292,0.0223 l 0,0 z m 6.08472,0 c 0.5795,-0.38041 0.5795,-0.47552 0,-0.85593 -0.35856,-0.23539 -0.89641,-0.43097 -1.19521,-0.43463 -0.42915,-0.005 -0.54328,-6.12389 -0.54328,-29.12639 0,-28.53485 0.0169,-29.11974 0.84359,-29.11974 0.96806,0 1.60779,-0.78135 1.05261,-1.28562 -0.20626,-0.18735 -0.91287,-0.46741 -1.57023,-0.62235 l -1.19522,-0.2817 -4.3e-4,12.28638 c -8.7e-4,23.22623 -0.54342,48.14232 -1.04804,48.14942 -0.25991,0.003 -0.76594,0.19924 -1.1245,0.43463 -0.5795,0.38041 -0.5795,0.47552 0,0.85593 0.35856,0.23539 1.43425,0.42797 2.39042,0.42797 0.95618,0 2.03187,-0.19258 2.39043,-0.42797 l -1.4e-4,0 z m 3.72433,-0.0419 c 0.29886,-0.48356 -0.51568,-1.24196 -1.3339,-1.24196 -0.81822,0 -1.63276,0.7584 -1.3339,1.24196 0.16425,0.26577 0.76451,0.48322 1.3339,0.48322 0.56939,0 1.16965,-0.21745 1.3339,-0.48322 z m 3.47698,0 c 0.29886,-0.48356 -0.51568,-1.24196 -1.3339,-1.24196 -0.81821,0 -1.63276,0.7584 -1.3339,1.24196 0.16425,0.26577 0.76451,0.48322 1.3339,0.48322 0.56939,0 1.16965,-0.21745 1.3339,-0.48322 z m 3.8681,0.0704 c 0.35059,-0.56727 -1.28692,-1.38312 -2.12815,-1.06031 -1.27659,0.48988 -0.68619,1.47313 0.88455,1.47313 0.54365,0 1.10328,-0.18577 1.2436,-0.41282 z m 3.52049,-0.0704 c 0.41351,-0.66907 -0.71526,-1.29077 -1.76852,-0.97405 -1.13839,0.34232 -1.22781,0.44248 -0.88712,0.99373 0.37731,0.6105 2.27487,0.59644 2.65564,-0.0197 l 0,1e-5 z m 3.47699,0 c 0.29886,-0.48356 -0.51569,-1.24196 -1.3339,-1.24196 -0.81822,0 -1.63276,0.7584 -1.33391,1.24196 0.16426,0.26577 0.76452,0.48322 1.33391,0.48322 0.56939,0 1.16964,-0.21745 1.3339,-0.48322 z m 3.47698,0 c 0.29886,-0.48356 -0.51568,-1.24196 -1.3339,-1.24196 -0.81822,0 -1.63276,0.7584 -1.3339,1.24196 0.16425,0.26577 0.76451,0.48322 1.3339,0.48322 0.56939,0 1.16965,-0.21745 1.3339,-0.48322 z m 3.89945,0.0197 c 0.36279,-0.58702 0.22968,-0.71066 -1.10532,-1.02664 -0.59712,-0.14133 -1.37904,-0.0594 -1.7376,0.18199 -0.5795,0.39017 -0.5795,0.4865 0,0.86691 0.86698,0.56914 2.48524,0.55647 2.84292,-0.0223 l 0,-10e-6 z m 3.48914,-0.0197 c 0.41351,-0.66907 -0.71526,-1.29077 -1.76852,-0.97405 -1.13839,0.34232 -1.22781,0.44248 -0.88712,0.99373 0.37731,0.6105 2.27486,0.59644 2.65564,-0.0197 l 0,1e-5 z m 3.44695,-0.38602 c 0,-0.78031 -1.47602,-1.05021 -2.39042,-0.43712 -0.5795,0.38855 -0.5795,0.48568 0,0.87423 0.9144,0.6131 2.39042,0.34319 2.39042,-0.43711 z m 3.47699,0.006 c 0,-0.77373 -1.4336,-1.13663 -2.05103,-0.5192 -0.24063,0.24062 -0.29919,0.66131 -0.13013,0.93485 0.43203,0.69905 2.18116,0.36573 2.18116,-0.41565 z m 4.00567,0.15457 c 0.2089,-0.6372 -2.04571,-1.20777 -2.59641,-0.65708 -0.23145,0.23145 -0.28248,0.64464 -0.1134,0.91822 0.37993,0.61475 2.4893,0.41148 2.70981,-0.26114 z m 3.38292,-0.16052 c 0,-0.44882 -0.38884,-0.62419 -1.24806,-0.56288 -1.46797,0.10475 -1.77365,0.32769 -1.36216,0.99349 0.43908,0.71044 2.61022,0.35226 2.61022,-0.43061 z m 3.69429,0.42796 c 0.5795,-0.38041 0.5795,-0.47552 0,-0.85593 -1.3225,-0.86817 -3.0703,-0.23747 -2.39042,0.86259 0.34112,0.55195 1.54458,0.5486 2.39042,-0.007 z m 3.72433,-0.0419 c 0.29886,-0.48356 -0.51568,-1.24196 -1.3339,-1.24196 -0.81822,0 -1.63276,0.7584 -1.3339,1.24196 0.16425,0.26577 0.76451,0.48322 1.3339,0.48322 0.56939,0 1.16965,-0.21745 1.3339,-0.48322 z m 3.46482,0.0197 c 0.3407,-0.55125 0.25128,-0.65141 -0.88711,-0.99372 -1.05327,-0.31672 -2.18204,0.30497 -1.76853,0.97405 0.38078,0.61611 2.27833,0.63017 2.65564,0.0197 l 0,-1e-5 z m 3.48915,-0.0197 c 0.41351,-0.66907 -0.71527,-1.29077 -1.76853,-0.97405 -1.13839,0.34232 -1.22781,0.44248 -0.88711,0.99373 0.37731,0.6105 2.27486,0.59644 2.65564,-0.0197 l 0,1e-5 z m 3.9116,0 c 0.29886,-0.48356 -0.51568,-1.24196 -1.3339,-1.24196 -0.81821,0 -1.63276,0.7584 -1.3339,1.24196 0.16425,0.26577 0.76451,0.48322 1.3339,0.48322 0.56939,0 1.16965,-0.21745 1.3339,-0.48322 z m 3.47699,0 c 0.29886,-0.48356 -0.51569,-1.24196 -1.3339,-1.24196 -0.81822,0 -1.63276,0.7584 -1.3339,1.24196 0.16425,0.26577 0.76451,0.48322 1.3339,0.48322 0.56939,0 1.16965,-0.21745 1.3339,-0.48322 z m 3.47698,0 c 0.29886,-0.48356 -0.51568,-1.24196 -1.3339,-1.24196 -0.81822,0 -1.63276,0.7584 -1.3339,1.24196 0.16425,0.26577 0.76451,0.48322 1.3339,0.48322 0.56939,0 1.16965,-0.21745 1.3339,-0.48322 z m 3.66426,-0.16871 c 0,-0.35857 -0.17958,-0.65194 -0.39907,-0.65194 -0.21949,0 -0.65955,-0.0957 -0.9779,-0.21275 -0.79536,-0.29232 -1.84424,0.44099 -1.47811,1.03341 0.46249,0.74831 2.85508,0.60693 2.85508,-0.16872 z m 3.78785,-0.0551 c 0.0883,-0.26935 -0.12227,-0.59824 -0.46788,-0.73087 -0.95919,-0.36807 -2.45072,0.15789 -2.45072,0.8642 0,0.75872 2.66617,0.63692 2.9186,-0.13333 z m 3.41347,0.22383 c 0.29886,-0.48357 -0.51569,-1.24197 -1.33391,-1.24197 -0.81821,0 -1.63276,0.7584 -1.3339,1.24197 0.16426,0.26577 0.76451,0.48321 1.3339,0.48321 0.5694,0 1.16965,-0.21744 1.33391,-0.48321 z m 3.47698,0 c 0.29886,-0.48357 -0.51568,-1.24197 -1.3339,-1.24197 -0.81822,0 -1.63276,0.7584 -1.3339,1.24197 0.16425,0.26577 0.76451,0.48321 1.3339,0.48321 0.56939,0 1.16965,-0.21744 1.3339,-0.48321 z m 3.8681,0.0704 c 0.37287,-0.60331 -1.39739,-1.41926 -2.39337,-1.10315 -0.87462,0.2776 -1.07511,0.7142 -0.56308,1.22622 0.4392,0.4392 2.66624,0.3465 2.95645,-0.12307 z m 1.53465,-1.54298 c 0,-0.59761 -0.19558,-1.08656 -0.43462,-1.08656 -0.23904,0 -0.43462,0.48895 -0.43462,1.08656 0,0.5976 0.19558,1.08656 0.43462,1.08656 0.23904,0 0.43462,-0.48896 0.43462,-1.08656 z M 56.867336,179.6702 c -0.639556,-0.63956 -1.184174,0.6248 -0.739463,1.71669 0.27632,0.67844 0.359616,0.65343 0.771178,-0.23149 0.33226,-0.7144 0.323381,-1.1301 -0.03173,-1.4852 l 1.3e-5,0 z m 247.648094,-0.34777 c 0,-0.71712 -0.19558,-1.30387 -0.43462,-1.30387 -0.23904,0 -0.43462,0.58675 -0.43462,1.30387 0,0.71713 0.19558,1.30387 0.43462,1.30387 0.23904,0 0.43462,-0.58674 0.43462,-1.30387 z M 56.867336,175.75859 c -0.639556,-0.63955 -1.184174,0.6248 -0.739463,1.7167 0.27632,0.67843 0.359616,0.65342 0.771178,-0.2315 0.33226,-0.7144 0.323381,-1.1301 -0.03173,-1.4852 l 1.3e-5,0 z m 110.202324,-22.18757 -0.1124,-23.57829 -31.07554,0 -31.07554,0 -0.1124,23.57829 -0.1124,23.5783 31.30034,0 31.30034,0 -0.1124,-23.5783 z m 137.44577,22.27443 c 0,-0.71713 -0.19558,-1.30387 -0.43462,-1.30387 -0.23904,0 -0.43462,0.58674 -0.43462,1.30387 0,0.71713 0.19558,1.30387 0.43462,1.30387 0.23904,0 0.43462,-0.58674 0.43462,-1.30387 z M 57.047666,172.55938 c -0.132026,-0.34405 -0.44176,-0.62554 -0.688309,-0.62554 -0.500642,0 -0.617421,1.85908 -0.146367,2.33014 0.435044,0.43504 1.11941,-0.96259 0.834676,-1.7046 z m 247.467764,-0.19091 c 0,-0.71713 -0.19558,-1.30387 -0.43462,-1.30387 -0.23904,0 -0.43462,0.58674 -0.43462,1.30387 0,0.71712 0.19558,1.30386 0.43462,1.30386 0.23904,0 0.43462,-0.58674 0.43462,-1.30386 z M 57.047666,169.08239 c -0.132026,-0.34404 -0.44176,-0.62553 -0.688309,-0.62553 -0.500642,0 -0.617421,1.85908 -0.146367,2.33013 0.435044,0.43504 1.11941,-0.96259 0.834676,-1.7046 z m 247.467764,-0.40822 c 0,-0.59761 -0.19558,-1.08656 -0.43462,-1.08656 -0.23904,0 -0.43462,0.48895 -0.43462,1.08656 0,0.59761 0.19558,1.08656 0.43462,1.08656 0.23904,0 0.43462,-0.48895 0.43462,-1.08656 z M 57.047666,165.60541 c -0.132026,-0.34404 -0.44176,-0.62554 -0.688309,-0.62554 -0.500642,0 -0.617421,1.85908 -0.146367,2.33014 0.435044,0.43504 1.11941,-0.96259 0.834676,-1.7046 z m 247.467764,-0.62554 c 0,-0.71712 -0.19558,-1.30386 -0.43462,-1.30386 -0.23904,0 -0.43462,0.58674 -0.43462,1.30386 0,0.71713 0.19558,1.30387 0.43462,1.30387 0.23904,0 0.43462,-0.58674 0.43462,-1.30387 z M 57.047666,161.6938 c -0.132026,-0.34404 -0.44176,-0.62553 -0.688309,-0.62553 -0.500642,0 -0.617421,1.85908 -0.146367,2.33013 0.435044,0.43504 1.11941,-0.96259 0.834676,-1.7046 z m 247.467764,-0.19091 c 0,-0.71713 -0.19558,-1.30387 -0.43462,-1.30387 -0.23904,0 -0.43462,0.58674 -0.43462,1.30387 0,0.71713 0.19558,1.30387 0.43462,1.30387 0.23904,0 0.43462,-0.58674 0.43462,-1.30387 z M 56.997653,158.67784 c 0,-0.43824 -0.244475,-0.8783 -0.543278,-0.9779 -0.344078,-0.11469 -0.543279,0.24387 -0.543279,0.9779 0,0.73403 0.199201,1.0926 0.543279,0.9779 0.298803,-0.0996 0.543278,-0.53965 0.543278,-0.9779 z m 247.517777,-0.65193 c 0,-0.71713 -0.19558,-1.30387 -0.43462,-1.30387 -0.23904,0 -0.43462,0.58674 -0.43462,1.30387 0,0.71713 0.19558,1.30387 0.43462,1.30387 0.23904,0 0.43462,-0.58674 0.43462,-1.30387 z M 57.000057,155.8489 c 0.379739,-0.61442 -0.195398,-2.23555 -0.685631,-1.93257 -0.528575,0.32668 -0.523712,2.37109 0.0057,2.37109 0.224935,0 0.530931,-0.19734 0.67999,-0.43852 l -9e-6,0 z m 247.515373,-1.29998 c 0,-0.71712 -0.19558,-1.30387 -0.43462,-1.30387 -0.48342,0 -0.59986,1.86301 -0.14487,2.31799 0.49102,0.49103 0.57949,0.3362 0.57949,-1.01412 z m -247.515373,-2.177 c 0.379739,-0.61443 -0.195398,-2.23555 -0.685631,-1.93257 -0.528575,0.32667 -0.523712,2.37108 0.0057,2.37108 0.224935,0 0.530931,-0.19733 0.67999,-0.43851 l -9e-6,0 z m 247.515373,-1.7346 c 0,-0.71713 -0.19558,-1.30387 -0.43462,-1.30387 -0.23904,0 -0.43462,0.58674 -0.43462,1.30387 0,0.71712 0.19558,1.30387 0.43462,1.30387 0.23904,0 0.43462,-0.58675 0.43462,-1.30387 z M 57.000057,148.46031 c 0.379739,-0.61442 -0.195398,-2.23555 -0.685631,-1.93257 -0.528575,0.32668 -0.523712,2.37109 0.0057,2.37109 0.224935,0 0.530931,-0.19734 0.67999,-0.43852 l -9e-6,0 z m 247.515373,-1.51729 c 0,-0.5976 -0.19558,-1.08656 -0.43462,-1.08656 -0.23904,0 -0.43462,0.48896 -0.43462,1.08656 0,0.59761 0.19558,1.08656 0.43462,1.08656 0.23904,0 0.43462,-0.48895 0.43462,-1.08656 z M 57.000057,144.98333 c 0.379739,-0.61443 -0.195398,-2.23555 -0.685631,-1.93257 -0.528575,0.32667 -0.523712,2.37108 0.0057,2.37108 0.224935,0 0.530931,-0.19733 0.67999,-0.43851 l -9e-6,0 z m 247.515373,-1.51729 c 0,-0.59761 -0.19558,-1.08656 -0.43462,-1.08656 -0.23904,0 -0.43462,0.48895 -0.43462,1.08656 0,0.5976 0.19558,1.08656 0.43462,1.08656 0.23904,0 0.43462,-0.48896 0.43462,-1.08656 z m -129.34317,-0.38872 c 1.84221,-0.76972 2.86789,-2.2299 2.86789,-4.08279 0,-1.90905 -0.61254,-2.97932 -2.16441,-3.78183 -2.04405,-1.05702 -3.40592,-0.82313 -5.10593,0.87688 -1.37808,1.37808 -1.50941,1.71152 -1.29724,3.29341 0.24869,1.85413 1.24949,3.29573 2.70017,3.88948 1.21395,0.49687 1.36716,0.48689 2.99952,-0.19515 z m -74.34115,-0.8944 c 0.90208,-0.83602 1.15002,-1.47109 1.15002,-2.94565 0,-2.38176 -0.88995,-3.65285 -3.00021,-4.2851 -2.20519,-0.66069 -3.896465,0.12868 -4.96622,2.3179 -0.669149,1.36941 -0.715532,1.86849 -0.292705,3.14967 0.647766,1.96274 1.922624,2.82899 4.163458,2.82899 1.303625,0 2.110742,-0.29204 2.945657,-1.06581 z m -43.831053,-0.67658 c 0.379739,-0.61442 -0.195398,-2.23555 -0.685631,-1.93257 -0.528575,0.32668 -0.523712,2.37109 0.0057,2.37109 0.224935,0 0.530931,-0.19733 0.67999,-0.43852 l -9e-6,0 z m 247.515373,-1.51729 c 0,-0.5976 -0.19558,-1.08655 -0.43462,-1.08655 -0.23904,0 -0.43462,0.48895 -0.43462,1.08655 0,0.59761 0.19558,1.08656 0.43462,1.08656 0.23904,0 0.43462,-0.48895 0.43462,-1.08656 z M 56.899051,136.63491 c -0.411562,-0.88492 -0.494858,-0.90993 -0.771178,-0.2315 -0.444711,1.0919 0.09991,2.35625 0.739463,1.7167 0.355096,-0.3551 0.363975,-0.7708 0.03173,-1.4852 l -1.3e-5,0 z m 247.616379,-0.55746 c 0,-0.59761 -0.19558,-1.08656 -0.43462,-1.08656 -0.23904,0 -0.43462,0.48895 -0.43462,1.08656 0,0.5976 0.19558,1.08655 0.43462,1.08655 0.23904,0 0.43462,-0.48895 0.43462,-1.08655 z m -247.517777,-2.5353 c 0,-1.13287 -0.852252,-1.06177 -1.014475,0.0846 -0.09956,0.70362 0.03707,0.96554 0.434623,0.83303 0.318918,-0.1063 0.579852,-0.51925 0.579852,-0.91765 z m 247.517777,-0.94169 c 0,-0.5976 -0.19558,-1.08655 -0.43462,-1.08655 -0.23904,0 -0.43462,0.48895 -0.43462,1.08655 0,0.59761 0.19558,1.08656 0.43462,1.08656 0.23904,0 0.43462,-0.48895 0.43462,-1.08656 z M 56.899051,129.24632 c -0.411562,-0.88493 -0.494858,-0.90993 -0.771178,-0.2315 -0.444711,1.0919 0.09991,2.35625 0.739463,1.7167 0.355096,-0.3551 0.363975,-0.7708 0.03173,-1.4852 l -1.3e-5,0 z m 247.616379,-0.34015 c 0,-0.71713 -0.19558,-1.30387 -0.43462,-1.30387 -0.23904,0 -0.43462,0.58674 -0.43462,1.30387 0,0.71713 0.19558,1.30387 0.43462,1.30387 0.23904,0 0.43462,-0.58674 0.43462,-1.30387 z M 56.899051,125.76933 c -0.411562,-0.88492 -0.494858,-0.90992 -0.771178,-0.23149 -0.444711,1.0919 0.09991,2.35625 0.739463,1.71669 0.355096,-0.35509 0.363975,-0.77079 0.03173,-1.4852 l -1.3e-5,0 z m 247.616379,-0.34015 c 0,-0.71712 -0.19558,-1.30386 -0.43462,-1.30386 -0.23904,0 -0.43462,0.58674 -0.43462,1.30386 0,0.71713 0.19558,1.30387 0.43462,1.30387 0.23904,0 0.43462,-0.58674 0.43462,-1.30387 z m -84.36982,-0.8273 c 0.32942,-0.20866 0.46457,-0.59682 0.30031,-0.8626 -0.37165,-0.60134 -2.27449,-0.63639 -2.63777,-0.0486 -0.65953,1.06715 1.04325,1.73093 2.33746,0.91119 z m 3.74726,-0.47656 c 0,-0.76233 -1.85674,-1.14216 -2.4896,-0.5093 -0.69271,0.69271 0.0783,1.44027 1.33544,1.29479 0.67681,-0.0783 1.15416,-0.40319 1.15416,-0.78549 z m 3.47699,0 c 0,-0.7968 -1.86922,-1.12968 -2.54558,-0.45332 -0.36294,0.36294 -0.32188,0.59786 0.15878,0.90853 0.9218,0.59578 2.3868,0.31637 2.3868,-0.45521 z m 3.45253,0.60117 c 0.5407,-0.20748 0.58581,-0.40393 0.19964,-0.86924 -0.92491,-1.11445 -3.07392,-0.47139 -2.3483,0.70269 0.30577,0.49475 1.12741,0.55844 2.14866,0.16655 z m 3.66577,-0.12461 c 0.32943,-0.20866 0.46457,-0.59682 0.30032,-0.8626 -0.37165,-0.60134 -2.27449,-0.63639 -2.63777,-0.0486 -0.65954,1.06715 1.04324,1.73093 2.33745,0.91119 z m 11.24458,-0.36791 c 0.22152,-0.66479 0.46737,-0.62886 -5.2221,-0.76318 -4.36824,-0.10314 -5.47814,0.1261 -4.92714,1.01764 0.37914,0.61347 9.9399,0.37377 10.14924,-0.25446 z m 3.36827,-0.10865 c 0,-0.75331 -1.45789,-1.05625 -2.33746,-0.48571 -0.32943,0.21369 -0.45764,0.61717 -0.28492,0.89665 0.44801,0.72488 2.62238,0.38414 2.62238,-0.41094 z m 3.47698,0 c 0,-0.75331 -1.45789,-1.05625 -2.33745,-0.48571 -0.32943,0.21369 -0.45765,0.61717 -0.28493,0.89665 0.44801,0.72488 2.62238,0.38414 2.62238,-0.41094 z m 4.01067,0.14553 c 0.21544,-0.65684 -1.36569,-1.15415 -2.51237,-0.79021 -0.7276,0.23094 -0.79458,0.4007 -0.36317,0.92051 0.60208,0.72547 2.62491,0.63381 2.87554,-0.1303 z m 3.48393,-0.0209 c 0.2244,-0.68368 -1.98639,-1.2432 -2.57731,-0.65228 -0.24852,0.24852 -0.31352,0.67569 -0.14445,0.94926 0.39068,0.63212 2.49208,0.40284 2.72176,-0.29698 z m 3.37097,-0.12467 c 0,-0.75331 -1.45788,-1.05625 -2.33745,-0.48571 -0.32943,0.21369 -0.45764,0.61717 -0.28492,0.89665 0.448,0.72488 2.62237,0.38414 2.62237,-0.41094 z m 3.47771,0.43345 c 0.18005,-0.29132 0.53931,-0.29132 1.08364,0 1.06502,0.56997 2.48426,0.55613 2.84512,-0.0277 0.48325,-0.78193 -0.15583,-1.01432 -3.01994,-1.09818 -2.8874,-0.0846 -4.04803,0.26832 -3.54731,1.0785 0.37202,0.60195 2.27464,0.63614 2.63849,0.0474 l 0,-1e-5 z m 7.49388,-0.30877 c 0.22439,-0.68368 -1.98639,-1.2432 -2.57731,-0.65228 -0.24852,0.24852 -0.31353,0.67568 -0.14445,0.94926 0.39067,0.63212 2.49208,0.40284 2.72176,-0.29698 z m 3.37097,-0.12468 c 0,-0.78031 -1.47602,-1.05021 -2.39042,-0.43712 -0.5795,0.38855 -0.5795,0.48568 0,0.87423 0.9144,0.6131 2.39042,0.34319 2.39042,-0.43711 z m 7.38859,0 c 0,-0.80444 -1.79035,-1.113 -2.59296,-0.44689 -0.40572,0.33672 -0.67707,0.34711 -0.87098,0.0334 -0.35358,-0.5721 -1.97602,-0.58036 -2.83809,-0.0145 -1.11332,0.73085 0.21461,1.16987 3.39631,1.12285 2.27403,-0.0336 2.90572,-0.18467 2.90572,-0.69487 z m 3.47699,0 c 0,-0.7968 -1.86923,-1.12968 -2.54558,-0.45332 -0.36294,0.36294 -0.32188,0.59786 0.15878,0.90853 0.9218,0.59578 2.3868,0.31637 2.3868,-0.45521 z m 3.47698,0 c 0,-0.7968 -1.86922,-1.12968 -2.54558,-0.45332 -0.36294,0.36294 -0.32188,0.59786 0.15879,0.90853 0.92179,0.59578 2.38679,0.31637 2.38679,-0.45521 z m 3.64132,0.47656 c 0.32943,-0.20866 0.46457,-0.59682 0.30032,-0.8626 -0.37165,-0.60134 -2.27449,-0.63639 -2.63777,-0.0486 -0.65954,1.06715 1.04324,1.73093 2.33745,0.91119 z m 3.74727,-0.47656 c 0,-0.76233 -1.85674,-1.14216 -2.48961,-0.5093 -0.6927,0.69271 0.0783,1.44027 1.33544,1.29479 0.67682,-0.0783 1.15417,-0.40319 1.15417,-0.78549 z m 3.47698,0 c 0,-0.7968 -1.86922,-1.12968 -2.54557,-0.45332 -0.36294,0.36294 -0.32189,0.59786 0.15878,0.90853 0.9218,0.59578 2.38679,0.31637 2.38679,-0.45521 z M 57.214965,122.82145 c 0,-1.07076 -0.801936,-1.55037 -1.136126,-0.67948 -0.342431,0.89235 0.139857,2.11315 0.698435,1.76793 0.240729,-0.14878 0.437691,-0.63858 0.437691,-1.08845 z m 157.333515,-1.95581 c 0,-0.5976 -0.19558,-1.08655 -0.43462,-1.08655 -0.23905,0 -0.43463,0.48895 -0.43463,1.08655 0,0.59761 0.19558,1.08656 0.43463,1.08656 0.23904,0 0.43462,-0.48895 0.43462,-1.08656 z M 57.214965,119.34446 c 0,-0.44987 -0.196962,-0.93967 -0.437691,-1.08845 -0.558578,-0.34522 -1.040866,0.87558 -0.698435,1.76793 0.33419,0.87089 1.136126,0.39128 1.136126,-0.67948 z m 157.333515,-1.93015 c 0,-0.5835 -0.19558,-1.18178 -0.43462,-1.32952 -0.25357,-0.15672 -0.43463,0.28524 -0.43463,1.06091 0,0.73123 0.19558,1.32952 0.43463,1.32952 0.23904,0 0.43462,-0.47741 0.43462,-1.06091 z M 57.214965,115.43286 c 0,-0.44987 -0.196962,-0.93968 -0.437691,-1.08846 -0.558578,-0.34522 -1.040866,0.87558 -0.698435,1.76794 0.33419,0.87088 1.136126,0.39127 1.136126,-0.67948 z m 157.333515,-1.49553 c 0,-0.5835 -0.19558,-1.18179 -0.43462,-1.32952 -0.25357,-0.15672 -0.43463,0.28523 -0.43463,1.0609 0,0.73124 0.19558,1.32952 0.43463,1.32952 0.23904,0 0.43462,-0.4774 0.43462,-1.0609 z M 57.214965,111.95587 c 0,-0.44987 -0.196962,-0.93967 -0.437691,-1.08845 -0.558578,-0.34522 -1.040866,0.87558 -0.698435,1.76793 0.33419,0.87089 1.136126,0.39128 1.136126,-0.67948 z m 157.333515,-1.9558 c 0,-0.59761 -0.19558,-1.08656 -0.43462,-1.08656 -0.23905,0 -0.43463,0.48895 -0.43463,1.08656 0,0.59761 0.19558,1.08656 0.43463,1.08656 0.23904,0 0.43462,-0.48895 0.43462,-1.08656 z M 56.867336,107.52279 c -0.639556,-0.63956 -1.184174,0.62479 -0.739463,1.71669 0.27632,0.67843 0.359616,0.65343 0.771178,-0.23149 0.33226,-0.71441 0.323381,-1.13011 -0.03173,-1.4852 l 1.3e-5,0 z m 157.681144,-0.97405 c 0,-0.5835 -0.19558,-1.18179 -0.43462,-1.32952 -0.25357,-0.15672 -0.43463,0.28523 -0.43463,1.0609 0,0.73124 0.19558,1.32952 0.43463,1.32952 0.23904,0 0.43462,-0.4774 0.43462,-1.0609 z M 56.867336,104.0458 c -0.639556,-0.63955 -1.184174,0.6248 -0.739463,1.7167 0.27632,0.67843 0.359616,0.65342 0.771178,-0.2315 0.33226,-0.7144 0.323381,-1.1301 -0.03173,-1.4852 l 1.3e-5,0 z m 157.681144,-0.97405 c 0,-0.5835 -0.19558,-1.18178 -0.43462,-1.32952 -0.25357,-0.15671 -0.43463,0.28524 -0.43463,1.06091 0,0.73123 0.19558,1.32952 0.43463,1.32952 0.23904,0 0.43462,-0.47741 0.43462,-1.06091 z M 58.324927,101.92168 c 0.449704,-0.72765 -0.480698,-1.38636 -1.500836,-1.06258 -1.275318,0.40477 -1.166411,1.53507 0.147911,1.53507 0.583499,0 1.192314,-0.21262 1.352925,-0.47249 z m 3.453579,-0.39676 c 0,-0.7803 -1.476019,-1.05021 -2.390426,-0.43711 -0.579496,0.38854 -0.579496,0.48568 0,0.87422 0.914407,0.6131 2.390426,0.3432 2.390426,-0.43711 z m 3.911607,0 c 0,-0.76233 -1.856744,-1.14215 -2.489607,-0.50929 -0.692707,0.69271 0.07833,1.44027 1.335439,1.29479 0.676817,-0.0783 1.154168,-0.4032 1.154168,-0.7855 z m 3.476984,0 c 0,-0.76233 -1.856744,-1.14215 -2.489608,-0.50929 -0.692706,0.69271 0.07833,1.44027 1.33544,1.29479 0.676817,-0.0783 1.154168,-0.4032 1.154168,-0.7855 z m 3.476983,0 c 0,-0.76233 -1.856744,-1.14215 -2.489607,-0.50929 -0.692706,0.69271 0.07833,1.44027 1.33544,1.29479 0.676817,-0.0783 1.154167,-0.4032 1.154167,-0.7855 z m 3.476984,0 c 0,-0.7533 -1.457886,-1.05624 -2.337454,-0.4857 -0.329427,0.21368 -0.457641,0.61717 -0.284922,0.89664 0.448005,0.72488 2.622376,0.38415 2.622376,-0.41094 z m 4.01762,0.12469 c 0.224392,-0.68368 -1.986396,-1.2432 -2.577314,-0.65229 -0.248522,0.24853 -0.313524,0.67569 -0.144447,0.94926 0.390674,0.63213 2.492076,0.40284 2.721761,-0.29697 z m 3.370971,-0.12469 c 0,-0.76233 -1.856744,-1.14215 -2.489608,-0.50929 -0.692706,0.69271 0.07833,1.44027 1.33544,1.29479 0.676817,-0.0783 1.154168,-0.4032 1.154168,-0.7855 z m 7.233534,0.3803 c 1.03871,-0.66989 -0.355139,-1.14089 -3.376256,-1.14089 -1.532615,0 -2.892341,0.17113 -3.021607,0.3803 -0.505723,0.81827 0.348711,1.14088 3.021607,1.14088 1.532616,0 3.051932,-0.17113 3.376256,-0.38029 z m 3.414728,0.0477 c 0.579496,-0.38042 0.579496,-0.47552 0,-0.85594 -1.322505,-0.86817 -3.070302,-0.23747 -2.390426,0.86259 0.341127,0.55196 1.544585,0.54861 2.390426,-0.007 l 0,0 z m 11.119193,-0.102 c 0.70764,-0.70782 -0.48898,-0.94686 -5.06402,-1.01156 -4.499205,-0.0636 -5.559689,0.16384 -4.998343,1.07211 0.286077,0.46289 9.595063,0.40687 10.062363,-0.0605 z m 3.54669,-0.20128 c 0.22439,-0.68368 -1.9864,-1.2432 -2.57731,-0.65229 -0.24853,0.24853 -0.31353,0.67569 -0.14445,0.94926 0.39067,0.63213 2.49207,0.40284 2.72176,-0.29697 z m 10.86823,-0.016 c 0.22208,-0.6663 0.4191,-0.63714 -4.9903,-0.7384 -4.42891,-0.0829 -6.13227,0.25263 -5.00025,0.98494 0.9257,0.59884 9.78162,0.3803 9.99055,-0.24654 z m 3.36831,-0.10865 c 0,-0.7533 -1.45788,-1.05624 -2.33745,-0.4857 -0.32943,0.21368 -0.45764,0.61717 -0.28492,0.89664 0.448,0.72488 2.62237,0.38415 2.62237,-0.41094 z m 10.86558,0 c 0,-0.80443 -1.79035,-1.11299 -2.59297,-0.44688 -0.37232,0.309 -0.68591,0.3328 -0.85164,0.0646 -0.29895,-0.48371 -6.13943,-0.39224 -6.6356,0.10393 -0.71483,0.71484 1.03994,1.03097 5.44998,0.98183 3.80309,-0.0424 4.63023,-0.16805 4.63023,-0.70352 z m 3.47698,0 c 0,-0.7533 -1.45788,-1.05624 -2.33745,-0.4857 -0.32943,0.21368 -0.45764,0.61717 -0.28492,0.89664 0.448,0.72488 2.62237,0.38415 2.62237,-0.41094 z m 4.01762,0.12469 c 0.22439,-0.68368 -1.98639,-1.2432 -2.57731,-0.65229 -0.24852,0.24853 -0.31353,0.67569 -0.14445,0.94926 0.39068,0.63213 2.49208,0.40284 2.72176,-0.29697 z m 3.37097,-0.12469 c 0,-0.76233 -1.85674,-1.14215 -2.4896,-0.50929 -0.69271,0.69271 0.0783,1.44027 1.33544,1.29479 0.67681,-0.0783 1.15416,-0.4032 1.15416,-0.7855 z m 3.47699,0 c 0,-0.76233 -1.85675,-1.14215 -2.48961,-0.50929 -0.69271,0.69271 0.0783,1.44027 1.33544,1.29479 0.67682,-0.0783 1.15417,-0.4032 1.15417,-0.7855 z m 3.47698,0 c 0,-0.76233 -1.85674,-1.14215 -2.48961,-0.50929 -0.6927,0.69271 0.0783,1.44027 1.33544,1.29479 0.67682,-0.0783 1.15417,-0.4032 1.15417,-0.7855 z m 3.45253,0.60118 c 0.5407,-0.20749 0.58582,-0.40393 0.19964,-0.86925 -0.92491,-1.11444 -3.07392,-0.47139 -2.3483,0.70269 0.30577,0.49476 1.12742,0.55845 2.14866,0.16656 z m 3.93606,-0.60118 c 0,-0.76233 -1.85674,-1.14215 -2.48961,-0.50929 -0.6927,0.69271 0.0783,1.44027 1.33544,1.29479 0.67682,-0.0783 1.15417,-0.4032 1.15417,-0.7855 z m 7.23354,0.3803 c 1.03871,-0.66989 -0.35514,-1.14089 -3.37626,-1.14089 -1.53262,0 -2.89234,0.17113 -3.02161,0.3803 -0.50572,0.81827 0.34871,1.14088 3.02161,1.14088 1.53262,0 3.05193,-0.17113 3.37626,-0.38029 z m 3.41472,0.0477 c 0.5795,-0.38042 0.5795,-0.47552 0,-0.85594 -0.84584,-0.55525 -2.0493,-0.55861 -2.39042,-0.007 -0.67988,1.10006 1.06792,1.73076 2.39042,0.86259 l 0,0 z m 11.11919,-0.102 c 0.70764,-0.70782 -0.48898,-0.94686 -5.06401,-1.01156 -4.49921,-0.0636 -5.55969,0.16384 -4.99835,1.07211 0.28608,0.46289 9.59507,0.40687 10.06236,-0.0605 z m 3.5467,-0.20128 c 0.22439,-0.68368 -1.9864,-1.2432 -2.57732,-0.65229 -0.24852,0.24853 -0.31352,0.67569 -0.14444,0.94926 0.39067,0.63213 2.49207,0.40284 2.72176,-0.29697 z m 14.23654,-0.12469 c 0,-0.54932 -1.01118,-0.65462 -6.42454,-0.66902 -3.53351,-0.009 -6.66279,0.13729 -6.95397,0.32597 -1.17471,0.76118 0.75976,1.04442 6.96697,1.02011 5.39824,-0.0212 6.41154,-0.12816 6.41154,-0.67706 z m 10.86558,0 c 0,-0.80443 -1.79036,-1.11299 -2.59297,-0.44688 -0.37232,0.309 -0.68591,0.3328 -0.85164,0.0646 -0.29896,-0.48371 -6.13943,-0.39224 -6.6356,0.10393 -0.71484,0.71484 1.03994,1.03097 5.44998,0.98183 3.80308,-0.0424 4.63023,-0.16805 4.63023,-0.70352 z m 3.47698,0 c 0,-0.76233 -1.85674,-1.14215 -2.48961,-0.50929 -0.6927,0.69271 0.0783,1.44027 1.33544,1.29479 0.67682,-0.0783 1.15417,-0.4032 1.15417,-0.7855 z m -19.73134,-4.18201 c 5.58393,-1.657683 10.55973,-5.10074 12.99468,-8.991798 l 1.52118,-2.43085 4.45489,-0.02091 4.45488,-0.02086 0,-2.247548 c 0,-2.960647 -0.78497,-3.837173 -3.43638,-3.837173 l -1.99779,0 -5.78895,-6.878504 c -3.18391,-3.783176 -6.41068,-7.250828 -7.17058,-7.705891 -1.14947,-0.688356 -2.45889,-0.855065 -7.79233,-0.992084 l -6.41069,-0.164692 0,-7.384678 0,-7.384684 -1.41252,-1.400107 -1.41253,-1.400108 1.39115,-1.372487 c 2.56482,-2.530429 2.33167,-6.649916 -0.51798,-9.151939 -1.99009,-1.747326 -4.05737,-2.113138 -6.55384,-1.159727 -4.3431,1.658643 -5.59555,7.793945 -2.1712,10.635904 0.96739,0.802861 0.84783,1.191445 -0.46822,1.521754 -1.92751,0.483774 -16.38636,7.344741 -17.20629,8.164675 -0.87726,0.877256 -1.00541,2.984612 -0.26652,4.382516 0.62698,1.186169 7.78421,9.856693 8.14386,9.865755 0.14527,0.0035 0.52552,0.172349 0.84501,0.374862 0.46262,0.293236 0.32988,0.844933 -0.65193,2.709735 -1.12707,2.140679 -1.23282,2.733001 -1.23282,6.905077 0,4.080949 0.12439,4.816831 1.17634,6.958718 2.83433,5.771045 10.28692,10.70828 17.94707,11.889672 2.3319,0.359642 9.15684,-0.150767 11.56151,-0.86463 z"
     id="path3397"
     inkscape:connector-curvature="0"
     transform="matrix(0.8,0,0,0.8,-1.2207031e-4,0)" /></svg>