<?xml version="1.0" encoding="UTF-8" standalone="no"?>
<!-- Generated by Microsoft Visio 11.0, SVG Export, v1.0 AP7885 v3.svg Page-1 -->

<svg
   xmlns:v="http://schemas.microsoft.com/visio/2003/SVGExtensions/"
   xmlns:dc="http://purl.org/dc/elements/1.1/"
   xmlns:cc="http://creativecommons.org/ns#"
   xmlns:rdf="http://www.w3.org/1999/02/22-rdf-syntax-ns#"
   xmlns:svg="http://www.w3.org/2000/svg"
   xmlns="http://www.w3.org/2000/svg"
   xmlns:xlink="http://www.w3.org/1999/xlink"
   xmlns:sodipodi="http://sodipodi.sourceforge.net/DTD/sodipodi-0.dtd"
   xmlns:inkscape="http://www.inkscape.org/namespaces/inkscape"
   width="11in"
   height="8.5in"
   viewBox="0 0 792 612"
   xml:space="preserve"
   color-interpolation-filters="sRGB"
   class="st2"
   id="svg2"
   version="1.1"
   inkscape:version="0.91 r13725"
   sodipodi:docname="AP7885 v3B.svg"><metadata
     id="metadata60"><rdf:RDF><cc:Work
         rdf:about=""><dc:format>image/svg+xml</dc:format><dc:type
           rdf:resource="http://purl.org/dc/dcmitype/StillImage" /><dc:title></dc:title></cc:Work></rdf:RDF></metadata><sodipodi:namedview
     pagecolor="#ffffff"
     bordercolor="#666666"
     borderopacity="1"
     objecttolerance="10"
     gridtolerance="10"
     guidetolerance="10"
     inkscape:pageopacity="0"
     inkscape:pageshadow="2"
     inkscape:window-width="1360"
     inkscape:window-height="705"
     id="namedview58"
     showgrid="false"
     inkscape:zoom="0.29090909"
     inkscape:cx="67.03125"
     inkscape:cy="382.5"
     inkscape:window-x="-8"
     inkscape:window-y="-8"
     inkscape:window-maximized="1"
     inkscape:current-layer="svg2" /><v:documentProperties
     v:langID="1033"
     v:viewMarkup="false" /><style
     type="text/css"
     id="style4"><![CDATA[
		.st1 {fill:#ffffff;stroke:#000000;stroke-linecap:round;stroke-linejoin:round;stroke-width:0.24}
		.st2 {fill:none;fill-rule:evenodd;font-size:12;overflow:visible;stroke-linecap:square;stroke-miterlimit:3}
	]]></style><defs
     id="Masters"><symbol
       id="master5"
       v:mID="5"
       class="st2"><title
         id="title8">L-3 Sink 12&quot;x 8&quot;</title><g
         id="group7-4"
         v:mID="7"
         v:groupContext="group"><title
           id="title11">L-3 Sink 12&quot;x 8&quot;.7</title><g
           id="master-shape8-5"
           v:mID="8"
           v:groupContext="shape"><title
             id="title14">Rectangle.363</title><v:userDefs><v:ud
               v:nameU="visVersion"
               v:val="VT0(12):26" /></v:userDefs><rect
             x="0"
             y="590.625"
             width="15.375"
             height="21.375"
             class="st1"
             id="rect16" /></g><g
           id="master-shape9-7"
           v:mID="9"
           v:groupContext="shape"
           transform="translate(1.6875,-1.6875)"><title
             id="title19">Rectangle.364</title><v:userDefs><v:ud
               v:nameU="visVersion"
               v:val="VT0(12):26" /></v:userDefs><rect
             x="0"
             y="594"
             width="12"
             height="18"
             class="st1"
             id="rect21" /></g></g></symbol></defs><g
     v:mID="0"
     v:index="1"
     v:groupContext="foregroundPage"
     id="g23"
     transform="matrix(3.9686,0,0,4.961276,-782.67422,-1302.7035)"
     style="fill:#c8beb7"><v:userDefs><v:ud
         v:nameU="IFCPropsInvisible"
         v:val="VT0(1):26" /><v:ud
         v:nameU="LPrec"
         v:val="VT0(2):26" /><v:ud
         v:nameU="LUnits"
         v:val="VT0(1):26" /><v:ud
         v:nameU="ShowUnits"
         v:val="VT0(1):26" /></v:userDefs><title
       id="title25">Page-1</title><v:pageProperties
       v:drawingScale="12"
       v:pageScale="0.25"
       v:drawingUnits="19"
       v:shadowOffsetX="9"
       v:shadowOffsetY="-9" /><v:layer
       v:name="Movable Furnishings"
       v:index="0" /><v:layer
       v:name="Furniture"
       v:index="1" /><v:layer
       v:name="Dimensions"
       v:index="2" /><g
       id="shape2-1"
       v:mID="2"
       v:groupContext="shape"
       transform="translate(198,-252)"
       style="fill:#c8beb7"><title
         id="title28">Rectangle.2</title><v:userDefs><v:ud
           v:nameU="visVersion"
           v:val="VT0(12):26" /></v:userDefs><rect
         x="0"
         y="540"
         width="198"
         height="72"
         class="st1"
         id="rect30"
         style="fill:#c8beb7;stroke:#000000;stroke-width:0.23999999;stroke-linecap:round;stroke-linejoin:round" /></g><use
       id="shape7-3"
       v:mID="7"
       xlink:href="#master5"
       transform="matrix(0,1,-1,0,947.813,316.313)"
       x="0"
       y="0"
       width="100%"
       height="100%"
       style="fill:#c8beb7"><title
         id="title33">L-3 Sink 12&quot;x 8&quot;.7</title></use><use
       id="shape10-9"
       v:mID="10"
       xlink:href="#master5"
       transform="matrix(0,1,-1,0,848.813,316.313)"
       x="0"
       y="0"
       width="100%"
       height="100%"
       style="fill:#c8beb7"><title
         id="title36">L-3 Sink 12&quot;x 8&quot;.10</title></use><g
       id="master-shape13-10"
       v:mID="13"
       v:groupContext="shape"
       transform="translate(260.25,-287.25)"
       style="fill:#c8beb7"><title
         id="title39">Circle, ellipse.13</title><v:userDefs><v:ud
           v:nameU="visVersion"
           v:val="VT0(12):26" /></v:userDefs><path
         d="m 0,611.25 a 0.75,0.75 0 0 1 1.5,0 0.75,0.75 0 1 1 -1.5,0 z"
         class="st1"
         id="path41"
         inkscape:connector-curvature="0"
         style="fill:#c8beb7;stroke:#000000;stroke-width:0.23999999;stroke-linecap:round;stroke-linejoin:round" /></g><g
       id="master-shape14-12"
       v:mID="14"
       v:groupContext="shape"
       transform="translate(233.25,-287.25)"
       style="fill:#c8beb7"><title
         id="title44">Circle, ellipse.14</title><v:userDefs><v:ud
           v:nameU="visVersion"
           v:val="VT0(12):26" /></v:userDefs><path
         d="m 0,611.25 a 0.75,0.75 0 0 1 1.5,0 0.75,0.75 0 1 1 -1.5,0 z"
         class="st1"
         id="path46"
         inkscape:connector-curvature="0"
         style="fill:#c8beb7;stroke:#000000;stroke-width:0.23999999;stroke-linecap:round;stroke-linejoin:round" /></g><g
       id="master-shape15-14"
       v:mID="15"
       v:groupContext="shape"
       transform="translate(359.25,-287.25)"
       style="fill:#c8beb7"><title
         id="title49">Circle, ellipse.15</title><v:userDefs><v:ud
           v:nameU="visVersion"
           v:val="VT0(12):26" /></v:userDefs><path
         d="m 0,611.25 a 0.75,0.75 0 0 1 1.5,0 0.75,0.75 0 1 1 -1.5,0 z"
         class="st1"
         id="path51"
         inkscape:connector-curvature="0"
         style="fill:#c8beb7;stroke:#000000;stroke-width:0.23999999;stroke-linecap:round;stroke-linejoin:round" /></g><g
       id="master-shape16-16"
       v:mID="16"
       v:groupContext="shape"
       transform="translate(332.25,-287.25)"
       style="fill:#c8beb7"><title
         id="title54">Circle, ellipse.16</title><v:userDefs><v:ud
           v:nameU="visVersion"
           v:val="VT0(12):26" /></v:userDefs><path
         d="m 0,611.25 a 0.75,0.75 0 0 1 1.5,0 0.75,0.75 0 1 1 -1.5,0 z"
         class="st1"
         id="path56"
         inkscape:connector-curvature="0"
         style="fill:#c8beb7;stroke:#000000;stroke-width:0.23999999;stroke-linecap:round;stroke-linejoin:round" /></g></g><path
     style="fill:#c8c4b7;stroke:#000000;stroke-width:3.4375;stroke-opacity:1"
     d="m 4.46875,381.46875 0,-221.71875 489.84375,0 489.84375,0 0,221.71875 0,221.71875 -489.84375,0 -489.84375,0 0,-221.71875 z m 299.0625,0 0,-49.84375 -55,0 -55,0 0,49.84375 0,49.84375 55,0 55,0 0,-49.84375 z m 491.5625,0 0,-49.84375 -55,0 -55,0 0,49.84375 0,49.84375 55,0 55,0 0,-49.84375 z m -609.0919,-0.85937 c -1.39539,-7.24572 -7.49609,-6.78884 -9.05078,0.6778 -0.64845,3.11432 1.24643,5.33782 4.54893,5.33782 3.54048,0 5.22648,-2.25293 4.50185,-6.01562 z m 134.0625,0 c -1.39539,-7.24572 -7.49609,-6.78884 -9.05078,0.6778 -0.64845,3.11432 1.24643,5.33782 4.54893,5.33782 3.54048,0 5.22648,-2.25293 4.50185,-6.01562 z m 357.5,0 c -1.39538,-7.24572 -7.49608,-6.78884 -9.05076,0.6778 -0.64849,3.11432 1.2464,5.33782 4.54891,5.33782 3.54049,0 5.22648,-2.25293 4.50185,-6.01562 z m 134.0625,0 c -1.39538,-7.24572 -7.49608,-6.78884 -9.05076,0.6778 -0.64849,3.11432 1.2464,5.33782 4.54891,5.33782 3.54049,0 5.22648,-2.25293 4.50185,-6.01562 z"
     id="path3388"
     inkscape:connector-curvature="0"
     transform="scale(0.8,0.8)" /></svg>