<?xml version="1.0" encoding="utf-8"?>
<!-- Generator: Adobe Illustrator 15.0.2, SVG Export Plug-In . SVG Version: 6.00 Build 0)  -->
<!DOCTYPE svg PUBLIC "-//W3C//DTD SVG 1.1//EN" "http://www.w3.org/Graphics/SVG/1.1/DTD/svg11.dtd">
<svg version="1.1" id="Layer_1" xmlns="http://www.w3.org/2000/svg" xmlns:xlink="http://www.w3.org/1999/xlink" x="0px" y="0px"
	 width="48.625px" height="22.375px" viewBox="0 0 48.625 22.375" enable-background="new 0 0 48.625 22.375" xml:space="preserve">
<polygon fill-rule="evenodd" clip-rule="evenodd" fill="#FE9E32" points="24.35,21.25 48.55,21.25 48.55,22.25 48.5,22.25 
	48.5,22.3 24.35,22.3 0.1,22.3 0.1,21.25 24.35,21.25 24.35,22.3 "/>
<polygon fill-rule="evenodd" clip-rule="evenodd" fill="#E89E32" points="48.55,21.25 24.35,21.25 0.1,21.25 0.1,0.1 48.5,0.1 
	48.5,0.125 48.55,0.125 "/>
<path fill-rule="evenodd" clip-rule="evenodd" fill="none" stroke="#000000" stroke-width="0.1" stroke-linecap="round" stroke-linejoin="round" stroke-miterlimit="3" d="
	M48.55,0.125V0.1c-0.012,0.017-0.028,0.025-0.05,0.025H48.55z M48.5,0.1V0.05h0.075v0.025c-0.002,0.018-0.011,0.035-0.025,0.05
	V21.25v1h0.025c0,0.05-0.025,0.075-0.075,0.075V22.3H24.35H0.1v-1.05V0.1C0.095,0.116,0.079,0.125,0.05,0.125V0.05h0.075
	c0,0.021-0.008,0.038-0.025,0.05H48.5z M48.55,0.1H48.5v0.025 M48.575,0.075L48.55,0.1 M48.5,22.3v-0.05h0.05v0.05H48.5z
	 M24.35,22.3v-1.05H0.1 M24.35,21.25h24.2"/>
</svg>
