<?xml version="1.0" encoding="utf-8"?>
<!-- Generator: Adobe Illustrator 15.0.2, SVG Export Plug-In . SVG Version: 6.00 Build 0)  -->
<!DOCTYPE svg PUBLIC "-//W3C//DTD SVG 1.1//EN" "http://www.w3.org/Graphics/SVG/1.1/DTD/svg11.dtd">
<svg version="1.1" id="Layer_1" xmlns="http://www.w3.org/2000/svg" xmlns:xlink="http://www.w3.org/1999/xlink" x="0px" y="0px"
	 width="36.475px" height="16.325px" viewBox="0 0 36.475 16.325" enable-background="new 0 0 36.475 16.325" xml:space="preserve">
<polygon fill-rule="evenodd" clip-rule="evenodd" fill="#FFCC00" points="0.15,15.2 36.425,15.2 36.425,16.2 36.35,16.2 
	36.35,16.25 0.15,16.25 "/>
<path fill-rule="evenodd" clip-rule="evenodd" fill="#FE9E32" d="M36.425,15.2H0.15V0.05h36.2v0.075
	c0.048,0,0.073-0.025,0.075-0.075V15.2z"/>
<path fill-rule="evenodd" clip-rule="evenodd" fill="none" stroke="#000000" stroke-width="0.1" stroke-linecap="round" stroke-linejoin="round" stroke-miterlimit="3" d="
	M36.35,0.05h0.075V15.2v1c0,0.021-0.008,0.038-0.025,0.05c-0.004,0.017-0.021,0.025-0.05,0.025V16.25H0.15V15.2V0.05H0.125
	c0,0.05-0.025,0.075-0.075,0.075V0.05h0.075 M36.425,0.05c-0.001,0.05-0.026,0.075-0.075,0.075V0.05H0.15 M36.35,16.25V16.2h0.075
	 M36.4,16.25h-0.05 M36.425,15.2H0.15"/>
</svg>
