<?xml version="1.0" encoding="utf-8"?>
<!-- Generator: Adobe Illustrator 15.0.2, SVG Export Plug-In . SVG Version: 6.00 Build 0)  -->
<!DOCTYPE svg PUBLIC "-//W3C//DTD SVG 1.1//EN" "http://www.w3.org/Graphics/SVG/1.1/DTD/svg11.dtd">
<svg version="1.1" id="Layer_1" xmlns="http://www.w3.org/2000/svg" xmlns:xlink="http://www.w3.org/1999/xlink" x="0px" y="0px"
	 width="53.95px" height="34.6px" viewBox="0 0 53.95 34.6" enable-background="new 0 0 53.95 34.6" xml:space="preserve">
<path fill-rule="evenodd" clip-rule="evenodd" d="M33.65,11.45c1.26,0.14,1.96,0.84,2.1,2.1c-0.14,1.26-0.84,1.959-2.1,2.1
	c-1.26-0.14-1.96-0.84-2.1-2.1C31.69,12.29,32.39,11.589,33.65,11.45z"/>
<path fill-rule="evenodd" clip-rule="evenodd" fill="#E9AE01" d="M33.65,11.45c-1.26,0.14-1.96,0.84-2.1,2.1
	c0.14,1.26,0.84,1.959,2.1,2.1c1.26-0.14,1.96-0.84,2.1-2.1C35.61,12.29,34.91,11.589,33.65,11.45z M26.6,14.975h0.75V7.7H39.8v20.7
	H14.3V7.7h12.3V14.975z"/>
<path fill-rule="evenodd" clip-rule="evenodd" fill="#FEE8B2" d="M30.35,1.7v2.55l0.15,0.15v0.45h0.675V4.625H31.4v-0.6h0.15V2.149
	L31.4,1.925V1.25h-0.225V1.1H30.5v0.375L30.35,1.7z M29,2.149v1.725c0.406-0.278,0.606-0.562,0.6-0.85
	C29.604,2.738,29.404,2.446,29,2.149z M27.5,2.225c-0.405-0.71-0.83-0.66-1.275,0.15C26.01,2.603,26.135,2.928,26.6,3.35V7.7H14.3
	v20.7h25.5V7.7H27.35V3.8c0.205-0.153,0.354-0.303,0.45-0.45c0.173-0.278,0.173-0.553,0-0.825C27.709,2.408,27.609,2.308,27.5,2.225
	z M53.9,32.75l-53.85,0.3v-33h53.7L53.9,32.75z M22.55,1.475L22.4,1.7v2.55l0.15,0.15v0.45h0.675V4.625h0.225v-0.6h0.15V2.149
	l-0.15-0.225V1.25h-0.225V1.1H22.55V1.475z M24.5,3.875C24.223,3.6,24.081,3.309,24.075,3c0-0.315,0.142-0.648,0.425-1
	c-0.283,0.352-0.425,0.685-0.425,1C24.081,3.309,24.223,3.6,24.5,3.875z"/>
<path fill-rule="evenodd" clip-rule="evenodd" fill="none" stroke="#000000" stroke-width="0.1" stroke-linecap="round" stroke-linejoin="round" stroke-miterlimit="3" d="
	M30.35,1.7v2.55l0.15,0.15v0.45h0.675V4.625H31.4v-0.6h0.15V2.149L31.4,1.925V1.25h-0.225V1.1H30.5v0.375L30.35,1.7z M29,2.149
	c0.404,0.297,0.604,0.588,0.6,0.875c0.006,0.289-0.194,0.572-0.6,0.85V2.149z M27.35,7.7V3.8c0.205-0.153,0.354-0.303,0.45-0.45
	c0.173-0.278,0.173-0.553,0-0.825c-0.091-0.117-0.191-0.217-0.3-0.3c-0.316-0.282-0.641-0.307-0.975-0.075
	c-0.119,0.057-0.219,0.132-0.3,0.225C26.01,2.603,26.135,2.928,26.6,3.35V7.7H27.35z M33.65,11.45c-1.26,0.14-1.96,0.84-2.1,2.1
	c0.14,1.26,0.84,1.959,2.1,2.1c1.26-0.14,1.96-0.84,2.1-2.1C35.61,12.29,34.91,11.589,33.65,11.45z M27.35,14.975V7.7 M26.6,7.7
	H14.3v20.7h25.5V7.7H27.35 M53.9,32.75l-53.85,0.3v-33h53.7L53.9,32.75z M22.55,1.475V1.1h0.675v0.15h0.225v0.675l0.15,0.225v1.875
	h-0.15v0.6h-0.225V4.85H22.55v-0.45L22.4,4.25V1.7L22.55,1.475z M24.5,3.875C24.223,3.6,24.081,3.309,24.075,3
	c0-0.315,0.142-0.648,0.425-1 M26.6,7.7v7.275 M0.05,34.55h53.7 M27.5,2.225c-0.405-0.71-0.83-0.66-1.275,0.15"/>
</svg>
