<?xml version="1.0" encoding="utf-8"?>
<!-- Generator: Adobe Illustrator 15.0.2, SVG Export Plug-In . SVG Version: 6.00 Build 0)  -->
<!DOCTYPE svg PUBLIC "-//W3C//DTD SVG 1.1//EN" "http://www.w3.org/Graphics/SVG/1.1/DTD/svg11.dtd">
<svg version="1.1" id="Layer_1" xmlns="http://www.w3.org/2000/svg" xmlns:xlink="http://www.w3.org/1999/xlink" x="0px" y="0px"
	 width="38.55px" height="31.5px" viewBox="0 0 38.55 31.5" enable-background="new 0 0 38.55 31.5" xml:space="preserve">
<path fill-rule="evenodd" clip-rule="evenodd" fill="#FEE8B2" d="M37.5,1.1v29.25H1.1V1.1v29.25h36.4V1.1h0.95v30.25H38.4v0.05H0.15
	V1.1H1.1H37.5H1.1V0.15h36.4V1.1z M21.65,9.5v0.15H21.6V9.9l-0.1,0.05v1.45h0.1v0.3h0.05v0.15h0.1v0.05h0.05V12h0.25v-0.1h0.05
	v-0.05h0.1V11.7h0.05v-0.3h0.1V9.95l-0.1-0.05V9.65H22.2V9.5h-0.1V9.45h-0.05v-0.1H21.8v0.1h-0.05V9.5H21.65z M20.7,10.05v1.25
	c0.367-0.233,0.566-0.45,0.6-0.65C21.267,10.45,21.067,10.25,20.7,10.05l-0.75-0.1c-0.4-0.3-0.75-0.25-1.05,0.15
	c0.3-0.4,0.65-0.45,1.05-0.15L20.7,10.05z M22.4,17.8c0.067,0.833,0.55,1.3,1.45,1.4c0.833-0.1,1.3-0.567,1.4-1.4
	c-0.1-0.9-0.567-1.383-1.4-1.45C22.95,16.417,22.467,16.9,22.4,17.8z M19.7,18.75c0-0.067-0.017-0.133-0.05-0.2V13.7h7.65
	c0.333,0,0.5,0.183,0.5,0.55v0.5h7.05H27.8v-0.5c0-0.367-0.167-0.55-0.5-0.55h-7.65v-2.55c0.167-0.1,0.25-0.233,0.25-0.4
	c0-0.133-0.033-0.267-0.1-0.4c-0.2-0.367-0.5-0.45-0.9-0.25c-0.1,0.066-0.167,0.133-0.2,0.2c-0.133,0.167-0.05,0.4,0.25,0.7v2.7v4.8
	c-0.067,0.1-0.1,0.183-0.1,0.25c0,0.133,0.066,0.25,0.2,0.35c0.2,0.167,0.4,0.15,0.6-0.05C19.683,18.95,19.7,18.85,19.7,18.75z
	 M34.85,15.75H27.8v1.05h7.05H27.8v-1.05H34.85z M27.8,16.8v0.95h7.05H27.8V16.8z M27.8,17.75v1h7.05H27.8V17.75z M34.85,19.8H27.8
	v0.95h7.05H27.8V19.8H34.85z M27.8,20.75v1.05h7.05H27.8V20.75z M27.8,18.75v1.05V18.75z M34.85,26.85H27.8v0.55
	c0,0.267-0.167,0.434-0.5,0.5H11.15c-0.3-0.066-0.45-0.233-0.45-0.5v-0.55H3.65h7.05v0.55c0,0.267,0.15,0.434,0.45,0.5H27.3
	c0.333-0.066,0.5-0.233,0.5-0.5v-0.55H34.85z M34.85,25.85H27.8v1v-1H34.85z M34.85,24.8H27.8v1.05V24.8H34.85z M34.85,22.8H27.8
	v1.05h7.05H27.8V22.8H34.85z M27.8,23.85v0.95V23.85z M27.8,21.8v1V21.8z M27.8,14.75v1V14.75z M16.5,9.45h-0.05V9.5h-0.1v0.15H16.3
	V9.9l-0.1,0.05v1.45h0.1v0.3h0.05v0.15h0.1v0.05h0.05V12h0.25v-0.1h0.05v-0.05h0.1V11.7h0.05v-0.3h0.1V9.95l-0.1-0.05V9.65H16.9V9.5
	h-0.1V9.45h-0.05v-0.1H16.5V9.45z M18.95,13.7h-7.8c-0.267,0-0.417,0.15-0.45,0.45c0,0.033,0,0.067,0,0.1v0.5v1v1.05v0.95v1v1.05
	v0.95v1.05v1v1.05v0.95v1.05v1v-1V24.8v-0.95V22.8v-1v-1.05V19.8v-1.05v-1V16.8v-1.05v-1v-0.5c0-0.033,0-0.067,0-0.1
	c0.033-0.3,0.183-0.45,0.45-0.45H18.95z M17.85,11.3v-1.25C17.317,10.45,17.317,10.867,17.85,11.3z M17.85,10.05l0.85,0.25
	L17.85,10.05z M10.7,14.75H3.65H10.7z M10.7,25.85H3.65H10.7z M3.65,24.8h7.05H3.65z M3.65,23.85h7.05H3.65z M3.65,22.8h7.05H3.65z
	 M3.65,21.8h7.05H3.65z M10.7,19.8H3.65H10.7z M3.65,20.75h7.05H3.65z M3.65,16.8h7.05H3.65z M3.65,18.75h7.05H3.65z M10.7,17.75
	H3.65H10.7z M3.65,15.75h7.05H3.65z"/>
<path fill-rule="evenodd" clip-rule="evenodd" fill="none" stroke="#000000" stroke-width="0.1" stroke-linecap="round" stroke-linejoin="round" stroke-miterlimit="3" d="
	M37.5,1.1V0.15H1.1V1.1H37.5z M1.1,1.1H0.15v30.3H38.4v-0.05h0.05V1.1H37.5v29.25H1.1V1.1z M37.5,0.15h0.9v-0.1h0.1
	c0,0.064-0.033,0.098-0.1,0.1h0.05V1.1 M21.65,9.5v0.15H21.6V9.9l-0.1,0.05v1.45h0.1v0.3h0.05v0.15h0.1v0.05h0.05V12h0.25v-0.1h0.05
	v-0.05h0.1V11.7h0.05v-0.3h0.1V9.95l-0.1-0.05V9.65H22.2V9.5h-0.1V9.45h-0.05v-0.1H21.8v0.1h-0.05V9.5H21.65z M20.7,10.05v1.25
	c0.367-0.233,0.566-0.45,0.6-0.65C21.267,10.45,21.067,10.25,20.7,10.05z M18.95,11v-0.35c0-0.2,0.1-0.3,0.3-0.3s0.333,0.1,0.4,0.3
	v0.5c0.167-0.1,0.25-0.233,0.25-0.4c0-0.133-0.033-0.267-0.1-0.4c-0.2-0.367-0.5-0.45-0.9-0.25c-0.1,0.066-0.167,0.133-0.2,0.2
	C18.567,10.467,18.65,10.7,18.95,11v2.7h-7.8c-0.267,0-0.417,0.15-0.45,0.45c0,0.033,0,0.067,0,0.1v0.5v1v1.05v0.95v1v1.05v0.95
	v1.05v1v1.05v0.95v1.05v1 M18.9,10.1c0.3-0.4,0.65-0.45,1.05-0.15l0.75,0.1 M19.65,11.15v2.55h7.65c0.333,0,0.5,0.183,0.5,0.55v0.5
	h7.05 M34.85,15.75H27.8v1.05h7.05 M27.8,16.8v0.95h7.05 M27.8,17.75v1h7.05 M24.45,17.05c-0.067-0.033-0.117-0.066-0.15-0.1
	c-0.167,0-0.25,0.05-0.25,0.15c0,0.167,0.083,0.25,0.25,0.25c0.1,0,0.15-0.083,0.15-0.25V17.05z M24.75,17.45
	c0-0.1-0.05-0.15-0.15-0.15c0.033,0.1,0.066,0.2,0.1,0.3C24.733,17.567,24.75,17.517,24.75,17.45z M24.6,17.3
	c-0.167,0-0.25,0.05-0.25,0.15c0,0.167,0.083,0.25,0.25,0.25c0.033,0,0.066-0.034,0.1-0.1 M24.35,17.9c0,0.167,0.083,0.25,0.25,0.25
	l0.05-0.05c0.033-0.067,0.067-0.15,0.1-0.25l-0.025-0.05c-0.031-0.033-0.073-0.05-0.125-0.05C24.433,17.75,24.35,17.8,24.35,17.9z
	 M24.725,17.8h0.025c-0.033-0.066-0.05-0.133-0.05-0.2 M24.65,18.1c0.067-0.033,0.1-0.1,0.1-0.2v-0.05 M24.3,16.95
	c-0.133-0.067-0.267-0.117-0.4-0.15c0.067,0.034,0.1,0.083,0.1,0.15c0,0.167-0.05,0.25-0.15,0.25c-0.167,0-0.25-0.083-0.25-0.25
	c0-0.062,0.042-0.096,0.125-0.1c-0.154,0.002-0.279,0.036-0.375,0.1h0.05c0.1,0,0.15,0.05,0.15,0.15c0,0.167-0.05,0.25-0.15,0.25
	c-0.167,0-0.25-0.083-0.25-0.25c-0.066,0.066-0.117,0.133-0.15,0.2h0.1c0.1,0,0.15,0.05,0.15,0.15c0,0.167-0.05,0.25-0.15,0.25
	s-0.167-0.034-0.2-0.1c-0.033,0.033-0.05,0.1-0.05,0.2v0.05c0.033-0.067,0.117-0.1,0.25-0.1c0.1,0,0.15,0.05,0.15,0.15
	c0,0.167-0.05,0.25-0.15,0.25c-0.082,0-0.132-0.008-0.15-0.025c0.107,0.318,0.374,0.509,0.8,0.575c-0.1-0.034-0.15-0.117-0.15-0.25
	c0-0.1,0.083-0.15,0.25-0.15c0.1,0,0.15,0.05,0.15,0.15c0,0.133-0.05,0.216-0.15,0.25c0.2-0.034,0.367-0.083,0.5-0.15H24.3
	c-0.167,0-0.25-0.083-0.25-0.25c0-0.1,0.083-0.15,0.25-0.15c0.1,0,0.15,0.05,0.15,0.15c0,0.065-0.017,0.115-0.05,0.15
	c0.11-0.092,0.193-0.208,0.25-0.35 M24.35,18.55V18.5c0.02-0.015,0.037-0.032,0.05-0.05 M24.6,17.3
	c-0.033-0.1-0.083-0.183-0.15-0.25 M34.85,19.8H27.8v0.95h7.05 M27.8,20.75v1.05h7.05 M27.8,18.75v1.05 M23.35,16.95
	c-0.067,0.033-0.133,0.083-0.2,0.15 M23.9,16.8h-0.05c-0.067,0-0.1,0.017-0.1,0.05h-0.025 M23,17.3c-0.067,0.1-0.1,0.2-0.1,0.3
	 M23,17.3c-0.1,0.034-0.15,0.083-0.15,0.15c0,0.066,0.017,0.117,0.05,0.15 M22.85,17.9c0,0.067,0.033,0.133,0.1,0.2
	c-0.034-0.1-0.067-0.184-0.1-0.25V17.9z M22.95,18.1v0.025 M23.4,18.55c0.1,0,0.15-0.083,0.15-0.25c0-0.1-0.05-0.15-0.15-0.15
	c-0.167,0-0.25,0.05-0.25,0.15C23.15,18.467,23.233,18.55,23.4,18.55z M23.75,18.7c0.033-0.034,0.067-0.034,0.1,0 M22.4,17.8
	c0.067,0.833,0.55,1.3,1.45,1.4c0.833-0.1,1.3-0.567,1.4-1.4c-0.1-0.9-0.567-1.383-1.4-1.45C22.95,16.417,22.467,16.9,22.4,17.8z
	 M19.7,18.75c0-0.067-0.017-0.133-0.05-0.2V13.7h-0.7v4.8c-0.067,0.1-0.1,0.183-0.1,0.25c0.066,0.2,0.2,0.3,0.4,0.3
	S19.6,18.95,19.7,18.75z M18.85,18.75c0,0.133,0.066,0.25,0.2,0.35c0.2,0.167,0.4,0.15,0.6-0.05c0.033-0.1,0.05-0.2,0.05-0.3
	 M34.85,26.85H27.8v0.55c0,0.267-0.167,0.434-0.5,0.5H11.15c-0.3-0.066-0.45-0.233-0.45-0.5v-0.55H3.65 M34.85,25.85H27.8v1
	 M34.85,24.8H27.8v1.05 M34.85,22.8H27.8v1.05h7.05 M27.8,23.85v0.95 M27.8,21.8v1 M38.4,31.4h0.05v-0.05h0.05
	c0,0.066-0.033,0.1-0.1,0.1V31.4z M27.8,14.75v1 M0.15,0.05c0,0.034-0.017,0.05-0.05,0.05c0,0.033-0.017,0.05-0.05,0.05v-0.1H0.15z
	 M1.1,0.15H0.15V1.1 M16.5,9.45v-0.1h0.25v0.1h0.05V9.5h0.1v0.15h0.05V9.9l0.1,0.05v1.45h-0.1v0.3H16.9v0.15h-0.1v0.05h-0.05V12
	H16.5v-0.1h-0.05v-0.05h-0.1V11.7H16.3v-0.3h-0.1V9.95l0.1-0.05V9.65h0.05V9.5h0.1V9.45H16.5z M17.85,11.3v-1.25
	C17.317,10.45,17.317,10.867,17.85,11.3z M17.85,10.05l0.85,0.25 M10.7,14.75H3.65 M10.7,25.85H3.65 M3.65,24.8h7.05 M3.65,23.85
	h7.05 M3.65,22.8h7.05 M3.65,21.8h7.05 M10.7,19.8H3.65 M3.65,20.75h7.05 M3.65,16.8h7.05 M3.65,18.75h7.05 M10.7,17.75H3.65
	 M3.65,15.75h7.05"/>
</svg>
