<?xml version="1.0" encoding="utf-8"?>
<!-- Generator: Adobe Illustrator 15.0.2, SVG Export Plug-In . SVG Version: 6.00 Build 0)  -->
<!DOCTYPE svg PUBLIC "-//W3C//DTD SVG 1.1//EN" "http://www.w3.org/Graphics/SVG/1.1/DTD/svg11.dtd">
<svg version="1.1" id="Layer_1" xmlns="http://www.w3.org/2000/svg" xmlns:xlink="http://www.w3.org/1999/xlink" x="0px" y="0px"
	 width="30.475px" height="24.424px" viewBox="0 0 30.475 24.424" enable-background="new 0 0 30.475 24.424" xml:space="preserve">
<path fill-rule="evenodd" clip-rule="evenodd" fill="#FFCC00" d="M30.35,24.35H0.1V0.15h30.225L30.35,24.3V24.35z M29.3,1.1H1.1
	v22.2h28.2V1.1z"/>
<rect x="1.1" y="1.1" fill-rule="evenodd" clip-rule="evenodd" fill="#FE9E32" width="28.2" height="22.2"/>
<path fill-rule="evenodd" clip-rule="evenodd" fill="none" stroke="#000000" stroke-width="0.1" stroke-linecap="round" stroke-linejoin="round" stroke-miterlimit="3" d="
	M30.35,0.125V0.05h0.075C30.425,0.1,30.4,0.125,30.35,0.125z M30.35,24.3v0.05v0.025c0.05,0,0.075-0.025,0.075-0.075H30.35z
	 M29.3,1.1H1.1v22.2h28.2V1.1z M30.35,24.35H0.1V0.15h30.225L30.35,24.3 M0.05,0.125V0.05h0.075C0.125,0.1,0.1,0.125,0.05,0.125z"/>
</svg>
