<?xml version="1.0" encoding="utf-8"?>
<!-- Generator: Adobe Illustrator 15.0.2, SVG Export Plug-In . SVG Version: 6.00 Build 0)  -->
<!DOCTYPE svg PUBLIC "-//W3C//DTD SVG 1.1//EN" "http://www.w3.org/Graphics/SVG/1.1/DTD/svg11.dtd">
<svg version="1.1" id="Layer_1" xmlns="http://www.w3.org/2000/svg" xmlns:xlink="http://www.w3.org/1999/xlink" x="0px" y="0px"
	 width="71.875px" height="34.9px" viewBox="0 0 71.875 34.9" enable-background="new 0 0 71.875 34.9" xml:space="preserve">
<path fill-rule="evenodd" clip-rule="evenodd" fill="#E9AE01" d="M36.65,6.5h15.075c0.875-0.015,1.35,0.485,1.425,1.5v19.275
	c-0.076,0.875-0.551,1.45-1.425,1.725H20.45c-1.115-0.275-1.665-0.851-1.65-1.725V8c-0.015-1.015,0.535-1.515,1.65-1.5H35.6H36.65
	v7.425V6.5z M45.95,14.075c1.405-0.145,2.18-0.92,2.325-2.325c-0.146-1.38-0.92-2.13-2.325-2.25c-1.38,0.12-2.13,0.87-2.25,2.25
	C43.82,13.155,44.57,13.93,45.95,14.075z M35.6,6.5v7.425V6.5z"/>
<path fill-rule="evenodd" clip-rule="evenodd" d="M45.95,14.075c-1.38-0.145-2.13-0.92-2.25-2.325c0.12-1.38,0.87-2.13,2.25-2.25
	c1.405,0.12,2.18,0.87,2.325,2.25C48.129,13.155,47.354,13.93,45.95,14.075z"/>
<path fill-rule="evenodd" clip-rule="evenodd" fill="#FEE8B2" d="M33.95,0.5h5.4v0.15V3.2l0.15,0.15V3.8h0.675V3.575H40.4v-0.6h0.15
	V1.1L40.4,0.875V0.5h31.425v33H0.05v-33h31.5v0.15V3.2l0.15,0.15V3.8h0.675V3.575H32.6v-0.6h0.15v-1.15h0.325
	c0.003,0.389,0.145,0.722,0.425,1L33.95,0.5z M35.6,6.5H20.45C19.334,6.485,18.785,6.985,18.8,8v19.275
	c-0.015,0.875,0.535,1.45,1.65,1.725h31.275c0.875-0.275,1.35-0.851,1.425-1.725V8c-0.076-1.015-0.551-1.515-1.425-1.5H36.65V2.45
	c0.313-0.313,0.363-0.639,0.15-0.975c-0.208-0.268-0.417-0.434-0.625-0.5c-0.217-0.067-0.434-0.026-0.65,0.125
	c-0.524,0.25-0.649,0.625-0.375,1.125c-0.012,0.029-0.012,0.054,0,0.075L35.6,6.5z M38.3,1.1v1.725
	c0.406-0.278,0.606-0.562,0.6-0.85C38.903,1.688,38.704,1.396,38.3,1.1z"/>
<path fill-rule="evenodd" clip-rule="evenodd" fill="none" stroke="#000000" stroke-width="0.1" stroke-linecap="round" stroke-linejoin="round" stroke-miterlimit="3" d="
	M39.35,0.5h0.075L39.5,0.425V0.05h0.675V0.2H40.4v0.3h31.425v33H0.05v-33h31.5h0.075L31.7,0.425V0.05h0.675V0.2H32.6v0.3h0.9h0.45
	H39.35z M39.35,0.65l0.075-0.15 M39.35,0.65V3.2l0.15,0.15V3.8h0.675V3.575H40.4v-0.6h0.15V1.1L40.4,0.875V0.5h-0.975 M36.65,6.5
	V2.45c0.313-0.313,0.363-0.639,0.15-0.975c-0.208-0.268-0.417-0.434-0.625-0.5c-0.217-0.067-0.434-0.026-0.65,0.125
	c-0.524,0.25-0.649,0.625-0.375,1.125c-0.012,0.029-0.012,0.054,0,0.075l0.45,4.2H36.65v7.425 M38.3,1.1v1.725
	c0.406-0.278,0.606-0.562,0.6-0.85C38.903,1.688,38.704,1.396,38.3,1.1z M45.95,14.075c1.405-0.145,2.18-0.92,2.325-2.325
	c-0.146-1.38-0.92-2.13-2.325-2.25c-1.38,0.12-2.13,0.87-2.25,2.25C43.82,13.155,44.57,13.93,45.95,14.075z M36.65,6.5h15.075
	c0.875-0.015,1.35,0.485,1.425,1.5v19.275c-0.076,0.875-0.551,1.45-1.425,1.725H20.45c-1.115-0.275-1.665-0.851-1.65-1.725V8
	c-0.015-1.015,0.535-1.515,1.65-1.5H35.6v7.425 M31.55,0.65l0.075-0.15 M32.75,1.825V1.1L32.6,0.875V0.5h-0.975 M32.75,1.825v1.15
	H32.6v0.6h-0.225V3.8H31.7V3.35L31.55,3.2V0.65 M33.95,0.5L33.5,2.825c-0.28-0.278-0.422-0.611-0.425-1 M33.5,0.5
	c-0.279,0.497-0.421,0.938-0.425,1.325 M0.05,34.85h71.775"/>
</svg>
