<?xml version="1.0" encoding="utf-8"?>
<!-- Generator: Adobe Illustrator 15.0.2, SVG Export Plug-In . SVG Version: 6.00 Build 0)  -->
<!DOCTYPE svg PUBLIC "-//W3C//DTD SVG 1.1//EN" "http://www.w3.org/Graphics/SVG/1.1/DTD/svg11.dtd">
<svg version="1.1" id="Layer_1" xmlns="http://www.w3.org/2000/svg" xmlns:xlink="http://www.w3.org/1999/xlink" x="0px" y="0px"
	 width="36.5px" height="21.025px" viewBox="0 0 36.5 21.025" enable-background="new 0 0 36.5 21.025" xml:space="preserve">
<path fill-rule="evenodd" clip-rule="evenodd" fill="#FEE8B2" d="M24.35,1.15h11.1V19.9h-11.1V1.15z M1.1,1.15h11.1V19.9H1.1V1.15z
	 M13.25,1.15H23.3V19.9H13.25V1.15z"/>
<path fill-rule="evenodd" clip-rule="evenodd" fill="#BD1200" d="M23.3,1.15h1.05H23.3H13.25H12.2H1.1H0.15V0.1h36.2v0.025
	c0.029,0,0.045-0.008,0.05-0.025h0.05v1.05h-1h-11.1V19.9H23.3V1.15z M35.45,1.15h1V19.9v0.975H0.15V19.9H1.1h11.1h1.05H23.3h1.05
	h11.1h1h-1V1.15z M1.1,19.9H0.15V1.15H1.1V19.9z M12.2,1.15h1.05V19.9H12.2V1.15z"/>
<path fill-rule="evenodd" clip-rule="evenodd" fill="none" stroke="#000000" stroke-width="0.1" stroke-linecap="round" stroke-linejoin="round" stroke-miterlimit="3" d="
	M23.3,1.15h1.05h11.1h1V0.1H36.4c-0.004,0.017-0.021,0.025-0.05,0.025V0.1H0.15v1.05H1.1h11.1h1.05H23.3z M36.4,0.1h-0.05V0.05
	h0.075C36.425,0.071,36.417,0.088,36.4,0.1z M35.45,19.9h-11.1H23.3H13.25H12.2H1.1H0.15v0.975h36.3V19.9H35.45V1.15 M36.35,20.9
	h0.075c0,0.05-0.025,0.075-0.075,0.075V20.9z M36.45,19.9V1.15 M23.3,19.9V1.15 M24.35,1.15V19.9 M0.125,0.075
	c-0.009,0.033-0.034,0.05-0.075,0.05V0.05h0.075V0.075z M13.25,19.9V1.15 M1.1,19.9V1.15 M12.2,1.15V19.9 M0.15,19.9V1.15"/>
</svg>
