<?xml version="1.0" encoding="UTF-8" standalone="no"?>
<!-- Generator: Adobe Illustrator 15.0.2, SVG Export Plug-In . SVG Version: 6.00 Build 0)  -->

<svg
   xmlns:dc="http://purl.org/dc/elements/1.1/"
   xmlns:cc="http://creativecommons.org/ns#"
   xmlns:rdf="http://www.w3.org/1999/02/22-rdf-syntax-ns#"
   xmlns:svg="http://www.w3.org/2000/svg"
   xmlns="http://www.w3.org/2000/svg"
   xmlns:sodipodi="http://sodipodi.sourceforge.net/DTD/sodipodi-0.dtd"
   xmlns:inkscape="http://www.inkscape.org/namespaces/inkscape"
   version="1.1"
   id="Layer_1"
   x="0px"
   y="0px"
   width="24.5px"
   height="31.975px"
   viewBox="0 0 24.5 31.975"
   enable-background="new 0 0 24.5 31.975"
   xml:space="preserve"
   inkscape:version="0.91 r13725"
   sodipodi:docname="chairdeskcombo.svg"><metadata
     id="metadata3349"><rdf:RDF><cc:Work
         rdf:about=""><dc:format>image/svg+xml</dc:format><dc:type
           rdf:resource="http://purl.org/dc/dcmitype/StillImage" /><dc:title></dc:title></cc:Work></rdf:RDF></metadata><defs
     id="defs3347" /><sodipodi:namedview
     pagecolor="#ffffff"
     bordercolor="#666666"
     borderopacity="1"
     objecttolerance="10"
     gridtolerance="10"
     guidetolerance="10"
     inkscape:pageopacity="0"
     inkscape:pageshadow="2"
     inkscape:window-width="1360"
     inkscape:window-height="705"
     id="namedview3345"
     showgrid="false"
     inkscape:zoom="16.763096"
     inkscape:cx="12.25"
     inkscape:cy="15.9875"
     inkscape:window-x="-8"
     inkscape:window-y="-8"
     inkscape:window-maximized="1"
     inkscape:current-layer="Layer_1" /><path
     fill-rule="evenodd"
     clip-rule="evenodd"
     fill="#BDB186"
     d="M12.75,1.6h7.875c0.35,0,0.525,0.15,0.525,0.45  c0,0.35-0.175,0.517-0.525,0.5H3.75C3.45,2.567,3.3,2.4,3.3,2.05c0-0.3,0.15-0.45,0.45-0.45h7.95H12.75H11.7V1.05H1.65  c-0.333,0-0.5,0.184-0.5,0.55v12.05H0.6c-0.279,0-0.429,0.158-0.45,0.475V0.55c0-0.3,0.15-0.45,0.45-0.45h11.55  c0.367,0,0.567,0.15,0.6,0.45V1.6z"
     id="path3337"
     style="fill:#decd87" /><path
     fill-rule="evenodd"
     clip-rule="evenodd"
     fill="#1375B2"
     d="M20.7,13.65H3.75v-9.6c0-0.3,0.183-0.45,0.55-0.45h15.9  c0.3,0,0.466,0.15,0.5,0.45V13.65z"
     id="path3339" /><path
     fill-rule="evenodd"
     clip-rule="evenodd"
     fill="#706988"
     d="M1.15,13.65h2.6H20.7h3v0.025c0.029,0,0.045-0.008,0.05-0.025  h0.025c0.35,0,0.559,0.184,0.625,0.55v17.1c-0.011,0.055-0.028,0.105-0.05,0.15c-0.091,0.233-0.283,0.35-0.575,0.35H23.7H0.6  c-0.281,0-0.432-0.15-0.45-0.45c0.017-0.006,0.025-0.022,0.025-0.05H0.15V14.2c0-0.026,0-0.051,0-0.075  c0.021-0.317,0.171-0.475,0.45-0.475H1.15z M24.3,31.3v0.075c0.05,0,0.075-0.025,0.075-0.075H24.3z"
     id="path3341" /><path
     style="fill:#b3ff80"
     d="M 0.37946644,31.570129 C 0.26229677,31.45296 0.26092528,31.352192 0.25977364,22.77593 c -7.4316e-4,-5.534341 0.0200392,-8.731443 0.0573965,-8.8297 l 0.0585614,-0.154028 11.78723146,0 c 7.57462,0 11.826227,0.02087 11.896345,0.0584 0.06001,0.03212 0.138781,0.143502 0.175043,0.247522 0.08809,0.252687 0.09427,17.053644 0.0063,17.053644 -0.03281,0 -0.05966,0.07901 -0.05966,0.175583 0,0.389673 0.939935,0.361311 -11.974071,0.361311 -11.6036184,0 -11.70997054,-0.0011 -11.82743256,-0.118528 z"
     id="path3351"
     inkscape:connector-curvature="0" /><path
     style="fill:#decd87"
     d="m 3.8983208,8.6904432 0,-4.8635548 0.1530206,-0.058178 c 0.096689,-0.036761 3.1257144,-0.058178 8.2281086,-0.058178 8.79599,0 8.211731,-0.022356 8.293822,0.3173594 0.01729,0.071529 0.02404,2.2373596 0.015,4.8129578 l -0.01642,4.682906 -8.336766,0.01512 -8.3367652,0.01512 0,-4.8635548 z"
     id="path3353"
     inkscape:connector-curvature="0" /></svg>