<?xml version="1.0" encoding="UTF-8" standalone="no"?>
<!-- Generator: Adobe Illustrator 15.0.2, SVG Export Plug-In . SVG Version: 6.00 Build 0)  -->

<svg
   xmlns:dc="http://purl.org/dc/elements/1.1/"
   xmlns:cc="http://creativecommons.org/ns#"
   xmlns:rdf="http://www.w3.org/1999/02/22-rdf-syntax-ns#"
   xmlns:svg="http://www.w3.org/2000/svg"
   xmlns="http://www.w3.org/2000/svg"
   xmlns:sodipodi="http://sodipodi.sourceforge.net/DTD/sodipodi-0.dtd"
   xmlns:inkscape="http://www.inkscape.org/namespaces/inkscape"
   version="1.1"
   x="0px"
   y="0px"
   width="71.3px"
   height="69.8px"
   viewBox="0 0 71.3 69.8"
   enable-background="new 0 0 71.3 69.8"
   xml:space="preserve"
   id="svg3393"
   inkscape:version="0.91 r13725"
   sodipodi:docname="ComboTblLabBench.svg"><metadata
     id="metadata3417"><rdf:RDF><cc:Work
         rdf:about=""><dc:format>image/svg+xml</dc:format><dc:type
           rdf:resource="http://purl.org/dc/dcmitype/StillImage" /><dc:title></dc:title></cc:Work></rdf:RDF></metadata><defs
     id="defs3415" /><sodipodi:namedview
     pagecolor="#ffffff"
     bordercolor="#666666"
     borderopacity="1"
     objecttolerance="10"
     gridtolerance="10"
     guidetolerance="10"
     inkscape:pageopacity="0"
     inkscape:pageshadow="2"
     inkscape:window-width="1360"
     inkscape:window-height="705"
     id="namedview3413"
     showgrid="false"
     inkscape:zoom="3.3810887"
     inkscape:cx="35.650002"
     inkscape:cy="34.900002"
     inkscape:window-x="-8"
     inkscape:window-y="-8"
     inkscape:window-maximized="1"
     inkscape:current-layer="svg3393" /><g
     id="Layer_1"><polygon
       fill-rule="evenodd"
       clip-rule="evenodd"
       fill="#B9B288"
       points="37.1,69.3 0.5,35.35 19.05,0.5 54.65,0.5 70.8,35.55  "
       id="polygon3396" /><polygon
       fill-rule="evenodd"
       clip-rule="evenodd"
       fill="none"
       stroke="#000000"
       stroke-linecap="round"
       stroke-linejoin="round"
       stroke-miterlimit="3"
       points="   37.1,69.3 70.8,35.55 54.65,0.5 19.05,0.5 0.5,35.35  "
       id="polygon3398" /></g><g
     id="Layer_2"><g
       id="g3401"><path
         fill-rule="evenodd"
         clip-rule="evenodd"
         fill="#FFCC00"
         d="M13.8,14.35h3.375v4.375H13.8V14.35z M55.05,15.85    c-0.017-0.683,0.317-1.017,1-1c0.583-0.017,0.875,0.317,0.875,1c0,0.583-0.292,0.875-0.875,0.875    C55.367,16.725,55.033,16.434,55.05,15.85z"
         id="path3403" /><path
         fill-rule="evenodd"
         clip-rule="evenodd"
         fill="#E7E7E7"
         d="M37.3,24.1c0.89-0.129,1.39-0.646,1.5-1.55v-0.075h1.125H38.8    c-0.103-0.686-0.437-1.145-1-1.375v-2.25h9c0.367-0.017,0.617,0.025,0.75,0.125c0.225,0.25,0.333,0.5,0.325,0.75v5.25    c0.008,0.35-0.1,0.583-0.325,0.7c-0.133,0.216-0.383,0.316-0.75,0.3H27.425c-0.25,0.017-0.5-0.083-0.75-0.3    c-0.1-0.117-0.142-0.35-0.125-0.7v-5.25c-0.017-0.25,0.025-0.5,0.125-0.75c0.25-0.1,0.5-0.142,0.75-0.125h9.5v2.125    c-0.718,0.117-1.135,0.617-1.25,1.5v0.075c0,0.925,0.525,1.442,1.575,1.55H37.3v1V24.1z M35.675,22.475h-1H35.675z"
         id="path3405" /><path
         fill-rule="evenodd"
         clip-rule="evenodd"
         fill="#B9B288"
         d="M56.05,18.075v0.15c-0.054,0.004-0.113,0.004-0.175,0    c-0.225-0.108-0.333-0.275-0.325-0.5c-0.002-0.052-0.002-0.11,0-0.175c-0.008-0.225,0.1-0.333,0.325-0.325    c0.062-0.034,0.121-0.059,0.175-0.075v0.075c-0.053-0.001-0.111-0.001-0.175,0c0.064-0.001,0.122-0.001,0.175,0V18.075    c-0.053,0.015-0.111,0.023-0.175,0.025c-0.184-0.01-0.292-0.135-0.325-0.375c0.034,0.24,0.142,0.365,0.325,0.375    C55.939,18.099,55.997,18.09,56.05,18.075z M56.05,20.25v0.475h-0.125L56.05,20.25z M56.05,31.9    c-0.175-0.151-0.258-0.376-0.25-0.675c-0.008-0.35,0.075-0.608,0.25-0.775V31.9z"
         id="path3407" /><path
         fill-rule="evenodd"
         clip-rule="evenodd"
         fill="none"
         stroke="#000000"
         stroke-width="0.1"
         stroke-linecap="round"
         stroke-linejoin="round"
         stroke-miterlimit="3"
         d="    M13.8,14.35h3.375v4.375H13.8V14.35z M38.125,14.725c-0.458-0.333-0.917-0.375-1.375-0.125c-0.467,0.225-0.7,0.625-0.7,1.2    c-0.002,0.231,0.123,0.44,0.375,0.625c-0.159-0.579-0.009-0.979,0.45-1.2c0.35-0.242,0.7-0.133,1.05,0.325    c0.178,0.276,0.136,0.543-0.125,0.8v0.375c0.137-0.034,0.245-0.051,0.325-0.05c0.008-0.125,0.133-0.192,0.375-0.2H39v-1.5v-0.05    h-0.5C38.375,14.917,38.25,14.85,38.125,14.725z M36.925,15.675v1c0.201,0.061,0.434,0.12,0.7,0.175v-0.3v-0.875    c-0.009-0.225-0.134-0.333-0.375-0.325C37.025,15.342,36.917,15.45,36.925,15.675z M36.425,16.425    c0.131,0.087,0.298,0.17,0.5,0.25v2.175 M37.8,18.85v-2.125c-0.052,0.047-0.111,0.088-0.175,0.125v2v1v1.2    c0.061,0.015,0.12,0.032,0.175,0.05 M37.8,16.35c-0.049,0.073-0.107,0.14-0.175,0.2 M37.8,18.85v2.25    c0.563,0.23,0.897,0.689,1,1.375h1.125 M37.3,24.1h-0.05c-1.05-0.108-1.575-0.625-1.575-1.55v-0.075h-1 M37.625,21.05v0.625    c0.064,0.009,0.123,0.026,0.175,0.05V21.1 M37.625,19.85l-0.2,1.125c0.064,0.032,0.13,0.057,0.2,0.075 M37.425,20.975    c-0.062,0.007-0.121,0.007-0.175,0c-0.114,0-0.222,0-0.325,0v0.7c0.108-0.046,0.233-0.071,0.375-0.075L37.425,20.975z M37.3,21.6    c0.12,0.004,0.228,0.029,0.325,0.075v0.8H37.3v0.875h0.05c0.103-0.002,0.195-0.02,0.275-0.05 M36.925,23.3v-0.825h-0.5    C36.425,22.92,36.591,23.195,36.925,23.3z M37.3,24.1v-0.55h-0.05c-0.175,0.005-0.284-0.062-0.325-0.2V23.3 M38.175,22.475H37.8    v0.75c0.157-0.074,0.266-0.199,0.325-0.375C38.162,22.746,38.179,22.621,38.175,22.475V22.3c-0.042-0.282-0.167-0.474-0.375-0.575    v0.75h-0.175V23.3c0.065-0.018,0.124-0.043,0.175-0.075V23.3 M37.35,23.35c0.099,0,0.191,0,0.275,0V23.3 M38.125,22.85    c-0.058,0.193-0.166,0.343-0.325,0.45c-0.051,0.017-0.11,0.034-0.175,0.05c-0.045,0.125-0.154,0.192-0.325,0.2v-0.2    c-0.142,0.004-0.267-0.012-0.375-0.05 M37.3,21.6v0.875h-0.375v-0.8c-0.333,0.096-0.5,0.363-0.5,0.8h-0.75    c0.115-0.883,0.532-1.383,1.25-1.5V18.85 M37.3,24.1v1 M56.05,18.225c-0.054,0.004-0.113,0.004-0.175,0    c-0.225-0.108-0.333-0.275-0.325-0.5c-0.002-0.052-0.002-0.11,0-0.175c-0.008-0.225,0.1-0.333,0.325-0.325    c0.062-0.034,0.121-0.059,0.175-0.075c0.157-0.028,0.282,0.039,0.375,0.2l2.625,0.2c0.1,0,0.142,0.059,0.125,0.175l-2.625,0.2    L56.425,18.1C56.332,18.174,56.207,18.216,56.05,18.225z M56.05,17.225c-0.053-0.001-0.111-0.001-0.175,0 M55.05,15.85    c-0.017-0.683,0.317-1.017,1-1c0.583-0.017,0.875,0.317,0.875,1c0,0.583-0.292,0.875-0.875,0.875    C55.367,16.725,55.033,16.434,55.05,15.85z M56.05,18.075c0.243-0.056,0.368-0.231,0.375-0.525    c-0.007-0.185-0.132-0.293-0.375-0.325 M40.75,14.1h-0.575v0.325L40.05,14.6v2.125l0.125,0.125v0.375h0.575V17.05h0.175v-0.5    h0.125v-1.575L40.925,14.8v-0.575H40.75V14.1z M39,16.475c0.716-0.421,0.716-0.921,0-1.5 M38.8,22.475v0.075    c-0.11,0.904-0.61,1.42-1.5,1.55 M55.55,17.725c0.034,0.24,0.142,0.365,0.325,0.375c0.064-0.001,0.122-0.01,0.175-0.025     M56.05,20.725h-0.125l0.125-0.475l0.45-1.7l-0.2,2.175H56.05z M38.8,22.475h-0.625 M56.05,31.9c0.167,0.133,0.417,0.2,0.75,0.2    c0.583,0,0.875-0.292,0.875-0.875c0-0.683-0.292-1.017-0.875-1c-0.333-0.008-0.583,0.067-0.75,0.225    c-0.175,0.167-0.258,0.425-0.25,0.775C55.792,31.524,55.875,31.749,56.05,31.9z M56.625,31.6c0.358-0.008,0.542-0.192,0.55-0.55    c-0.008-0.225-0.192-0.333-0.55-0.325c-0.225-0.008-0.333,0.1-0.325,0.325C56.292,31.408,56.4,31.592,56.625,31.6z M14.8,30.225    c-0.683-0.017-1.017,0.317-1,1c-0.017,0.583,0.317,0.875,1,0.875c0.583,0,0.875-0.292,0.875-0.875    C15.675,30.542,15.383,30.208,14.8,30.225z M14.625,30.725c-0.225-0.008-0.333,0.1-0.325,0.325c-0.008,0.358,0.1,0.542,0.325,0.55    c0.358-0.008,0.542-0.192,0.55-0.55C15.167,30.825,14.983,30.717,14.625,30.725z"
         id="path3409" /><path
         fill-rule="evenodd"
         clip-rule="evenodd"
         fill="none"
         stroke="#2CB0CF"
         stroke-width="0.1"
         stroke-linecap="round"
         stroke-linejoin="round"
         stroke-miterlimit="3"
         d="    M37.625,18.85H37.8 M36.925,18.85h-9.5c-0.25-0.017-0.5,0.025-0.75,0.125c-0.1,0.25-0.142,0.5-0.125,0.75v5.25    c-0.017,0.35,0.025,0.583,0.125,0.7c0.25,0.216,0.5,0.316,0.75,0.3H46.8c0.367,0.017,0.617-0.083,0.75-0.3    c0.225-0.117,0.333-0.35,0.325-0.7v-5.25c0.008-0.25-0.1-0.5-0.325-0.75c-0.133-0.1-0.383-0.142-0.75-0.125h-9"
         id="path3411" /></g></g><path
     style="fill:#decd87"
     d="M 19.147339,51.788378 1.3137451,35.224832 3.5292345,31.025255 C 4.7477538,28.715488 8.7951605,21.10267 12.523472,14.107882 l 6.778748,-12.7177972 17.530726,0 17.530729,0 7.826042,16.9773872 7.826041,16.977389 L 53.498347,51.848395 36.980934,68.351928 19.147339,51.788378 Z M 15.478984,31.942374 c 0.846973,-0.846972 0.02916,-2.102651 -1.165907,-1.790135 -0.543747,0.142193 -0.791018,1.509199 -0.352342,1.947874 0.313902,0.313902 1.131558,0.22895 1.518249,-0.157739 z m 41.998307,0 c 0.843651,-0.843651 -0.125336,-2.262311 -1.250355,-1.830601 -0.462194,0.177361 -0.65415,1.602083 -0.267893,1.98834 0.313902,0.313902 1.131559,0.22895 1.518248,-0.157739 z m -9.76017,-6.211017 c 0.485151,-0.48515 0.485151,-6.199087 0,-6.684238 -0.246096,-0.246094 -1.78772,-0.354915 -5.027967,-0.354915 l -4.673051,0 0,-0.865626 c 0,-0.661048 0.204159,-0.967473 0.863849,-1.296571 0.824989,-0.411558 0.871811,-0.399227 1.040804,0.274101 0.248018,0.988177 0.96778,0.878945 1.200856,-0.182243 0.415221,-1.890489 -0.745056,-3.772872 -1.202388,-1.950706 l -0.17849,0.711158 -1.150603,-0.614157 c -0.954766,-0.509627 -1.277724,-0.556237 -1.897483,-0.273855 -0.846754,0.385806 -1.049138,1.734377 -0.30324,2.020605 0.272889,0.104716 0.443644,0.553807 0.443644,1.166784 l 0,0.996542 -5.101907,0.08093 -5.101907,0.08093 -0.0845,3.234382 c -0.04648,1.778911 -0.01738,3.409303 0.06466,3.623094 0.207557,0.540882 20.568042,0.573481 21.107729,0.03379 z m 8.8751,-6.396674 c 0.07693,-1.043787 0.190903,-1.234627 0.739406,-1.238043 1.029204,-0.0064 1.987485,-0.335116 1.810731,-0.621112 -0.08911,-0.144176 -0.760622,-0.262137 -1.492259,-0.262137 -1.285074,0 -1.315724,-0.02074 -0.902526,-0.610659 0.811739,-1.15892 -0.104499,-2.385339 -1.302894,-1.743976 -0.662009,0.354295 -0.748646,1.246737 -0.167831,1.728773 0.228865,0.189939 0.341497,0.651783 0.261286,1.071384 -0.105146,0.550031 -0.01437,0.737528 0.357066,0.737528 0.376,0 0.45118,0.16308 0.306774,0.665467 -0.105203,0.366006 -0.261233,0.914126 -0.346732,1.218043 -0.105679,0.375665 -0.02715,0.510342 0.245291,0.420657 0.230121,-0.07575 0.439462,-0.657306 0.491688,-1.365925 z m -39.279508,-2.712818 0,-2.366102 -1.774577,0 -1.774576,0 0,2.366102 0,2.366102 1.774576,0 1.774577,0 0,-2.366102 z"
     id="path3419"
     inkscape:connector-curvature="0" /></svg>