<?xml version="1.0" encoding="UTF-8" standalone="no"?>
<!-- Generator: Adobe Illustrator 15.0.2, SVG Export Plug-In . SVG Version: 6.00 Build 0)  -->

<svg
   xmlns:dc="http://purl.org/dc/elements/1.1/"
   xmlns:cc="http://creativecommons.org/ns#"
   xmlns:rdf="http://www.w3.org/1999/02/22-rdf-syntax-ns#"
   xmlns:svg="http://www.w3.org/2000/svg"
   xmlns="http://www.w3.org/2000/svg"
   xmlns:sodipodi="http://sodipodi.sourceforge.net/DTD/sodipodi-0.dtd"
   xmlns:inkscape="http://www.inkscape.org/namespaces/inkscape"
   version="1.1"
   id="Layer_1"
   x="0px"
   y="0px"
   width="74.8px"
   height="37.35px"
   viewBox="0 0 74.8 37.35"
   enable-background="new 0 0 74.8 37.35"
   xml:space="preserve"
   inkscape:version="0.91 r13725"
   sodipodi:docname="Combo_Tbl_Lab_wSink.svg"><metadata
     id="metadata3360"><rdf:RDF><cc:Work
         rdf:about=""><dc:format>image/svg+xml</dc:format><dc:type
           rdf:resource="http://purl.org/dc/dcmitype/StillImage" /><dc:title></dc:title></cc:Work></rdf:RDF></metadata><defs
     id="defs3358" /><sodipodi:namedview
     pagecolor="#ffffff"
     bordercolor="#666666"
     borderopacity="1"
     objecttolerance="10"
     gridtolerance="10"
     guidetolerance="10"
     inkscape:pageopacity="0"
     inkscape:pageshadow="2"
     inkscape:window-width="1360"
     inkscape:window-height="705"
     id="namedview3356"
     showgrid="false"
     inkscape:zoom="3.8502672"
     inkscape:cx="37.400002"
     inkscape:cy="18.674999"
     inkscape:window-x="-8"
     inkscape:window-y="-8"
     inkscape:window-maximized="1"
     inkscape:current-layer="Layer_1" /><path
     fill-rule="evenodd"
     clip-rule="evenodd"
     fill="#BED8BF"
     d="M67.925,19.55c0.583,0,0.875-0.292,0.875-0.875  c0-0.683-0.292-1.017-0.875-1c-0.683-0.017-1.017,0.317-1,1C66.908,19.258,67.242,19.55,67.925,19.55z M74.75,37.3H0.05V0.05h74.7  V37.3z M1.425,17.25L1.3,17.425v2.125l0.125,0.125v0.375H2v-0.175h0.175v-0.5H2.3V17.8l-0.125-0.175V17.05H2v-0.125H1.625  l-0.2,0.125V17.25z M8.05,19.125v6.75c-0.017,0.225,0.025,0.45,0.125,0.675c0.25,0.125,0.5,0.192,0.75,0.2h9.45  c0.225-0.008,0.392-0.075,0.5-0.2c0.241-0.225,0.366-0.45,0.375-0.675v-5.2l2.25,0.2c0.117,0,0.175,0.058,0.175,0.175  c0.117,0.1,0.35,0.142,0.7,0.125c0.1-0.108,0.2-0.275,0.3-0.5c0.017-0.342-0.083-0.508-0.3-0.5c-0.35-0.133-0.583-0.092-0.7,0.125  l-2.425,0.2v-8.95c-0.009-0.25-0.134-0.5-0.375-0.75c-0.108-0.1-0.275-0.142-0.5-0.125h-9.45c-0.25-0.017-0.5,0.025-0.75,0.125  c-0.1,0.25-0.142,0.5-0.125,0.75v6.875H6.125c-0.041-0.415-0.249-0.682-0.625-0.8c-0.418-0.329-0.902-0.312-1.45,0.05  c-0.125,0.125-0.25,0.192-0.375,0.2h-0.5c-0.717,0.538-0.717,1.038,0,1.5v0.05h0.5c0.125,0.008,0.25,0.075,0.375,0.2  c0.458,0.35,0.917,0.408,1.375,0.175c0.051-0.021,0.092-0.038,0.125-0.05c0.093-0.046,0.176-0.088,0.25-0.125  c0.117-0.142,0.2-0.308,0.25-0.5H8.05z M28.3,18.675c0-0.683-0.292-1.017-0.875-1c-0.683-0.017-1.017,0.317-1,1  c-0.017,0.583,0.317,0.875,1,0.875C28.008,19.55,28.3,19.258,28.3,18.675z M22.175,19.55c0.583,0,0.875-0.292,0.875-0.875  c0-0.683-0.292-1.017-0.875-1c-0.683-0.017-1.017,0.317-1,1C21.158,19.258,21.492,19.55,22.175,19.55z M22.175,23.8l-0.5-2.175  L21.8,23.8H22.175z"
     id="path3350" /><path
     fill-rule="evenodd"
     clip-rule="evenodd"
     fill="none"
     stroke="#000000"
     stroke-width="0.1"
     stroke-linecap="round"
     stroke-linejoin="round"
     stroke-miterlimit="3"
     d="  M67.425,18.5c-0.008,0.358,0.1,0.542,0.325,0.55c0.358-0.008,0.542-0.192,0.55-0.55c-0.008-0.225-0.192-0.333-0.55-0.325  C67.525,18.167,67.417,18.275,67.425,18.5z M67.925,19.55c0.583,0,0.875-0.292,0.875-0.875c0-0.683-0.292-1.017-0.875-1  c-0.683-0.017-1.017,0.317-1,1C66.908,19.258,67.242,19.55,67.925,19.55z M74.75,37.3H0.05V0.05h74.7V37.3z M1.425,17.25L1.3,17.425  v2.125l0.125,0.125v0.375H2v-0.175h0.175v-0.5H2.3V17.8l-0.125-0.175V17.05H2v-0.125H1.625l-0.2,0.125V17.25z M8.05,19.125h-2  c-0.05,0.192-0.133,0.358-0.25,0.5c-0.074,0.037-0.157,0.079-0.25,0.125c-0.033,0.012-0.074,0.029-0.125,0.05  c-0.458,0.233-0.917,0.175-1.375-0.175c-0.125-0.125-0.25-0.192-0.375-0.2h-0.5v-0.05c-0.717-0.462-0.717-0.962,0-1.5h0.5  c0.125-0.008,0.25-0.075,0.375-0.2c0.548-0.362,1.032-0.378,1.45-0.05c0.376,0.118,0.584,0.385,0.625,0.8H8.05h4.375  c0.225-0.008,0.333,0.1,0.325,0.325c0.008,0.241-0.1,0.366-0.325,0.375H8.05z M19.25,20.5l2.425-0.2  c0.117-0.217,0.35-0.258,0.7-0.125c0.216-0.008,0.316,0.158,0.3,0.5c-0.1,0.225-0.2,0.392-0.3,0.5  c-0.35,0.017-0.583-0.025-0.7-0.125c0-0.117-0.058-0.175-0.175-0.175l-2.25-0.2 M6.05,19.125H4.875  C4.65,19.116,4.542,18.991,4.55,18.75c-0.008-0.225,0.1-0.333,0.325-0.325h1.25C6.095,18.381,6.07,18.339,6.05,18.3  c-0.517-0.413-0.95-0.496-1.3-0.25c-0.458,0.217-0.567,0.55-0.325,1c0.217,0.479,0.592,0.712,1.125,0.7 M5.5,17.625  c0.095,0.055,0.195,0.138,0.3,0.25c0.105,0.134,0.189,0.276,0.25,0.425 M11.05,14.925h1v-0.05c0.117-1.05,0.642-1.575,1.575-1.575  c0.061,0.008,0.119,0.008,0.175,0v-1 M13.8,13.3c0.812,0.181,1.271,0.707,1.375,1.575v0.05H16.3 M13.8,14.925V14.05h-0.125  c-0.583,0-0.875,0.292-0.875,0.875H13.8V15.8c0.5-0.043,0.75-0.335,0.75-0.875H13.8z M13.8,13.3v0.75  c0.5,0.043,0.75,0.335,0.75,0.875h0.625c-0.124,0.827-0.583,1.327-1.375,1.5v1.125 M13.675,15.8c-0.583,0-0.875-0.292-0.875-0.875  h-0.75c0.024,0.891,0.549,1.391,1.575,1.5c0.061-0.008,0.119-0.008,0.175,0V15.8H13.675z M27.25,18.175  c-0.225-0.008-0.333,0.1-0.325,0.325c-0.008,0.358,0.1,0.542,0.325,0.55c0.358-0.008,0.542-0.192,0.55-0.55  C27.792,18.275,27.608,18.167,27.25,18.175z M28.3,18.675c0-0.683-0.292-1.017-0.875-1c-0.683-0.017-1.017,0.317-1,1  c-0.017,0.583,0.317,0.875,1,0.875C28.008,19.55,28.3,19.258,28.3,18.675z M22.175,19.55c0.583,0,0.875-0.292,0.875-0.875  c0-0.683-0.292-1.017-0.875-1c-0.683-0.017-1.017,0.317-1,1C21.158,19.258,21.492,19.55,22.175,19.55z M22,21.05  c0.358-0.008,0.542-0.192,0.55-0.55c-0.008-0.225-0.192-0.333-0.55-0.325c-0.225-0.008-0.333,0.1-0.325,0.325  C21.667,20.858,21.775,21.042,22,21.05z M19.25,20.5h-0.2v0.175h0.2 M22.175,23.8l-0.5-2.175L21.8,23.8H22.175z M6.125,18.425v0.25  c-0.008,0.163-0.033,0.312-0.075,0.45 M3.175,19.375v-1.5"
     id="path3352" /><path
     fill-rule="evenodd"
     clip-rule="evenodd"
     fill="none"
     stroke="#000000"
     stroke-width="0.1"
     stroke-linecap="round"
     stroke-linejoin="round"
     stroke-miterlimit="3"
     d="  M8.05,18.425V11.55c-0.017-0.25,0.025-0.5,0.125-0.75c0.25-0.1,0.5-0.142,0.75-0.125h9.45c0.225-0.017,0.392,0.025,0.5,0.125  c0.241,0.25,0.366,0.5,0.375,0.75v8.95 M19.25,20.675v5.2c-0.009,0.225-0.134,0.45-0.375,0.675c-0.108,0.125-0.275,0.192-0.5,0.2  h-9.45c-0.25-0.008-0.5-0.075-0.75-0.2c-0.1-0.225-0.142-0.45-0.125-0.675v-6.75 M19.25,20.675V20.5 M8.05,18.425v0.7"
     id="path3354" /><path
     style="fill:#e9c6af"
     d="m 0.25972223,18.726944 0,-18.44027885 37.14027977,0 37.140279,0 0,18.44027885 0,18.440278 -37.140279,0 -37.14027977,0 0,-18.440278 z M 18.901933,26.633746 c 0.53411,-0.374107 0.577234,-0.607828 0.577234,-3.128437 l 0,-2.724125 0.973959,0.192173 c 1.740506,0.343422 2.272569,0.273537 2.272569,-0.298497 0,-0.473051 -0.144977,-0.511896 -1.623264,-0.434932 l -1.623264,0.08451 0,-4.546169 c 0,-3.786584 -0.06819,-4.61436 -0.408135,-4.954303 -0.607642,-0.607643 -10.2635872,-0.607643 -10.87123,0 -0.3305077,0.330508 -0.408135,1.071495 -0.408135,3.895834 l 0,3.487698 -0.6598225,0 c -0.3629021,0 -0.992622,-0.246049 -1.3993772,-0.546776 -0.673994,-0.498306 -0.828475,-0.516638 -1.7426084,-0.206796 -0.5516794,0.186989 -1.149147,0.513815 -1.327706,0.726278 -0.2728432,0.32465 -0.3246528,0.256479 -0.3246528,-0.427182 0,-0.996665 -0.4761183,-1.350235 -0.9484287,-0.704312 -0.39307967,0.537568 -0.46403854,2.394887 -0.1126956,2.949759 0.3619837,0.571677 1.060197,0.1282 1.0690222,-0.679 0.00674,-0.616179 0.04682,-0.655563 0.2726278,-0.267874 0.1456016,0.249983 0.4857749,0.454514 0.7559408,0.454514 0.2701659,0 0.5634435,0.116875 0.651728,0.259723 0.2458518,0.397796 1.5840397,0.308584 1.9479168,-0.129862 0.1778289,-0.21427 0.6596396,-0.389583 1.0706906,-0.389583 l 0.747365,0 0.00398,3.44132 c 0.00218,1.892726 0.089844,3.56989 0.1947917,3.727029 0.3472866,0.519995 0.9299066,0.582134 5.652122,0.602813 3.841149,0.01683 4.785822,-0.05212 5.259375,-0.383804 z m 3.295147,-3.556455 c -0.326455,-1.528294 -0.623774,-1.711502 -0.632237,-0.389583 -0.0061,0.954373 0.08498,1.23368 0.402322,1.23368 0.326649,0 0.373488,-0.17196 0.229915,-0.844097 z m 0.507373,-3.469107 c 0.528649,-0.202861 0.537712,-1.491497 0.01355,-1.926512 -0.587165,-0.487305 -1.680502,0.07084 -1.680502,0.857898 0,1.000775 0.69039,1.443356 1.666952,1.068614 z m 5.471794,-0.265423 c 0.23269,-0.232689 0.357913,-0.592873 0.278274,-0.800409 -0.07964,-0.207535 -0.144798,-0.476777 -0.144798,-0.598315 0,-0.386506 -0.999416,-0.555105 -1.548523,-0.261233 -0.293357,0.157001 -0.529254,0.545429 -0.529254,0.871472 0,1.143903 1.130446,1.60234 1.944301,0.788485 z m 40.239319,0.265423 c 0.627515,-0.2408 0.550273,-1.840866 -0.09881,-2.046877 -0.727438,-0.230879 -1.568143,0.301467 -1.568143,0.992969 0,0.98663 0.695832,1.426561 1.666952,1.053908 z"
     id="path3362"
     inkscape:connector-curvature="0" /></svg>