<?xml version="1.0" encoding="utf-8"?>
<!-- Generator: Adobe Illustrator 15.0.2, SVG Export Plug-In . SVG Version: 6.00 Build 0)  -->
<!DOCTYPE svg PUBLIC "-//W3C//DTD SVG 1.1//EN" "http://www.w3.org/Graphics/SVG/1.1/DTD/svg11.dtd">
<svg version="1.1" id="Layer_1" xmlns="http://www.w3.org/2000/svg" xmlns:xlink="http://www.w3.org/1999/xlink" x="0px" y="0px"
	 width="60.25px" height="74.55px" viewBox="0 0 60.25 74.55" enable-background="new 0 0 60.25 74.55" xml:space="preserve">
<path fill-rule="evenodd" clip-rule="evenodd" fill="#FFFFFF" d="M60.2,57.55v17H0.3v-17.1H0.05v-7.1H1.8v1h1.75
	C3.716,44.383,5.133,37.9,7.8,31.9c2.633-6.033,6.267-11.317,10.9-15.85S28.683,7.966,34.75,5.4c6.033-2.567,12.533-3.867,19.5-3.9
	c0.217,0,0.434,0,0.65,0V0.05h1.75v1.5c-0.582-0.025-1.165-0.042-1.75-0.05c0.585,0.008,1.168,0.025,1.75,0.05V51.7h0.05v-0.35h1.75
	v-0.9h1.75V57.55h-1.75v-0.9v0.9H60.2z M54.899,1.5v51.65h1.75V51.7v1.45h-1.75V1.5z M56.7,51.7v4.95h1.75v-5.3v5.3H56.7V51.7z
	 M3.55,51.35v5.3H1.8v0.8H0.3h1.5v-0.8h1.75V51.35z M1.8,51.35v5.3V51.35z"/>
<path fill-rule="evenodd" clip-rule="evenodd" fill="none" stroke="#000000" stroke-width="0.1" stroke-linecap="round" stroke-linejoin="round" stroke-miterlimit="3" d="
	M0.3,57.45H0.05v-7.1H1.8v1h1.75C3.716,44.383,5.133,37.9,7.8,31.9c2.633-6.033,6.267-11.317,10.9-15.85S28.683,7.966,34.75,5.4
	c6.033-2.567,12.533-3.867,19.5-3.9c0.217,0,0.434,0,0.65,0V0.05h1.75v1.5c1.189,0.06,2.373,0.16,3.55,0.3 M54.899,1.5
	c0.585,0.008,1.168,0.025,1.75,0.05V51.7h0.05v-0.35h1.75v-0.9h1.75v7.1 M54.899,1.5v51.65h1.75V51.7 M56.7,51.7v4.95h1.75v-5.3
	 M58.45,56.65v0.9h1.75 M3.55,51.35v5.3H1.8v0.8H0.3 M1.8,51.35v5.3"/>
</svg>
