<?xml version="1.0" encoding="utf-8"?>
<!-- Generator: Adobe Illustrator 15.0.2, SVG Export Plug-In . SVG Version: 6.00 Build 0)  -->
<!DOCTYPE svg PUBLIC "-//W3C//DTD SVG 1.1//EN" "http://www.w3.org/Graphics/SVG/1.1/DTD/svg11.dtd">
<svg version="1.1" id="Layer_1" xmlns="http://www.w3.org/2000/svg" xmlns:xlink="http://www.w3.org/1999/xlink" x="0px" y="0px"
	 width="70.899px" height="90.1px" viewBox="0 0 70.899 90.1" enable-background="new 0 0 70.899 90.1" xml:space="preserve">
<path fill-rule="evenodd" clip-rule="evenodd" fill="#FFFFFF" d="M70.85,68.15V90.1H0.2V68.15H0.05v-7.1H1.8v1.5h0.05v-0.6H3.6
	c-0.033-0.433-0.05-0.85-0.05-1.25c0.066-8.233,1.617-15.917,4.65-23.05c3.067-7.133,7.3-13.4,12.7-18.8
	c5.4-5.4,11.667-9.633,18.8-12.7c7.133-3.033,14.817-4.583,23.05-4.65c0.967,0,1.917,0.033,2.85,0.1V0.05h1.75V1.7
	c-0.566-0.066-1.15-0.1-1.75-0.1v62.15h1.75v-1.8v1.8H65.6V1.6c0.6,0,1.184,0.034,1.75,0.1v60.25h1.75v-0.9h1.75V68.15H69.1v-0.9
	v-5.3v5.3v0.9H70.85z M67.35,63.75v3.5h1.75h-1.75V63.75z M0.2,68.15h1.6v-4.4v-1.2v1.2v4.4H0.2z M1.85,62.55v1.2v3.5H3.6v-5.3v5.3
	H1.85v-3.5V62.55z M1.85,63.75H1.8H1.85z"/>
<path fill-rule="evenodd" clip-rule="evenodd" fill="none" stroke="#000000" stroke-width="0.1" stroke-linecap="round" stroke-linejoin="round" stroke-miterlimit="3" d="
	M0.2,68.15H0.05v-7.1H1.8v1.5h0.05v-0.6H3.6c-0.033-0.433-0.05-0.85-0.05-1.25c0.066-8.233,1.617-15.917,4.65-23.05
	c3.067-7.133,7.3-13.4,12.7-18.8c5.4-5.4,11.667-9.633,18.8-12.7c7.133-3.033,14.817-4.583,23.05-4.65c0.967,0,1.917,0.033,2.85,0.1
	V0.05h1.75V1.7c1.167,0.067,2.333,0.184,3.5,0.35 M67.35,1.7c-0.566-0.066-1.15-0.1-1.75-0.1v62.15h1.75v-1.8V1.7z M67.35,61.95
	h1.75v-0.9h1.75v7.1 M69.1,61.95v5.3v0.9h1.75 M67.35,63.75v3.5h1.75 M0.2,68.15h1.6v-4.4v-1.2 M1.85,62.55v1.2v3.5H3.6v-5.3
	 M1.85,63.75H1.8"/>
</svg>
