<?xml version="1.0" encoding="utf-8"?>
<!-- Generator: Adobe Illustrator 15.0.2, SVG Export Plug-In . SVG Version: 6.00 Build 0)  -->
<!DOCTYPE svg PUBLIC "-//W3C//DTD SVG 1.1//EN" "http://www.w3.org/Graphics/SVG/1.1/DTD/svg11.dtd">
<svg version="1.1" id="Layer_1" xmlns="http://www.w3.org/2000/svg" xmlns:xlink="http://www.w3.org/1999/xlink" x="0px" y="0px"
	 width="70.899px" height="90.1px" viewBox="0 0 70.899 90.1" enable-background="new 0 0 70.899 90.1" xml:space="preserve">
<path fill-rule="evenodd" clip-rule="evenodd" fill="#FFFFFF" d="M0.05,68.15v-7.1H1.8v0.9h1.75V1.7V0.05H5.3V1.6
	c0.967-0.066,1.917-0.1,2.85-0.1c8.233,0.066,15.917,1.617,23.05,4.65c7.133,3.066,13.4,7.3,18.8,12.7
	c5.4,5.4,9.633,11.667,12.7,18.8c3.033,7.133,4.583,14.816,4.65,23.05c0,0.4-0.017,0.817-0.05,1.25h1.75v0.6h0.05v-1.5h1.75v7.1
	H70.7V90.1H0.05V68.15H1.8v-0.9h1.75v-3.5v3.5H1.8v0.9H0.05z M3.55,61.95v1.8H5.3V1.6c-0.567,0-1.15,0.034-1.75,0.1
	c0.6-0.066,1.183-0.1,1.75-0.1v62.15H3.55V61.95z M69.05,62.55v1.2h0.05v-1.2v1.2h-0.05V62.55z M69.1,63.75v4.4h1.6h-1.6V63.75z
	 M67.3,61.95v5.3h1.75v-3.5v3.5H67.3V61.95z M1.8,67.25v-5.3V67.25z"/>
<path fill-rule="evenodd" clip-rule="evenodd" fill="none" stroke="#000000" stroke-width="0.1" stroke-linecap="round" stroke-linejoin="round" stroke-miterlimit="3" d="
	M3.55,1.7V0.05H5.3V1.6c0.967-0.066,1.917-0.1,2.85-0.1c8.233,0.066,15.917,1.617,23.05,4.65c7.133,3.066,13.4,7.3,18.8,12.7
	c5.4,5.4,9.633,11.667,12.7,18.8c3.033,7.133,4.583,14.816,4.65,23.05c0,0.4-0.017,0.817-0.05,1.25h1.75v0.6h0.05v-1.5h1.75v7.1
	H70.7 M0.05,68.15v-7.1H1.8v0.9h1.75V1.7c-1.167,0.067-2.333,0.184-3.5,0.35 M3.55,61.95v1.8H5.3V1.6c-0.567,0-1.15,0.034-1.75,0.1
	 M69.05,62.55v1.2h0.05v-1.2 M69.1,63.75v4.4h1.6 M67.3,61.95v5.3h1.75v-3.5 M3.55,63.75v3.5H1.8v0.9H0.05 M1.8,67.25v-5.3"/>
</svg>
