<?xml version="1.0" encoding="utf-8"?>
<!-- Generator: Adobe Illustrator 15.0.2, SVG Export Plug-In . SVG Version: 6.00 Build 0)  -->
<!DOCTYPE svg PUBLIC "-//W3C//DTD SVG 1.1//EN" "http://www.w3.org/Graphics/SVG/1.1/DTD/svg11.dtd">
<svg version="1.1" id="Layer_1" xmlns="http://www.w3.org/2000/svg" xmlns:xlink="http://www.w3.org/1999/xlink" x="0px" y="0px"
	 width="60.25px" height="74.55px" viewBox="0 0 60.25 74.55" enable-background="new 0 0 60.25 74.55" xml:space="preserve">
<path fill-rule="evenodd" clip-rule="evenodd" fill="#FFFFFF" d="M0.05,57.55v-7.1H1.8v0.9h1.75v0.35H3.6V1.55v-1.5h1.75V1.5
	c0.2,0,0.417,0,0.65,0c6.967,0.033,13.467,1.333,19.5,3.9c6.067,2.566,11.417,6.117,16.05,10.65s8.267,9.817,10.9,15.85
	c2.667,6,4.083,12.483,4.25,19.45h1.75v-1h1.75v7.1h-0.25v17.1H0.05V57.55H1.8v-0.9v-5.3v5.3v0.9H0.05z M3.6,51.7v1.45h1.75V1.5
	c-0.6,0-1.183,0.017-1.75,0.05C4.167,1.517,4.75,1.5,5.35,1.5v51.65H3.6V51.7z M59.95,57.45h-1.5v-0.8H56.7v-5.3v5.3h1.75v0.8H59.95
	z M58.45,51.35v5.3V51.35z M1.8,56.65h1.75V51.7v4.95H1.8z"/>
<path fill-rule="evenodd" clip-rule="evenodd" fill="none" stroke="#000000" stroke-width="0.1" stroke-linecap="round" stroke-linejoin="round" stroke-miterlimit="3" d="
	M3.6,1.55v-1.5h1.75V1.5c0.2,0,0.417,0,0.65,0c6.967,0.033,13.467,1.333,19.5,3.9c6.067,2.566,11.417,6.117,16.05,10.65
	s8.267,9.817,10.9,15.85c2.667,6,4.083,12.483,4.25,19.45h1.75v-1h1.75v7.1h-0.25h-1.5v-0.8H56.7v-5.3 M0.05,57.55v-7.1H1.8v0.9
	h1.75v0.35H3.6V1.55c-1.2,0.067-2.383,0.167-3.55,0.3 M3.6,51.7v1.45h1.75V1.5c-0.6,0-1.183,0.017-1.75,0.05 M58.45,51.35v5.3
	 M0.05,57.55H1.8v-0.9v-5.3 M1.8,56.65h1.75V51.7"/>
</svg>
