<?xml version="1.0" encoding="utf-8"?>
<!-- Generator: Adobe Illustrator 15.0.2, SVG Export Plug-In . SVG Version: 6.00 Build 0)  -->
<!DOCTYPE svg PUBLIC "-//W3C//DTD SVG 1.1//EN" "http://www.w3.org/Graphics/SVG/1.1/DTD/svg11.dtd">
<svg version="1.1" id="Layer_1" xmlns="http://www.w3.org/2000/svg" xmlns:xlink="http://www.w3.org/1999/xlink" x="0px" y="0px"
	 width="52.1px" height="52.1px" viewBox="0 0 52.1 52.1" enable-background="new 0 0 52.1 52.1" xml:space="preserve">
<path fill-rule="evenodd" clip-rule="evenodd" fill="#FFFFFF" d="M41.45,22.1c-1.433,0-2.667,0.5-3.7,1.5
	c-1,1.034-1.5,2.267-1.5,3.7s0.5,2.65,1.5,3.65c1.033,1.033,2.267,1.55,3.7,1.55c1.434,0,2.65-0.517,3.65-1.55
	c1.034-1,1.55-2.217,1.55-3.65s-0.517-2.667-1.55-3.7C44.1,22.6,42.883,22.1,41.45,22.1z M30.1,21.6c-1-1-2.216-1.5-3.65-1.5
	c-1.433,0-2.667,0.5-3.7,1.5c-1,1.034-1.5,2.267-1.5,3.7s0.5,2.65,1.5,3.65c1.033,1.033,2.267,1.55,3.7,1.55
	c1.434,0,2.65-0.517,3.65-1.55c1.034-1,1.55-2.217,1.55-3.65S31.133,22.633,30.1,21.6z M28.65,8.3c0-1.433-0.517-2.667-1.55-3.7
	c-1-1-2.216-1.5-3.65-1.5c-1.433,0-2.667,0.5-3.7,1.5c-1,1.034-1.5,2.267-1.5,3.7s0.5,2.65,1.5,3.65
	c1.033,1.033,2.267,1.55,3.7,1.55c1.434,0,2.65-0.517,3.65-1.55C28.133,10.95,28.65,9.733,28.65,8.3z M40.65,13.3
	c0-1.433-0.517-2.667-1.55-3.7c-1-1-2.216-1.5-3.65-1.5c-1.433,0-2.667,0.5-3.7,1.5c-1,1.034-1.5,2.267-1.5,3.7s0.5,2.65,1.5,3.65
	c1.033,1.033,2.267,1.55,3.7,1.55c1.434,0,2.65-0.517,3.65-1.55C40.133,15.95,40.65,14.733,40.65,13.3z M44.4,7.65
	c5.1,5.1,7.65,11.233,7.65,18.4S49.5,39.333,44.4,44.4c-5.067,5.1-11.184,7.65-18.35,7.65s-13.3-2.55-18.4-7.65
	c-5.067-5.067-7.6-11.184-7.6-18.35s2.533-13.3,7.6-18.4c5.1-5.067,11.233-7.6,18.4-7.6S39.333,2.583,44.4,7.65z M13.25,42.3
	c0,1.433,0.5,2.65,1.5,3.65c1.033,1.033,2.267,1.55,3.7,1.55c1.434,0,2.65-0.517,3.65-1.55c1.034-1,1.55-2.217,1.55-3.65
	s-0.517-2.667-1.55-3.7c-1-1-2.216-1.5-3.65-1.5c-1.433,0-2.667,0.5-3.7,1.5C13.75,39.633,13.25,40.867,13.25,42.3z M10.45,26.1
	c-1.433,0-2.667,0.5-3.7,1.5c-1,1.034-1.5,2.267-1.5,3.7s0.5,2.65,1.5,3.65c1.033,1.033,2.267,1.55,3.7,1.55
	c1.434,0,2.65-0.517,3.65-1.55c1.034-1,1.55-2.217,1.55-3.65s-0.517-2.667-1.55-3.7C13.1,26.6,11.883,26.1,10.45,26.1z M7.25,18.3
	c0,1.433,0.5,2.65,1.5,3.65c1.033,1.033,2.267,1.55,3.7,1.55c1.434,0,2.65-0.517,3.65-1.55c1.034-1,1.55-2.217,1.55-3.65
	s-0.517-2.667-1.55-3.7c-1-1-2.216-1.5-3.65-1.5c-1.433,0-2.667,0.5-3.7,1.5C7.75,15.633,7.25,16.867,7.25,18.3z M34.45,35.1
	c-1.433,0-2.667,0.5-3.7,1.5c-1,1.034-1.5,2.267-1.5,3.7s0.5,2.65,1.5,3.65c1.033,1.033,2.267,1.55,3.7,1.55
	c1.434,0,2.65-0.517,3.65-1.55c1.034-1,1.55-2.217,1.55-3.65s-0.517-2.667-1.55-3.7C37.1,35.6,35.883,35.1,34.45,35.1z"/>
<path fill-rule="evenodd" clip-rule="evenodd" d="M40.65,13.3c0,1.433-0.517,2.65-1.55,3.65c-1,1.033-2.216,1.55-3.65,1.55
	c-1.433,0-2.667-0.517-3.7-1.55c-1-1-1.5-2.217-1.5-3.65s0.5-2.667,1.5-3.7c1.033-1,2.267-1.5,3.7-1.5c1.434,0,2.65,0.5,3.65,1.5
	C40.133,10.633,40.65,11.867,40.65,13.3z M28.65,8.3c0,1.433-0.517,2.65-1.55,3.65c-1,1.033-2.216,1.55-3.65,1.55
	c-1.433,0-2.667-0.517-3.7-1.55c-1-1-1.5-2.217-1.5-3.65s0.5-2.667,1.5-3.7c1.033-1,2.267-1.5,3.7-1.5c1.434,0,2.65,0.5,3.65,1.5
	C28.133,5.633,28.65,6.867,28.65,8.3z M30.1,21.6c1.034,1.034,1.55,2.267,1.55,3.7s-0.517,2.65-1.55,3.65
	c-1,1.033-2.216,1.55-3.65,1.55c-1.433,0-2.667-0.517-3.7-1.55c-1-1-1.5-2.217-1.5-3.65s0.5-2.667,1.5-3.7
	c1.033-1,2.267-1.5,3.7-1.5C27.883,20.1,29.1,20.6,30.1,21.6z M41.45,22.1c1.434,0,2.65,0.5,3.65,1.5
	c1.034,1.034,1.55,2.267,1.55,3.7s-0.517,2.65-1.55,3.65c-1,1.033-2.216,1.55-3.65,1.55c-1.433,0-2.667-0.517-3.7-1.55
	c-1-1-1.5-2.217-1.5-3.65s0.5-2.667,1.5-3.7C38.783,22.6,40.017,22.1,41.45,22.1z M34.45,35.1c1.434,0,2.65,0.5,3.65,1.5
	c1.034,1.034,1.55,2.267,1.55,3.7s-0.517,2.65-1.55,3.65c-1,1.033-2.216,1.55-3.65,1.55c-1.433,0-2.667-0.517-3.7-1.55
	c-1-1-1.5-2.217-1.5-3.65s0.5-2.667,1.5-3.7C31.783,35.6,33.017,35.1,34.45,35.1z M7.25,18.3c0-1.433,0.5-2.667,1.5-3.7
	c1.033-1,2.267-1.5,3.7-1.5c1.434,0,2.65,0.5,3.65,1.5c1.034,1.034,1.55,2.267,1.55,3.7s-0.517,2.65-1.55,3.65
	c-1,1.033-2.216,1.55-3.65,1.55c-1.433,0-2.667-0.517-3.7-1.55C7.75,20.95,7.25,19.733,7.25,18.3z M10.45,26.1
	c1.434,0,2.65,0.5,3.65,1.5c1.034,1.034,1.55,2.267,1.55,3.7s-0.517,2.65-1.55,3.65c-1,1.033-2.216,1.55-3.65,1.55
	c-1.433,0-2.667-0.517-3.7-1.55c-1-1-1.5-2.217-1.5-3.65s0.5-2.667,1.5-3.7C7.783,26.6,9.017,26.1,10.45,26.1z M13.25,42.3
	c0-1.433,0.5-2.667,1.5-3.7c1.033-1,2.267-1.5,3.7-1.5c1.434,0,2.65,0.5,3.65,1.5c1.034,1.034,1.55,2.267,1.55,3.7
	s-0.517,2.65-1.55,3.65c-1,1.033-2.216,1.55-3.65,1.55c-1.433,0-2.667-0.517-3.7-1.55C13.75,44.95,13.25,43.733,13.25,42.3z"/>
<path fill-rule="evenodd" clip-rule="evenodd" fill="none" stroke="#000000" stroke-width="0.1" stroke-linecap="round" stroke-linejoin="round" stroke-miterlimit="3" d="
	M44.4,7.65c5.1,5.1,7.65,11.233,7.65,18.4S49.5,39.333,44.4,44.4c-5.067,5.1-11.184,7.65-18.35,7.65s-13.3-2.55-18.4-7.65
	c-5.067-5.067-7.6-11.184-7.6-18.35s2.533-13.3,7.6-18.4c5.1-5.067,11.233-7.6,18.4-7.6S39.333,2.583,44.4,7.65z"/>
</svg>
