<?xml version="1.0" encoding="utf-8"?>
<!-- Generator: Adobe Illustrator 15.0.2, SVG Export Plug-In . SVG Version: 6.00 Build 0)  -->
<!DOCTYPE svg PUBLIC "-//W3C//DTD SVG 1.1//EN" "http://www.w3.org/Graphics/SVG/1.1/DTD/svg11.dtd">
<svg version="1.1" id="Layer_1" xmlns="http://www.w3.org/2000/svg" xmlns:xlink="http://www.w3.org/1999/xlink" x="0px" y="0px"
	 width="18.467px" height="33.55px" viewBox="0 0 18.467 33.55" enable-background="new 0 0 18.467 33.55" xml:space="preserve">
<path fill-rule="evenodd" clip-rule="evenodd" d="M7.667,4.75c-0.133,0-0.233-0.033-0.3-0.1c-1.9-1.267-3.517-1.2-4.85,0.2
	c-1.6,2.4-1.8,4.9-0.6,7.5c0.966,2.533,1.566,5.133,1.8,7.8c0,0.1,0,0.2,0,0.3v4.8c-0.167,1.833-0.483,3.717-0.95,5.65
	c-0.066,0.133-0.15,0.25-0.25,0.35C2.35,31.317,2.2,31.333,2.067,31.3c-0.167-0.066-0.283-0.15-0.35-0.25
	c-0.067-0.167-0.083-0.316-0.05-0.45c1.6-6.333,1.333-12.267-0.8-17.8C-0.5,9.833-0.25,6.967,1.617,4.2
	c0-0.034,0.017-0.05,0.05-0.05c1.667-1.867,3.667-2.066,6-0.6c0.1,0.034,0.2,0.1,0.3,0.2C8.1,3.817,8.184,3.933,8.217,4.1
	c0,0.133-0.033,0.267-0.1,0.4c-0.1,0.133-0.217,0.217-0.35,0.25H7.667z"/>
<path fill-rule="evenodd" clip-rule="evenodd" fill="#C20101" d="M7.667,3.45C7.683,3.47,7.7,3.487,7.717,3.5l3.9,1.625V7.1h-0.05
	c0.733,0.1,1.45,0.283,2.15,0.55c1.3,0.5,1.7,2.184,1.2,5.05v15.85c-0.133,1.267-0.684,2.383-1.65,3.35
	c-1.033,1.033-2.267,1.583-3.7,1.65c-0.1,0-0.184,0-0.25,0c-1.567,0-2.883-0.55-3.95-1.65c-0.967-0.967-1.517-2.083-1.65-3.35v-3.3
	v-4.8c0-0.1,0-0.2,0-0.3V12.7c-0.333-2.633,0.117-4.267,1.35-4.9c0.767-0.433,1.633-0.683,2.6-0.75v-2.3h0.1
	C7.9,4.717,8.017,4.633,8.117,4.5c0.067-0.133,0.1-0.267,0.1-0.4C8.184,3.933,8.1,3.817,7.967,3.75c-0.1-0.1-0.2-0.167-0.3-0.2V3.45
	z"/>
<path fill-rule="evenodd" clip-rule="evenodd" fill="#666666" d="M11.617,5.125L7.717,3.5C7.7,3.487,7.683,3.47,7.667,3.45
	c-0.696-0.55-0.963-1.184-0.8-1.9c0.3-0.7,0.767-1.066,1.4-1.1c3.5,0.966,6.3,0.816,8.4-0.45l-0.8,1.25
	c-0.933,0.333-1.883,0.467-2.85,0.4c-0.167,0.767,0.017,1.533,0.55,2.3c1.566,0.933,3.2,2.4,4.9,4.4l-0.4,0.25
	c-2-2.3-4.05-3.417-6.15-3.35L11.617,5.125z"/>
</svg>
