<?xml version="1.0" encoding="UTF-8" standalone="no"?>
<!-- Generator: Adobe Illustrator 15.0.2, SVG Export Plug-In . SVG Version: 6.00 Build 0)  -->

<svg
   xmlns:dc="http://purl.org/dc/elements/1.1/"
   xmlns:cc="http://creativecommons.org/ns#"
   xmlns:rdf="http://www.w3.org/1999/02/22-rdf-syntax-ns#"
   xmlns:svg="http://www.w3.org/2000/svg"
   xmlns="http://www.w3.org/2000/svg"
   xmlns:sodipodi="http://sodipodi.sourceforge.net/DTD/sodipodi-0.dtd"
   xmlns:inkscape="http://www.inkscape.org/namespaces/inkscape"
   version="1.1"
   id="Layer_1"
   x="0px"
   y="0px"
   width="30.475px"
   height="24.424px"
   viewBox="0 0 30.475 24.424"
   enable-background="new 0 0 30.475 24.424"
   xml:space="preserve"
   inkscape:version="0.91 r13725"
   sodipodi:docname="Fire-Blkt-New.svg"><metadata
     id="metadata3356"><rdf:RDF><cc:Work
         rdf:about=""><dc:format>image/svg+xml</dc:format><dc:type
           rdf:resource="http://purl.org/dc/dcmitype/StillImage" /><dc:title></dc:title></cc:Work></rdf:RDF></metadata><defs
     id="defs3354" /><sodipodi:namedview
     pagecolor="#ffffff"
     bordercolor="#666666"
     borderopacity="1"
     objecttolerance="10"
     gridtolerance="10"
     guidetolerance="10"
     inkscape:pageopacity="0"
     inkscape:pageshadow="2"
     inkscape:window-width="1360"
     inkscape:window-height="705"
     id="namedview3352"
     showgrid="false"
     inkscape:zoom="9.450369"
     inkscape:cx="-4.6029948"
     inkscape:cy="12.212"
     inkscape:window-x="-8"
     inkscape:window-y="-8"
     inkscape:window-maximized="1"
     inkscape:current-layer="Layer_1"
     inkscape:snap-nodes="false"
     inkscape:snap-global="false" /><path
     style="fill:#ff0000"
     d="m 0.63489581,7.471444 0,-8.7827256 20.58120619,0 20.581208,0 0,8.7827256 0,8.782726 -20.581208,0 -20.58120619,0 0,-8.782726 z"
     id="path3360"
     inkscape:connector-curvature="0" /><path
     style="fill:#999999"
     d="m 30.417012,6.7307325 c 0,-2.1242557 0.01412,-2.9932694 0.03138,-1.9311416 0.01726,1.0621279 0.01726,2.8001552 0,3.8622831 -0.01726,1.0621278 -0.03138,0.1931141 -0.03138,-1.9311415 z"
     id="path3362"
     inkscape:connector-curvature="0" /><path
     style="fill:#999999"
     d="m 30.410635,7.0481804 c 0,-0.7856836 0.01666,-1.1070996 0.03702,-0.7142578 0.02036,0.3928418 0.02036,1.0356738 0,1.4285156 -0.02036,0.3928418 -0.03702,0.071426 -0.03702,-0.7142578 z"
     id="path3364"
     inkscape:connector-curvature="0" /><path
     style="fill:#d40000"
     d="m -0.21163194,7.376809 0,-9.300625 21.56783994,0 21.567841,0 0,9.300625 0,9.300625 -21.567841,0 -21.56783994,0 0,-9.300625 z m 41.88331894,-0.061755 0.03865,-8.6658575 -20.391401,0.020783 -20.39142818,0.020783 -0.0386764,8.5542815 c -0.0283377,6.2663918 0.007273,8.5841178 0.13297028,8.6658508 0.1435514,0.09333 3.4815354,0.108188 20.3914263,0.0908 l 20.219779,-0.02076 0.03872,-8.6658638 z"
     id="path3366"
     inkscape:connector-curvature="0" /></svg>