<?xml version="1.0" encoding="UTF-8" standalone="no"?>
<!-- Generator: Adobe Illustrator 15.0.2, SVG Export Plug-In . SVG Version: 6.00 Build 0)  -->

<svg
   xmlns:dc="http://purl.org/dc/elements/1.1/"
   xmlns:cc="http://creativecommons.org/ns#"
   xmlns:rdf="http://www.w3.org/1999/02/22-rdf-syntax-ns#"
   xmlns:svg="http://www.w3.org/2000/svg"
   xmlns="http://www.w3.org/2000/svg"
   xmlns:sodipodi="http://sodipodi.sourceforge.net/DTD/sodipodi-0.dtd"
   xmlns:inkscape="http://www.inkscape.org/namespaces/inkscape"
   version="1.1"
   id="Layer_1"
   x="0px"
   y="0px"
   width="54.1px"
   height="34.05px"
   viewBox="0 0 54.1 34.05"
   enable-background="new 0 0 54.1 34.05"
   xml:space="preserve"
   inkscape:version="0.91 r13725"
   sodipodi:docname="Flamm-Cor_cab.svg"><metadata
     id="metadata3412"><rdf:RDF><cc:Work
         rdf:about=""><dc:format>image/svg+xml</dc:format><dc:type
           rdf:resource="http://purl.org/dc/dcmitype/StillImage" /><dc:title /></cc:Work></rdf:RDF></metadata><defs
     id="defs3410" /><sodipodi:namedview
     pagecolor="#ffffff"
     bordercolor="#666666"
     borderopacity="1"
     objecttolerance="10"
     gridtolerance="10"
     guidetolerance="10"
     inkscape:pageopacity="0"
     inkscape:pageshadow="2"
     inkscape:window-width="1360"
     inkscape:window-height="705"
     id="namedview3408"
     showgrid="false"
     inkscape:zoom="10.64695"
     inkscape:cx="31.576656"
     inkscape:cy="21.195345"
     inkscape:window-x="-8"
     inkscape:window-y="-8"
     inkscape:window-maximized="1"
     inkscape:current-layer="Layer_1" /><path
     fill-rule="evenodd"
     clip-rule="evenodd"
     fill="#5DC3DA"
     d="M14.6,16.05l11.9,12.9l12.95-11.9l-11.9-12.9L14.6,16.05z   M0.05,0.05h54V34h-54V0.05z"
     id="path3400" /><polygon
     points="14.6,16.05 27.55,4.15 39.45,17.05 26.5,28.95 "
     id="polygon3402"
     clip-rule="evenodd"
     fill-rule="evenodd" /><path
     fill-rule="evenodd"
     clip-rule="evenodd"
     fill="none"
     stroke="#000000"
     stroke-width="0.1"
     stroke-linecap="round"
     stroke-linejoin="round"
     stroke-miterlimit="3"
     d="  M14.6,16.05l12.95-11.9l11.9,12.9L26.5,28.95L14.6,16.05z M0.05,0.05h54V34h-54V0.05z"
     id="path3404" /><text
     font-size="14"
     id="text3406"
     style="font-size:10px;font-family:Helvetica-Condensed;fill:#ffffff"
     x="18.218349"
     y="19.434145">F-C</text>
<path
     style="fill:#ffff00"
     d="m 0.187847,16.968645 0,-16.81232583 26.862152,0 26.862152,0 0,16.81232583 0,16.812326 -26.862152,0 -26.862152,0 z m 32.977871,6.036664 6.506246,-5.985557 -0.787062,-0.801958 c -16.39446,-17.5966873 2.403751,2.715887 -11.32767,-12.1166833 -0.08584,0 -3.067902,2.6754544 -6.626809,5.9454543 l -6.470739,5.945454 0.424932,0.527065 c 1.00102,1.241617 11.52013,12.546394 11.641387,12.510878 0.07341,-0.0215 3.06128,-2.732595 6.639715,-6.024653 z"
     id="path3344"
     inkscape:connector-curvature="0"
     sodipodi:nodetypes="cccccccccscccscscs" /></svg>