<?xml version="1.0" encoding="utf-8"?>
<!-- Generator: Adobe Illustrator 15.0.2, SVG Export Plug-In . SVG Version: 6.00 Build 0)  -->
<!DOCTYPE svg PUBLIC "-//W3C//DTD SVG 1.1//EN" "http://www.w3.org/Graphics/SVG/1.1/DTD/svg11.dtd">
<svg version="1.1" id="Layer_1" xmlns="http://www.w3.org/2000/svg" xmlns:xlink="http://www.w3.org/1999/xlink" x="0px" y="0px"
	 width="77px" height="55px" viewBox="-55 -27 110 55" enable-background="new -55 -27 110 55" xml:space="preserve">
<path fill-rule="evenodd" clip-rule="evenodd" d="M49.2,13.35c-0.7,0-1.05-0.35-1.05-1.05c0-0.7,0.35-1.05,1.05-1.05
	c0.7,0,1.05,0.35,1.05,1.05C50.25,13,49.9,13.35,49.2,13.35z M38.55-21.6c0-0.7,0.35-1.05,1.05-1.05c0.82,0,1.22,0.35,1.2,1.05
	c0.02,0.82-0.38,1.22-1.2,1.2C38.9-20.38,38.55-20.78,38.55-21.6z M7.05-10.875c1.69,1.68,2.54,3.78,2.55,6.3
	C9.59-1.91,8.74,0.265,7.05,1.95C5.37,3.64,3.27,4.49,0.75,4.5c-2.665-0.01-4.84-0.86-6.525-2.55C-7.44,0.265-8.265-1.91-8.25-4.575
	c-0.015-2.52,0.81-4.62,2.475-6.3c1.685-1.665,3.86-2.49,6.525-2.475C3.27-13.365,5.37-12.54,7.05-10.875z M1.5-20.25
	c0.02,0.82-0.38,1.22-1.2,1.2c-0.7,0.02-1.05-0.38-1.05-1.2c0-0.7,0.35-1.05,1.05-1.05C1.12-21.3,1.52-20.95,1.5-20.25z M-38.1-13.8
	v0.15c-0.186,1.284-0.886,1.984-2.1,2.1h-4.35c-1.46-0.12-2.26-0.87-2.4-2.25c0.14-1.26,0.94-1.96,2.4-2.1h4.35
	C-38.8-15.76-38.1-15.06-38.1-13.8z M-38.85-21.6c0.02,0.82-0.38,1.22-1.2,1.2c-0.7,0.02-1.05-0.38-1.05-1.2
	c0-0.7,0.35-1.05,1.05-1.05C-39.23-22.65-38.83-22.3-38.85-21.6z M-49.05,11.25c0.7,0,1.05,0.35,1.05,1.05
	c0,0.7-0.35,1.05-1.05,1.05c-0.7,0-1.05-0.35-1.05-1.05C-50.1,11.6-49.75,11.25-49.05,11.25z"/>
<path fill-rule="evenodd" clip-rule="evenodd" fill="#61A5BD" d="M1.5-20.25c0.02-0.7-0.38-1.05-1.2-1.05
	c-0.7,0-1.05,0.35-1.05,1.05c0,0.82,0.35,1.22,1.05,1.2C1.12-19.03,1.52-19.43,1.5-20.25z M7.05-10.875
	c-1.68-1.665-3.78-2.49-6.3-2.475c-2.665-0.015-4.84,0.81-6.525,2.475c-1.666,1.68-2.49,3.78-2.475,6.3
	C-8.265-1.91-7.44,0.265-5.775,1.95C-4.09,3.64-1.915,4.49,0.75,4.5c2.52-0.01,4.62-0.86,6.3-2.55C8.74,0.265,9.59-1.91,9.6-4.575
	C9.59-7.095,8.74-9.195,7.05-10.875z M38.55-21.6c0,0.82,0.35,1.22,1.05,1.2c0.82,0.02,1.22-0.38,1.2-1.2
	c0.02-0.7-0.38-1.05-1.2-1.05C38.9-22.65,38.55-22.3,38.55-21.6z M49.2,13.35c0.7,0,1.05-0.35,1.05-1.05c0-0.7-0.35-1.05-1.05-1.05
	c-0.7,0-1.05,0.35-1.05,1.05C48.15,13,48.5,13.35,49.2,13.35z M-53.7,24v-3v-45.15H54V21v3H-53.7z M-38.1-13.65
	c0.12,0.02,0.17-0.03,0.15-0.15h-0.15c0-1.26-0.7-1.96-2.1-2.1h-4.35c-1.46,0.14-2.26,0.84-2.4,2.1c0.14,1.38,0.94,2.13,2.4,2.25
	h4.35C-38.986-11.666-38.286-12.366-38.1-13.65z M-38.85-21.6c0.02-0.7-0.38-1.05-1.2-1.05c-0.7,0-1.05,0.35-1.05,1.05
	c0,0.82,0.35,1.22,1.05,1.2C-39.23-20.38-38.83-20.78-38.85-21.6z M-49.05,11.25c-0.7,0-1.05,0.35-1.05,1.05
	c0,0.7,0.35,1.05,1.05,1.05c0.7,0,1.05-0.35,1.05-1.05C-48,11.6-48.35,11.25-49.05,11.25z M-53.7,21H54H-53.7z"/>
<path fill-rule="evenodd" clip-rule="evenodd" fill="none" stroke="#000000" stroke-width="0.1" stroke-linecap="round" stroke-linejoin="round" stroke-miterlimit="3" d="
	M1.5-20.25c0.02-0.7-0.38-1.05-1.2-1.05c-0.7,0-1.05,0.35-1.05,1.05c0,0.82,0.35,1.22,1.05,1.2C1.12-19.03,1.52-19.43,1.5-20.25z
	 M7.05-10.875c-1.68-1.665-3.78-2.49-6.3-2.475c-2.665-0.015-4.84,0.81-6.525,2.475c-1.666,1.68-2.49,3.78-2.475,6.3
	C-8.265-1.91-7.44,0.265-5.775,1.95C-4.09,3.64-1.915,4.49,0.75,4.5c2.52-0.01,4.62-0.86,6.3-2.55C8.74,0.265,9.59-1.91,9.6-4.575
	C9.59-7.095,8.74-9.195,7.05-10.875z M38.55-21.6c0,0.82,0.35,1.22,1.05,1.2c0.82,0.02,1.22-0.38,1.2-1.2
	c0.02-0.7-0.38-1.05-1.2-1.05C38.9-22.65,38.55-22.3,38.55-21.6z M49.2,13.35c0.7,0,1.05-0.35,1.05-1.05c0-0.7-0.35-1.05-1.05-1.05
	c-0.7,0-1.05,0.35-1.05,1.05C48.15,13,48.5,13.35,49.2,13.35z M-53.7,24v-3v-45.15H54V21v3H-53.7c0.02,0.12-0.03,0.17-0.15,0.15V24
	H-53.7z M-38.1-13.8c0-1.26-0.7-1.96-2.1-2.1h-4.35c-1.46,0.14-2.26,0.84-2.4,2.1c0.14,1.38,0.94,2.13,2.4,2.25h4.35
	c1.214-0.116,1.914-0.816,2.1-2.1V-13.8z M-38.85-21.6c0.02-0.7-0.38-1.05-1.2-1.05c-0.7,0-1.05,0.35-1.05,1.05
	c0,0.82,0.35,1.22,1.05,1.2C-39.23-20.38-38.83-20.78-38.85-21.6z M-38.1-13.65c0.12,0.02,0.17-0.03,0.15-0.15h-0.15 M-49.05,11.25
	c-0.7,0-1.05,0.35-1.05,1.05c0,0.7,0.35,1.05,1.05,1.05c0.7,0,1.05-0.35,1.05-1.05C-48,11.6-48.35,11.25-49.05,11.25z M-53.7,21H54"
	/>
</svg>
