<?xml version="1.0" encoding="utf-8"?>
<!-- Generator: Adobe Illustrator 15.0.2, SVG Export Plug-In . SVG Version: 6.00 Build 0)  -->
<!DOCTYPE svg PUBLIC "-//W3C//DTD SVG 1.1//EN" "http://www.w3.org/Graphics/SVG/1.1/DTD/svg11.dtd">
<svg version="1.1" id="Layer_1" xmlns="http://www.w3.org/2000/svg" xmlns:xlink="http://www.w3.org/1999/xlink" x="0px" y="0px"
	 width="77px" height="55px" viewBox="-45 -27 90 55" enable-background="new -45 -27 90 55" xml:space="preserve">
<path fill-rule="evenodd" clip-rule="evenodd" fill="#333333" d="M0.35-21.1c0.82,0,1.22,0.35,1.2,1.05c0.02,0.82-0.38,1.22-1.2,1.2
	c-0.7,0.02-1.05-0.38-1.05-1.2C-0.7-20.75-0.35-21.1,0.35-21.1z M6.95-10.675c1.689,1.68,2.54,3.779,2.55,6.3
	C9.49-1.71,8.64,0.465,6.95,2.15C5.27,3.84,3.17,4.69,0.65,4.7c-2.665-0.01-4.84-0.86-6.525-2.55C-7.54,0.465-8.365-1.71-8.35-4.375
	c-0.015-2.521,0.81-4.62,2.475-6.3c1.685-1.666,3.86-2.49,6.525-2.475C3.17-13.165,5.27-12.34,6.95-10.675z M39.5-20.2
	c-0.7,0.02-1.05-0.38-1.05-1.2c0-0.7,0.35-1.05,1.05-1.05c0.82,0,1.22,0.35,1.2,1.05C40.72-20.58,40.32-20.18,39.5-20.2z
	 M-34.9-14.35c0.14-1.26,0.94-1.96,2.4-2.1h4.35c1.4,0.14,2.1,0.84,2.1,2.1c-0.141,1.38-0.84,2.18-2.1,2.4h-4.35
	C-33.96-12.17-34.76-12.97-34.9-14.35z M-39.25,11.45c0.7,0,1.05,0.35,1.05,1.05s-0.35,1.05-1.05,1.05s-1.05-0.35-1.05-1.05
	S-39.95,11.45-39.25,11.45z M-40.15-22.45c0.82,0,1.22,0.35,1.2,1.05c0.02,0.82-0.38,1.22-1.2,1.2c-0.7,0.02-1.05-0.38-1.05-1.2
	C-41.2-22.1-40.85-22.45-40.15-22.45z M39.65,13.55c-0.7,0-1.05-0.35-1.05-1.05s0.35-1.05,1.05-1.05c0.7,0,1.05,0.35,1.05,1.05
	S40.35,13.55,39.65,13.55z"/>
<path fill-rule="evenodd" clip-rule="evenodd" fill="#61A5BD" d="M39.5-20.2c0.82,0.02,1.22-0.38,1.2-1.2
	c0.02-0.7-0.38-1.05-1.2-1.05c-0.7,0-1.05,0.35-1.05,1.05C38.45-20.58,38.8-20.18,39.5-20.2z M6.95-10.675
	c-1.68-1.666-3.78-2.49-6.3-2.475c-2.665-0.015-4.84,0.81-6.525,2.475c-1.665,1.68-2.49,3.779-2.475,6.3
	C-8.365-1.71-7.54,0.465-5.875,2.15C-4.19,3.84-2.015,4.69,0.65,4.7c2.52-0.01,4.62-0.86,6.3-2.55C8.64,0.465,9.49-1.71,9.5-4.375
	C9.49-6.896,8.64-8.995,6.95-10.675z M0.35-21.1c-0.7,0-1.05,0.35-1.05,1.05c0,0.82,0.35,1.22,1.05,1.2c0.82,0.02,1.22-0.38,1.2-1.2
	C1.57-20.75,1.17-21.1,0.35-21.1z M-34.9-14.35c0.14,1.38,0.94,2.18,2.4,2.4h4.35c1.26-0.22,1.959-1.02,2.1-2.4
	c0-1.26-0.7-1.96-2.1-2.1h-4.35C-33.96-16.31-34.76-15.61-34.9-14.35z M-40.15-22.45c-0.7,0-1.05,0.35-1.05,1.05
	c0,0.82,0.35,1.22,1.05,1.2c0.82,0.02,1.22-0.38,1.2-1.2C-38.93-22.1-39.33-22.45-40.15-22.45z M-39.25,11.45
	c-0.7,0-1.05,0.35-1.05,1.05s0.35,1.05,1.05,1.05s1.05-0.35,1.05-1.05S-38.55,11.45-39.25,11.45z M-44.05,21.35h88.2H-44.05V-24.1
	h88.2v45.45v2.85h-88.2V21.35z M39.65,13.55c0.7,0,1.05-0.35,1.05-1.05s-0.35-1.05-1.05-1.05c-0.7,0-1.05,0.35-1.05,1.05
	S38.95,13.55,39.65,13.55z"/>
<path fill-rule="evenodd" clip-rule="evenodd" fill="none" stroke="#000000" stroke-width="0.1" stroke-linecap="round" stroke-linejoin="round" stroke-miterlimit="3" d="
	M39.5-20.2c0.82,0.02,1.22-0.38,1.2-1.2c0.02-0.7-0.38-1.05-1.2-1.05c-0.7,0-1.05,0.35-1.05,1.05C38.45-20.58,38.8-20.18,39.5-20.2z
	 M6.95-10.675c-1.68-1.666-3.78-2.49-6.3-2.475c-2.665-0.015-4.84,0.81-6.525,2.475c-1.665,1.68-2.49,3.779-2.475,6.3
	C-8.365-1.71-7.54,0.465-5.875,2.15C-4.19,3.84-2.015,4.69,0.65,4.7c2.52-0.01,4.62-0.86,6.3-2.55C8.64,0.465,9.49-1.71,9.5-4.375
	C9.49-6.896,8.64-8.995,6.95-10.675z M0.35-21.1c-0.7,0-1.05,0.35-1.05,1.05c0,0.82,0.35,1.22,1.05,1.2c0.82,0.02,1.22-0.38,1.2-1.2
	C1.57-20.75,1.17-21.1,0.35-21.1z M-34.9-14.35c0.14-1.26,0.94-1.96,2.4-2.1h4.35c1.4,0.14,2.1,0.84,2.1,2.1
	c-0.141,1.38-0.84,2.18-2.1,2.4h-4.35C-33.96-12.17-34.76-12.97-34.9-14.35z M-40.15-22.45c-0.7,0-1.05,0.35-1.05,1.05
	c0,0.82,0.35,1.22,1.05,1.2c0.82,0.02,1.22-0.38,1.2-1.2C-38.93-22.1-39.33-22.45-40.15-22.45z M-39.25,11.45
	c-0.7,0-1.05,0.35-1.05,1.05s0.35,1.05,1.05,1.05s1.05-0.35,1.05-1.05S-38.55,11.45-39.25,11.45z M-44.05,21.35V-24.1h88.2v45.45
	v2.85h-88.2V21.35h88.2 M39.65,13.55c0.7,0,1.05-0.35,1.05-1.05s-0.35-1.05-1.05-1.05c-0.7,0-1.05,0.35-1.05,1.05
	S38.95,13.55,39.65,13.55z"/>
</svg>
