<?xml version="1.0" encoding="utf-8"?>
<!-- Generator: Adobe Illustrator 15.0.2, SVG Export Plug-In . SVG Version: 6.00 Build 0)  -->
<!DOCTYPE svg PUBLIC "-//W3C//DTD SVG 1.1//EN" "http://www.w3.org/Graphics/SVG/1.1/DTD/svg11.dtd">
<svg version="1.1" id="Layer_1" xmlns="http://www.w3.org/2000/svg" xmlns:xlink="http://www.w3.org/1999/xlink" x="0px" y="0px"
	 width="60.725px" height="23.399px" viewBox="0 0 60.725 23.399" enable-background="new 0 0 60.725 23.399" xml:space="preserve">
<path fill-rule="evenodd" clip-rule="evenodd" fill="#B30F41" d="M30.35,0.125V22.3V0.125h0.025c0.018-0.002,0.035-0.01,0.05-0.025
	H60.6v0.025h0.05V22.25H60.6v0.05H30.35h-30.2V0.1h30.2V0.125z"/>
<path fill-rule="evenodd" clip-rule="evenodd" fill="none" stroke="#000000" stroke-width="0.1" stroke-linecap="round" stroke-linejoin="round" stroke-miterlimit="3" d="
	M30.35,0.05V0.1h0.05c0.017-0.012,0.025-0.028,0.025-0.05H30.35z M30.425,0.1h-0.025l-0.025,0.025
	C30.393,0.123,30.409,0.114,30.425,0.1V0.05 M30.375,0.125H30.35V22.3H60.6v-0.05h0.05V0.125H60.6V0.1H30.425 M30.35,0.125V0.1
	h-30.2v22.2h30.2 M60.6,0.05V0.1h0.05l0.025-0.025V0.05H60.6z M60.649,0.125V0.1c-0.012,0.017-0.028,0.025-0.05,0.025 M60.649,0.125
	c0.015-0.015,0.023-0.032,0.025-0.05 M60.6,22.3h0.05v-0.05 M60.6,22.3v0.025c0.05,0,0.075-0.025,0.075-0.075h-0.025 M0.05,0.125
	V0.05h0.075C0.125,0.1,0.1,0.125,0.05,0.125z M60.575,23.35H0.149"/>
</svg>
