<?xml version="1.0" encoding="utf-8"?>
<!-- Generator: Adobe Illustrator 15.0.2, SVG Export Plug-In . SVG Version: 6.00 Build 0)  -->
<!DOCTYPE svg PUBLIC "-//W3C//DTD SVG 1.1//EN" "http://www.w3.org/Graphics/SVG/1.1/DTD/svg11.dtd">
<svg version="1.1" id="Layer_1" xmlns="http://www.w3.org/2000/svg" xmlns:xlink="http://www.w3.org/1999/xlink" x="0px" y="0px"
	 width="70.449px" height="48.399px" viewBox="0 0 70.449 48.399" enable-background="new 0 0 70.449 48.399" xml:space="preserve">
<path fill-rule="evenodd" clip-rule="evenodd" fill="#666666" d="M64.399,2.9c0-0.7,0.35-1.05,1.05-1.05c0.82,0,1.22,0.35,1.2,1.05
	c0.02,0.82-0.38,1.22-1.2,1.2C64.75,4.12,64.399,3.72,64.399,2.9z M36.649,4.1c0.02,0.82-0.38,1.22-1.2,1.2
	c-0.7,0.02-1.05-0.38-1.05-1.2c0-0.7,0.35-1.05,1.05-1.05C36.27,3.05,36.669,3.4,36.649,4.1z M13.7,9.8v0.15
	c0.12,0.02,0.17-0.03,0.15-0.15H13.7z M18.05,9.8v0.15c-0.187,1.284-0.887,1.984-2.1,2.1H11.6c-1.46-0.12-2.26-0.87-2.4-2.25
	c0.14-1.26,0.94-1.96,2.4-2.1h4.35C17.35,7.839,18.05,8.54,18.05,9.8z M3.95,4.1c-0.7,0.02-1.05-0.38-1.05-1.2
	c0-0.7,0.35-1.05,1.05-1.05c0.82,0,1.22,0.35,1.2,1.05C5.169,3.72,4.77,4.12,3.95,4.1z M5.899,36.65c0,0.7-0.35,1.05-1.05,1.05
	S3.8,37.35,3.8,36.65c0-0.7,0.35-1.05,1.05-1.05S5.899,35.95,5.899,36.65z"/>
<path fill-rule="evenodd" clip-rule="evenodd" fill="#333333" d="M35.6,11c2.52-0.015,4.62,0.81,6.3,2.475
	c1.69,1.68,2.54,3.78,2.55,6.3c-0.01,2.665-0.86,4.84-2.55,6.525c-1.68,1.69-3.78,2.54-6.3,2.55c-2.665-0.01-4.84-0.86-6.525-2.55
	c-1.666-1.685-2.49-3.86-2.475-6.525c-0.015-2.521,0.81-4.621,2.475-6.3C30.759,11.81,32.935,10.984,35.6,11z"/>
<path fill-rule="evenodd" clip-rule="evenodd" fill="#61A5BD" d="M64.399,2.9c0,0.82,0.35,1.22,1.05,1.2
	c0.82,0.02,1.22-0.38,1.2-1.2c0.02-0.7-0.38-1.05-1.2-1.05C64.75,1.85,64.399,2.2,64.399,2.9z M35.6,11
	c-2.665-0.015-4.84,0.81-6.525,2.475c-1.666,1.68-2.49,3.78-2.475,6.3c-0.015,2.665,0.81,4.84,2.475,6.525
	c1.685,1.69,3.86,2.54,6.525,2.55c2.52-0.01,4.62-0.86,6.3-2.55c1.69-1.685,2.54-3.86,2.55-6.525c-0.01-2.521-0.86-4.621-2.55-6.3
	C40.22,11.81,38.12,10.984,35.6,11z M36.649,4.1c0.02-0.7-0.38-1.05-1.2-1.05c-0.7,0-1.05,0.35-1.05,1.05c0,0.82,0.35,1.22,1.05,1.2
	C36.27,5.32,36.669,4.919,36.649,4.1z M70.399,48.35H0.05V45.2V0.05h70.35V45.2V48.35z M18.05,9.95c0.12,0.02,0.17-0.03,0.15-0.15
	h-0.15c0-1.26-0.7-1.96-2.1-2.1H11.6c-1.46,0.14-2.26,0.84-2.4,2.1c0.14,1.38,0.94,2.13,2.4,2.25h4.35
	C17.163,11.934,17.863,11.234,18.05,9.95z M3.95,4.1c0.82,0.02,1.22-0.38,1.2-1.2c0.02-0.7-0.38-1.05-1.2-1.05
	c-0.7,0-1.05,0.35-1.05,1.05C2.899,3.72,3.25,4.12,3.95,4.1z M5.899,36.65c0-0.7-0.35-1.05-1.05-1.05S3.8,35.95,3.8,36.65
	c0,0.7,0.35,1.05,1.05,1.05S5.899,37.35,5.899,36.65z M0.05,45.2h70.35H0.05z"/>
<path fill-rule="evenodd" clip-rule="evenodd" fill="none" stroke="#000000" stroke-width="0.1" stroke-linecap="round" stroke-linejoin="round" stroke-miterlimit="3" d="
	M64.399,2.9c0,0.82,0.35,1.22,1.05,1.2c0.82,0.02,1.22-0.38,1.2-1.2c0.02-0.7-0.38-1.05-1.2-1.05C64.75,1.85,64.399,2.2,64.399,2.9z
	 M35.6,11c-2.665-0.015-4.84,0.81-6.525,2.475c-1.666,1.68-2.49,3.78-2.475,6.3c-0.015,2.665,0.81,4.84,2.475,6.525
	c1.685,1.69,3.86,2.54,6.525,2.55c2.52-0.01,4.62-0.86,6.3-2.55c1.69-1.685,2.54-3.86,2.55-6.525c-0.01-2.521-0.86-4.621-2.55-6.3
	C40.22,11.81,38.12,10.984,35.6,11z M36.649,4.1c0.02-0.7-0.38-1.05-1.2-1.05c-0.7,0-1.05,0.35-1.05,1.05c0,0.82,0.35,1.22,1.05,1.2
	C36.27,5.32,36.669,4.919,36.649,4.1z M70.399,48.35H0.05V45.2V0.05h70.35V45.2V48.35z M18.05,9.8c0-1.26-0.7-1.96-2.1-2.1H11.6
	c-1.46,0.14-2.26,0.84-2.4,2.1c0.14,1.38,0.94,2.13,2.4,2.25h4.35c1.213-0.116,1.914-0.816,2.1-2.1V9.8z M13.7,9.8h0.15
	c0.02,0.12-0.03,0.17-0.15,0.15V9.8z M3.95,4.1c0.82,0.02,1.22-0.38,1.2-1.2c0.02-0.7-0.38-1.05-1.2-1.05
	c-0.7,0-1.05,0.35-1.05,1.05C2.899,3.72,3.25,4.12,3.95,4.1z M5.899,36.65c0-0.7-0.35-1.05-1.05-1.05S3.8,35.95,3.8,36.65
	c0,0.7,0.35,1.05,1.05,1.05S5.899,37.35,5.899,36.65z M0.05,45.2h70.35"/>
<path fill-rule="evenodd" clip-rule="evenodd" fill="none" stroke="#FB0F0C" stroke-width="0.1" stroke-linecap="round" stroke-linejoin="round" stroke-miterlimit="3" d="
	M18.05,9.95c0.12,0.02,0.17-0.03,0.15-0.15h-0.15"/>
</svg>
