<?xml version="1.0" encoding="utf-8"?>
<!-- Generator: Adobe Illustrator 15.0.2, SVG Export Plug-In . SVG Version: 6.00 Build 0)  -->
<!DOCTYPE svg PUBLIC "-//W3C//DTD SVG 1.1//EN" "http://www.w3.org/Graphics/SVG/1.1/DTD/svg11.dtd">
<svg version="1.1" id="Layer_1" xmlns="http://www.w3.org/2000/svg" xmlns:xlink="http://www.w3.org/1999/xlink" x="0px" y="0px"
	 width="48.575px" height="23.399px" viewBox="0 0 48.575 23.399" enable-background="new 0 0 48.575 23.399" xml:space="preserve">
<path fill-rule="evenodd" clip-rule="evenodd" fill="#B30F41" d="M0.05,0.125c0.029,0,0.045-0.008,0.05-0.025h48.35v0.025h0.05
	V22.25h-0.05v0.05H0.05V0.125z"/>
<path fill-rule="evenodd" clip-rule="evenodd" fill="none" stroke="#000000" stroke-width="0.1" stroke-linecap="round" stroke-linejoin="round" stroke-miterlimit="3" d="
	M48.45,0.1V0.05h0.075v0.025c-0.002,0.018-0.011,0.035-0.025,0.05V22.25h0.025c0,0.05-0.025,0.075-0.075,0.075V22.3H0.05V0.125V0.1
	V0.05h0.075c0,0.021-0.008,0.038-0.025,0.05H48.45z M48.45,0.125c0.021,0,0.038-0.008,0.05-0.025h-0.05V0.125h0.05V0.1
	 M48.525,0.075L48.5,0.1 M48.45,22.3v-0.05h0.05v0.05H48.45z M0.05,0.125c0.029,0,0.045-0.008,0.05-0.025H0.05 M48.5,23.35H0.05"/>
</svg>
