<?xml version="1.0" encoding="utf-8"?>
<!-- Generator: Adobe Illustrator 15.0.2, SVG Export Plug-In . SVG Version: 6.00 Build 0)  -->
<!DOCTYPE svg PUBLIC "-//W3C//DTD SVG 1.1//EN" "http://www.w3.org/Graphics/SVG/1.1/DTD/svg11.dtd">
<svg version="1.1" id="Layer_1" xmlns="http://www.w3.org/2000/svg" xmlns:xlink="http://www.w3.org/1999/xlink" x="0px" y="0px"
	 width="72.825px" height="23.35px" viewBox="0 0 72.825 23.35" enable-background="new 0 0 72.825 23.35" xml:space="preserve">
<path fill-rule="evenodd" clip-rule="evenodd" fill="#B30F41" d="M36.35,0.125h0.025V0.15H72.7v22.2H36.4
	c-0.004-6.938-0.004-13.871,0-20.8l-0.025-1.4l0.025,1.4c-0.004,6.929-0.004,13.863,0,20.8H0.1V0.125H36.35z M71.35,22.25v0.075
	c0.05,0,0.075-0.025,0.075-0.075H71.35z"/>
<path fill-rule="evenodd" clip-rule="evenodd" fill="none" stroke="#000000" stroke-width="0.1" stroke-linecap="round" stroke-linejoin="round" stroke-miterlimit="3" d="
	M72.775,0.05c0,0.05-0.025,0.075-0.075,0.075V0.05H72.775z M71.35,0.05h0.075c0,0.05-0.025,0.075-0.075,0.075V0.05z M36.375,0.125
	H36.4c0.017-0.02,0.025-0.044,0.025-0.075H36.35v0.075H36.375z M0.1,0.125H0.075H0.05V0.05h0.075c0,0.036-0.017,0.061-0.05,0.075
	 M36.375,0.15V0.125 M36.35,0.125H0.1V22.35h36.3c-0.004-6.938-0.004-13.871,0-20.8l-0.025-1.4 M36.4,22.35h36.3V0.15H36.375
	 M71.35,22.25h0.075c0,0.05-0.025,0.075-0.075,0.075V22.25z M72.7,23.3H0.1"/>
</svg>
