<?xml version="1.0" encoding="utf-8"?>
<!-- Generator: Adobe Illustrator 15.0.2, SVG Export Plug-In . SVG Version: 6.00 Build 0)  -->
<!DOCTYPE svg PUBLIC "-//W3C//DTD SVG 1.1//EN" "http://www.w3.org/Graphics/SVG/1.1/DTD/svg11.dtd">
<svg version="1.1" id="Layer_1" xmlns="http://www.w3.org/2000/svg" xmlns:xlink="http://www.w3.org/1999/xlink" x="0px" y="0px"
	 width="76px" height="40.649px" viewBox="0 0 76 40.649" enable-background="new 0 0 76 40.649" xml:space="preserve">
<path fill-rule="evenodd" clip-rule="evenodd" fill="#61A5BD" d="M38.899,13.575l-1.3,7.9c-0.067,0.367-0.117,0.717-0.15,1.05
	c-0.067,0.367-0.1,0.733-0.1,1.1c-0.033,0.167-0.067,0.333-0.1,0.5c0,0.167,0,0.333,0,0.5H37.2c0-0.167-0.017-0.333-0.05-0.5
	c-0.033-0.167-0.05-0.333-0.05-0.5c-0.033-0.367-0.067-0.733-0.1-1.1c-0.066-0.333-0.133-0.684-0.2-1.05l-1.45-7.9h-2.45l2.75,12.35
	h3.05l2.7-12.35H38.899z M42.75,17.525c0.1,0.333,0.25,0.633,0.45,0.9c0.3,0.4,0.65,0.767,1.05,1.1c0.434,0.3,0.867,0.6,1.3,0.9
	c0.433,0.267,0.85,0.55,1.25,0.85c0.3,0.2,0.533,0.433,0.7,0.7c0.167,0.267,0.25,0.583,0.25,0.95c0,0.467-0.117,0.816-0.35,1.05
	c-0.233,0.267-0.6,0.4-1.1,0.4c-0.567-0.033-0.95-0.233-1.15-0.6c-0.233-0.367-0.333-0.867-0.3-1.5v-0.7h-2.3v0.9
	c0,0.733,0.117,1.383,0.35,1.95c0.267,0.566,0.667,1,1.2,1.3c0.567,0.333,1.3,0.5,2.2,0.5c0.767,0,1.433-0.133,2-0.4
	c0.566-0.267,1.017-0.667,1.35-1.2c0.3-0.533,0.45-1.183,0.45-1.95c0-0.533-0.067-1-0.2-1.4c-0.167-0.4-0.45-0.8-0.85-1.2
	c-0.2-0.2-0.467-0.433-0.8-0.7c-0.367-0.233-0.717-0.483-1.05-0.75c-0.367-0.233-0.667-0.417-0.9-0.55
	c-0.267-0.167-0.5-0.333-0.7-0.5c-0.2-0.133-0.35-0.3-0.45-0.5c-0.133-0.2-0.2-0.467-0.2-0.8c0-0.4,0.117-0.7,0.35-0.9
	c0.233-0.167,0.55-0.25,0.95-0.25s0.7,0.117,0.9,0.35c0.2,0.2,0.317,0.467,0.35,0.8c0.067,0.333,0.1,0.683,0.1,1.05h2.2
	c0-0.3-0.017-0.683-0.05-1.15c-0.033-0.434-0.167-0.883-0.4-1.35c-0.2-0.433-0.55-0.8-1.05-1.1c-0.5-0.3-1.2-0.45-2.1-0.45
	c-1.2,0-2.1,0.283-2.7,0.85c-0.6,0.567-0.9,1.367-0.9,2.4C42.6,16.858,42.649,17.191,42.75,17.525z M27.55,16.375l-1.25-2.8h-2.6
	l2.9,6.1l-3,6.25h2.5l1-2.3c0.167-0.333,0.333-0.7,0.5-1.1c0.133-0.367,0.233-0.75,0.3-1.15h0.05c0.033,0.267,0.1,0.517,0.2,0.75
	c0.067,0.267,0.15,0.534,0.25,0.8l1.35,3h2.6l-3.05-6.25l3-6.1h-2.65l-0.85,2.1c-0.167,0.367-0.333,0.733-0.5,1.1
	c-0.133,0.367-0.233,0.75-0.3,1.15h-0.05c0-0.267-0.033-0.533-0.1-0.8C27.75,16.892,27.649,16.642,27.55,16.375z M75.95,37.975H0.05
	V0.05h75.9V37.975V40.6H0.05v-2.625H75.95z"/>
<path fill-rule="evenodd" clip-rule="evenodd" d="M27.55,16.375c0.1,0.267,0.2,0.517,0.3,0.75c0.067,0.267,0.1,0.534,0.1,0.8H28
	c0.067-0.4,0.167-0.783,0.3-1.15c0.167-0.367,0.333-0.733,0.5-1.1l0.85-2.1h2.65l-3,6.1l3.05,6.25h-2.6l-1.35-3
	c-0.1-0.267-0.183-0.533-0.25-0.8c-0.1-0.233-0.167-0.483-0.2-0.75h-0.05c-0.066,0.4-0.167,0.784-0.3,1.15
	c-0.167,0.4-0.333,0.767-0.5,1.1l-1,2.3h-2.5l3-6.25l-2.9-6.1h2.6L27.55,16.375z M42.75,17.525c-0.1-0.333-0.15-0.667-0.15-1
	c0-1.034,0.3-1.833,0.9-2.4c0.6-0.566,1.5-0.85,2.7-0.85c0.9,0,1.6,0.15,2.1,0.45c0.5,0.3,0.85,0.667,1.05,1.1
	c0.233,0.467,0.367,0.917,0.4,1.35c0.033,0.467,0.05,0.85,0.05,1.15h-2.2c0-0.367-0.033-0.717-0.1-1.05
	c-0.033-0.333-0.15-0.6-0.35-0.8c-0.2-0.233-0.5-0.35-0.9-0.35s-0.717,0.083-0.95,0.25c-0.233,0.2-0.35,0.5-0.35,0.9
	c0,0.333,0.066,0.6,0.2,0.8c0.1,0.2,0.25,0.367,0.45,0.5c0.2,0.167,0.433,0.333,0.7,0.5c0.233,0.133,0.533,0.317,0.9,0.55
	c0.333,0.267,0.683,0.517,1.05,0.75c0.333,0.267,0.6,0.5,0.8,0.7c0.4,0.4,0.683,0.8,0.85,1.2c0.133,0.4,0.2,0.867,0.2,1.4
	c0,0.767-0.15,1.417-0.45,1.95c-0.333,0.534-0.783,0.934-1.35,1.2c-0.567,0.267-1.233,0.4-2,0.4c-0.9,0-1.633-0.167-2.2-0.5
	c-0.533-0.3-0.933-0.733-1.2-1.3c-0.233-0.567-0.35-1.217-0.35-1.95v-0.9h2.3v0.7c-0.033,0.633,0.067,1.133,0.3,1.5
	c0.2,0.367,0.583,0.566,1.15,0.6c0.5,0,0.867-0.133,1.1-0.4c0.233-0.233,0.35-0.583,0.35-1.05c0-0.367-0.083-0.684-0.25-0.95
	c-0.167-0.267-0.4-0.5-0.7-0.7c-0.4-0.3-0.817-0.583-1.25-0.85c-0.434-0.3-0.867-0.6-1.3-0.9c-0.4-0.333-0.75-0.7-1.05-1.1
	C43,18.158,42.85,17.858,42.75,17.525z M38.899,13.575h2.5l-2.7,12.35h-3.05l-2.75-12.35h2.45l1.45,7.9
	c0.066,0.367,0.133,0.717,0.2,1.05c0.033,0.367,0.067,0.733,0.1,1.1c0,0.167,0.017,0.333,0.05,0.5c0.034,0.167,0.05,0.333,0.05,0.5
	h0.05c0-0.167,0-0.333,0-0.5c0.033-0.167,0.067-0.333,0.1-0.5c0-0.367,0.033-0.733,0.1-1.1c0.033-0.333,0.083-0.684,0.15-1.05
	L38.899,13.575z"/>
<path fill-rule="evenodd" clip-rule="evenodd" fill="none" stroke="#000000" stroke-width="0.1" stroke-linecap="round" stroke-linejoin="round" stroke-miterlimit="3" d="
	M0.05,37.975V0.05h75.9v37.925V40.6H0.05V37.975z M75.95,37.975H0.05"/>
</svg>
