<?xml version="1.0" encoding="utf-8"?>
<!-- Generator: Adobe Illustrator 15.0.2, SVG Export Plug-In . SVG Version: 6.00 Build 0)  -->
<!DOCTYPE svg PUBLIC "-//W3C//DTD SVG 1.1//EN" "http://www.w3.org/Graphics/SVG/1.1/DTD/svg11.dtd">
<svg version="1.1" id="Layer_1" xmlns="http://www.w3.org/2000/svg" xmlns:xlink="http://www.w3.org/1999/xlink" x="0px" y="0px"
	 width="19.1px" height="19.1px" viewBox="0 0 19.1 19.1" enable-background="new 0 0 19.1 19.1" xml:space="preserve">
<path fill-rule="evenodd" clip-rule="evenodd" fill="#336600" d="M14,6c0.3,0.133,0.6,0.316,0.9,0.55
	c0.333,0.233,0.583,0.417,0.75,0.55H16V4c-0.933-0.467-1.8-0.784-2.6-0.95c-0.8-0.133-1.617-0.2-2.45-0.2
	c-2.3,0-4.083,0.617-5.35,1.85C4.3,5.966,3.65,7.617,3.65,9.65c0,2.133,0.633,3.816,1.9,5.05c1.267,1.2,3.017,1.8,5.25,1.8
	c0.967,0,1.95-0.1,2.95-0.3c0.967-0.233,1.733-0.467,2.3-0.7V9H10v2.5h2.6v2.55c-0.1,0.033-0.233,0.05-0.4,0.05
	c-0.167,0-0.317,0-0.45,0c-1.5,0-2.633-0.383-3.4-1.15S7.2,11.066,7.2,9.6c0-0.7,0.1-1.333,0.3-1.9
	c0.233-0.533,0.533-0.983,0.9-1.35s0.8-0.633,1.3-0.8s1.05-0.25,1.65-0.25c0.5,0,0.983,0.067,1.45,0.2C13.267,5.633,13.667,5.8,14,6
	z M19.05,19.05h-19v-19h19V19.05z"/>
<path fill-rule="evenodd" clip-rule="evenodd" fill="#FFFFFF" d="M14,6c-0.333-0.2-0.733-0.367-1.2-0.5
	c-0.466-0.133-0.95-0.2-1.45-0.2c-0.6,0-1.15,0.083-1.65,0.25s-0.934,0.433-1.3,0.8S7.733,7.167,7.5,7.7C7.3,8.267,7.2,8.9,7.2,9.6
	c0,1.467,0.383,2.583,1.15,3.35s1.9,1.15,3.4,1.15c0.133,0,0.283,0,0.45,0c0.167,0,0.3-0.017,0.4-0.05V11.5H10V9h6.05v6.5
	c-0.566,0.233-1.333,0.466-2.3,0.7c-1,0.2-1.983,0.3-2.95,0.3c-2.233,0-3.983-0.6-5.25-1.8c-1.267-1.233-1.9-2.917-1.9-5.05
	c0-2.033,0.65-3.684,1.95-4.95c1.267-1.233,3.05-1.85,5.35-1.85c0.833,0,1.65,0.067,2.45,0.2C14.2,3.216,15.067,3.533,16,4v3.1
	h-0.35c-0.167-0.133-0.417-0.316-0.75-0.55C14.6,6.316,14.3,6.133,14,6z"/>
<rect x="0.05" y="0.05" fill-rule="evenodd" clip-rule="evenodd" fill="none" stroke="#000000" stroke-width="0.1" stroke-linecap="round" stroke-linejoin="round" stroke-miterlimit="3" width="19" height="19"/>
</svg>
