<?xml version="1.0" encoding="utf-8"?>
<!-- Generator: Adobe Illustrator 15.0.2, SVG Export Plug-In . SVG Version: 6.00 Build 0)  -->
<!DOCTYPE svg PUBLIC "-//W3C//DTD SVG 1.1//EN" "http://www.w3.org/Graphics/SVG/1.1/DTD/svg11.dtd">
<svg version="1.1" id="Layer_1" xmlns="http://www.w3.org/2000/svg" xmlns:xlink="http://www.w3.org/1999/xlink" x="0px" y="0px"
	 width="74.8px" height="37.35px" viewBox="0 0 74.8 37.35" enable-background="new 0 0 74.8 37.35" xml:space="preserve">
<path fill-rule="evenodd" clip-rule="evenodd" fill="#BED8BF" d="M67.925,19.55c0.583,0,0.875-0.292,0.875-0.875
	c0-0.683-0.292-1.017-0.875-1c-0.683-0.017-1.017,0.317-1,1C66.908,19.258,67.242,19.55,67.925,19.55z M74.75,37.3H0.05V0.05h74.7
	V37.3z M1.425,17.25L1.3,17.425v2.125l0.125,0.125v0.375H2v-0.175h0.175v-0.5H2.3V17.8l-0.125-0.175V17.05H2v-0.125H1.625
	l-0.2,0.125V17.25z M8.05,19.125v6.75c-0.017,0.225,0.025,0.45,0.125,0.675c0.25,0.125,0.5,0.192,0.75,0.2h9.45
	c0.225-0.008,0.392-0.075,0.5-0.2c0.241-0.225,0.366-0.45,0.375-0.675v-5.2l2.25,0.2c0.117,0,0.175,0.058,0.175,0.175
	c0.117,0.1,0.35,0.142,0.7,0.125c0.1-0.108,0.2-0.275,0.3-0.5c0.017-0.342-0.083-0.508-0.3-0.5c-0.35-0.133-0.583-0.092-0.7,0.125
	l-2.425,0.2v-8.95c-0.009-0.25-0.134-0.5-0.375-0.75c-0.108-0.1-0.275-0.142-0.5-0.125h-9.45c-0.25-0.017-0.5,0.025-0.75,0.125
	c-0.1,0.25-0.142,0.5-0.125,0.75v6.875H6.125c-0.041-0.415-0.249-0.682-0.625-0.8c-0.418-0.329-0.902-0.312-1.45,0.05
	c-0.125,0.125-0.25,0.192-0.375,0.2h-0.5c-0.717,0.538-0.717,1.038,0,1.5v0.05h0.5c0.125,0.008,0.25,0.075,0.375,0.2
	c0.458,0.35,0.917,0.408,1.375,0.175c0.051-0.021,0.092-0.038,0.125-0.05c0.093-0.046,0.176-0.088,0.25-0.125
	c0.117-0.142,0.2-0.308,0.25-0.5H8.05z M28.3,18.675c0-0.683-0.292-1.017-0.875-1c-0.683-0.017-1.017,0.317-1,1
	c-0.017,0.583,0.317,0.875,1,0.875C28.008,19.55,28.3,19.258,28.3,18.675z M22.175,19.55c0.583,0,0.875-0.292,0.875-0.875
	c0-0.683-0.292-1.017-0.875-1c-0.683-0.017-1.017,0.317-1,1C21.158,19.258,21.492,19.55,22.175,19.55z M22.175,23.8l-0.5-2.175
	L21.8,23.8H22.175z"/>
<path fill-rule="evenodd" clip-rule="evenodd" fill="none" stroke="#000000" stroke-width="0.1" stroke-linecap="round" stroke-linejoin="round" stroke-miterlimit="3" d="
	M67.425,18.5c-0.008,0.358,0.1,0.542,0.325,0.55c0.358-0.008,0.542-0.192,0.55-0.55c-0.008-0.225-0.192-0.333-0.55-0.325
	C67.525,18.167,67.417,18.275,67.425,18.5z M67.925,19.55c0.583,0,0.875-0.292,0.875-0.875c0-0.683-0.292-1.017-0.875-1
	c-0.683-0.017-1.017,0.317-1,1C66.908,19.258,67.242,19.55,67.925,19.55z M74.75,37.3H0.05V0.05h74.7V37.3z M1.425,17.25L1.3,17.425
	v2.125l0.125,0.125v0.375H2v-0.175h0.175v-0.5H2.3V17.8l-0.125-0.175V17.05H2v-0.125H1.625l-0.2,0.125V17.25z M8.05,19.125h-2
	c-0.05,0.192-0.133,0.358-0.25,0.5c-0.074,0.037-0.157,0.079-0.25,0.125c-0.033,0.012-0.074,0.029-0.125,0.05
	c-0.458,0.233-0.917,0.175-1.375-0.175c-0.125-0.125-0.25-0.192-0.375-0.2h-0.5v-0.05c-0.717-0.462-0.717-0.962,0-1.5h0.5
	c0.125-0.008,0.25-0.075,0.375-0.2c0.548-0.362,1.032-0.378,1.45-0.05c0.376,0.118,0.584,0.385,0.625,0.8H8.05h4.375
	c0.225-0.008,0.333,0.1,0.325,0.325c0.008,0.241-0.1,0.366-0.325,0.375H8.05z M19.25,20.5l2.425-0.2
	c0.117-0.217,0.35-0.258,0.7-0.125c0.216-0.008,0.316,0.158,0.3,0.5c-0.1,0.225-0.2,0.392-0.3,0.5
	c-0.35,0.017-0.583-0.025-0.7-0.125c0-0.117-0.058-0.175-0.175-0.175l-2.25-0.2 M6.05,19.125H4.875
	C4.65,19.116,4.542,18.991,4.55,18.75c-0.008-0.225,0.1-0.333,0.325-0.325h1.25C6.095,18.381,6.07,18.339,6.05,18.3
	c-0.517-0.413-0.95-0.496-1.3-0.25c-0.458,0.217-0.567,0.55-0.325,1c0.217,0.479,0.592,0.712,1.125,0.7 M5.5,17.625
	c0.095,0.055,0.195,0.138,0.3,0.25c0.105,0.134,0.189,0.276,0.25,0.425 M11.05,14.925h1v-0.05c0.117-1.05,0.642-1.575,1.575-1.575
	c0.061,0.008,0.119,0.008,0.175,0v-1 M13.8,13.3c0.812,0.181,1.271,0.707,1.375,1.575v0.05H16.3 M13.8,14.925V14.05h-0.125
	c-0.583,0-0.875,0.292-0.875,0.875H13.8V15.8c0.5-0.043,0.75-0.335,0.75-0.875H13.8z M13.8,13.3v0.75
	c0.5,0.043,0.75,0.335,0.75,0.875h0.625c-0.124,0.827-0.583,1.327-1.375,1.5v1.125 M13.675,15.8c-0.583,0-0.875-0.292-0.875-0.875
	h-0.75c0.024,0.891,0.549,1.391,1.575,1.5c0.061-0.008,0.119-0.008,0.175,0V15.8H13.675z M27.25,18.175
	c-0.225-0.008-0.333,0.1-0.325,0.325c-0.008,0.358,0.1,0.542,0.325,0.55c0.358-0.008,0.542-0.192,0.55-0.55
	C27.792,18.275,27.608,18.167,27.25,18.175z M28.3,18.675c0-0.683-0.292-1.017-0.875-1c-0.683-0.017-1.017,0.317-1,1
	c-0.017,0.583,0.317,0.875,1,0.875C28.008,19.55,28.3,19.258,28.3,18.675z M22.175,19.55c0.583,0,0.875-0.292,0.875-0.875
	c0-0.683-0.292-1.017-0.875-1c-0.683-0.017-1.017,0.317-1,1C21.158,19.258,21.492,19.55,22.175,19.55z M22,21.05
	c0.358-0.008,0.542-0.192,0.55-0.55c-0.008-0.225-0.192-0.333-0.55-0.325c-0.225-0.008-0.333,0.1-0.325,0.325
	C21.667,20.858,21.775,21.042,22,21.05z M19.25,20.5h-0.2v0.175h0.2 M22.175,23.8l-0.5-2.175L21.8,23.8H22.175z M6.125,18.425v0.25
	c-0.008,0.163-0.033,0.312-0.075,0.45 M3.175,19.375v-1.5"/>
<path fill-rule="evenodd" clip-rule="evenodd" fill="none" stroke="#000000" stroke-width="0.1" stroke-linecap="round" stroke-linejoin="round" stroke-miterlimit="3" d="
	M8.05,18.425V11.55c-0.017-0.25,0.025-0.5,0.125-0.75c0.25-0.1,0.5-0.142,0.75-0.125h9.45c0.225-0.017,0.392,0.025,0.5,0.125
	c0.241,0.25,0.366,0.5,0.375,0.75v8.95 M19.25,20.675v5.2c-0.009,0.225-0.134,0.45-0.375,0.675c-0.108,0.125-0.275,0.192-0.5,0.2
	h-9.45c-0.25-0.008-0.5-0.075-0.75-0.2c-0.1-0.225-0.142-0.45-0.125-0.675v-6.75 M19.25,20.675V20.5 M8.05,18.425v0.7"/>
</svg>
