<?xml version="1.0" encoding="utf-8"?>
<!-- Generator: Adobe Illustrator 15.0.2, SVG Export Plug-In . SVG Version: 6.00 Build 0)  -->
<!DOCTYPE svg PUBLIC "-//W3C//DTD SVG 1.1//EN" "http://www.w3.org/Graphics/SVG/1.1/DTD/svg11.dtd">
<svg version="1.1" id="Layer_1" xmlns="http://www.w3.org/2000/svg" xmlns:xlink="http://www.w3.org/1999/xlink" x="0px" y="0px"
	 width="119.8px" height="37.35px" viewBox="0 0 119.8 37.35" enable-background="new 0 0 119.8 37.35" xml:space="preserve">
<path fill-rule="evenodd" clip-rule="evenodd" fill="#E7E7E7" d="M12.5,23.3v-9.25h4.375h1.175c0.242-0.008,0.367-0.133,0.375-0.375
	c0.004-0.226-0.08-0.351-0.25-0.375c0.127-0.233,0.21-0.525,0.25-0.875c-0.108-0.925-0.625-1.442-1.55-1.55
	c-0.934-0.008-1.458,0.508-1.575,1.55L14.25,13.3H12.5V8.925c0-0.225,0.058-0.45,0.175-0.675c0.233-0.125,0.467-0.192,0.7-0.2h15.55
	c0.233,0.008,0.467,0.075,0.7,0.2c0.233,0.225,0.292,0.45,0.175,0.675v19.45c0,0.242-0.058,0.425-0.175,0.55
	c-0.233,0.225-0.467,0.333-0.7,0.325h-15.55c-0.233,0.008-0.467-0.1-0.7-0.325c-0.117-0.125-0.175-0.308-0.175-0.55V24h5.55
	c0.242,0.008,0.367-0.1,0.375-0.325c-0.008-0.242-0.133-0.367-0.375-0.375H12.5z"/>
<path fill-rule="evenodd" clip-rule="evenodd" fill="#BED8BF" d="M109.8,19.625c0.583,0,0.875-0.292,0.875-0.875
	c0-0.708-0.292-1.066-0.875-1.075c-0.7,0.009-1.05,0.367-1.05,1.075C108.75,19.333,109.1,19.625,109.8,19.625z M64.8,19.625
	c0.583,0,0.875-0.292,0.875-0.875c0-0.708-0.292-1.066-0.875-1.075c-0.7,0.009-1.05,0.367-1.05,1.075
	C63.75,19.333,64.1,19.625,64.8,19.625z M119.75,37.3H0.05V0.05h119.7V37.3z M4.25,12.425v2.125l0.175,0.2v0.3h0.5v-0.125h0.2v-0.55
	H5.3V12.8l-0.175-0.175v-0.5h-0.2v-0.2h-0.5V12.3L4.25,12.425z M12.5,24v4.375c0,0.242,0.058,0.425,0.175,0.55
	c0.233,0.225,0.467,0.333,0.7,0.325h15.55c0.233,0.008,0.467-0.1,0.7-0.325c0.117-0.125,0.175-0.308,0.175-0.55V8.925
	c0.117-0.225,0.059-0.45-0.175-0.675c-0.233-0.125-0.467-0.192-0.7-0.2h-15.55c-0.233,0.008-0.467,0.075-0.7,0.2
	C12.558,8.475,12.5,8.7,12.5,8.925V13.3H8.8c0.108-0.467-0.017-0.758-0.375-0.875c-0.45-0.108-0.842-0.042-1.175,0.2
	C7.125,12.742,7,12.8,6.875,12.8h-0.5v1.575h0.5c0.125,0,0.25,0.058,0.375,0.175c0.333,0.242,0.725,0.367,1.175,0.375
	C8.542,14.86,8.65,14.802,8.75,14.75c0.218-0.213,0.401-0.447,0.55-0.7h3.2v9.25H8.8c0.108-0.467-0.017-0.758-0.375-0.875
	c-0.45-0.108-0.842-0.042-1.175,0.2C7.125,22.742,7,22.8,6.875,22.8h-0.5v1.575h0.5c0.125,0,0.25,0.058,0.375,0.175
	c0.333,0.225,0.725,0.333,1.175,0.325c0.117-0.073,0.225-0.139,0.325-0.2C8.968,24.471,9.151,24.246,9.3,24H12.5z M5.125,22.05h-0.2
	v-0.125h-0.5v0.325L4.25,22.425v2.125l0.175,0.125v0.375h0.5v-0.175h0.2v-0.5H5.3V22.8l-0.175-0.175V22.05z M40.8,17.875l-1.75,1.55
	h-0.125c-0.242,0.008-0.425,0.133-0.55,0.375c-0.117,0.233-0.117,0.467,0,0.7c0.225,0.117,0.45,0.117,0.675,0
	c0.242-0.108,0.367-0.275,0.375-0.5c-0.117-0.125-0.117-0.191,0-0.2L41,17.875C40.992,17.758,40.925,17.758,40.8,17.875z M41,22.05
	l-1.75-1.175h-0.2l1.75,1.375L41,22.05z M38.375,18.75c0-0.708-0.292-1.066-0.875-1.075c-0.708,0.009-1.067,0.367-1.075,1.075
	c0.008,0.583,0.367,0.875,1.075,0.875C38.083,19.625,38.375,19.333,38.375,18.75z M35.925,19.425c-0.117,0.117-0.175,0.117-0.175,0
	l-1.95-1.55l1.625,1.925V20c-0.008,0.225,0.1,0.392,0.325,0.5c0.225,0.117,0.45,0.117,0.675,0c0.117-0.233,0.117-0.467,0-0.7
	C36.316,19.558,36.15,19.433,35.925,19.425z M35.05,20.3l-1.25,1.75l0.2,0.2l1.25-1.75L35.05,20.3z"/>
<path fill-rule="evenodd" clip-rule="evenodd" fill="none" stroke="#000000" stroke-width="0.1" stroke-linecap="round" stroke-linejoin="round" stroke-miterlimit="3" d="
	M64.8,18.25c-0.242-0.017-0.367,0.083-0.375,0.3c0.008,0.367,0.133,0.558,0.375,0.575c0.341-0.017,0.508-0.208,0.5-0.575
	C65.308,18.333,65.141,18.233,64.8,18.25z M109.25,18.55c0.008,0.367,0.133,0.558,0.375,0.575c0.341-0.017,0.508-0.208,0.5-0.575
	c0.008-0.217-0.159-0.317-0.5-0.3C109.383,18.233,109.258,18.333,109.25,18.55z M109.8,19.625c0.583,0,0.875-0.292,0.875-0.875
	c0-0.708-0.292-1.066-0.875-1.075c-0.7,0.009-1.05,0.367-1.05,1.075C108.75,19.333,109.1,19.625,109.8,19.625z M64.8,19.625
	c0.583,0,0.875-0.292,0.875-0.875c0-0.708-0.292-1.066-0.875-1.075c-0.7,0.009-1.05,0.367-1.05,1.075
	C63.75,19.333,64.1,19.625,64.8,19.625z M119.75,37.3H0.05V0.05h119.7V37.3z M4.25,12.425v2.125l0.175,0.2v0.3h0.5v-0.125h0.2v-0.55
	H5.3V12.8l-0.175-0.175v-0.5h-0.2v-0.2h-0.5V12.3L4.25,12.425z M8.8,13.3H8.125c-0.242,0.008-0.367,0.133-0.375,0.375
	c0.008,0.242,0.133,0.367,0.375,0.375H9.3h3.2h4.375h1.175c0.242-0.008,0.367-0.133,0.375-0.375c0.004-0.226-0.08-0.351-0.25-0.375
	c-0.287,0.411-0.72,0.661-1.3,0.75 M12.5,13.3H8.8c0.108-0.467-0.017-0.758-0.375-0.875c-0.45-0.108-0.842-0.042-1.175,0.2
	C7.125,12.742,7,12.8,6.875,12.8h-0.5v1.575h0.5c0.125,0,0.25,0.058,0.375,0.175c0.333,0.242,0.725,0.367,1.175,0.375
	C8.542,14.86,8.65,14.802,8.75,14.75c-0.646,0-1.087-0.234-1.325-0.7C7.183,13.583,7.292,13.233,7.75,13
	c0.35-0.25,0.7-0.15,1.05,0.3 M16,12.425h0.875v-1C16.292,11.425,16,11.717,16,12.3V12.425c0.062,0.483,0.354,0.733,0.875,0.75
	v-0.75h0.875V12.3c0-0.583-0.292-0.875-0.875-0.875v-0.55c-0.934-0.008-1.458,0.508-1.575,1.55H16z M18.425,12.425H17.75
	c-0.062,0.483-0.354,0.733-0.875,0.75V13.3h1.3C18.302,13.066,18.385,12.774,18.425,12.425c-0.108-0.925-0.625-1.442-1.55-1.55
	 M12.5,13.3h1.75l1.05-0.875c-0.004,0.349,0.079,0.641,0.25,0.875h-1.3 M15.55,13.3c0.222,0.411,0.663,0.661,1.325,0.75V13.3H15.55z
	 M9.3,14.05c-0.148,0.253-0.332,0.487-0.55,0.7 M40.8,17.875l-1.75,1.55h-0.125c-0.242,0.008-0.425,0.133-0.55,0.375
	c-0.117,0.233-0.117,0.467,0,0.7c0.225,0.117,0.45,0.117,0.675,0c0.242-0.108,0.367-0.275,0.375-0.5c-0.117-0.125-0.117-0.191,0-0.2
	L41,17.875C40.992,17.758,40.925,17.758,40.8,17.875z M41,22.05l-1.75-1.175h-0.2l1.75,1.375L41,22.05z M38.75,19.625
	c-0.242,0.008-0.367,0.133-0.375,0.375c0.008,0.341,0.133,0.508,0.375,0.5c0.341,0.008,0.508-0.159,0.5-0.5
	C39.258,19.758,39.091,19.633,38.75,19.625z M38.375,18.75c0-0.708-0.292-1.066-0.875-1.075c-0.708,0.009-1.067,0.367-1.075,1.075
	c0.008,0.583,0.367,0.875,1.075,0.875C38.083,19.625,38.375,19.333,38.375,18.75z M35.925,19.425c-0.117,0.117-0.175,0.117-0.175,0
	l-1.95-1.55l1.625,1.925V20c-0.008,0.225,0.1,0.392,0.325,0.5c0.225,0.117,0.45,0.117,0.675,0c0.117-0.233,0.117-0.467,0-0.7
	C36.316,19.558,36.15,19.433,35.925,19.425z M35.925,19.625c-0.242,0.008-0.367,0.133-0.375,0.375
	c0.008,0.341,0.133,0.508,0.375,0.5c0.342,0.008,0.508-0.159,0.5-0.5C36.433,19.758,36.267,19.633,35.925,19.625z M35.05,20.3
	l-1.25,1.75l0.2,0.2l1.25-1.75L35.05,20.3z M12.5,23.3h5.55c0.242,0.008,0.367,0.133,0.375,0.375
	C18.417,23.9,18.292,24.008,18.05,24H12.5 M12.5,23.3H8.8H8.125c-0.242,0.008-0.367,0.133-0.375,0.375
	C7.758,23.9,7.883,24.008,8.125,24H9.3h3.2 M5.125,22.05h-0.2v-0.125h-0.5v0.325L4.25,22.425v2.125l0.175,0.125v0.375h0.5v-0.175
	h0.2v-0.5H5.3V22.8l-0.175-0.175V22.05z M9.3,24c-0.148,0.246-0.332,0.471-0.55,0.675c-0.1,0.061-0.208,0.127-0.325,0.2
	c-0.45,0.008-0.842-0.1-1.175-0.325C7.125,24.433,7,24.375,6.875,24.375h-0.5V22.8h0.5c0.125,0,0.25-0.058,0.375-0.175
	c0.333-0.242,0.725-0.309,1.175-0.2C8.783,22.542,8.908,22.833,8.8,23.3c-0.35-0.475-0.7-0.6-1.05-0.375
	c-0.458,0.242-0.567,0.6-0.325,1.075c0.238,0.458,0.679,0.684,1.325,0.675"/>
<path fill-rule="evenodd" clip-rule="evenodd" fill="none" stroke="#000000" stroke-width="0.1" stroke-linecap="round" stroke-linejoin="round" stroke-miterlimit="3" d="
	M12.5,14.05V13.3 M12.5,24v4.375c0,0.242,0.058,0.425,0.175,0.55c0.233,0.225,0.467,0.333,0.7,0.325h15.55
	c0.233,0.008,0.467-0.1,0.7-0.325c0.117-0.125,0.175-0.308,0.175-0.55V8.925c0.117-0.225,0.059-0.45-0.175-0.675
	c-0.233-0.125-0.467-0.192-0.7-0.2h-15.55c-0.233,0.008-0.467,0.075-0.7,0.2C12.558,8.475,12.5,8.7,12.5,8.925V13.3 M12.5,24v-0.7
	 M12.5,14.05v9.25"/>
</svg>
