<?xml version="1.0" encoding="UTF-8" standalone="no"?>
<!-- Generator: Adobe Illustrator 15.0.2, SVG Export Plug-In . SVG Version: 6.00 Build 0)  -->

<svg
   xmlns:dc="http://purl.org/dc/elements/1.1/"
   xmlns:cc="http://creativecommons.org/ns#"
   xmlns:rdf="http://www.w3.org/1999/02/22-rdf-syntax-ns#"
   xmlns:svg="http://www.w3.org/2000/svg"
   xmlns="http://www.w3.org/2000/svg"
   xmlns:sodipodi="http://sodipodi.sourceforge.net/DTD/sodipodi-0.dtd"
   xmlns:inkscape="http://www.inkscape.org/namespaces/inkscape"
   version="1.1"
   id="Layer_1"
   x="0px"
   y="0px"
   width="30.475px"
   height="24.424px"
   viewBox="0 0 30.475 24.424"
   enable-background="new 0 0 30.475 24.424"
   xml:space="preserve"
   inkscape:version="0.91 r13725"
   sodipodi:docname="Lab_Cart.svg"><metadata
     id="metadata3356"><rdf:RDF><cc:Work
         rdf:about=""><dc:format>image/svg+xml</dc:format><dc:type
           rdf:resource="http://purl.org/dc/dcmitype/StillImage" /><dc:title></dc:title></cc:Work></rdf:RDF></metadata><defs
     id="defs3354" /><sodipodi:namedview
     pagecolor="#ffffff"
     bordercolor="#666666"
     borderopacity="1"
     objecttolerance="10"
     gridtolerance="10"
     guidetolerance="10"
     inkscape:pageopacity="0"
     inkscape:pageshadow="2"
     inkscape:window-width="1360"
     inkscape:window-height="705"
     id="namedview3352"
     showgrid="false"
     inkscape:zoom="9.450369"
     inkscape:cx="15.2375"
     inkscape:cy="12.212"
     inkscape:window-x="-8"
     inkscape:window-y="-8"
     inkscape:window-maximized="1"
     inkscape:current-layer="Layer_1" /><path
     fill-rule="evenodd"
     clip-rule="evenodd"
     fill="#FFCC00"
     d="M30.35,24.35H0.1V0.15h30.225L30.35,24.3V24.35z M29.3,1.1H1.1  v22.2h28.2V1.1z"
     id="path3346" /><rect
     x="1.1"
     y="1.1"
     fill-rule="evenodd"
     clip-rule="evenodd"
     fill="#FE9E32"
     width="28.2"
     height="22.2"
     id="rect3348" /><path
     stroke-miterlimit="3"
     d="m 43.959522,-1.1311112 0,-0.078198 0.105253,0 c 0,0.052132 -0.03508,0.078198 -0.105253,0.078198 z m 0,25.2057982 0,0.05213 0,0.02607 c 0.07018,0 0.105253,-0.02607 0.105253,-0.07821 l -0.105253,0 z m -1.473583,-24.18922517 -39.5762646,0 0,23.14658717 39.5762646,0 0,-23.14658717 z m 1.473583,24.24135717 -42.4532612,0 0,-25.2318643 42.4181762,0 0.03508,25.1797323 M 1.4360901,-1.1311112 l 0,-0.078198 0.1052562,0 c 0,0.052132 -0.035085,0.078198 -0.1052562,0.078198 z"
     id="path3350"
     inkscape:connector-curvature="0"
     style="clip-rule:evenodd;fill:none;fill-rule:evenodd;stroke:#000000;stroke-width:0.12096504;stroke-linecap:round;stroke-linejoin:round;stroke-miterlimit:3" /><path
     style="fill:#999999"
     d="m 1.1639757,12.233163 0,-11.0048612 14.0206163,0 14.020617,0 0,11.0048612 0,11.004861 -14.020617,0 -14.0206163,0 0,-11.004861 z"
     id="path3358"
     inkscape:connector-curvature="0" /><path
     style="fill:#999999"
     d="m 0.63489581,11.333727 0,-12.32756064 21.58645819,0 21.586459,0 0,12.32756064 0,12.327561 -21.586459,0 -21.58645819,0 0,-12.327561 z"
     id="path3360"
     inkscape:connector-curvature="0" /><path
     style="fill:#999999"
     d="m 30.417012,6.7307325 c 0,-2.1242557 0.01412,-2.9932694 0.03138,-1.9311416 0.01726,1.0621279 0.01726,2.8001552 0,3.8622831 -0.01726,1.0621278 -0.03138,0.1931141 -0.03138,-1.9311415 z"
     id="path3362"
     inkscape:connector-curvature="0" /><path
     style="fill:#999999"
     d="m 30.410635,7.0481804 c 0,-0.7856836 0.01666,-1.1070996 0.03702,-0.7142578 0.02036,0.3928418 0.02036,1.0356738 0,1.4285156 -0.02036,0.3928418 -0.03702,0.071426 -0.03702,-0.7142578 z"
     id="path3364"
     inkscape:connector-curvature="0" /><path
     style="fill:#cccccc"
     d="m -0.21163194,11.239092 0,-13.162908 22.83763194,0 22.837632,0 0,13.162908 0,13.162908 -22.837632,0 -22.83763194,0 0,-13.162908 z m 44.34916994,-0.0874 0.04093,-12.2645399 -21.59193,0.029413 -21.59195988,0.029413 -0.0409535,12.1066295 c -0.0300061,8.868646 0.007701,12.148856 0.14079879,12.26453 0.1520029,0.132076 3.6865084,0.153115 21.5919576,0.128502 l 21.410204,-0.02938 0.041,-12.264549 z"
     id="path3366"
     inkscape:connector-curvature="0" /></svg>