<?xml version="1.0" encoding="UTF-8" standalone="no"?>
<!-- Generator: Adobe Illustrator 15.0.2, SVG Export Plug-In . SVG Version: 6.00 Build 0)  -->

<svg
   xmlns:dc="http://purl.org/dc/elements/1.1/"
   xmlns:cc="http://creativecommons.org/ns#"
   xmlns:rdf="http://www.w3.org/1999/02/22-rdf-syntax-ns#"
   xmlns:svg="http://www.w3.org/2000/svg"
   xmlns="http://www.w3.org/2000/svg"
   xmlns:sodipodi="http://sodipodi.sourceforge.net/DTD/sodipodi-0.dtd"
   xmlns:inkscape="http://www.inkscape.org/namespaces/inkscape"
   version="1.1"
   id="Layer_1"
   x="0px"
   y="0px"
   width="49px"
   height="31.975px"
   viewBox="0 0 65 31.975"
   enable-background="new 0 0 65 31.975"
   xml:space="preserve"
   inkscape:version="0.91 r13725"
   sodipodi:docname="Portable_ADA.svg"><metadata
     id="metadata3349"><rdf:RDF><cc:Work
         rdf:about=""><dc:format>image/svg+xml</dc:format><dc:type
           rdf:resource="http://purl.org/dc/dcmitype/StillImage" /><dc:title></dc:title></cc:Work></rdf:RDF></metadata><defs
     id="defs3347" /><sodipodi:namedview
     pagecolor="#ffffff"
     bordercolor="#666666"
     borderopacity="1"
     objecttolerance="10"
     gridtolerance="10"
     guidetolerance="10"
     inkscape:pageopacity="0"
     inkscape:pageshadow="2"
     inkscape:window-width="1360"
     inkscape:window-height="705"
     id="namedview3345"
     showgrid="false"
     inkscape:zoom="16.763096"
     inkscape:cx="19.432138"
     inkscape:cy="17.173894"
     inkscape:window-x="-8"
     inkscape:window-y="-8"
     inkscape:window-maximized="1"
     inkscape:current-layer="Layer_1" /><path
     d="m 31.600933,-2.3372202 7.875,0 c 0.35,0 0.525,0.15 0.525,0.45 0,0.35 -0.175,0.517 -0.525,0.5 l -16.875,0 c -0.3,0.017 -0.45,-0.15 -0.45,-0.5 0,-0.3 0.15,-0.45 0.45,-0.45 l 7.95,0 1.05,0 -1.05,0 0,-0.55 -10.05,0 c -0.333,0 -0.5,0.184 -0.5,0.55 l 0,12.05 -0.55,0 c -0.279,0 -0.429,0.158 -0.45,0.4750002 l 0,-13.5750002 c 0,-0.3 0.15,-0.45 0.45,-0.45 l 11.55,0 c 0.367,0 0.567,0.15 0.6,0.45 l 0,1.05 z"
     id="path3337"
     style="clip-rule:evenodd;fill:#decd87;fill-rule:evenodd"
     inkscape:connector-curvature="0" /><path
     fill-rule="evenodd"
     clip-rule="evenodd"
     fill="#706988"
     d="M1.15,13.65h2.6H20.7h3v0.025c0.029,0,0.045-0.008,0.05-0.025  h0.025c0.35,0,0.559,0.184,0.625,0.55v17.1c-0.011,0.055-0.028,0.105-0.05,0.15c-0.091,0.233-0.283,0.35-0.575,0.35H23.7H0.6  c-0.281,0-0.432-0.15-0.45-0.45c0.017-0.006,0.025-0.022,0.025-0.05H0.15V14.2c0-0.026,0-0.051,0-0.075  c0.021-0.317,0.171-0.475,0.45-0.475H1.15z M24.3,31.3v0.075c0.05,0,0.075-0.025,0.075-0.075H24.3z"
     id="path3341" /><path
     style="fill:#b3ff80"
     d="M 0.55821098,31.536214 C 0.26609245,31.385639 0.26267351,31.256158 0.25980231,20.235985 0.25797131,13.124565 0.30975991,9.0164099 0.40289883,8.8901528 l 0.14600168,-0.1979188 29.38702049,0 c 18.884482,0 29.484257,0.026948 29.659063,0.075187 0.149695,0.041298 0.346014,0.1843933 0.436407,0.3180574 0.219716,0.3246987 0.234959,21.9133106 0.01349,21.9133106 -0.082,0 -0.148825,0.101454 -0.148825,0.225615 0,0.500703 2.343365,0.464241 -29.852821,0.464241 -28.9292826,0 -29.19443172,-0.0011 -29.48727909,-0.152299 z"
     id="path3351"
     inkscape:connector-curvature="0" /><path
     style="fill:#decd87"
     d="m 22.21236,3.7987453 0,-4.8635547 0.153021,-0.058178 c 0.09669,-0.036761 3.125714,-0.058178 8.228109,-0.058178 8.79599,0 8.211731,-0.022356 8.293822,0.31735938 0.01729,0.071529 0.02404,2.23735952 0.015,4.81295772 l -0.01642,4.682906 -8.336766,0.01512 -8.336766,0.01512 0,-4.8635548 z"
     id="path3353"
     inkscape:connector-curvature="0" /><g
     transform="matrix(0.71803546,0,0,0.69677959,-3.4430017,8.9410337)"
     id="Layer_2"><g
       id="g3344"><path
         style="clip-rule:evenodd;fill-rule:evenodd"
         inkscape:connector-curvature="0"
         d="m 52.11,16.97 3.9,5.72 0.9,0 c 0.373,0 0.613,0.053 0.72,0.16 0.107,0.107 0.16,0.354 0.16,0.74 l 0,1.1 -3.12,0 c -0.547,1.613 -1.52,2.926 -2.92,3.94 -1.427,1.04 -3.027,1.56 -4.8,1.56 -2.227,0 -4.133,-0.787 -5.72,-2.36 -1.587,-1.56 -2.38,-3.44 -2.38,-5.64 0,-1.627 0.367,-3.007 1.1,-4.14 0.347,0.173 1.04,0.24 2.08,0.2 l -0.88,-1.56 c 0.253,-0.253 0.633,-0.606 1.14,-1.06 l 0,-4.6 1.16,-0.62 0,-0.26 -4.92,2.54 3.06,5.34 c -1.293,0.054 -2.167,-0.253 -2.62,-0.92 l -2.3,-3.46 c -0.307,-0.44 -0.46,-0.873 -0.46,-1.3 0,-0.534 0.227,-0.92 0.68,-1.16 l 5.14,-2.94 c 0.773,-0.427 1.5,-0.64 2.18,-0.64 0.56,0 1.027,0.193 1.4,0.58 0.347,0.333 0.52,0.733 0.52,1.2 l 0,6.42 4.22,0 c 0.64,10e-4 1.227,0.387 1.76,1.16 z M 45.65,3.19 c 0.4,0.494 0.6,1.087 0.6,1.78 0,0.707 -0.2,1.307 -0.6,1.8 -0.414,0.507 -0.907,0.76 -1.48,0.76 -0.56,0 -1.033,-0.253 -1.42,-0.76 -0.413,-0.493 -0.62,-1.093 -0.62,-1.8 0,-0.693 0.207,-1.287 0.62,-1.78 0.387,-0.493 0.86,-0.74 1.42,-0.74 0.574,10e-4 1.067,0.247 1.48,0.74 z m -2.92,23.16 c 1.16,1.16 2.566,1.74 4.22,1.74 1.654,0 3.066,-0.574 4.24,-1.72 1.173,-1.16 1.76,-2.553 1.76,-4.18 l -2.86,-3.94 -7.62,0 c -1,1.133 -1.5,2.446 -1.5,3.94 0,1.614 0.587,3 1.76,4.16 z"
         id="path3346" /></g></g></svg>