<?xml version="1.0" encoding="utf-8"?>
<!-- Generator: Adobe Illustrator 15.0.2, SVG Export Plug-In . SVG Version: 6.00 Build 0)  -->
<!DOCTYPE svg PUBLIC "-//W3C//DTD SVG 1.1//EN" "http://www.w3.org/Graphics/SVG/1.1/DTD/svg11.dtd">
<svg version="1.1" id="Layer_2" xmlns="http://www.w3.org/2000/svg" xmlns:xlink="http://www.w3.org/1999/xlink" x="0px" y="0px"
	 width="151.1px" height="49.1px" viewBox="0 0 151.1 49.1" enable-background="new 0 0 151.1 49.1" xml:space="preserve">
<path fill-rule="evenodd" clip-rule="evenodd" fill="#FFFFFF" d="M81.8,18.7h2.1c0.267,0,0.55,0.017,0.85,0.05
	c0.333,0.033,0.65,0.117,0.95,0.25c0.3,0.167,0.55,0.4,0.75,0.7c0.2,0.333,0.3,0.8,0.3,1.4c0,0.567-0.1,1.017-0.3,1.35
	c-0.2,0.333-0.433,0.583-0.7,0.75c-0.3,0.133-0.6,0.233-0.9,0.3c-0.267,0.033-0.5,0.05-0.7,0.05H81.8V18.7z M75.5,17.35v13.5H77
	v-13.5H75.5z M67.8,17.35l-3.85,13.5h1.65l1-3.9h4.25l1.05,3.9h1.7l-3.8-13.5H67.8z M70.5,25.6h-3.55l1.8-7.15L70.5,25.6z
	 M62.9,17.35l-4.4,14h1.1l4.4-14H62.9z M95.7,17.35V27.6c0,0.8,0.167,1.467,0.5,2c0.333,0.533,0.8,0.933,1.4,1.2
	c0.633,0.267,1.35,0.4,2.15,0.4c0.833,0,1.55-0.133,2.15-0.4c0.6-0.267,1.067-0.667,1.4-1.2c0.333-0.533,0.5-1.2,0.5-2V17.35h-1.5
	v9.7c0.033,0.367,0,0.767-0.1,1.2c-0.1,0.434-0.333,0.8-0.7,1.1s-0.95,0.45-1.75,0.45c-0.767,0-1.333-0.15-1.7-0.45
	s-0.6-0.667-0.7-1.1c-0.1-0.433-0.15-0.833-0.15-1.2v-9.7H95.7z M83.75,17.35H80.3v13.5h1.5v-5.95h2.6c0.567,0,1.033,0.117,1.4,0.35
	c0.333,0.233,0.567,0.533,0.7,0.9c0.133,0.4,0.2,0.817,0.2,1.25c0,0.333,0.017,0.7,0.05,1.1c0.033,0.434,0.083,0.867,0.15,1.3
	c0.067,0.4,0.15,0.75,0.25,1.05h1.75v-0.3c-0.1,0-0.183-0.05-0.25-0.15c-0.1-0.1-0.167-0.216-0.2-0.35
	c-0.033-0.133-0.05-0.25-0.05-0.35c-0.067-0.5-0.133-1-0.2-1.5c-0.033-0.5-0.066-1-0.1-1.5c-0.067-0.6-0.167-1.083-0.3-1.45
	c-0.167-0.333-0.417-0.583-0.75-0.75c-0.333-0.167-0.783-0.283-1.35-0.35c0.8-0.133,1.417-0.45,1.85-0.95
	c0.467-0.533,0.717-1.2,0.75-2c0.033-1.033-0.133-1.833-0.5-2.4c-0.367-0.534-0.9-0.917-1.6-1.15
	C85.533,17.45,84.717,17.35,83.75,17.35z M118,17.35v13.5h1.5v-13.5H118z M108.15,18c0.067,0.4,0.133,0.767,0.2,1.1
	c0.1,0.333,0.2,0.65,0.3,0.95l3.75,10.8h2.45v-13.5h-1.5v11c0,0.267,0.017,0.533,0.05,0.8c0,0.233,0,0.467,0,0.7h-0.05
	c-0.067-0.3-0.133-0.567-0.2-0.8c-0.1-0.233-0.183-0.45-0.25-0.65l-3.85-11.05h-2.4v13.5h1.5V20.1c0-0.367-0.017-0.717-0.05-1.05
	c0-0.333,0-0.684,0-1.05H108.15z M121.5,18.7h3.5v12.15h1.5V18.7h3.5v-1.35h-8.5V18.7z M151.05,49.05h-151v-49h151V49.05z
	 M27.85,17.35V23h-5.2v-5.65h-1.5v13.5h1.5v-6.5h5.2v6.5h1.5v-13.5H27.85z M33.6,29.5v-5h4.9v-1.35h-4.9V18.7h5.25v-1.35H32.1v13.5
	h6.75V29.5H33.6z M43.8,17.35l-3.85,13.5h1.65l1-3.9h4.25l1.05,3.9h1.7l-3.8-13.5H43.8z M42.95,25.6l1.8-7.15l1.75,7.15H42.95z
	 M58.5,18.7v-1.35H50v1.35h3.5v12.15H55V18.7H58.5z"/>
<path fill-rule="evenodd" clip-rule="evenodd" fill="#CCCCCC" d="M121.5,18.7v-1.35h8.5v1.35h-3.5v12.15H125V18.7H121.5z M108.15,18
	h-0.05c0,0.367,0,0.717,0,1.05c0.033,0.333,0.05,0.683,0.05,1.05v10.75h-1.5v-13.5h2.4l3.85,11.05c0.067,0.2,0.15,0.417,0.25,0.65
	c0.067,0.233,0.133,0.5,0.2,0.8h0.05c0-0.233,0-0.467,0-0.7c-0.033-0.267-0.05-0.533-0.05-0.8v-11h1.5v13.5h-2.45l-3.75-10.8
	c-0.1-0.3-0.2-0.617-0.3-0.95C108.283,18.766,108.217,18.399,108.15,18z M118,17.35h1.5v13.5H118V17.35z M83.75,17.35
	c0.967,0,1.783,0.1,2.45,0.3c0.7,0.233,1.233,0.617,1.6,1.15c0.367,0.566,0.533,1.367,0.5,2.4c-0.033,0.8-0.283,1.467-0.75,2
	c-0.433,0.5-1.05,0.816-1.85,0.95c0.567,0.067,1.017,0.184,1.35,0.35c0.333,0.167,0.583,0.417,0.75,0.75
	c0.133,0.367,0.233,0.85,0.3,1.45c0.033,0.5,0.066,1,0.1,1.5c0.067,0.5,0.133,1,0.2,1.5c0,0.1,0.017,0.217,0.05,0.35
	c0.034,0.133,0.1,0.25,0.2,0.35c0.067,0.1,0.15,0.15,0.25,0.15v0.3h-1.75c-0.1-0.3-0.183-0.65-0.25-1.05
	c-0.067-0.434-0.117-0.867-0.15-1.3c-0.033-0.4-0.05-0.767-0.05-1.1c0-0.433-0.066-0.85-0.2-1.25c-0.133-0.367-0.367-0.667-0.7-0.9
	c-0.367-0.233-0.833-0.35-1.4-0.35h-2.6v5.95h-1.5v-13.5H83.75z M95.7,17.35h1.5v9.7c0,0.367,0.05,0.767,0.15,1.2
	c0.1,0.434,0.333,0.8,0.7,1.1s0.934,0.45,1.7,0.45c0.8,0,1.383-0.15,1.75-0.45s0.6-0.667,0.7-1.1c0.1-0.433,0.133-0.833,0.1-1.2
	v-9.7h1.5V27.6c0,0.8-0.167,1.467-0.5,2c-0.333,0.533-0.8,0.933-1.4,1.2c-0.6,0.267-1.317,0.4-2.15,0.4c-0.8,0-1.517-0.133-2.15-0.4
	c-0.6-0.267-1.067-0.667-1.4-1.2c-0.333-0.533-0.5-1.2-0.5-2V17.35z M62.9,17.35H64l-4.4,14h-1.1L62.9,17.35z M70.5,25.6l-1.75-7.15
	l-1.8,7.15H70.5z M67.8,17.35h2l3.8,13.5h-1.7l-1.05-3.9H66.6l-1,3.9h-1.65L67.8,17.35z M75.5,17.35H77v13.5h-1.5V17.35z M81.8,18.7
	v4.85h2.35c0.2,0,0.433-0.017,0.7-0.05c0.3-0.066,0.6-0.167,0.9-0.3c0.267-0.167,0.5-0.417,0.7-0.75c0.2-0.333,0.3-0.783,0.3-1.35
	c0-0.6-0.1-1.067-0.3-1.4c-0.2-0.3-0.45-0.533-0.75-0.7c-0.3-0.133-0.617-0.217-0.95-0.25c-0.3-0.033-0.583-0.05-0.85-0.05H81.8z
	 M58.5,18.7H55v12.15h-1.5V18.7H50v-1.35h8.5V18.7z M42.95,25.6h3.55l-1.75-7.15L42.95,25.6z M43.8,17.35h2l3.8,13.5h-1.7l-1.05-3.9
	H42.6l-1,3.9h-1.65L43.8,17.35z M33.6,29.5h5.25v1.35H32.1v-13.5h6.75v1.35H33.6v4.45h4.9v1.35h-4.9V29.5z M27.85,17.35h1.5v13.5
	h-1.5v-6.5h-5.2v6.5h-1.5v-13.5h1.5V23h5.2V17.35z"/>
<rect x="0.05" y="0.05" fill-rule="evenodd" clip-rule="evenodd" fill="none" stroke="#000000" stroke-width="0.1" stroke-linecap="round" stroke-linejoin="round" stroke-miterlimit="3" width="151" height="49"/>
</svg>
