<?xml version="1.0" encoding="UTF-8" standalone="no"?>
<!-- Generator: Adobe Illustrator 15.0.2, SVG Export Plug-In . SVG Version: 6.00 Build 0)  -->

<svg
   xmlns:dc="http://purl.org/dc/elements/1.1/"
   xmlns:cc="http://creativecommons.org/ns#"
   xmlns:rdf="http://www.w3.org/1999/02/22-rdf-syntax-ns#"
   xmlns:svg="http://www.w3.org/2000/svg"
   xmlns="http://www.w3.org/2000/svg"
   xmlns:sodipodi="http://sodipodi.sourceforge.net/DTD/sodipodi-0.dtd"
   xmlns:inkscape="http://www.inkscape.org/namespaces/inkscape"
   version="1.1"
   id="Layer_1"
   x="0px"
   y="0px"
   width="13.524px"
   height="13.524px"
   viewBox="0 0 13.524 13.524"
   enable-background="new 0 0 13.524 13.524"
   xml:space="preserve"
   inkscape:version="0.91 r13725"
   sodipodi:docname="safety_eyewash-new.svg"><metadata
     id="metadata11"><rdf:RDF><cc:Work
         rdf:about=""><dc:format>image/svg+xml</dc:format><dc:type
           rdf:resource="http://purl.org/dc/dcmitype/StillImage" /><dc:title></dc:title></cc:Work></rdf:RDF></metadata><defs
     id="defs9" /><sodipodi:namedview
     pagecolor="#ffffff"
     bordercolor="#666666"
     borderopacity="1"
     objecttolerance="10"
     gridtolerance="10"
     guidetolerance="10"
     inkscape:pageopacity="0"
     inkscape:pageshadow="2"
     inkscape:window-width="1360"
     inkscape:window-height="705"
     id="namedview7"
     showgrid="false"
     inkscape:zoom="17.450458"
     inkscape:cx="5.7591611"
     inkscape:cy="6.7620001"
     inkscape:window-x="-8"
     inkscape:window-y="-8"
     inkscape:window-maximized="1"
     inkscape:current-layer="Layer_1" /><path
     d="m 10.725685,2.6145032 c 1.149717,1.0265345 1.724572,2.3404977 1.724572,3.9418908 0.005,1.5028463 -0.509158,2.7757399 -1.539797,3.818698 -1.1620315,1.149724 -2.4965219,1.724586 -4.0034688,1.724586 -1.6013879,0 -2.9153475,-0.574862 -3.9418785,-1.724586 C 1.934476,9.3321339 1.4212106,8.0592403 1.4253168,6.556394 1.4212105,4.9550009 1.934476,3.6410377 2.9651127,2.6145032 3.9916437,1.583863 5.3056033,1.0705964 6.9069912,1.0747025 8.4098322,1.0705825 9.6819085,1.583863 10.725685,2.6145032 Z"
     id="path3"
     inkscape:connector-curvature="0"
     style="clip-rule:evenodd;fill:#ffcc00;fill-rule:evenodd" /><path
     fill-rule="evenodd"
     clip-rule="evenodd"
     fill="none"
     stroke="#000000"
     stroke-width="0.1"
     stroke-linecap="round"
     stroke-linejoin="round"
     stroke-miterlimit="3"
     d="  M11.375,1.925c-1.27-1.255-2.82-1.88-4.65-1.875c-1.95-0.005-3.55,0.62-4.8,1.875c-1.255,1.25-1.88,2.85-1.875,4.8  c-0.005,1.83,0.62,3.38,1.875,4.65c1.25,1.4,2.85,2.1,4.8,2.1c1.835,0,3.46-0.7,4.875-2.1c1.255-1.27,1.88-2.82,1.875-4.65  C13.475,4.775,12.774,3.175,11.375,1.925z"
     id="path5" /><path
     style="fill:#ffcc00"
     d="M 6.3322119,12.041866 C 5.6610299,11.983261 5.1911942,11.853366 4.5746631,11.555957 3.9743784,11.266386 3.3535976,10.789324 2.8892066,10.260706 2.2317673,9.5123416 1.9104548,8.9534291 1.6519128,8.1084742 1.5094073,7.6427443 1.4974885,7.5258918 1.495285,6.5728933 1.4926812,5.4467605 1.5406048,5.1517358 1.8605295,4.3243958 2.4350964,2.8385393 3.9111131,1.5935472 5.5212578,1.2366409 5.7308991,1.1901716 6.2247649,1.137504 6.6187374,1.1196018 8.3539308,1.0407542 9.679316,1.5757936 10.919948,2.8559404 c 1.128233,1.1641675 1.536254,2.2672875 1.470207,3.9748258 -0.03412,0.8822628 -0.129273,1.3099576 -0.441335,1.983835 -0.281461,0.6077949 -0.599862,1.0704395 -1.053653,1.5309818 -1.2507211,1.269329 -2.8107667,1.849278 -4.5629551,1.696283 z"
     id="path3339"
     inkscape:connector-curvature="0" /><path
     style="fill:#ffeeaa"
     d="m 9.7737655,7.5351735 c -0.132613,-0.01152 -0.225445,-0.03709 -0.347261,-0.09555 -0.118605,-0.05696 -0.24126,-0.15075 -0.333014,-0.254692 -0.129901,-0.147161 -0.193385,-0.257076 -0.244467,-0.42323 -0.02815,-0.09158 -0.0305,-0.114554 -0.03095,-0.301957 -5.51e-4,-0.221447 0.009,-0.279462 0.07216,-0.442153 0.113523,-0.292184 0.40516,-0.5370029 0.723297,-0.6071862 0.04143,-0.00915 0.138998,-0.019498 0.216843,-0.023016 0.3428395,-0.015502 0.6047135,0.089707 0.8498415,0.3414392 0.222919,0.228925 0.303536,0.445848 0.290487,0.781621 -0.0068,0.173497 -0.02554,0.257592 -0.08719,0.390105 -0.05562,0.119524 -0.118523,0.210501 -0.208183,0.301062 -0.247121,0.249606 -0.555359,0.363648 -0.9015585,0.333568 z"
     id="path3339-0"
     inkscape:connector-curvature="0" /><path
     inkscape:connector-curvature="0"
     id="path3356"
     d="m 4.1005621,7.592479 c -0.132613,-0.01152 -0.225445,-0.03709 -0.347261,-0.09555 -0.118605,-0.05696 -0.24126,-0.15075 -0.333014,-0.254692 -0.129901,-0.147161 -0.193385,-0.257076 -0.244467,-0.42323 -0.02815,-0.09158 -0.0305,-0.114554 -0.03095,-0.301957 -5.51e-4,-0.221447 0.009,-0.279462 0.07216,-0.442153 0.113523,-0.2921844 0.40516,-0.5370033 0.723297,-0.6071866 0.04143,-0.00915 0.138998,-0.019498 0.216843,-0.023016 0.34284,-0.015502 0.604714,0.089707 0.849841,0.3414392 0.222919,0.2289254 0.303536,0.4458484 0.290487,0.7816214 -0.0068,0.173497 -0.02554,0.257592 -0.08719,0.390105 -0.05562,0.119524 -0.118523,0.210501 -0.208183,0.301062 -0.24712,0.249606 -0.555358,0.363648 -0.901558,0.333568 z"
     style="fill:#ffeeaa" /></svg>