<?xml version="1.0" encoding="utf-8"?>
<!-- Generator: Adobe Illustrator 15.0.2, SVG Export Plug-In . SVG Version: 6.00 Build 0)  -->
<!DOCTYPE svg PUBLIC "-//W3C//DTD SVG 1.1//EN" "http://www.w3.org/Graphics/SVG/1.1/DTD/svg11.dtd">
<svg version="1.1" id="Layer_1" xmlns="http://www.w3.org/2000/svg" xmlns:xlink="http://www.w3.org/1999/xlink" x="0px" y="0px"
	 width="54.1px" height="47.162px" viewBox="0 0 54.1 47.162" enable-background="new 0 0 54.1 47.162" xml:space="preserve">
<path fill-rule="evenodd" clip-rule="evenodd" fill="#F7F619" d="M53.75,0.05l0.3,32.7L27.8,32.825v5.025
	c2.144,0.458,3.419,1.708,3.825,3.75c0.145,1.41-0.13,2.61-0.825,3.6c-0.7,0.975-1.75,1.6-3.15,1.875
	c-1.265,0.145-2.39-0.13-3.375-0.825c-0.975-0.7-1.6-1.75-1.875-3.15c-0.285-1.265-0.01-2.39,0.825-3.375
	c0.695-0.975,1.72-1.6,3.075-1.875v-5.025L0.05,32.899V0.05H53.75z M27.8,37.85v2.1V37.85z M27.8,39.95v2.4h-1.5v-2.4v-2.1v2.1
	c-1.618,0.565-2.218,1.665-1.8,3.3c0.54,1.56,1.64,2.21,3.3,1.95c1.56-0.705,2.21-1.83,1.95-3.375
	C29.45,40.85,28.8,40.225,27.8,39.95z M26.3,32.825h1.5H26.3z"/>
<path fill-rule="evenodd" clip-rule="evenodd" fill="none" stroke="#000000" stroke-width="0.1" stroke-linecap="round" stroke-linejoin="round" stroke-miterlimit="3" d="
	M53.75,0.05l0.3,32.7L27.8,32.825v5.025c2.144,0.458,3.419,1.708,3.825,3.75c0.145,1.41-0.13,2.61-0.825,3.6
	c-0.7,0.975-1.75,1.6-3.15,1.875c-1.265,0.145-2.39-0.13-3.375-0.825c-0.975-0.7-1.6-1.75-1.875-3.15
	c-0.285-1.265-0.01-2.39,0.825-3.375c0.695-0.975,1.72-1.6,3.075-1.875v-5.025L0.05,32.899V0.05H53.75z M27.8,37.85v2.1
	c1,0.275,1.65,0.9,1.95,1.875c0.26,1.545-0.39,2.67-1.95,3.375c-1.66,0.26-2.76-0.39-3.3-1.95c-0.418-1.635,0.182-2.735,1.8-3.3
	v-2.1 M27.8,39.95v2.4h-1.5v-2.4 M26.3,32.825h1.5"/>
</svg>
