<?xml version="1.0" encoding="utf-8"?>
<!-- Generator: Adobe Illustrator 15.0.2, SVG Export Plug-In . SVG Version: 6.00 Build 0)  -->
<!DOCTYPE svg PUBLIC "-//W3C//DTD SVG 1.1//EN" "http://www.w3.org/Graphics/SVG/1.1/DTD/svg11.dtd">
<svg version="1.1" id="Layer_1" xmlns="http://www.w3.org/2000/svg" xmlns:xlink="http://www.w3.org/1999/xlink" x="0px" y="0px"
	 width="54.1px" height="34.05px" viewBox="0 0 54.1 34.05" enable-background="new 0 0 54.1 34.05" xml:space="preserve">
<path fill-rule="evenodd" clip-rule="evenodd" fill="#FFFF00" d="M34.55,9.8c0-0.066,0.017-0.133,0.05-0.2c0-0.067,0-0.117,0-0.15
	c0.034,0.033,0.05,0.083,0.05,0.15c0,0.066,0,0.133,0,0.2c0,0.1,0.017,0.217,0.05,0.35c0,0.133,0.017,0.25,0.05,0.35L35,12h-0.85
	l0.3-1.5c0.033-0.1,0.067-0.217,0.1-0.35C34.55,10.017,34.55,9.9,34.55,9.8z M33.95,8.85L32.7,14.1h1.05L34,12.75h1.15l0.3,1.35
	h1.05l-1.2-5.25H33.95z M30.8,9.6V8.85h-3.3V9.6h1.15v4.5h1V9.6H30.8z M37.05,14.1H38V8.85h-0.95V14.1z M39,8.85v5.25h1.8
	c0.133,0,0.267,0,0.4,0c0.133-0.033,0.25-0.083,0.35-0.15c0.267-0.167,0.45-0.383,0.55-0.65c0.133-0.3,0.2-0.633,0.2-1
	c0.033-0.333,0.05-0.683,0.05-1.05c0-0.433-0.017-0.8-0.05-1.1c-0.033-0.3-0.117-0.533-0.25-0.7c-0.1-0.167-0.217-0.3-0.35-0.4
	c-0.1-0.066-0.217-0.117-0.35-0.15s-0.233-0.05-0.3-0.05H39z M41.3,10.35c0.033,0.267,0.05,0.6,0.05,1c0,0.5-0.017,0.9-0.05,1.2
	c-0.033,0.267-0.117,0.467-0.25,0.6s-0.35,0.2-0.65,0.2H40V9.6h0.65c0.167,0,0.3,0.066,0.4,0.2C41.183,9.9,41.267,10.083,41.3,10.35
	z M15.25,11.7h1.7v-0.75h-1.7V9.6h1.8V8.85h-2.8v5.25h1V11.7z M23,10.1c0-0.3-0.067-0.55-0.2-0.75c-0.133-0.167-0.3-0.3-0.5-0.4
	c-0.233-0.067-0.5-0.1-0.8-0.1h-1.85v5.25h1v-2.25h0.15c0.167,0,0.317,0,0.45,0s0.267,0.017,0.4,0.05c0.1,0.033,0.183,0.1,0.25,0.2
	c0.033,0.1,0.05,0.217,0.05,0.35c0.033,0.1,0.05,0.2,0.05,0.3c0,0.133,0,0.283,0,0.45c0,0.167,0,0.333,0,0.5
	c0.033,0.167,0.066,0.3,0.1,0.4h1.05V14c-0.033-0.033-0.067-0.1-0.1-0.2C23.017,13.7,23,13.567,23,13.4
	c-0.034-0.133-0.05-0.267-0.05-0.4c0-0.167,0-0.3,0-0.4c0-0.133,0-0.217,0-0.25c0-0.267-0.05-0.483-0.15-0.65
	c-0.1-0.167-0.3-0.267-0.6-0.3c0.233-0.066,0.4-0.15,0.5-0.25c0.133-0.133,0.217-0.3,0.25-0.5C22.983,10.483,23,10.3,23,10.1z
	 M23.9,10.55c0.066,0.133,0.133,0.25,0.2,0.35c0.133,0.167,0.284,0.317,0.45,0.45c0.2,0.133,0.383,0.267,0.55,0.4
	c0.2,0.133,0.383,0.267,0.55,0.4c0.133,0.067,0.233,0.167,0.3,0.3c0.067,0.1,0.1,0.216,0.1,0.35c0,0.2-0.05,0.367-0.15,0.5
	c-0.1,0.1-0.25,0.15-0.45,0.15c-0.233,0-0.4-0.083-0.5-0.25c-0.1-0.167-0.15-0.383-0.15-0.65v-0.3h-0.95v0.4
	c0,0.3,0.05,0.567,0.15,0.8c0.1,0.233,0.267,0.417,0.5,0.55c0.233,0.133,0.55,0.217,0.95,0.25c0.3,0,0.583-0.067,0.85-0.2
	c0.233-0.1,0.417-0.267,0.55-0.5c0.133-0.233,0.2-0.517,0.2-0.85c0-0.2-0.033-0.4-0.1-0.6c-0.066-0.167-0.183-0.333-0.35-0.5
	c-0.1-0.067-0.216-0.167-0.35-0.3c-0.133-0.1-0.284-0.2-0.45-0.3c-0.133-0.1-0.267-0.183-0.4-0.25c-0.1-0.067-0.184-0.133-0.25-0.2
	c-0.1-0.066-0.167-0.133-0.2-0.2c-0.066-0.1-0.1-0.217-0.1-0.35c0-0.167,0.05-0.3,0.15-0.4c0.1-0.067,0.233-0.1,0.4-0.1
	c0.167,0,0.3,0.05,0.4,0.15c0.067,0.1,0.117,0.217,0.15,0.35S26,10.283,26,10.45h0.9c0-0.133,0-0.3,0-0.5
	c-0.033-0.2-0.083-0.383-0.15-0.55c-0.1-0.2-0.25-0.367-0.45-0.5c-0.233-0.1-0.533-0.167-0.9-0.2c-0.533,0.033-0.917,0.167-1.15,0.4
	c-0.267,0.233-0.4,0.566-0.4,1C23.85,10.233,23.867,10.383,23.9,10.55z M17.75,8.85v5.25h0.95V8.85H17.75z M21.35,9.6
	c0.133,0,0.25,0.017,0.35,0.05s0.167,0.1,0.2,0.2c0.066,0.1,0.1,0.25,0.1,0.45c0,0.267-0.067,0.467-0.2,0.6
	c-0.1,0.1-0.233,0.15-0.4,0.15h-0.75V9.6H21.35z M25.7,20.6c-0.133,0.2-0.25,0.417-0.35,0.65c-0.1,0.2-0.2,0.417-0.3,0.65v-2.35
	H24.1v5.25h0.95v-1.5l0.35-0.55l0.9,2.05h1.15l-1.4-3l1.3-2.25h-1.1L25.7,20.6z M32.85,19.55h-3.3v0.75h1.15v4.5h1v-4.5h1.15V19.55z
	 M28,19.55v5.25h0.95v-5.25H28z M0.05,0.05h54V34h-54V0.05z"/>
<path fill-rule="evenodd" clip-rule="evenodd" d="M28,19.55h0.95v5.25H28V19.55z M32.85,19.55v0.75H31.7v4.5h-1v-4.5h-1.15v-0.75
	H32.85z M25.7,20.6l0.55-1.05h1.1l-1.3,2.25l1.4,3H26.3l-0.9-2.05l-0.35,0.55v1.5H24.1v-5.25h0.95v2.35c0.1-0.233,0.2-0.45,0.3-0.65
	C25.45,21.017,25.566,20.8,25.7,20.6z M21.35,9.6h-0.7v1.45h0.75c0.167,0,0.3-0.05,0.4-0.15c0.133-0.133,0.2-0.333,0.2-0.6
	c0-0.2-0.034-0.35-0.1-0.45c-0.033-0.1-0.1-0.167-0.2-0.2S21.483,9.6,21.35,9.6z M17.75,8.85h0.95v5.25h-0.95V8.85z M23.9,10.55
	c-0.033-0.167-0.05-0.316-0.05-0.45c0-0.434,0.133-0.767,0.4-1c0.233-0.233,0.617-0.367,1.15-0.4c0.367,0.033,0.667,0.1,0.9,0.2
	c0.2,0.133,0.35,0.3,0.45,0.5c0.066,0.167,0.117,0.35,0.15,0.55c0,0.2,0,0.367,0,0.5H26c0-0.167-0.017-0.317-0.05-0.45
	s-0.083-0.25-0.15-0.35c-0.1-0.1-0.233-0.15-0.4-0.15c-0.167,0-0.3,0.033-0.4,0.1c-0.1,0.1-0.15,0.233-0.15,0.4
	c0,0.133,0.034,0.25,0.1,0.35c0.033,0.066,0.1,0.133,0.2,0.2c0.066,0.067,0.15,0.133,0.25,0.2c0.133,0.067,0.267,0.15,0.4,0.25
	c0.167,0.1,0.317,0.2,0.45,0.3c0.133,0.133,0.25,0.233,0.35,0.3c0.167,0.167,0.284,0.333,0.35,0.5c0.067,0.2,0.1,0.4,0.1,0.6
	c0,0.333-0.067,0.617-0.2,0.85c-0.133,0.233-0.316,0.4-0.55,0.5c-0.267,0.133-0.55,0.2-0.85,0.2c-0.4-0.033-0.717-0.117-0.95-0.25
	c-0.233-0.133-0.4-0.317-0.5-0.55c-0.1-0.233-0.15-0.5-0.15-0.8v-0.4h0.95v0.3c0,0.267,0.05,0.483,0.15,0.65
	c0.1,0.167,0.267,0.25,0.5,0.25c0.2,0,0.35-0.05,0.45-0.15c0.1-0.133,0.15-0.3,0.15-0.5c0-0.133-0.033-0.25-0.1-0.35
	c-0.066-0.133-0.167-0.233-0.3-0.3c-0.167-0.133-0.35-0.267-0.55-0.4c-0.167-0.133-0.35-0.267-0.55-0.4
	c-0.167-0.133-0.317-0.283-0.45-0.45C24.033,10.8,23.966,10.683,23.9,10.55z M23,10.1c0,0.2-0.017,0.383-0.05,0.55
	c-0.033,0.2-0.117,0.367-0.25,0.5c-0.1,0.1-0.267,0.184-0.5,0.25c0.3,0.033,0.5,0.133,0.6,0.3c0.1,0.167,0.15,0.383,0.15,0.65
	c0,0.033,0,0.117,0,0.25c0,0.1,0,0.233,0,0.4c0,0.133,0.017,0.267,0.05,0.4c0,0.167,0.017,0.3,0.05,0.4
	c0.033,0.1,0.067,0.167,0.1,0.2v0.1H22.1c-0.033-0.1-0.066-0.233-0.1-0.4c0-0.167,0-0.333,0-0.5c0-0.167,0-0.317,0-0.45
	c0-0.1-0.017-0.2-0.05-0.3c0-0.133-0.017-0.25-0.05-0.35c-0.067-0.1-0.15-0.167-0.25-0.2c-0.133-0.033-0.267-0.05-0.4-0.05
	s-0.284,0-0.45,0h-0.15v2.25h-1V8.85h1.85c0.3,0,0.566,0.033,0.8,0.1c0.2,0.1,0.367,0.233,0.5,0.4C22.933,9.55,23,9.8,23,10.1z
	 M15.25,11.7v2.4h-1V8.85h2.8V9.6h-1.8v1.35h1.7v0.75H15.25z M41.3,10.35c-0.033-0.267-0.117-0.45-0.25-0.55
	c-0.1-0.133-0.233-0.2-0.4-0.2H40v3.75h0.4c0.3,0,0.517-0.067,0.65-0.2s0.217-0.333,0.25-0.6c0.033-0.3,0.05-0.7,0.05-1.2
	C41.35,10.95,41.333,10.617,41.3,10.35z M39,8.85h2.05c0.067,0,0.167,0.017,0.3,0.05s0.25,0.083,0.35,0.15
	c0.133,0.1,0.25,0.233,0.35,0.4c0.133,0.167,0.217,0.4,0.25,0.7c0.033,0.3,0.05,0.667,0.05,1.1c0,0.367-0.017,0.717-0.05,1.05
	c0,0.367-0.067,0.7-0.2,1c-0.1,0.267-0.283,0.483-0.55,0.65c-0.1,0.066-0.217,0.117-0.35,0.15c-0.133,0-0.267,0-0.4,0H39V8.85z
	 M37.05,14.1V8.85H38v5.25H37.05z M30.8,9.6h-1.15v4.5h-1V9.6H27.5V8.85h3.3V9.6z M33.95,8.85h1.35l1.2,5.25h-1.05l-0.3-1.35H34
	l-0.25,1.35H32.7L33.95,8.85z M34.55,9.8c0,0.1,0,0.217,0,0.35c-0.033,0.133-0.067,0.25-0.1,0.35l-0.3,1.5H35l-0.25-1.5
	c-0.034-0.1-0.05-0.217-0.05-0.35c-0.033-0.133-0.05-0.25-0.05-0.35c0-0.066,0-0.133,0-0.2c0-0.067-0.017-0.117-0.05-0.15
	c0,0.033,0,0.083,0,0.15C34.566,9.667,34.55,9.733,34.55,9.8z"/>
<rect x="0.05" y="0.05" fill-rule="evenodd" clip-rule="evenodd" fill="none" stroke="#000000" stroke-width="0.1" stroke-linecap="round" stroke-linejoin="round" stroke-miterlimit="3" width="54" height="33.95"/>
</svg>
