<?xml version="1.0" encoding="utf-8"?>
<!-- Generator: Adobe Illustrator 15.0.2, SVG Export Plug-In . SVG Version: 6.00 Build 0)  -->
<!DOCTYPE svg PUBLIC "-//W3C//DTD SVG 1.1//EN" "http://www.w3.org/Graphics/SVG/1.1/DTD/svg11.dtd">
<svg version="1.1" id="Layer_1" xmlns="http://www.w3.org/2000/svg" xmlns:xlink="http://www.w3.org/1999/xlink" x="0px" y="0px"
	 width="54.1px" height="34.05px" viewBox="0 0 54.1 34.05" enable-background="new 0 0 54.1 34.05" xml:space="preserve">
<path fill-rule="evenodd" clip-rule="evenodd" fill="#FFFF00" d="M32.95,9.65c-0.2-0.133-0.5-0.2-0.9-0.2
	c-0.367,0-0.667,0.066-0.9,0.2c-0.2,0.1-0.35,0.267-0.45,0.5s-0.167,0.5-0.2,0.8c-0.034,0.3-0.034,0.65,0,1.05
	c-0.034,0.533,0,0.967,0.1,1.3c0.067,0.333,0.217,0.567,0.45,0.7c0.233,0.167,0.567,0.233,1,0.2c0.467,0.033,0.8-0.034,1-0.2
	c0.233-0.133,0.383-0.367,0.45-0.7c0.1-0.333,0.133-0.767,0.1-1.3c0.034-0.4,0.034-0.75,0-1.05c-0.033-0.3-0.1-0.567-0.2-0.8
	C33.333,9.917,33.183,9.75,32.95,9.65z M32.55,10.7c0.033,0.133,0.05,0.267,0.05,0.4v1.55c0,0.167-0.017,0.317-0.05,0.45
	c0,0.1-0.05,0.183-0.15,0.25c-0.067,0.033-0.184,0.05-0.35,0.05s-0.283-0.017-0.35-0.05c-0.066-0.067-0.117-0.15-0.15-0.25
	c-0.033-0.133-0.05-0.283-0.05-0.45V11.1c0-0.133,0.017-0.267,0.05-0.4c0-0.133,0.05-0.233,0.15-0.3c0.067-0.1,0.184-0.15,0.35-0.15
	s0.3,0.05,0.4,0.15C32.517,10.467,32.55,10.567,32.55,10.7z M36.55,10.7c0.033,0.133,0.05,0.267,0.05,0.4v1.55
	c0,0.167-0.017,0.317-0.05,0.45c0,0.1-0.05,0.183-0.15,0.25c-0.067,0.033-0.184,0.05-0.35,0.05s-0.283-0.017-0.35-0.05
	c-0.066-0.067-0.117-0.15-0.15-0.25c-0.033-0.133-0.05-0.283-0.05-0.45V11.1c0-0.133,0.017-0.267,0.05-0.4
	c0-0.133,0.05-0.233,0.15-0.3c0.067-0.1,0.184-0.15,0.35-0.15s0.3,0.05,0.4,0.15C36.517,10.467,36.55,10.567,36.55,10.7z
	 M34.7,10.15c-0.1,0.233-0.167,0.5-0.2,0.8c-0.034,0.3-0.034,0.65,0,1.05c-0.034,0.533,0,0.967,0.1,1.3
	c0.067,0.333,0.217,0.567,0.45,0.7c0.233,0.167,0.567,0.233,1,0.2c0.467,0.033,0.8-0.034,1-0.2c0.233-0.133,0.383-0.367,0.45-0.7
	c0.1-0.333,0.133-0.767,0.1-1.3c0.034-0.4,0.034-0.75,0-1.05c-0.033-0.3-0.1-0.567-0.2-0.8c-0.067-0.233-0.217-0.4-0.45-0.5
	c-0.2-0.133-0.5-0.2-0.9-0.2c-0.367,0-0.667,0.066-0.9,0.2C34.95,9.75,34.8,9.917,34.7,10.15z M28.9,9.6h-1v4.5h1v-2.6
	c0.033-0.233,0.083-0.4,0.15-0.5c0.1-0.133,0.233-0.217,0.4-0.25c0.133-0.033,0.3-0.033,0.5,0V9.5c-0.066,0-0.15,0.017-0.25,0.05
	c-0.1,0-0.233,0.067-0.4,0.2C29.233,9.817,29.167,9.9,29.1,10c-0.066,0.1-0.133,0.233-0.2,0.4V9.6z M27.1,12.6
	c-0.033-0.1-0.083-0.2-0.15-0.3c-0.066-0.133-0.167-0.25-0.3-0.35c-0.1-0.1-0.184-0.167-0.25-0.2l-0.85-0.6
	c-0.133-0.066-0.233-0.133-0.3-0.2c-0.067-0.067-0.1-0.167-0.1-0.3s0.033-0.233,0.1-0.3c0.1-0.067,0.216-0.1,0.35-0.1
	c0.167,0,0.284,0.067,0.35,0.2c0.1,0.1,0.133,0.267,0.1,0.5h1.05c0-0.467-0.117-0.833-0.35-1.1c-0.233-0.267-0.6-0.4-1.1-0.4
	s-0.883,0.1-1.15,0.3c-0.267,0.2-0.4,0.467-0.4,0.8c0,0.333,0.083,0.617,0.25,0.85c0.133,0.233,0.333,0.434,0.6,0.6l0.55,0.4
	c0.1,0.033,0.183,0.067,0.25,0.1c0.066,0.067,0.133,0.133,0.2,0.2c0.033,0.066,0.067,0.133,0.1,0.2c0.033,0.167,0,0.3-0.1,0.4
	c-0.066,0.067-0.183,0.1-0.35,0.1c-0.066,0.033-0.15,0.033-0.25,0c-0.066-0.033-0.133-0.1-0.2-0.2c-0.033-0.133-0.05-0.333-0.05-0.6
	h-1c-0.033,0.333,0,0.617,0.1,0.85c0.067,0.2,0.184,0.367,0.35,0.5c0.167,0.1,0.333,0.167,0.5,0.2c0.2,0.067,0.367,0.083,0.5,0.05
	c0.467,0,0.817-0.067,1.05-0.2c0.233-0.167,0.383-0.367,0.45-0.6C27.117,13.133,27.133,12.867,27.1,12.6z M42.65,9.45
	c-0.267,0-0.483,0.05-0.65,0.15c-0.167,0.1-0.3,0.25-0.4,0.45c-0.033-0.133-0.1-0.25-0.2-0.35c-0.1-0.067-0.217-0.133-0.35-0.2
	c-0.167-0.033-0.317-0.05-0.45-0.05c-0.1,0-0.216,0.017-0.35,0.05c-0.1,0.033-0.217,0.1-0.35,0.2c-0.1,0.066-0.184,0.183-0.25,0.35
	H39.6V9.6h-1v4.5h1v-2.95c0-0.167,0.017-0.316,0.05-0.45c0-0.133,0.05-0.233,0.15-0.3c0.067-0.1,0.183-0.15,0.35-0.15
	c0.133,0,0.25,0.033,0.35,0.1c0.066,0.066,0.1,0.167,0.1,0.3c0.034,0.1,0.05,0.217,0.05,0.35v3.1h1.05v-2.95
	c-0.033-0.267,0-0.483,0.1-0.65c0.067-0.133,0.2-0.217,0.4-0.25c0.167,0,0.283,0.033,0.35,0.1c0.067,0.1,0.117,0.2,0.15,0.3
	c0,0.133,0,0.267,0,0.4v3.05h1.05v-3.65c0-0.167-0.05-0.333-0.15-0.5c-0.066-0.133-0.183-0.25-0.35-0.35
	C43.083,9.5,42.883,9.45,42.65,9.45z M12.5,9.25c0.033,0.133,0.066,0.267,0.1,0.4c0,0.1,0,0.2,0,0.3h1.1c0-0.067,0-0.133,0-0.2
	c0-0.1,0-0.183,0-0.25c-0.033-0.5-0.2-0.883-0.5-1.15c-0.267-0.267-0.65-0.4-1.15-0.4c-0.433,0-0.783,0.066-1.05,0.2
	c-0.267,0.133-0.467,0.317-0.6,0.55c-0.1,0.233-0.184,0.517-0.25,0.85c-0.033,0.333-0.05,0.684-0.05,1.05v0.9
	c0,0.4,0.017,0.767,0.05,1.1c0.033,0.333,0.117,0.617,0.25,0.85c0.1,0.267,0.283,0.466,0.55,0.6s0.633,0.2,1.1,0.2
	c0.4,0,0.733-0.083,1-0.25c0.233-0.167,0.4-0.4,0.5-0.7c0.1-0.3,0.15-0.633,0.15-1c0.033-0.033,0.05-0.083,0.05-0.15
	c0-0.066,0-0.133,0-0.2H12.6c0,0.1,0,0.233,0,0.4c0,0.133-0.017,0.283-0.05,0.45c-0.033,0.167-0.083,0.3-0.15,0.4
	c-0.067,0.1-0.184,0.15-0.35,0.15c-0.2,0-0.35-0.05-0.45-0.15c-0.1-0.067-0.183-0.167-0.25-0.3c-0.033-0.167-0.066-0.316-0.1-0.45
	c0-0.133,0-0.267,0-0.4v-1.7c0-0.1,0-0.233,0-0.4c0-0.167,0.017-0.333,0.05-0.5c0.067-0.167,0.15-0.3,0.25-0.4
	c0.1-0.133,0.267-0.2,0.5-0.2c0.133,0,0.233,0.05,0.3,0.15C12.417,9.067,12.466,9.15,12.5,9.25z M14.7,8.1v6h1.05v-6H14.7z
	 M16.65,12.85c0,0.467,0.1,0.816,0.3,1.05c0.167,0.233,0.467,0.333,0.9,0.3c0.1,0,0.184,0,0.25,0c0.1-0.034,0.184-0.083,0.25-0.15
	c0.067-0.033,0.133-0.083,0.2-0.15c0.067-0.1,0.133-0.183,0.2-0.25c0,0.067,0,0.133,0,0.2c0.033,0.1,0.066,0.183,0.1,0.25h0.95
	c0-0.1-0.017-0.2-0.05-0.3c0-0.1,0-0.216,0-0.35V10.8c0-0.133-0.017-0.283-0.05-0.45c-0.033-0.167-0.1-0.317-0.2-0.45
	c-0.067-0.133-0.217-0.233-0.45-0.3c-0.2-0.1-0.467-0.15-0.8-0.15c-0.434,0-0.767,0.066-1,0.2c-0.233,0.133-0.383,0.3-0.45,0.5
	c-0.1,0.233-0.15,0.483-0.15,0.75h1c0-0.2,0.033-0.35,0.1-0.45c0.066-0.133,0.216-0.2,0.45-0.2c0.133,0,0.25,0.017,0.35,0.05
	c0.067,0.034,0.117,0.1,0.15,0.2c0.033,0.167,0.017,0.317-0.05,0.45c-0.1,0.1-0.25,0.2-0.45,0.3c-0.3,0.1-0.566,0.217-0.8,0.35
	c-0.233,0.1-0.417,0.25-0.55,0.45C16.716,12.25,16.65,12.517,16.65,12.85z M22.4,10.45c0.1,0.1,0.133,0.267,0.1,0.5h1.05
	c0-0.467-0.117-0.833-0.35-1.1s-0.6-0.4-1.1-0.4s-0.883,0.1-1.15,0.3s-0.4,0.467-0.4,0.8c0,0.333,0.083,0.617,0.25,0.85
	c0.133,0.233,0.333,0.434,0.6,0.6l0.55,0.4c0.1,0.033,0.184,0.067,0.25,0.1c0.067,0.067,0.133,0.133,0.2,0.2
	c0.033,0.066,0.066,0.133,0.1,0.2c0.033,0.167,0,0.3-0.1,0.4c-0.067,0.067-0.184,0.1-0.35,0.1c-0.067,0.033-0.15,0.033-0.25,0
	c-0.067-0.033-0.133-0.1-0.2-0.2c-0.033-0.133-0.05-0.333-0.05-0.6h-1c-0.033,0.333,0,0.617,0.1,0.85
	c0.066,0.2,0.183,0.367,0.35,0.5c0.167,0.1,0.333,0.167,0.5,0.2c0.2,0.067,0.367,0.083,0.5,0.05c0.466,0,0.816-0.067,1.05-0.2
	c0.233-0.167,0.383-0.367,0.45-0.6c0.066-0.267,0.083-0.533,0.05-0.8c-0.033-0.1-0.083-0.2-0.15-0.3
	c-0.067-0.133-0.167-0.25-0.3-0.35c-0.1-0.1-0.183-0.167-0.25-0.2L22,11.15c-0.133-0.066-0.233-0.133-0.3-0.2
	c-0.066-0.067-0.1-0.167-0.1-0.3s0.034-0.233,0.1-0.3c0.1-0.067,0.217-0.1,0.35-0.1C22.216,10.25,22.333,10.317,22.4,10.45z
	 M18.7,11.75v0.45c0,0.133,0,0.267,0,0.4s-0.017,0.267-0.05,0.4c-0.033,0.1-0.083,0.2-0.15,0.3c-0.067,0.067-0.184,0.1-0.35,0.1
	c-0.167,0-0.283-0.05-0.35-0.15c-0.1-0.1-0.133-0.233-0.1-0.4c-0.033-0.1-0.033-0.2,0-0.3c0.033-0.1,0.083-0.183,0.15-0.25
	c0.133-0.1,0.284-0.2,0.45-0.3C18.433,11.9,18.566,11.817,18.7,11.75z M22.45,21.55c-0.167,0.1-0.3,0.267-0.4,0.5
	c-0.067,0.233-0.1,0.567-0.1,1v1.6c0,0.267,0.017,0.5,0.05,0.7c0.066,0.233,0.183,0.433,0.35,0.6c0.133,0.133,0.35,0.2,0.65,0.2
	c0.233,0,0.417-0.033,0.55-0.1c0.167-0.1,0.3-0.25,0.4-0.45v0.5c0.033,0.133,0.033,0.25,0,0.35c-0.033,0.1-0.083,0.183-0.15,0.25
	c-0.1,0.066-0.217,0.1-0.35,0.1c-0.066,0-0.133,0-0.2,0c-0.034,0-0.067-0.017-0.1-0.05c-0.033,0-0.067-0.017-0.1-0.05
	C23.017,26.633,23,26.583,23,26.55h-1.05c0.033,0.267,0.117,0.467,0.25,0.6c0.1,0.167,0.25,0.283,0.45,0.35
	c0.2,0.033,0.417,0.05,0.65,0.05c0.467,0,0.817-0.066,1.05-0.2c0.233-0.167,0.4-0.367,0.5-0.6c0.067-0.233,0.1-0.517,0.1-0.85v-4.35
	h-1V22H23.9c-0.067-0.2-0.167-0.35-0.3-0.45c-0.167-0.1-0.367-0.15-0.6-0.15C22.767,21.4,22.583,21.45,22.45,21.55z M23,22.65
	c0-0.133,0.033-0.233,0.1-0.3c0.067-0.1,0.184-0.15,0.35-0.15c0.167,0.033,0.283,0.1,0.35,0.2s0.1,0.233,0.1,0.4
	c0.033,0.167,0.05,0.3,0.05,0.4v1.35c0,0.267-0.05,0.467-0.15,0.6s-0.233,0.2-0.4,0.2c-0.133,0-0.233-0.067-0.3-0.2
	c-0.066-0.133-0.117-0.316-0.15-0.55v-1.5C22.983,22.933,23,22.783,23,22.65z M25.95,23.1v1.15c-0.033,0.667,0.083,1.15,0.35,1.45
	c0.267,0.333,0.7,0.483,1.3,0.45c0.534,0,0.9-0.133,1.1-0.4c0.233-0.3,0.35-0.717,0.35-1.25H28c0,0.3-0.034,0.517-0.1,0.65
	c-0.067,0.133-0.2,0.2-0.4,0.2c-0.1,0-0.184-0.017-0.25-0.05c-0.1-0.033-0.167-0.1-0.2-0.2c-0.067-0.1-0.1-0.25-0.1-0.45V24h2.1
	v-0.6c0-0.3-0.017-0.583-0.05-0.85c-0.034-0.233-0.1-0.433-0.2-0.6c-0.1-0.167-0.267-0.3-0.5-0.4c-0.2-0.1-0.483-0.15-0.85-0.15
	c-0.533,0-0.917,0.15-1.15,0.45C26.033,22.15,25.917,22.567,25.95,23.1z M27,22.65c0-0.133,0.033-0.233,0.1-0.3
	c0.067-0.1,0.184-0.15,0.35-0.15c0.2,0,0.35,0.05,0.45,0.15c0.066,0.1,0.1,0.25,0.1,0.45v0.4h-1.05v-0.15
	C26.95,22.883,26.966,22.75,27,22.65z M17.25,21.55v2.9c0,0.133,0,0.267,0,0.4S17.2,25.1,17.1,25.2c-0.066,0.1-0.167,0.15-0.3,0.15
	c-0.067,0-0.133,0-0.2,0c-0.066-0.033-0.117-0.067-0.15-0.1c-0.033-0.1-0.066-0.2-0.1-0.3c0-0.1,0-0.2,0-0.3v-3.1H15.3V25
	c0,0.233,0.033,0.45,0.1,0.65c0.066,0.167,0.167,0.3,0.3,0.4c0.133,0.067,0.333,0.1,0.6,0.1s0.483-0.066,0.65-0.2
	c0.133-0.1,0.25-0.284,0.35-0.55v0.65h1v-4.5H17.25z M20.35,21.55h-1v4.5h1v-2.6c0.034-0.233,0.083-0.4,0.15-0.5
	c0.1-0.133,0.233-0.217,0.4-0.25c0.133-0.034,0.3-0.034,0.5,0v-1.25c-0.067,0-0.15,0.017-0.25,0.05c-0.1,0-0.233,0.067-0.4,0.2
	c-0.067,0.066-0.133,0.15-0.2,0.25c-0.067,0.1-0.133,0.233-0.2,0.4V21.55z M13.1,21c0.133,0.033,0.233,0.1,0.3,0.2
	c0.066,0.133,0.1,0.3,0.1,0.5c0,0.267-0.034,0.466-0.1,0.6c-0.067,0.133-0.167,0.233-0.3,0.3c-0.133,0.033-0.283,0.05-0.45,0.05
	h-0.6v-1.7h0.55C12.8,20.95,12.966,20.967,13.1,21z M14.5,20.95c-0.067-0.267-0.217-0.483-0.45-0.65c-0.2-0.167-0.467-0.25-0.8-0.25
	h-2.3v6h1.1v-2.5h0.75c0.233,0,0.45-0.033,0.65-0.1c0.233-0.034,0.434-0.117,0.6-0.25c0.233-0.2,0.383-0.417,0.45-0.65
	c0.1-0.267,0.15-0.533,0.15-0.8C14.65,21.45,14.6,21.183,14.5,20.95z M42.5,21.55c-0.133-0.1-0.3-0.15-0.5-0.15
	c-0.1,0-0.2,0.017-0.3,0.05c-0.133,0.033-0.25,0.083-0.35,0.15c-0.133,0.1-0.233,0.233-0.3,0.4v-0.45H40v4.5h1.05v-2.9
	c-0.033-0.267,0-0.467,0.1-0.6c0.066-0.167,0.2-0.25,0.4-0.25c0.167,0,0.283,0.067,0.35,0.2c0.066,0.133,0.1,0.317,0.1,0.55v3h1
	v-3.5c0.033-0.267,0-0.483-0.1-0.65C42.8,21.733,42.667,21.617,42.5,21.55z M38.9,22.3c-0.033-0.167-0.1-0.316-0.2-0.45
	c-0.066-0.133-0.217-0.233-0.45-0.3c-0.2-0.1-0.467-0.15-0.8-0.15c-0.433,0-0.767,0.067-1,0.2s-0.383,0.3-0.45,0.5
	c-0.1,0.233-0.15,0.483-0.15,0.75h1c0-0.2,0.034-0.35,0.1-0.45c0.067-0.133,0.217-0.2,0.45-0.2c0.133,0,0.25,0.017,0.35,0.05
	c0.066,0.033,0.117,0.1,0.15,0.2c0.033,0.167,0.017,0.316-0.05,0.45c-0.1,0.1-0.25,0.2-0.45,0.3c-0.3,0.1-0.567,0.216-0.8,0.35
	c-0.233,0.1-0.417,0.25-0.55,0.45s-0.2,0.467-0.2,0.8c0,0.467,0.1,0.817,0.3,1.05c0.167,0.233,0.467,0.333,0.9,0.3
	c0.1,0,0.183,0,0.25,0c0.1-0.033,0.183-0.083,0.25-0.15c0.067-0.033,0.133-0.083,0.2-0.15c0.066-0.1,0.133-0.184,0.2-0.25
	c0,0.066,0,0.133,0,0.2c0.033,0.1,0.067,0.184,0.1,0.25H39c0-0.1-0.017-0.2-0.05-0.3c0-0.1,0-0.217,0-0.35v-2.65
	C38.95,22.617,38.933,22.467,38.9,22.3z M37.9,23.7v0.45c0,0.133,0,0.267,0,0.4s-0.017,0.267-0.05,0.4
	c-0.033,0.1-0.083,0.2-0.15,0.3c-0.066,0.067-0.183,0.1-0.35,0.1c-0.167,0-0.283-0.05-0.35-0.15c-0.1-0.1-0.133-0.233-0.1-0.4
	c-0.033-0.1-0.033-0.2,0-0.3s0.083-0.183,0.15-0.25c0.133-0.1,0.283-0.2,0.45-0.3C37.633,23.85,37.767,23.767,37.9,23.7z
	 M35.25,20.05H32.1v6h1.1v-2.7h1.95v-0.9H33.2v-1.5h2.05V20.05z M0.05,34V0.05h54V34H0.05z"/>
<path fill-rule="evenodd" clip-rule="evenodd" d="M35.25,20.05v0.9H33.2v1.5h1.95v0.9H33.2v2.7h-1.1v-6H35.25z M37.9,23.7
	c-0.133,0.066-0.267,0.15-0.4,0.25c-0.167,0.1-0.317,0.2-0.45,0.3c-0.067,0.067-0.117,0.15-0.15,0.25s-0.033,0.2,0,0.3
	c-0.033,0.167,0,0.3,0.1,0.4c0.066,0.1,0.183,0.15,0.35,0.15c0.167,0,0.284-0.033,0.35-0.1c0.067-0.1,0.117-0.2,0.15-0.3
	c0.034-0.133,0.05-0.267,0.05-0.4s0-0.267,0-0.4V23.7z M38.9,22.3c0.033,0.167,0.05,0.317,0.05,0.45v2.65c0,0.133,0,0.25,0,0.35
	c0.033,0.1,0.05,0.2,0.05,0.3h-0.95c-0.033-0.066-0.067-0.15-0.1-0.25c0-0.066,0-0.133,0-0.2c-0.066,0.066-0.133,0.15-0.2,0.25
	c-0.067,0.066-0.133,0.117-0.2,0.15c-0.067,0.067-0.15,0.117-0.25,0.15c-0.067,0-0.15,0-0.25,0c-0.433,0.033-0.733-0.066-0.9-0.3
	c-0.2-0.233-0.3-0.583-0.3-1.05c0-0.333,0.067-0.6,0.2-0.8s0.317-0.35,0.55-0.45c0.233-0.133,0.5-0.25,0.8-0.35
	c0.2-0.1,0.35-0.2,0.45-0.3c0.067-0.133,0.083-0.283,0.05-0.45c-0.033-0.1-0.083-0.167-0.15-0.2c-0.1-0.033-0.217-0.05-0.35-0.05
	c-0.233,0-0.383,0.066-0.45,0.2c-0.066,0.1-0.1,0.25-0.1,0.45h-1c0-0.267,0.05-0.517,0.15-0.75c0.066-0.2,0.216-0.367,0.45-0.5
	s0.567-0.2,1-0.2c0.333,0,0.6,0.05,0.8,0.15c0.233,0.067,0.383,0.167,0.45,0.3C38.8,21.983,38.867,22.133,38.9,22.3z M42.5,21.55
	c0.167,0.067,0.3,0.184,0.4,0.35c0.1,0.167,0.133,0.383,0.1,0.65v3.5h-1v-3c0-0.233-0.034-0.417-0.1-0.55
	c-0.067-0.133-0.184-0.2-0.35-0.2c-0.2,0-0.333,0.083-0.4,0.25c-0.1,0.133-0.133,0.333-0.1,0.6v2.9H40v-4.5h1.05V22
	c0.067-0.167,0.167-0.3,0.3-0.4c0.1-0.067,0.217-0.117,0.35-0.15c0.1-0.034,0.2-0.05,0.3-0.05C42.2,21.4,42.367,21.45,42.5,21.55z
	 M14.5,20.95c0.1,0.233,0.15,0.5,0.15,0.8c0,0.267-0.05,0.533-0.15,0.8c-0.067,0.233-0.217,0.45-0.45,0.65
	c-0.167,0.133-0.367,0.216-0.6,0.25c-0.2,0.066-0.417,0.1-0.65,0.1h-0.75v2.5h-1.1v-6h2.3c0.333,0,0.6,0.083,0.8,0.25
	C14.283,20.467,14.433,20.683,14.5,20.95z M13.1,21c-0.133-0.033-0.3-0.05-0.5-0.05h-0.55v1.7h0.6c0.167,0,0.316-0.017,0.45-0.05
	c0.133-0.067,0.233-0.167,0.3-0.3c0.066-0.133,0.1-0.333,0.1-0.6c0-0.2-0.034-0.367-0.1-0.5C13.333,21.1,13.233,21.033,13.1,21z
	 M20.35,21.55v0.8c0.067-0.167,0.133-0.3,0.2-0.4c0.067-0.1,0.133-0.184,0.2-0.25c0.167-0.133,0.3-0.2,0.4-0.2
	c0.1-0.033,0.183-0.05,0.25-0.05v1.25c-0.2-0.034-0.367-0.034-0.5,0c-0.167,0.033-0.3,0.117-0.4,0.25
	c-0.067,0.1-0.117,0.267-0.15,0.5v2.6h-1v-4.5H20.35z M17.25,21.55h1.05v4.5h-1V25.4c-0.1,0.267-0.217,0.45-0.35,0.55
	c-0.167,0.133-0.383,0.2-0.65,0.2s-0.467-0.033-0.6-0.1c-0.133-0.1-0.233-0.233-0.3-0.4c-0.067-0.2-0.1-0.417-0.1-0.65v-3.45h1.05
	v3.1c0,0.1,0,0.2,0,0.3c0.034,0.1,0.067,0.2,0.1,0.3c0.033,0.033,0.083,0.067,0.15,0.1c0.067,0,0.133,0,0.2,0
	c0.133,0,0.233-0.05,0.3-0.15c0.1-0.1,0.15-0.217,0.15-0.35s0-0.267,0-0.4V21.55z M27,22.65c-0.034,0.1-0.05,0.233-0.05,0.4v0.15H28
	v-0.4c0-0.2-0.034-0.35-0.1-0.45c-0.1-0.1-0.25-0.15-0.45-0.15c-0.167,0-0.283,0.05-0.35,0.15C27.033,22.417,27,22.517,27,22.65z
	 M25.95,23.1c-0.033-0.533,0.083-0.95,0.35-1.25c0.233-0.3,0.617-0.45,1.15-0.45c0.367,0,0.65,0.05,0.85,0.15
	c0.233,0.1,0.4,0.233,0.5,0.4c0.1,0.167,0.167,0.367,0.2,0.6c0.033,0.267,0.05,0.55,0.05,0.85V24h-2.1v0.65
	c0,0.2,0.033,0.35,0.1,0.45c0.033,0.1,0.1,0.167,0.2,0.2c0.066,0.034,0.15,0.05,0.25,0.05c0.2,0,0.333-0.067,0.4-0.2
	c0.066-0.133,0.1-0.35,0.1-0.65h1.05c0,0.533-0.117,0.95-0.35,1.25c-0.2,0.267-0.566,0.4-1.1,0.4c-0.6,0.033-1.033-0.117-1.3-0.45
	c-0.267-0.3-0.383-0.784-0.35-1.45V23.1z M23,22.65c0,0.133-0.017,0.283-0.05,0.45v1.5c0.033,0.233,0.083,0.417,0.15,0.55
	c0.067,0.133,0.167,0.2,0.3,0.2c0.167,0,0.3-0.067,0.4-0.2s0.15-0.333,0.15-0.6V23.2c0-0.1-0.017-0.233-0.05-0.4
	c0-0.167-0.033-0.3-0.1-0.4s-0.183-0.167-0.35-0.2c-0.167,0-0.283,0.05-0.35,0.15C23.033,22.417,23,22.517,23,22.65z M22.45,21.55
	c0.133-0.1,0.317-0.15,0.55-0.15c0.233,0,0.433,0.05,0.6,0.15c0.133,0.1,0.233,0.25,0.3,0.45h0.05v-0.45h1v4.35
	c0,0.333-0.033,0.617-0.1,0.85c-0.1,0.233-0.267,0.433-0.5,0.6c-0.233,0.133-0.583,0.2-1.05,0.2c-0.233,0-0.45-0.017-0.65-0.05
	c-0.2-0.067-0.35-0.183-0.45-0.35c-0.133-0.133-0.217-0.333-0.25-0.6H23c0,0.034,0.017,0.083,0.05,0.15
	c0.033,0.033,0.067,0.05,0.1,0.05c0.033,0.033,0.066,0.05,0.1,0.05c0.066,0,0.133,0,0.2,0c0.133,0,0.25-0.033,0.35-0.1
	c0.067-0.067,0.117-0.15,0.15-0.25c0.033-0.1,0.033-0.217,0-0.35v-0.5c-0.1,0.2-0.233,0.35-0.4,0.45
	c-0.133,0.067-0.317,0.1-0.55,0.1c-0.3,0-0.517-0.066-0.65-0.2c-0.167-0.167-0.283-0.367-0.35-0.6c-0.034-0.2-0.05-0.434-0.05-0.7
	v-1.6c0-0.433,0.033-0.767,0.1-1C22.15,21.817,22.283,21.65,22.45,21.55z M18.7,11.75c-0.133,0.067-0.267,0.15-0.4,0.25
	c-0.167,0.1-0.317,0.2-0.45,0.3c-0.066,0.067-0.117,0.15-0.15,0.25c-0.033,0.1-0.033,0.2,0,0.3c-0.033,0.167,0,0.3,0.1,0.4
	c0.067,0.1,0.183,0.15,0.35,0.15c0.167,0,0.283-0.033,0.35-0.1c0.066-0.1,0.117-0.2,0.15-0.3c0.033-0.133,0.05-0.267,0.05-0.4
	s0-0.267,0-0.4V11.75z M22.4,10.45c-0.067-0.133-0.184-0.2-0.35-0.2c-0.133,0-0.25,0.033-0.35,0.1c-0.066,0.066-0.1,0.167-0.1,0.3
	s0.034,0.233,0.1,0.3c0.067,0.066,0.167,0.133,0.3,0.2l0.85,0.6c0.067,0.033,0.15,0.1,0.25,0.2c0.133,0.1,0.233,0.216,0.3,0.35
	c0.066,0.1,0.117,0.2,0.15,0.3c0.033,0.267,0.017,0.533-0.05,0.8c-0.067,0.233-0.217,0.434-0.45,0.6
	c-0.233,0.133-0.583,0.2-1.05,0.2c-0.133,0.033-0.3,0.017-0.5-0.05c-0.167-0.033-0.333-0.1-0.5-0.2c-0.167-0.133-0.284-0.3-0.35-0.5
	c-0.1-0.233-0.133-0.517-0.1-0.85h1c0,0.267,0.017,0.467,0.05,0.6c0.067,0.1,0.133,0.167,0.2,0.2c0.1,0.033,0.183,0.033,0.25,0
	c0.167,0,0.283-0.033,0.35-0.1c0.1-0.1,0.133-0.233,0.1-0.4c-0.034-0.066-0.067-0.133-0.1-0.2c-0.067-0.067-0.133-0.133-0.2-0.2
	c-0.066-0.033-0.15-0.067-0.25-0.1L21.4,12c-0.267-0.167-0.467-0.367-0.6-0.6c-0.167-0.233-0.25-0.517-0.25-0.85
	c0-0.333,0.133-0.6,0.4-0.8s0.65-0.3,1.15-0.3s0.867,0.133,1.1,0.4s0.35,0.633,0.35,1.1H22.5C22.533,10.717,22.5,10.55,22.4,10.45z
	 M16.65,12.85c0-0.333,0.066-0.6,0.2-0.8c0.133-0.2,0.317-0.35,0.55-0.45c0.233-0.133,0.5-0.25,0.8-0.35c0.2-0.1,0.35-0.2,0.45-0.3
	c0.066-0.133,0.083-0.284,0.05-0.45c-0.033-0.1-0.083-0.167-0.15-0.2c-0.1-0.033-0.217-0.05-0.35-0.05
	c-0.233,0-0.383,0.067-0.45,0.2c-0.067,0.1-0.1,0.25-0.1,0.45h-1c0-0.267,0.05-0.517,0.15-0.75c0.067-0.2,0.217-0.367,0.45-0.5
	c0.233-0.133,0.566-0.2,1-0.2c0.333,0,0.6,0.05,0.8,0.15c0.233,0.066,0.383,0.167,0.45,0.3c0.1,0.133,0.167,0.283,0.2,0.45
	c0.033,0.167,0.05,0.316,0.05,0.45v2.65c0,0.133,0,0.25,0,0.35c0.033,0.1,0.05,0.2,0.05,0.3h-0.95c-0.033-0.067-0.066-0.15-0.1-0.25
	c0-0.067,0-0.133,0-0.2c-0.067,0.067-0.133,0.15-0.2,0.25c-0.067,0.067-0.133,0.117-0.2,0.15c-0.066,0.067-0.15,0.117-0.25,0.15
	c-0.066,0-0.15,0-0.25,0c-0.433,0.033-0.733-0.067-0.9-0.3C16.75,13.667,16.65,13.317,16.65,12.85z M14.7,8.1h1.05v6H14.7V8.1z
	 M12.5,9.25c-0.034-0.1-0.083-0.183-0.15-0.25c-0.066-0.1-0.167-0.15-0.3-0.15c-0.233,0-0.4,0.066-0.5,0.2
	c-0.1,0.1-0.183,0.233-0.25,0.4c-0.033,0.167-0.05,0.333-0.05,0.5c0,0.167,0,0.3,0,0.4v1.7c0,0.133,0,0.267,0,0.4
	c0.033,0.133,0.066,0.283,0.1,0.45c0.067,0.133,0.15,0.233,0.25,0.3c0.1,0.1,0.25,0.15,0.45,0.15c0.167,0,0.283-0.05,0.35-0.15
	c0.066-0.1,0.117-0.233,0.15-0.4c0.033-0.167,0.05-0.316,0.05-0.45c0-0.167,0-0.3,0-0.4h1.15c0,0.066,0,0.133,0,0.2
	c0,0.067-0.017,0.117-0.05,0.15c0,0.367-0.05,0.7-0.15,1c-0.1,0.3-0.267,0.534-0.5,0.7c-0.267,0.167-0.6,0.25-1,0.25
	c-0.467,0-0.833-0.067-1.1-0.2s-0.45-0.333-0.55-0.6c-0.133-0.233-0.217-0.517-0.25-0.85c-0.033-0.333-0.05-0.7-0.05-1.1v-0.9
	c0-0.367,0.017-0.717,0.05-1.05c0.066-0.333,0.15-0.617,0.25-0.85c0.133-0.233,0.333-0.417,0.6-0.55c0.267-0.133,0.617-0.2,1.05-0.2
	c0.5,0,0.883,0.133,1.15,0.4C13.5,8.617,13.667,9,13.7,9.5c0,0.067,0,0.15,0,0.25c0,0.067,0,0.133,0,0.2h-1.1c0-0.1,0-0.2,0-0.3
	C12.566,9.517,12.533,9.383,12.5,9.25z M42.65,9.45c0.233,0,0.433,0.05,0.6,0.15c0.167,0.1,0.283,0.217,0.35,0.35
	c0.1,0.167,0.15,0.333,0.15,0.5v3.65H42.7v-3.05c0-0.133,0-0.267,0-0.4c-0.033-0.1-0.083-0.2-0.15-0.3
	c-0.067-0.067-0.183-0.1-0.35-0.1c-0.2,0.033-0.333,0.117-0.4,0.25c-0.1,0.167-0.133,0.383-0.1,0.65v2.95h-1.05V11
	c0-0.133-0.017-0.25-0.05-0.35c0-0.133-0.033-0.233-0.1-0.3c-0.1-0.067-0.217-0.1-0.35-0.1c-0.167,0-0.283,0.05-0.35,0.15
	c-0.1,0.067-0.15,0.167-0.15,0.3c-0.033,0.133-0.05,0.283-0.05,0.45v2.95h-1V9.6h1v0.45h0.05c0.066-0.167,0.15-0.283,0.25-0.35
	c0.133-0.1,0.25-0.167,0.35-0.2c0.133-0.033,0.25-0.05,0.35-0.05c0.133,0,0.284,0.017,0.45,0.05c0.133,0.067,0.25,0.133,0.35,0.2
	c0.1,0.1,0.167,0.216,0.2,0.35c0.1-0.2,0.233-0.35,0.4-0.45C42.167,9.5,42.383,9.45,42.65,9.45z M27.1,12.6
	c0.034,0.267,0.017,0.533-0.05,0.8c-0.067,0.233-0.217,0.434-0.45,0.6c-0.233,0.133-0.583,0.2-1.05,0.2
	c-0.133,0.033-0.3,0.017-0.5-0.05c-0.167-0.033-0.333-0.1-0.5-0.2c-0.167-0.133-0.283-0.3-0.35-0.5c-0.1-0.233-0.133-0.517-0.1-0.85
	h1c0,0.267,0.017,0.467,0.05,0.6c0.066,0.1,0.133,0.167,0.2,0.2c0.1,0.033,0.184,0.033,0.25,0c0.167,0,0.284-0.033,0.35-0.1
	c0.1-0.1,0.133-0.233,0.1-0.4c-0.033-0.066-0.067-0.133-0.1-0.2c-0.066-0.067-0.133-0.133-0.2-0.2c-0.067-0.033-0.15-0.067-0.25-0.1
	L24.95,12c-0.267-0.167-0.467-0.367-0.6-0.6c-0.167-0.233-0.25-0.517-0.25-0.85c0-0.333,0.133-0.6,0.4-0.8
	c0.267-0.2,0.65-0.3,1.15-0.3s0.867,0.133,1.1,0.4c0.233,0.267,0.35,0.633,0.35,1.1h-1.05c0.033-0.233,0-0.4-0.1-0.5
	c-0.066-0.133-0.183-0.2-0.35-0.2c-0.133,0-0.25,0.033-0.35,0.1c-0.067,0.066-0.1,0.167-0.1,0.3s0.033,0.233,0.1,0.3
	c0.066,0.066,0.167,0.133,0.3,0.2l0.85,0.6c0.066,0.033,0.15,0.1,0.25,0.2c0.133,0.1,0.233,0.216,0.3,0.35
	C27.017,12.4,27.066,12.5,27.1,12.6z M28.9,9.6v0.8c0.066-0.167,0.133-0.3,0.2-0.4c0.067-0.1,0.133-0.183,0.2-0.25
	c0.167-0.133,0.3-0.2,0.4-0.2c0.1-0.033,0.184-0.05,0.25-0.05v1.25c-0.2-0.033-0.367-0.033-0.5,0c-0.167,0.033-0.3,0.117-0.4,0.25
	c-0.067,0.1-0.117,0.267-0.15,0.5v2.6h-1V9.6H28.9z M34.7,10.15c0.1-0.233,0.25-0.4,0.45-0.5c0.233-0.133,0.533-0.2,0.9-0.2
	c0.4,0,0.7,0.066,0.9,0.2c0.233,0.1,0.383,0.267,0.45,0.5c0.1,0.233,0.167,0.5,0.2,0.8c0.034,0.3,0.034,0.65,0,1.05
	c0.034,0.533,0,0.967-0.1,1.3c-0.067,0.333-0.217,0.567-0.45,0.7c-0.2,0.167-0.533,0.233-1,0.2c-0.433,0.033-0.767-0.034-1-0.2
	c-0.233-0.133-0.383-0.367-0.45-0.7c-0.1-0.333-0.133-0.767-0.1-1.3c-0.034-0.4-0.034-0.75,0-1.05
	C34.533,10.65,34.6,10.383,34.7,10.15z M36.55,10.7c0-0.133-0.033-0.233-0.1-0.3c-0.1-0.1-0.233-0.15-0.4-0.15
	s-0.283,0.05-0.35,0.15c-0.1,0.067-0.15,0.167-0.15,0.3c-0.033,0.133-0.05,0.267-0.05,0.4v1.55c0,0.167,0.017,0.317,0.05,0.45
	c0.033,0.1,0.083,0.183,0.15,0.25c0.067,0.033,0.184,0.05,0.35,0.05s0.283-0.017,0.35-0.05c0.1-0.067,0.15-0.15,0.15-0.25
	c0.033-0.133,0.05-0.283,0.05-0.45V11.1C36.6,10.967,36.583,10.833,36.55,10.7z M32.55,10.7c0-0.133-0.033-0.233-0.1-0.3
	c-0.1-0.1-0.233-0.15-0.4-0.15s-0.283,0.05-0.35,0.15c-0.1,0.067-0.15,0.167-0.15,0.3c-0.033,0.133-0.05,0.267-0.05,0.4v1.55
	c0,0.167,0.017,0.317,0.05,0.45c0.033,0.1,0.083,0.183,0.15,0.25c0.067,0.033,0.184,0.05,0.35,0.05s0.283-0.017,0.35-0.05
	c0.1-0.067,0.15-0.15,0.15-0.25c0.033-0.133,0.05-0.283,0.05-0.45V11.1C32.6,10.967,32.583,10.833,32.55,10.7z M32.95,9.65
	c0.233,0.1,0.383,0.267,0.45,0.5c0.1,0.233,0.167,0.5,0.2,0.8c0.034,0.3,0.034,0.65,0,1.05c0.034,0.533,0,0.967-0.1,1.3
	c-0.067,0.333-0.217,0.567-0.45,0.7c-0.2,0.167-0.533,0.233-1,0.2c-0.433,0.033-0.767-0.034-1-0.2
	c-0.233-0.133-0.383-0.367-0.45-0.7c-0.1-0.333-0.133-0.767-0.1-1.3c-0.034-0.4-0.034-0.75,0-1.05c0.033-0.3,0.1-0.567,0.2-0.8
	s0.25-0.4,0.45-0.5c0.233-0.133,0.533-0.2,0.9-0.2C32.45,9.45,32.75,9.517,32.95,9.65z"/>
<rect x="0.05" y="0.05" fill-rule="evenodd" clip-rule="evenodd" fill="none" stroke="#000000" stroke-width="0.1" stroke-linecap="round" stroke-linejoin="round" stroke-miterlimit="3" width="54" height="33.95"/>
</svg>
