<?xml version="1.0" encoding="utf-8"?>
<!-- Generator: Adobe Illustrator 15.0.2, SVG Export Plug-In . SVG Version: 6.00 Build 0)  -->
<!DOCTYPE svg PUBLIC "-//W3C//DTD SVG 1.1//EN" "http://www.w3.org/Graphics/SVG/1.1/DTD/svg11.dtd">
<svg version="1.1" id="Layer_1" xmlns="http://www.w3.org/2000/svg" xmlns:xlink="http://www.w3.org/1999/xlink" x="0px" y="0px"
	 width="13.524px" height="13.524px" viewBox="0 0 13.524 13.524" enable-background="new 0 0 13.524 13.524" xml:space="preserve">
<path fill-rule="evenodd" clip-rule="evenodd" fill="#FF3300" d="M11.375,1.925c1.4,1.25,2.1,2.85,2.1,4.8
	c0.005,1.83-0.62,3.38-1.875,4.65c-1.415,1.4-3.04,2.1-4.875,2.1c-1.95,0-3.55-0.7-4.8-2.1c-1.255-1.27-1.88-2.82-1.875-4.65
	c-0.005-1.95,0.62-3.55,1.875-4.8c1.25-1.255,2.85-1.88,4.8-1.875C8.555,0.045,10.104,0.67,11.375,1.925z"/>
<path fill-rule="evenodd" clip-rule="evenodd" fill="none" stroke="#000000" stroke-width="0.1" stroke-linecap="round" stroke-linejoin="round" stroke-miterlimit="3" d="
	M11.375,1.925c-1.27-1.255-2.82-1.88-4.65-1.875c-1.95-0.005-3.55,0.62-4.8,1.875c-1.255,1.25-1.88,2.85-1.875,4.8
	c-0.005,1.83,0.62,3.38,1.875,4.65c1.25,1.4,2.85,2.1,4.8,2.1c1.835,0,3.46-0.7,4.875-2.1c1.255-1.27,1.88-2.82,1.875-4.65
	C13.475,4.775,12.774,3.175,11.375,1.925z"/>
</svg>
