<?xml version="1.0" encoding="utf-8"?>
<!-- Generator: Adobe Illustrator 15.0.2, SVG Export Plug-In . SVG Version: 6.00 Build 0)  -->
<!DOCTYPE svg PUBLIC "-//W3C//DTD SVG 1.1//EN" "http://www.w3.org/Graphics/SVG/1.1/DTD/svg11.dtd">
<svg version="1.1" id="Layer_1" xmlns="http://www.w3.org/2000/svg" xmlns:xlink="http://www.w3.org/1999/xlink" x="0px" y="0px"
	 width="54.1px" height="34.05px" viewBox="0 0 54.1 34.05" enable-background="new 0 0 54.1 34.05" xml:space="preserve">
<path fill-rule="evenodd" clip-rule="evenodd" fill="#FFFF00" d="M32.55,10.1c0-0.3-0.067-0.55-0.2-0.75
	c-0.133-0.167-0.3-0.3-0.5-0.4c-0.233-0.067-0.5-0.1-0.8-0.1H29.2v5.25h1v-2.25h0.15c0.167,0,0.317,0,0.45,0s0.267,0.017,0.4,0.05
	c0.1,0.033,0.184,0.1,0.25,0.2c0.033,0.1,0.05,0.217,0.05,0.35c0.033,0.1,0.05,0.2,0.05,0.3c0,0.133,0,0.283,0,0.45
	c0,0.167,0,0.333,0,0.5c0.033,0.167,0.067,0.3,0.1,0.4h1.05V14c-0.033-0.033-0.066-0.1-0.1-0.2c-0.033-0.1-0.05-0.233-0.05-0.4
	c-0.033-0.133-0.05-0.267-0.05-0.4c0-0.167,0-0.3,0-0.4c0-0.133,0-0.217,0-0.25c0-0.267-0.05-0.483-0.15-0.65
	c-0.1-0.167-0.3-0.267-0.6-0.3c0.233-0.066,0.4-0.15,0.5-0.25c0.133-0.133,0.216-0.3,0.25-0.5C32.533,10.483,32.55,10.3,32.55,10.1z
	 M33.55,10.1c-0.033,0.3-0.05,0.617-0.05,0.95v0.75c-0.034,0.367-0.034,0.684,0,0.95c0.033,0.3,0.117,0.567,0.25,0.8
	c0.1,0.2,0.267,0.367,0.5,0.5c0.233,0.1,0.55,0.167,0.95,0.2c0.4-0.033,0.717-0.1,0.95-0.2c0.233-0.133,0.4-0.3,0.5-0.5
	c0.1-0.233,0.167-0.5,0.2-0.8c0.034-0.267,0.05-0.583,0.05-0.95v-0.75c0-0.333-0.017-0.65-0.05-0.95
	c-0.033-0.267-0.117-0.5-0.25-0.7c-0.1-0.233-0.267-0.4-0.5-0.5c-0.233-0.1-0.533-0.167-0.9-0.2c-0.4,0.033-0.717,0.1-0.95,0.2
	c-0.2,0.1-0.367,0.267-0.5,0.5C33.65,9.6,33.583,9.833,33.55,10.1z M34.55,10c0.033-0.133,0.1-0.25,0.2-0.35
	C34.85,9.55,35,9.5,35.2,9.5c0.167,0,0.3,0.05,0.4,0.15c0.1,0.1,0.167,0.233,0.2,0.4c0.067,0.133,0.1,0.284,0.1,0.45
	c0,0.133,0,0.25,0,0.35v1.35c0,0.133,0,0.267,0,0.4c-0.033,0.167-0.067,0.3-0.1,0.4c-0.033,0.133-0.1,0.233-0.2,0.3
	c-0.1,0.1-0.233,0.15-0.4,0.15c-0.167,0-0.3-0.05-0.4-0.15c-0.1-0.066-0.167-0.15-0.2-0.25c-0.066-0.133-0.1-0.267-0.1-0.4
	s0-0.25,0-0.35v-1.45c0-0.1,0-0.233,0-0.4C34.5,10.317,34.517,10.167,34.55,10z M30.9,9.6c0.133,0,0.25,0.017,0.35,0.05
	c0.1,0.033,0.167,0.1,0.2,0.2c0.067,0.1,0.1,0.25,0.1,0.45c0,0.267-0.067,0.467-0.2,0.6c-0.1,0.1-0.233,0.15-0.4,0.15H30.2V9.6H30.9
	z M45.1,8.85l-0.55,2.45c-0.033,0.167-0.067,0.333-0.1,0.5c0,0.2-0.017,0.434-0.05,0.7c-0.033-0.2-0.067-0.4-0.1-0.6
	c-0.033-0.2-0.067-0.4-0.1-0.6l-0.5-2.45h-1.6v5.25h1v-1.65c0-0.534,0-1.05,0-1.55c-0.033-0.533-0.066-1.066-0.1-1.6h0.05l1.05,4.8
	h0.55l1.05-4.8h0.05c-0.034,0.534-0.067,1.067-0.1,1.6c0,0.5,0,1.017,0,1.55v1.65h1V8.85H45.1z M38.85,10
	c0.034-0.133,0.1-0.25,0.2-0.35S39.3,9.5,39.5,9.5c0.167,0,0.3,0.05,0.4,0.15s0.167,0.233,0.2,0.4c0.067,0.133,0.1,0.284,0.1,0.45
	c0,0.133,0,0.25,0,0.35v1.35c0,0.133,0,0.267,0,0.4c-0.033,0.167-0.066,0.3-0.1,0.4c-0.033,0.133-0.1,0.233-0.2,0.3
	c-0.1,0.1-0.233,0.15-0.4,0.15c-0.167,0-0.3-0.05-0.4-0.15c-0.1-0.066-0.167-0.15-0.2-0.25c-0.067-0.133-0.1-0.267-0.1-0.4
	s0-0.25,0-0.35v-1.45c0-0.1,0-0.233,0-0.4C38.8,10.317,38.816,10.167,38.85,10z M38.55,8.9c-0.2,0.1-0.367,0.267-0.5,0.5
	c-0.1,0.2-0.167,0.434-0.2,0.7c-0.033,0.3-0.05,0.617-0.05,0.95v0.75c-0.033,0.367-0.033,0.684,0,0.95
	c0.033,0.3,0.117,0.567,0.25,0.8c0.1,0.2,0.267,0.367,0.5,0.5c0.233,0.1,0.55,0.167,0.95,0.2c0.4-0.033,0.716-0.1,0.95-0.2
	c0.233-0.133,0.4-0.3,0.5-0.5c0.1-0.233,0.167-0.5,0.2-0.8c0.033-0.267,0.05-0.583,0.05-0.95v-0.75c0-0.333-0.017-0.65-0.05-0.95
	c-0.033-0.267-0.117-0.5-0.25-0.7c-0.1-0.233-0.267-0.4-0.5-0.5s-0.533-0.167-0.9-0.2C39.1,8.733,38.783,8.8,38.55,8.9z M14.8,8.85
	h-3.3V9.6h1.15v4.5h1V9.6h1.15V8.85z M16.4,10c0.033-0.133,0.1-0.25,0.2-0.35c0.1-0.1,0.25-0.15,0.45-0.15
	c0.167,0,0.3,0.05,0.4,0.15s0.167,0.233,0.2,0.4c0.066,0.133,0.1,0.284,0.1,0.45c0,0.133,0,0.25,0,0.35v1.35c0,0.133,0,0.267,0,0.4
	c-0.034,0.167-0.067,0.3-0.1,0.4c-0.033,0.133-0.1,0.233-0.2,0.3c-0.1,0.1-0.233,0.15-0.4,0.15s-0.3-0.05-0.4-0.15
	c-0.1-0.066-0.167-0.15-0.2-0.25c-0.066-0.133-0.1-0.267-0.1-0.4s0-0.25,0-0.35v-1.45c0-0.1,0-0.233,0-0.4
	C16.35,10.317,16.367,10.167,16.4,10z M15.4,10.1c-0.033,0.3-0.05,0.617-0.05,0.95v0.75c-0.033,0.367-0.033,0.684,0,0.95
	c0.034,0.3,0.117,0.567,0.25,0.8c0.1,0.2,0.267,0.367,0.5,0.5c0.233,0.1,0.55,0.167,0.95,0.2c0.4-0.033,0.717-0.1,0.95-0.2
	c0.233-0.133,0.4-0.3,0.5-0.5c0.1-0.233,0.167-0.5,0.2-0.8c0.033-0.267,0.05-0.583,0.05-0.95v-0.75c0-0.333-0.017-0.65-0.05-0.95
	c-0.033-0.267-0.117-0.5-0.25-0.7c-0.1-0.233-0.267-0.4-0.5-0.5s-0.533-0.167-0.9-0.2c-0.4,0.033-0.717,0.1-0.95,0.2
	c-0.2,0.1-0.367,0.267-0.5,0.5C15.5,9.6,15.433,9.833,15.4,10.1z M8.95,10.35c-0.066-0.1-0.1-0.217-0.1-0.35
	C8.85,9.833,8.9,9.7,9,9.6c0.1-0.067,0.233-0.1,0.4-0.1c0.167,0,0.3,0.05,0.4,0.15C9.867,9.75,9.917,9.867,9.95,10
	S10,10.283,10,10.45h0.9c0-0.133,0-0.3,0-0.5c-0.033-0.2-0.083-0.383-0.15-0.55c-0.1-0.2-0.25-0.367-0.45-0.5
	c-0.233-0.1-0.533-0.167-0.9-0.2C8.867,8.733,8.483,8.867,8.25,9.1c-0.267,0.233-0.4,0.566-0.4,1c0,0.133,0.017,0.283,0.05,0.45
	c0.066,0.133,0.133,0.25,0.2,0.35c0.133,0.167,0.284,0.317,0.45,0.45c0.2,0.133,0.383,0.267,0.55,0.4
	c0.2,0.133,0.383,0.267,0.55,0.4c0.133,0.067,0.233,0.167,0.3,0.3c0.067,0.1,0.1,0.216,0.1,0.35c0,0.2-0.05,0.367-0.15,0.5
	c-0.1,0.1-0.25,0.15-0.45,0.15c-0.233,0-0.4-0.083-0.5-0.25c-0.1-0.167-0.15-0.383-0.15-0.65v-0.3H7.85v0.4
	c0,0.3,0.05,0.567,0.15,0.8c0.1,0.233,0.267,0.417,0.5,0.55c0.233,0.133,0.55,0.217,0.95,0.25c0.3,0,0.583-0.067,0.85-0.2
	c0.233-0.1,0.417-0.267,0.55-0.5c0.133-0.233,0.2-0.517,0.2-0.85c0-0.2-0.033-0.4-0.1-0.6c-0.066-0.167-0.183-0.333-0.35-0.5
	c-0.1-0.067-0.216-0.167-0.35-0.3c-0.133-0.1-0.284-0.2-0.45-0.3c-0.133-0.1-0.267-0.183-0.4-0.25c-0.1-0.067-0.184-0.133-0.25-0.2
	C9.05,10.483,8.983,10.417,8.95,10.35z M23,10.1c0-0.3-0.067-0.55-0.2-0.75c-0.133-0.167-0.3-0.3-0.5-0.4
	c-0.233-0.067-0.5-0.1-0.8-0.1h-1.85v5.25h1v-2.25h0.15c0.167,0,0.317,0,0.45,0s0.267,0.017,0.4,0.05c0.1,0.033,0.183,0.1,0.25,0.2
	c0.033,0.1,0.05,0.217,0.05,0.35c0.033,0.1,0.05,0.2,0.05,0.3c0,0.133,0,0.283,0,0.45c0,0.167,0,0.333,0,0.5
	c0.033,0.167,0.066,0.3,0.1,0.4h1.05V14c-0.033-0.033-0.067-0.1-0.1-0.2C23.017,13.7,23,13.567,23,13.4
	c-0.034-0.133-0.05-0.267-0.05-0.4c0-0.167,0-0.3,0-0.4c0-0.133,0-0.217,0-0.25c0-0.267-0.05-0.483-0.15-0.65
	c-0.1-0.167-0.3-0.267-0.6-0.3c0.233-0.066,0.4-0.15,0.5-0.25c0.133-0.133,0.217-0.3,0.25-0.5C22.983,10.483,23,10.3,23,10.1z
	 M23.95,8.85v5.25h2.75v-0.75h-1.75V11.7h1.6v-0.75h-1.6V9.6h1.75V8.85H23.95z M21.9,9.85c0.066,0.1,0.1,0.25,0.1,0.45
	c0,0.267-0.067,0.467-0.2,0.6c-0.1,0.1-0.233,0.15-0.4,0.15h-0.75V9.6h0.7c0.133,0,0.25,0.017,0.35,0.05S21.867,9.75,21.9,9.85z
	 M25,19.4c-0.4,0.033-0.7,0.1-0.9,0.2c-0.233,0.1-0.417,0.267-0.55,0.5c-0.1,0.2-0.167,0.433-0.2,0.7
	c-0.033,0.3-0.05,0.617-0.05,0.95v0.75c0,0.367,0.017,0.683,0.05,0.95c0.034,0.3,0.1,0.566,0.2,0.8c0.1,0.2,0.267,0.367,0.5,0.5
	c0.233,0.1,0.55,0.167,0.95,0.2c0.2-0.034,0.383-0.1,0.55-0.2c0.133-0.1,0.25-0.283,0.35-0.55h0.05v0.6h0.7V22h-1.6v0.75h0.65
	c0.033,0.267,0.017,0.5-0.05,0.7c-0.033,0.2-0.1,0.367-0.2,0.5s-0.25,0.2-0.45,0.2c-0.167,0-0.3-0.05-0.4-0.15
	c-0.1-0.067-0.167-0.15-0.2-0.25c-0.033-0.133-0.067-0.267-0.1-0.4c0-0.133,0-0.25,0-0.35v-1.45c0-0.1,0-0.233,0-0.4
	c0-0.133,0.017-0.283,0.05-0.45c0.034-0.133,0.1-0.25,0.2-0.35S24.8,20.2,25,20.2c0.233,0.033,0.4,0.083,0.5,0.15
	c0.1,0.1,0.15,0.217,0.15,0.35c0.033,0.133,0.05,0.3,0.05,0.5h1c0-0.1,0-0.2,0-0.3c0-0.133-0.017-0.25-0.05-0.35
	c-0.067-0.3-0.184-0.533-0.35-0.7c-0.133-0.167-0.317-0.283-0.55-0.35C25.517,19.433,25.267,19.4,25,19.4z M22.4,20.8
	c0-0.3-0.067-0.55-0.2-0.75c-0.133-0.167-0.3-0.3-0.5-0.4c-0.233-0.066-0.5-0.1-0.8-0.1h-1.85v5.25h1v-2.25h0.15
	c0.167,0,0.317,0,0.45,0s0.267,0.017,0.4,0.05c0.1,0.033,0.183,0.1,0.25,0.2c0.033,0.1,0.05,0.217,0.05,0.35
	c0.034,0.1,0.05,0.2,0.05,0.3c0,0.133,0,0.283,0,0.45c0,0.167,0,0.333,0,0.5c0.033,0.167,0.066,0.3,0.1,0.4h1.05v-0.1
	c-0.033-0.034-0.067-0.1-0.1-0.2s-0.05-0.233-0.05-0.4c-0.033-0.133-0.05-0.267-0.05-0.4c0-0.167,0-0.3,0-0.4
	c0-0.133,0-0.216,0-0.25c0-0.267-0.05-0.483-0.15-0.65c-0.1-0.167-0.3-0.267-0.6-0.3c0.233-0.067,0.4-0.15,0.5-0.25
	c0.133-0.133,0.217-0.3,0.25-0.5C22.383,21.183,22.4,21,22.4,20.8z M17.15,19.55v3.6c0,0.167-0.017,0.317-0.05,0.45
	c-0.033,0.167-0.1,0.3-0.2,0.4s-0.25,0.15-0.45,0.15c-0.2,0-0.35-0.05-0.45-0.15c-0.1-0.1-0.167-0.233-0.2-0.4
	c-0.033-0.133-0.05-0.283-0.05-0.45v-3.6H14.8v3.65c-0.033,0.4,0,0.716,0.1,0.95c0.1,0.267,0.283,0.467,0.55,0.6
	c0.233,0.133,0.567,0.2,1,0.2c0.434,0,0.767-0.067,1-0.2s0.4-0.333,0.5-0.6c0.1-0.233,0.15-0.55,0.15-0.95v-3.65H17.15z M21.1,20.35
	c0.1,0.033,0.167,0.1,0.2,0.2c0.067,0.1,0.1,0.25,0.1,0.45c0,0.267-0.067,0.467-0.2,0.6c-0.1,0.1-0.233,0.15-0.4,0.15h-0.75V20.3
	h0.7C20.883,20.3,21,20.317,21.1,20.35z M12.9,19.55h-2v5.25h0.95v-2.2h0.65c0.2,0,0.4-0.017,0.6-0.05
	c0.2-0.066,0.367-0.15,0.5-0.25c0.2-0.167,0.333-0.367,0.4-0.6c0.066-0.2,0.1-0.417,0.1-0.65c0-0.267-0.033-0.5-0.1-0.7
	c-0.067-0.233-0.2-0.434-0.4-0.6C13.433,19.617,13.2,19.55,12.9,19.55z M13,21.5c-0.067,0.133-0.15,0.217-0.25,0.25
	c-0.1,0.067-0.217,0.1-0.35,0.1h-0.55V20.3h0.45c0.2,0,0.35,0.017,0.45,0.05c0.133,0.033,0.216,0.1,0.25,0.2
	c0.066,0.1,0.1,0.25,0.1,0.45C13.1,21.233,13.066,21.4,13,21.5z M42.65,20.6c0,0.233,0.017,0.467,0.05,0.7c0,0.267,0,0.517,0,0.75
	c0.033,0.267,0.05,0.517,0.05,0.75c0.033,0.267,0.05,0.517,0.05,0.75c-0.1-0.433-0.217-0.816-0.35-1.15
	c-0.1-0.333-0.217-0.65-0.35-0.95l-0.75-1.9h-1v5.25h0.95v-1c0-0.2,0-0.433,0-0.7c0-0.233-0.017-0.483-0.05-0.75
	c0-0.267-0.017-0.533-0.05-0.8c0-0.233-0.017-0.466-0.05-0.7c0.133,0.4,0.25,0.767,0.35,1.1c0.1,0.333,0.216,0.667,0.35,1l0.8,1.85
	h1v-5.25h-1V20.6z M37.25,19.55L36,24.8h1.05l0.25-1.35h1.15l0.3,1.35h1.05l-1.2-5.25H37.25z M38.05,21.2l0.25,1.5h-0.85l0.3-1.5
	c0.033-0.1,0.066-0.217,0.1-0.35c0-0.133,0-0.25,0-0.35c0-0.067,0.017-0.133,0.05-0.2c0-0.066,0-0.117,0-0.15
	c0.033,0.033,0.05,0.083,0.05,0.15c0,0.067,0,0.133,0,0.2c0,0.1,0.017,0.217,0.05,0.35C38,20.983,38.017,21.1,38.05,21.2z
	 M35.65,22.4v-0.75h-1.7V20.3h1.8v-0.75h-2.8v5.25h1v-2.4H35.65z M28.65,20.3h1.75v-0.75h-2.75v5.25h2.75v-0.75h-1.75V22.4h1.6
	v-0.75h-1.6V20.3z M0.05,0.05h54V34h-54V0.05z"/>
<path fill-rule="evenodd" clip-rule="evenodd" d="M28.65,20.3v1.35h1.6v0.75h-1.6v1.65h1.75v0.75h-2.75v-5.25h2.75v0.75H28.65z
	 M35.65,22.4h-1.7v2.4h-1v-5.25h2.8v0.75h-1.8v1.35h1.7V22.4z M38.05,21.2C38.017,21.1,38,20.983,38,20.85
	c-0.034-0.133-0.05-0.25-0.05-0.35c0-0.067,0-0.133,0-0.2c0-0.066-0.017-0.117-0.05-0.15c0,0.033,0,0.083,0,0.15
	c-0.033,0.067-0.05,0.133-0.05,0.2c0,0.1,0,0.217,0,0.35c-0.033,0.133-0.066,0.25-0.1,0.35l-0.3,1.5h0.85L38.05,21.2z M37.25,19.55
	h1.35l1.2,5.25h-1.05l-0.3-1.35H37.3l-0.25,1.35H36L37.25,19.55z M42.65,20.6v-1.05h1v5.25h-1l-0.8-1.85
	c-0.133-0.333-0.25-0.667-0.35-1c-0.1-0.333-0.217-0.7-0.35-1.1c0.033,0.233,0.05,0.467,0.05,0.7c0.033,0.267,0.05,0.534,0.05,0.8
	c0.033,0.267,0.05,0.517,0.05,0.75c0,0.267,0,0.5,0,0.7v1h-0.95v-5.25h1l0.75,1.9c0.133,0.3,0.25,0.617,0.35,0.95
	c0.133,0.333,0.25,0.717,0.35,1.15c0-0.233-0.017-0.483-0.05-0.75c0-0.233-0.017-0.483-0.05-0.75c0-0.233,0-0.483,0-0.75
	C42.667,21.067,42.65,20.833,42.65,20.6z M13,21.5c0.066-0.1,0.1-0.267,0.1-0.5c0-0.2-0.033-0.35-0.1-0.45
	c-0.034-0.1-0.117-0.167-0.25-0.2c-0.1-0.033-0.25-0.05-0.45-0.05h-0.45v1.55h0.55c0.133,0,0.25-0.033,0.35-0.1
	C12.85,21.717,12.933,21.633,13,21.5z M12.9,19.55c0.3,0,0.533,0.067,0.7,0.2c0.2,0.167,0.333,0.367,0.4,0.6
	c0.066,0.2,0.1,0.433,0.1,0.7c0,0.233-0.033,0.45-0.1,0.65c-0.067,0.233-0.2,0.433-0.4,0.6c-0.133,0.1-0.3,0.184-0.5,0.25
	c-0.2,0.034-0.4,0.05-0.6,0.05h-0.65v2.2H10.9v-5.25H12.9z M21.1,20.35c-0.1-0.033-0.216-0.05-0.35-0.05h-0.7v1.45h0.75
	c0.167,0,0.3-0.05,0.4-0.15c0.133-0.133,0.2-0.333,0.2-0.6c0-0.2-0.033-0.35-0.1-0.45C21.267,20.45,21.2,20.383,21.1,20.35z
	 M17.15,19.55h0.95v3.65c0,0.4-0.05,0.716-0.15,0.95c-0.1,0.267-0.267,0.467-0.5,0.6s-0.566,0.2-1,0.2c-0.433,0-0.767-0.067-1-0.2
	c-0.267-0.133-0.45-0.333-0.55-0.6c-0.1-0.233-0.133-0.55-0.1-0.95v-3.65h0.95v3.6c0,0.167,0.017,0.317,0.05,0.45
	c0.033,0.167,0.1,0.3,0.2,0.4c0.1,0.1,0.25,0.15,0.45,0.15c0.2,0,0.35-0.05,0.45-0.15s0.167-0.233,0.2-0.4
	c0.034-0.133,0.05-0.283,0.05-0.45V19.55z M22.4,20.8c0,0.2-0.017,0.383-0.05,0.55c-0.033,0.2-0.117,0.367-0.25,0.5
	c-0.1,0.1-0.267,0.183-0.5,0.25c0.3,0.033,0.5,0.133,0.6,0.3c0.1,0.167,0.15,0.383,0.15,0.65c0,0.034,0,0.117,0,0.25
	c0,0.1,0,0.233,0,0.4c0,0.133,0.017,0.267,0.05,0.4c0,0.167,0.017,0.3,0.05,0.4s0.067,0.167,0.1,0.2v0.1H21.5
	c-0.034-0.1-0.067-0.233-0.1-0.4c0-0.167,0-0.333,0-0.5c0-0.167,0-0.316,0-0.45c0-0.1-0.017-0.2-0.05-0.3
	c0-0.133-0.017-0.25-0.05-0.35c-0.067-0.1-0.15-0.167-0.25-0.2c-0.133-0.033-0.267-0.05-0.4-0.05s-0.283,0-0.45,0h-0.15v2.25h-1
	v-5.25h1.85c0.3,0,0.566,0.034,0.8,0.1c0.2,0.1,0.367,0.233,0.5,0.4C22.333,20.25,22.4,20.5,22.4,20.8z M25,19.4
	c0.267,0,0.517,0.033,0.75,0.1c0.233,0.067,0.417,0.183,0.55,0.35c0.167,0.167,0.283,0.4,0.35,0.7c0.033,0.1,0.05,0.217,0.05,0.35
	c0,0.1,0,0.2,0,0.3h-1c0-0.2-0.017-0.367-0.05-0.5c0-0.133-0.05-0.25-0.15-0.35c-0.1-0.067-0.267-0.117-0.5-0.15
	c-0.2,0-0.35,0.05-0.45,0.15s-0.167,0.217-0.2,0.35c-0.033,0.167-0.05,0.316-0.05,0.45c0,0.167,0,0.3,0,0.4V23c0,0.1,0,0.217,0,0.35
	c0.033,0.133,0.067,0.267,0.1,0.4c0.033,0.1,0.1,0.183,0.2,0.25c0.1,0.1,0.233,0.15,0.4,0.15c0.2,0,0.35-0.066,0.45-0.2
	s0.167-0.3,0.2-0.5c0.066-0.2,0.083-0.434,0.05-0.7h-0.65V22h1.6v2.8h-0.7v-0.6H25.9c-0.1,0.267-0.217,0.45-0.35,0.55
	c-0.167,0.1-0.35,0.167-0.55,0.2c-0.4-0.034-0.717-0.1-0.95-0.2c-0.233-0.133-0.4-0.3-0.5-0.5c-0.1-0.233-0.167-0.5-0.2-0.8
	c-0.033-0.267-0.05-0.583-0.05-0.95v-0.75c0-0.333,0.017-0.65,0.05-0.95c0.034-0.267,0.1-0.5,0.2-0.7
	c0.133-0.233,0.317-0.4,0.55-0.5C24.3,19.5,24.6,19.433,25,19.4z M21.9,9.85c-0.033-0.1-0.1-0.167-0.2-0.2S21.483,9.6,21.35,9.6
	h-0.7v1.45h0.75c0.167,0,0.3-0.05,0.4-0.15c0.133-0.133,0.2-0.333,0.2-0.6C22,10.1,21.966,9.95,21.9,9.85z M23.95,8.85h2.75V9.6
	h-1.75v1.35h1.6v0.75h-1.6v1.65h1.75v0.75h-2.75V8.85z M23,10.1c0,0.2-0.017,0.383-0.05,0.55c-0.033,0.2-0.117,0.367-0.25,0.5
	c-0.1,0.1-0.267,0.184-0.5,0.25c0.3,0.033,0.5,0.133,0.6,0.3c0.1,0.167,0.15,0.383,0.15,0.65c0,0.033,0,0.117,0,0.25
	c0,0.1,0,0.233,0,0.4c0,0.133,0.017,0.267,0.05,0.4c0,0.167,0.017,0.3,0.05,0.4c0.033,0.1,0.067,0.167,0.1,0.2v0.1H22.1
	c-0.033-0.1-0.066-0.233-0.1-0.4c0-0.167,0-0.333,0-0.5c0-0.167,0-0.317,0-0.45c0-0.1-0.017-0.2-0.05-0.3
	c0-0.133-0.017-0.25-0.05-0.35c-0.067-0.1-0.15-0.167-0.25-0.2c-0.133-0.033-0.267-0.05-0.4-0.05s-0.284,0-0.45,0h-0.15v2.25h-1
	V8.85h1.85c0.3,0,0.566,0.033,0.8,0.1c0.2,0.1,0.367,0.233,0.5,0.4C22.933,9.55,23,9.8,23,10.1z M8.95,10.35
	c0.033,0.066,0.1,0.133,0.2,0.2c0.066,0.067,0.15,0.133,0.25,0.2C9.533,10.817,9.667,10.9,9.8,11c0.167,0.1,0.317,0.2,0.45,0.3
	c0.133,0.133,0.25,0.233,0.35,0.3c0.167,0.167,0.284,0.333,0.35,0.5c0.067,0.2,0.1,0.4,0.1,0.6c0,0.333-0.067,0.617-0.2,0.85
	c-0.133,0.233-0.316,0.4-0.55,0.5c-0.267,0.133-0.55,0.2-0.85,0.2C9.05,14.217,8.733,14.133,8.5,14c-0.233-0.133-0.4-0.317-0.5-0.55
	c-0.1-0.233-0.15-0.5-0.15-0.8v-0.4H8.8v0.3c0,0.267,0.05,0.483,0.15,0.65c0.1,0.167,0.267,0.25,0.5,0.25c0.2,0,0.35-0.05,0.45-0.15
	c0.1-0.133,0.15-0.3,0.15-0.5c0-0.133-0.033-0.25-0.1-0.35c-0.066-0.133-0.167-0.233-0.3-0.3c-0.167-0.133-0.35-0.267-0.55-0.4
	c-0.167-0.133-0.35-0.267-0.55-0.4c-0.167-0.133-0.317-0.283-0.45-0.45c-0.066-0.1-0.133-0.217-0.2-0.35
	c-0.033-0.167-0.05-0.316-0.05-0.45c0-0.434,0.133-0.767,0.4-1C8.483,8.867,8.867,8.733,9.4,8.7c0.367,0.033,0.667,0.1,0.9,0.2
	c0.2,0.133,0.35,0.3,0.45,0.5c0.066,0.167,0.117,0.35,0.15,0.55c0,0.2,0,0.367,0,0.5H10c0-0.167-0.017-0.317-0.05-0.45
	S9.867,9.75,9.8,9.65C9.7,9.55,9.566,9.5,9.4,9.5C9.233,9.5,9.1,9.533,9,9.6C8.9,9.7,8.85,9.833,8.85,10
	C8.85,10.133,8.883,10.25,8.95,10.35z M15.4,10.1c0.033-0.267,0.1-0.5,0.2-0.7c0.133-0.233,0.3-0.4,0.5-0.5
	c0.233-0.1,0.55-0.167,0.95-0.2c0.367,0.033,0.667,0.1,0.9,0.2s0.4,0.267,0.5,0.5c0.133,0.2,0.217,0.434,0.25,0.7
	c0.033,0.3,0.05,0.617,0.05,0.95v0.75c0,0.367-0.017,0.684-0.05,0.95c-0.033,0.3-0.1,0.567-0.2,0.8c-0.1,0.2-0.267,0.367-0.5,0.5
	c-0.233,0.1-0.55,0.167-0.95,0.2c-0.4-0.033-0.717-0.1-0.95-0.2c-0.233-0.133-0.4-0.3-0.5-0.5c-0.133-0.233-0.216-0.5-0.25-0.8
	c-0.033-0.267-0.033-0.583,0-0.95v-0.75C15.35,10.717,15.367,10.4,15.4,10.1z M16.4,10c-0.033,0.167-0.05,0.317-0.05,0.45
	c0,0.167,0,0.3,0,0.4v1.45c0,0.1,0,0.217,0,0.35s0.034,0.267,0.1,0.4c0.033,0.1,0.1,0.184,0.2,0.25c0.1,0.1,0.233,0.15,0.4,0.15
	s0.3-0.05,0.4-0.15c0.1-0.066,0.167-0.167,0.2-0.3c0.033-0.1,0.066-0.233,0.1-0.4c0-0.133,0-0.267,0-0.4v-1.35c0-0.1,0-0.217,0-0.35
	c0-0.167-0.034-0.317-0.1-0.45c-0.033-0.167-0.1-0.3-0.2-0.4s-0.233-0.15-0.4-0.15c-0.2,0-0.35,0.05-0.45,0.15
	C16.5,9.75,16.433,9.867,16.4,10z M14.8,8.85V9.6h-1.15v4.5h-1V9.6H11.5V8.85H14.8z M38.55,8.9c0.233-0.1,0.55-0.167,0.95-0.2
	c0.367,0.033,0.667,0.1,0.9,0.2s0.4,0.267,0.5,0.5c0.133,0.2,0.217,0.434,0.25,0.7c0.033,0.3,0.05,0.617,0.05,0.95v0.75
	c0,0.367-0.017,0.684-0.05,0.95c-0.033,0.3-0.1,0.567-0.2,0.8c-0.1,0.2-0.267,0.367-0.5,0.5c-0.233,0.1-0.55,0.167-0.95,0.2
	c-0.4-0.033-0.717-0.1-0.95-0.2c-0.233-0.133-0.4-0.3-0.5-0.5c-0.133-0.233-0.217-0.5-0.25-0.8c-0.033-0.267-0.033-0.583,0-0.95
	v-0.75c0-0.333,0.017-0.65,0.05-0.95c0.034-0.267,0.1-0.5,0.2-0.7C38.183,9.167,38.35,9,38.55,8.9z M38.85,10
	c-0.033,0.167-0.05,0.317-0.05,0.45c0,0.167,0,0.3,0,0.4v1.45c0,0.1,0,0.217,0,0.35s0.033,0.267,0.1,0.4
	c0.033,0.1,0.1,0.184,0.2,0.25c0.1,0.1,0.233,0.15,0.4,0.15c0.167,0,0.3-0.05,0.4-0.15c0.1-0.066,0.167-0.167,0.2-0.3
	c0.034-0.1,0.067-0.233,0.1-0.4c0-0.133,0-0.267,0-0.4v-1.35c0-0.1,0-0.217,0-0.35c0-0.167-0.033-0.317-0.1-0.45
	c-0.033-0.167-0.1-0.3-0.2-0.4S39.667,9.5,39.5,9.5c-0.2,0-0.35,0.05-0.45,0.15S38.883,9.867,38.85,10z M45.1,8.85h1.55v5.25h-1
	v-1.65c0-0.534,0-1.05,0-1.55c0.033-0.533,0.066-1.066,0.1-1.6H45.7l-1.05,4.8H44.1l-1.05-4.8H43c0.033,0.534,0.066,1.067,0.1,1.6
	c0,0.5,0,1.017,0,1.55v1.65h-1V8.85h1.6l0.5,2.45c0.033,0.2,0.067,0.4,0.1,0.6c0.033,0.2,0.067,0.4,0.1,0.6
	c0.033-0.267,0.05-0.5,0.05-0.7c0.033-0.167,0.067-0.333,0.1-0.5L45.1,8.85z M30.9,9.6h-0.7v1.45h0.75c0.167,0,0.3-0.05,0.4-0.15
	c0.133-0.133,0.2-0.333,0.2-0.6c0-0.2-0.033-0.35-0.1-0.45c-0.033-0.1-0.1-0.167-0.2-0.2C31.15,9.617,31.033,9.6,30.9,9.6z
	 M34.55,10c-0.033,0.167-0.05,0.317-0.05,0.45c0,0.167,0,0.3,0,0.4v1.45c0,0.1,0,0.217,0,0.35s0.033,0.267,0.1,0.4
	c0.034,0.1,0.1,0.184,0.2,0.25c0.1,0.1,0.233,0.15,0.4,0.15c0.167,0,0.3-0.05,0.4-0.15c0.1-0.066,0.167-0.167,0.2-0.3
	c0.033-0.1,0.067-0.233,0.1-0.4c0-0.133,0-0.267,0-0.4v-1.35c0-0.1,0-0.217,0-0.35c0-0.167-0.033-0.317-0.1-0.45
	c-0.033-0.167-0.1-0.3-0.2-0.4c-0.1-0.1-0.233-0.15-0.4-0.15c-0.2,0-0.35,0.05-0.45,0.15C34.65,9.75,34.583,9.867,34.55,10z
	 M33.55,10.1c0.033-0.267,0.1-0.5,0.2-0.7c0.133-0.233,0.3-0.4,0.5-0.5c0.233-0.1,0.55-0.167,0.95-0.2
	c0.367,0.033,0.667,0.1,0.9,0.2c0.233,0.1,0.4,0.267,0.5,0.5c0.133,0.2,0.217,0.434,0.25,0.7c0.034,0.3,0.05,0.617,0.05,0.95v0.75
	c0,0.367-0.017,0.684-0.05,0.95c-0.033,0.3-0.1,0.567-0.2,0.8c-0.1,0.2-0.267,0.367-0.5,0.5c-0.233,0.1-0.55,0.167-0.95,0.2
	c-0.4-0.033-0.717-0.1-0.95-0.2c-0.233-0.133-0.4-0.3-0.5-0.5c-0.133-0.233-0.217-0.5-0.25-0.8c-0.034-0.267-0.034-0.583,0-0.95
	v-0.75C33.5,10.717,33.517,10.4,33.55,10.1z M32.55,10.1c0,0.2-0.017,0.383-0.05,0.55c-0.034,0.2-0.117,0.367-0.25,0.5
	c-0.1,0.1-0.267,0.184-0.5,0.25c0.3,0.033,0.5,0.133,0.6,0.3c0.1,0.167,0.15,0.383,0.15,0.65c0,0.033,0,0.117,0,0.25
	c0,0.1,0,0.233,0,0.4c0,0.133,0.017,0.267,0.05,0.4c0,0.167,0.017,0.3,0.05,0.4c0.034,0.1,0.067,0.167,0.1,0.2v0.1h-1.05
	c-0.033-0.1-0.067-0.233-0.1-0.4c0-0.167,0-0.333,0-0.5c0-0.167,0-0.317,0-0.45c0-0.1-0.017-0.2-0.05-0.3
	c0-0.133-0.017-0.25-0.05-0.35c-0.066-0.1-0.15-0.167-0.25-0.2c-0.133-0.033-0.267-0.05-0.4-0.05s-0.283,0-0.45,0H30.2v2.25h-1V8.85
	h1.85c0.3,0,0.567,0.033,0.8,0.1c0.2,0.1,0.367,0.233,0.5,0.4C32.483,9.55,32.55,9.8,32.55,10.1z"/>
<rect x="0.05" y="0.05" fill-rule="evenodd" clip-rule="evenodd" fill="none" stroke="#000000" stroke-width="0.1" stroke-linecap="round" stroke-linejoin="round" stroke-miterlimit="3" width="54" height="33.95"/>
</svg>
