<?xml version="1.0" encoding="utf-8"?>
<!-- Generator: Adobe Illustrator 15.0.2, SVG Export Plug-In . SVG Version: 6.00 Build 0)  -->
<!DOCTYPE svg PUBLIC "-//W3C//DTD SVG 1.1//EN" "http://www.w3.org/Graphics/SVG/1.1/DTD/svg11.dtd">
<svg version="1.1" id="Layer_1" xmlns="http://www.w3.org/2000/svg" xmlns:xlink="http://www.w3.org/1999/xlink" x="0px" y="0px"
	 width="54.1px" height="34.05px" viewBox="0 0 54.1 34.05" enable-background="new 0 0 54.1 34.05" xml:space="preserve">
<path fill-rule="evenodd" clip-rule="evenodd" fill="#FFFF00" d="M36.1,9.6h1.15v4.5h1V9.6h1.15V8.85h-3.3V9.6z M34.5,9.9
	c0,0.233,0.017,0.467,0.05,0.7c0,0.267,0,0.517,0,0.75c0.033,0.267,0.05,0.517,0.05,0.75c0.034,0.267,0.05,0.517,0.05,0.75
	c-0.1-0.434-0.217-0.817-0.35-1.15c-0.1-0.333-0.217-0.65-0.35-0.95l-0.75-1.9h-1v5.25h0.95v-1c0-0.2,0-0.434,0-0.7
	c0-0.233-0.017-0.483-0.05-0.75c0-0.267-0.017-0.533-0.05-0.8c0-0.233-0.017-0.467-0.05-0.7c0.133,0.4,0.25,0.767,0.35,1.1
	c0.1,0.333,0.217,0.667,0.35,1l0.8,1.85h1V8.85h-1V9.9z M27.05,10.1c-0.033-0.467-0.183-0.817-0.45-1.05
	c-0.233-0.2-0.566-0.316-1-0.35c-0.4,0.033-0.7,0.1-0.9,0.2c-0.233,0.1-0.417,0.267-0.55,0.5c-0.1,0.2-0.167,0.434-0.2,0.7
	c-0.033,0.3-0.05,0.617-0.05,0.95v0.75c0,0.367,0.017,0.684,0.05,0.95c0.033,0.3,0.1,0.567,0.2,0.8c0.1,0.2,0.267,0.367,0.5,0.5
	c0.233,0.1,0.55,0.167,0.95,0.2c0.367-0.033,0.65-0.117,0.85-0.25c0.2-0.133,0.35-0.333,0.45-0.6s0.15-0.55,0.15-0.85
	c0-0.066,0.017-0.117,0.05-0.15c0-0.066,0-0.117,0-0.15h-1c0,0.067,0,0.167,0,0.3s-0.017,0.267-0.05,0.4s-0.083,0.25-0.15,0.35
	c-0.067,0.1-0.167,0.15-0.3,0.15c-0.167,0-0.3-0.05-0.4-0.15c-0.1-0.066-0.167-0.15-0.2-0.25c-0.034-0.133-0.067-0.267-0.1-0.4
	c0-0.133,0-0.25,0-0.35v-1.45c0-0.1,0-0.233,0-0.4c0-0.133,0.017-0.284,0.05-0.45c0.033-0.133,0.1-0.25,0.2-0.35S25.4,9.5,25.6,9.5
	c0.133,0,0.233,0.033,0.3,0.1c0.033,0.066,0.066,0.15,0.1,0.25c0.033,0.1,0.05,0.217,0.05,0.35c0.033,0.1,0.05,0.2,0.05,0.3h0.95
	c0-0.067,0-0.133,0-0.2C27.05,10.233,27.05,10.167,27.05,10.1z M28.9,10c0.033-0.133,0.1-0.25,0.2-0.35c0.1-0.1,0.25-0.15,0.45-0.15
	c0.167,0,0.3,0.05,0.4,0.15s0.167,0.233,0.2,0.4c0.066,0.133,0.1,0.284,0.1,0.45c0,0.133,0,0.25,0,0.35v1.35c0,0.133,0,0.267,0,0.4
	c-0.034,0.167-0.067,0.3-0.1,0.4c-0.033,0.133-0.1,0.233-0.2,0.3c-0.1,0.1-0.233,0.15-0.4,0.15s-0.3-0.05-0.4-0.15
	c-0.1-0.066-0.167-0.15-0.2-0.25c-0.066-0.133-0.1-0.267-0.1-0.4s0-0.25,0-0.35v-1.45c0-0.1,0-0.233,0-0.4
	C28.85,10.317,28.867,10.167,28.9,10z M28.6,8.9c-0.2,0.1-0.367,0.267-0.5,0.5c-0.1,0.2-0.167,0.434-0.2,0.7
	c-0.033,0.3-0.05,0.617-0.05,0.95v0.75c-0.033,0.367-0.033,0.684,0,0.95c0.034,0.3,0.117,0.567,0.25,0.8
	c0.1,0.2,0.267,0.367,0.5,0.5c0.233,0.1,0.55,0.167,0.95,0.2c0.4-0.033,0.717-0.1,0.95-0.2c0.233-0.133,0.4-0.3,0.5-0.5
	c0.1-0.233,0.167-0.5,0.2-0.8c0.033-0.267,0.05-0.583,0.05-0.95v-0.75c0-0.333-0.017-0.65-0.05-0.95
	c-0.033-0.267-0.117-0.5-0.25-0.7c-0.1-0.233-0.267-0.4-0.5-0.5s-0.533-0.167-0.9-0.2C29.15,8.733,28.833,8.8,28.6,8.9z M43.3,10.1
	c0-0.3-0.067-0.55-0.2-0.75c-0.133-0.167-0.3-0.3-0.5-0.4c-0.233-0.067-0.5-0.1-0.8-0.1h-1.85v5.25h1v-2.25h0.15
	c0.167,0,0.317,0,0.45,0s0.267,0.017,0.4,0.05c0.1,0.033,0.184,0.1,0.25,0.2c0.033,0.1,0.05,0.217,0.05,0.35
	c0.033,0.1,0.05,0.2,0.05,0.3c0,0.133,0,0.283,0,0.45c0,0.167,0,0.333,0,0.5c0.033,0.167,0.067,0.3,0.1,0.4h1.05V14
	c-0.033-0.033-0.066-0.1-0.1-0.2c-0.033-0.1-0.05-0.233-0.05-0.4c-0.033-0.133-0.05-0.267-0.05-0.4c0-0.167,0-0.3,0-0.4
	c0-0.133,0-0.217,0-0.25c0-0.267-0.05-0.483-0.15-0.65c-0.1-0.167-0.3-0.267-0.6-0.3c0.233-0.066,0.4-0.15,0.5-0.25
	c0.133-0.133,0.216-0.3,0.25-0.5C43.283,10.483,43.3,10.3,43.3,10.1z M44.3,10.1c-0.033,0.3-0.05,0.617-0.05,0.95v0.75
	c-0.034,0.367-0.034,0.684,0,0.95c0.033,0.3,0.117,0.567,0.25,0.8c0.1,0.2,0.267,0.367,0.5,0.5c0.233,0.1,0.55,0.167,0.95,0.2
	c0.4-0.033,0.717-0.1,0.95-0.2c0.233-0.133,0.4-0.3,0.5-0.5c0.1-0.233,0.167-0.5,0.2-0.8c0.034-0.267,0.05-0.583,0.05-0.95v-0.75
	c0-0.333-0.017-0.65-0.05-0.95c-0.033-0.267-0.117-0.5-0.25-0.7c-0.1-0.233-0.267-0.4-0.5-0.5c-0.233-0.1-0.533-0.167-0.9-0.2
	c-0.4,0.033-0.717,0.1-0.95,0.2c-0.2,0.1-0.367,0.267-0.5,0.5C44.4,9.6,44.333,9.833,44.3,10.1z M46.55,10.05
	c0.067,0.133,0.1,0.284,0.1,0.45c0,0.133,0,0.25,0,0.35v1.35c0,0.133,0,0.267,0,0.4c-0.033,0.167-0.067,0.3-0.1,0.4
	c-0.033,0.133-0.1,0.233-0.2,0.3c-0.1,0.1-0.233,0.15-0.4,0.15c-0.167,0-0.3-0.05-0.4-0.15c-0.1-0.066-0.167-0.15-0.2-0.25
	c-0.066-0.133-0.1-0.267-0.1-0.4s0-0.25,0-0.35v-1.45c0-0.1,0-0.233,0-0.4c0-0.133,0.017-0.284,0.05-0.45
	c0.033-0.133,0.1-0.25,0.2-0.35c0.1-0.1,0.25-0.15,0.45-0.15c0.167,0,0.3,0.05,0.4,0.15C46.45,9.75,46.517,9.883,46.55,10.05z
	 M41.65,9.6c0.133,0,0.25,0.017,0.35,0.05c0.1,0.033,0.167,0.1,0.2,0.2c0.067,0.1,0.1,0.25,0.1,0.45c0,0.267-0.067,0.467-0.2,0.6
	c-0.1,0.1-0.233,0.15-0.4,0.15h-0.75V9.6H41.65z M48.6,8.85v5.25h2.75v-0.75h-1.8v-4.5H48.6z M5.35,10.1
	c0,0.133,0.017,0.283,0.05,0.45c0.066,0.133,0.133,0.25,0.2,0.35c0.133,0.167,0.284,0.317,0.45,0.45c0.2,0.133,0.383,0.267,0.55,0.4
	c0.2,0.133,0.383,0.267,0.55,0.4c0.133,0.067,0.233,0.167,0.3,0.3c0.067,0.1,0.1,0.216,0.1,0.35c0,0.2-0.05,0.367-0.15,0.5
	c-0.1,0.1-0.25,0.15-0.45,0.15c-0.233,0-0.4-0.083-0.5-0.25c-0.1-0.167-0.15-0.383-0.15-0.65v-0.3H5.35v0.4
	c0,0.3,0.05,0.567,0.15,0.8C5.6,13.683,5.767,13.867,6,14c0.233,0.133,0.55,0.217,0.95,0.25c0.3,0,0.583-0.067,0.85-0.2
	c0.233-0.1,0.417-0.267,0.55-0.5c0.133-0.233,0.2-0.517,0.2-0.85c0-0.2-0.033-0.4-0.1-0.6c-0.066-0.167-0.183-0.333-0.35-0.5
	c-0.1-0.067-0.216-0.167-0.35-0.3C7.617,11.2,7.466,11.1,7.3,11c-0.133-0.1-0.267-0.183-0.4-0.25c-0.1-0.067-0.184-0.133-0.25-0.2
	c-0.1-0.066-0.167-0.133-0.2-0.2c-0.066-0.1-0.1-0.217-0.1-0.35c0-0.167,0.05-0.3,0.15-0.4c0.1-0.067,0.233-0.1,0.4-0.1
	c0.167,0,0.3,0.05,0.4,0.15C7.367,9.75,7.417,9.867,7.45,10s0.05,0.283,0.05,0.45h0.9c0-0.133,0-0.3,0-0.5
	C8.367,9.75,8.316,9.567,8.25,9.4C8.15,9.2,8,9.033,7.8,8.9C7.566,8.8,7.267,8.733,6.9,8.7C6.367,8.733,5.983,8.867,5.75,9.1
	C5.483,9.333,5.35,9.667,5.35,10.1z M15.25,8.85v5.25H18v-0.75h-1.8v-4.5H15.25z M13.3,8.85v5.25h0.95V8.85H13.3z M12.1,9.05
	c-0.167-0.133-0.4-0.2-0.7-0.2h-2v5.25h0.95v-2.2H11c0.2,0,0.4-0.017,0.6-0.05c0.2-0.067,0.367-0.15,0.5-0.25
	c0.2-0.167,0.333-0.367,0.4-0.6c0.066-0.2,0.1-0.417,0.1-0.65c0-0.267-0.033-0.5-0.1-0.7C12.433,9.417,12.3,9.217,12.1,9.05z
	 M11.5,10.8c-0.067,0.133-0.15,0.217-0.25,0.25c-0.1,0.067-0.217,0.1-0.35,0.1h-0.55V9.6h0.45c0.2,0,0.35,0.017,0.45,0.05
	c0.133,0.033,0.216,0.1,0.25,0.2c0.066,0.1,0.1,0.25,0.1,0.45C11.6,10.533,11.566,10.7,11.5,10.8z M18.75,8.85v5.25h2.75v-0.75h-1.8
	v-4.5H18.75z M24.7,19.55v5.25h0.95v-1c0-0.2,0-0.433,0-0.7c0-0.233-0.017-0.483-0.05-0.75c0-0.267-0.017-0.533-0.05-0.8
	c0-0.233-0.017-0.466-0.05-0.7c0.133,0.4,0.25,0.767,0.35,1.1c0.1,0.333,0.217,0.667,0.35,1L27,24.8h1v-5.25h-1v1.05
	c0,0.233,0.017,0.467,0.05,0.7c0,0.267,0,0.517,0,0.75c0.033,0.267,0.05,0.517,0.05,0.75c0.034,0.267,0.05,0.517,0.05,0.75
	c-0.1-0.433-0.217-0.816-0.35-1.15c-0.1-0.333-0.217-0.65-0.35-0.95l-0.75-1.9H24.7z M23.9,20.3v-0.75h-2.75v5.25h2.75v-0.75h-1.75
	V22.4h1.6v-0.75h-1.6V20.3H23.9z M18,19.6c-0.233,0.1-0.417,0.267-0.55,0.5c-0.1,0.2-0.167,0.433-0.2,0.7
	c-0.034,0.3-0.05,0.617-0.05,0.95v0.75c0,0.367,0.017,0.683,0.05,0.95c0.033,0.3,0.1,0.566,0.2,0.8c0.1,0.2,0.267,0.367,0.5,0.5
	c0.233,0.1,0.55,0.167,0.95,0.2c0.367-0.034,0.65-0.117,0.85-0.25c0.2-0.133,0.35-0.333,0.45-0.6s0.15-0.55,0.15-0.85
	c0-0.067,0.017-0.117,0.05-0.15c0-0.067,0-0.117,0-0.15h-1c0,0.066,0,0.167,0,0.3s-0.017,0.267-0.05,0.4
	c-0.033,0.133-0.083,0.25-0.15,0.35c-0.066,0.1-0.167,0.15-0.3,0.15c-0.167,0-0.3-0.05-0.4-0.15c-0.1-0.067-0.167-0.15-0.2-0.25
	c-0.033-0.133-0.067-0.267-0.1-0.4c0-0.133,0-0.25,0-0.35v-1.45c0-0.1,0-0.233,0-0.4c0-0.133,0.017-0.283,0.05-0.45
	c0.033-0.133,0.1-0.25,0.2-0.35s0.25-0.15,0.45-0.15c0.133,0,0.233,0.033,0.3,0.1c0.033,0.067,0.067,0.15,0.1,0.25
	c0.033,0.1,0.05,0.217,0.05,0.35c0.034,0.1,0.05,0.2,0.05,0.3h0.95c0-0.067,0-0.133,0-0.2s0-0.133,0-0.2
	c-0.033-0.466-0.183-0.816-0.45-1.05c-0.233-0.2-0.567-0.317-1-0.35C18.5,19.433,18.2,19.5,18,19.6z M37.8,19.55h-1.85v5.25h1v-2.25
	h0.15c0.167,0,0.317,0,0.45,0s0.267,0.017,0.4,0.05c0.1,0.033,0.184,0.1,0.25,0.2c0.033,0.1,0.05,0.217,0.05,0.35
	c0.033,0.1,0.05,0.2,0.05,0.3c0,0.133,0,0.283,0,0.45c0,0.167,0,0.333,0,0.5c0.033,0.167,0.067,0.3,0.1,0.4h1.05v-0.1
	c-0.033-0.034-0.066-0.1-0.1-0.2c-0.033-0.1-0.05-0.233-0.05-0.4c-0.033-0.133-0.05-0.267-0.05-0.4c0-0.167,0-0.3,0-0.4
	c0-0.133,0-0.216,0-0.25c0-0.267-0.05-0.483-0.15-0.65c-0.1-0.167-0.3-0.267-0.6-0.3c0.233-0.067,0.4-0.15,0.5-0.25
	c0.133-0.133,0.216-0.3,0.25-0.5c0.033-0.167,0.05-0.35,0.05-0.55c0-0.3-0.067-0.55-0.2-0.75c-0.133-0.167-0.3-0.3-0.5-0.4
	C38.367,19.583,38.1,19.55,37.8,19.55z M38.1,21.6c-0.1,0.1-0.233,0.15-0.4,0.15h-0.75V20.3h0.7c0.133,0,0.25,0.017,0.35,0.05
	c0.1,0.033,0.167,0.1,0.2,0.2c0.067,0.1,0.1,0.25,0.1,0.45C38.3,21.267,38.233,21.467,38.1,21.6z M33.45,20.3h1.75v-0.75h-2.75v5.25
	h2.75v-0.75h-1.75V22.4h1.6v-0.75h-1.6V20.3z M31.9,20.3v-0.75h-3.3v0.75h1.15v4.5h1v-4.5H31.9z M0.05,0.05h54V34h-54V0.05z"/>
<path fill-rule="evenodd" clip-rule="evenodd" d="M31.9,20.3h-1.15v4.5h-1v-4.5H28.6v-0.75h3.3V20.3z M33.45,20.3v1.35h1.6v0.75
	h-1.6v1.65h1.75v0.75h-2.75v-5.25h2.75v0.75H33.45z M38.1,21.6c0.133-0.133,0.2-0.333,0.2-0.6c0-0.2-0.033-0.35-0.1-0.45
	c-0.033-0.1-0.1-0.167-0.2-0.2c-0.1-0.033-0.217-0.05-0.35-0.05h-0.7v1.45h0.75C37.867,21.75,38,21.7,38.1,21.6z M37.8,19.55
	c0.3,0,0.567,0.034,0.8,0.1c0.2,0.1,0.367,0.233,0.5,0.4c0.133,0.2,0.2,0.45,0.2,0.75c0,0.2-0.017,0.383-0.05,0.55
	c-0.034,0.2-0.117,0.367-0.25,0.5c-0.1,0.1-0.267,0.183-0.5,0.25c0.3,0.033,0.5,0.133,0.6,0.3c0.1,0.167,0.15,0.383,0.15,0.65
	c0,0.034,0,0.117,0,0.25c0,0.1,0,0.233,0,0.4c0,0.133,0.017,0.267,0.05,0.4c0,0.167,0.017,0.3,0.05,0.4
	c0.034,0.1,0.067,0.167,0.1,0.2v0.1H38.4c-0.033-0.1-0.067-0.233-0.1-0.4c0-0.167,0-0.333,0-0.5c0-0.167,0-0.316,0-0.45
	c0-0.1-0.017-0.2-0.05-0.3c0-0.133-0.017-0.25-0.05-0.35c-0.066-0.1-0.15-0.167-0.25-0.2c-0.133-0.033-0.267-0.05-0.4-0.05
	s-0.283,0-0.45,0h-0.15v2.25h-1v-5.25H37.8z M18,19.6c0.2-0.1,0.5-0.167,0.9-0.2c0.433,0.033,0.767,0.15,1,0.35
	c0.267,0.233,0.417,0.583,0.45,1.05c0,0.067,0,0.133,0,0.2s0,0.133,0,0.2H19.4c0-0.1-0.017-0.2-0.05-0.3
	c0-0.133-0.017-0.25-0.05-0.35c-0.033-0.1-0.067-0.183-0.1-0.25c-0.066-0.066-0.167-0.1-0.3-0.1c-0.2,0-0.35,0.05-0.45,0.15
	s-0.167,0.217-0.2,0.35c-0.034,0.167-0.05,0.316-0.05,0.45c0,0.167,0,0.3,0,0.4V23c0,0.1,0,0.217,0,0.35
	c0.033,0.133,0.067,0.267,0.1,0.4c0.033,0.1,0.1,0.183,0.2,0.25c0.1,0.1,0.233,0.15,0.4,0.15c0.133,0,0.233-0.05,0.3-0.15
	c0.067-0.1,0.117-0.217,0.15-0.35c0.034-0.133,0.05-0.267,0.05-0.4s0-0.233,0-0.3h1c0,0.033,0,0.083,0,0.15
	c-0.033,0.033-0.05,0.083-0.05,0.15c0,0.3-0.05,0.583-0.15,0.85s-0.25,0.467-0.45,0.6c-0.2,0.133-0.483,0.216-0.85,0.25
	c-0.4-0.034-0.717-0.1-0.95-0.2c-0.233-0.133-0.4-0.3-0.5-0.5c-0.1-0.233-0.167-0.5-0.2-0.8c-0.034-0.267-0.05-0.583-0.05-0.95
	v-0.75c0-0.333,0.017-0.65,0.05-0.95c0.033-0.267,0.1-0.5,0.2-0.7C17.583,19.867,17.767,19.7,18,19.6z M23.9,20.3h-1.75v1.35h1.6
	v0.75h-1.6v1.65h1.75v0.75h-2.75v-5.25h2.75V20.3z M24.7,19.55h1l0.75,1.9c0.133,0.3,0.25,0.617,0.35,0.95
	c0.133,0.333,0.25,0.717,0.35,1.15c0-0.233-0.017-0.483-0.05-0.75c0-0.233-0.017-0.483-0.05-0.75c0-0.233,0-0.483,0-0.75
	C27.017,21.067,27,20.833,27,20.6v-1.05h1v5.25h-1l-0.8-1.85c-0.133-0.333-0.25-0.667-0.35-1c-0.1-0.333-0.216-0.7-0.35-1.1
	c0.033,0.233,0.05,0.467,0.05,0.7c0.033,0.267,0.05,0.534,0.05,0.8c0.034,0.267,0.05,0.517,0.05,0.75c0,0.267,0,0.5,0,0.7v1H24.7
	V19.55z M18.75,8.85h0.95v4.5h1.8v0.75h-2.75V8.85z M11.5,10.8c0.066-0.1,0.1-0.267,0.1-0.5c0-0.2-0.033-0.35-0.1-0.45
	c-0.034-0.1-0.117-0.167-0.25-0.2C11.15,9.617,11,9.6,10.8,9.6h-0.45v1.55h0.55c0.133,0,0.25-0.033,0.35-0.1
	C11.35,11.017,11.433,10.933,11.5,10.8z M12.1,9.05c0.2,0.167,0.333,0.367,0.4,0.6c0.066,0.2,0.1,0.434,0.1,0.7
	c0,0.233-0.033,0.45-0.1,0.65c-0.067,0.233-0.2,0.433-0.4,0.6c-0.133,0.1-0.3,0.183-0.5,0.25c-0.2,0.033-0.4,0.05-0.6,0.05h-0.65
	v2.2H9.4V8.85h2C11.7,8.85,11.933,8.917,12.1,9.05z M13.3,8.85h0.95v5.25H13.3V8.85z M15.25,8.85h0.95v4.5H18v0.75h-2.75V8.85z
	 M5.35,10.1c0-0.434,0.133-0.767,0.4-1C5.983,8.867,6.367,8.733,6.9,8.7c0.367,0.033,0.667,0.1,0.9,0.2C8,9.033,8.15,9.2,8.25,9.4
	C8.316,9.567,8.367,9.75,8.4,9.95c0,0.2,0,0.367,0,0.5H7.5c0-0.167-0.017-0.317-0.05-0.45S7.367,9.75,7.3,9.65
	C7.2,9.55,7.066,9.5,6.9,9.5c-0.167,0-0.3,0.033-0.4,0.1C6.4,9.7,6.35,9.833,6.35,10c0,0.133,0.034,0.25,0.1,0.35
	c0.033,0.066,0.1,0.133,0.2,0.2c0.066,0.067,0.15,0.133,0.25,0.2C7.033,10.817,7.167,10.9,7.3,11c0.167,0.1,0.317,0.2,0.45,0.3
	C7.883,11.433,8,11.533,8.1,11.6c0.167,0.167,0.284,0.333,0.35,0.5c0.067,0.2,0.1,0.4,0.1,0.6c0,0.333-0.067,0.617-0.2,0.85
	c-0.133,0.233-0.316,0.4-0.55,0.5c-0.267,0.133-0.55,0.2-0.85,0.2C6.55,14.217,6.233,14.133,6,14c-0.233-0.133-0.4-0.317-0.5-0.55
	c-0.1-0.233-0.15-0.5-0.15-0.8v-0.4H6.3v0.3c0,0.267,0.05,0.483,0.15,0.65c0.1,0.167,0.267,0.25,0.5,0.25c0.2,0,0.35-0.05,0.45-0.15
	c0.1-0.133,0.15-0.3,0.15-0.5c0-0.133-0.033-0.25-0.1-0.35c-0.066-0.133-0.167-0.233-0.3-0.3c-0.167-0.133-0.35-0.267-0.55-0.4
	c-0.167-0.133-0.35-0.267-0.55-0.4c-0.167-0.133-0.317-0.283-0.45-0.45c-0.066-0.1-0.133-0.217-0.2-0.35
	C5.367,10.383,5.35,10.233,5.35,10.1z M48.6,8.85h0.95v4.5h1.8v0.75H48.6V8.85z M41.65,9.6h-0.7v1.45h0.75
	c0.167,0,0.3-0.05,0.4-0.15c0.133-0.133,0.2-0.333,0.2-0.6c0-0.2-0.033-0.35-0.1-0.45c-0.033-0.1-0.1-0.167-0.2-0.2
	C41.9,9.617,41.783,9.6,41.65,9.6z M46.55,10.05c-0.033-0.167-0.1-0.3-0.2-0.4c-0.1-0.1-0.233-0.15-0.4-0.15
	c-0.2,0-0.35,0.05-0.45,0.15c-0.1,0.1-0.167,0.217-0.2,0.35c-0.033,0.167-0.05,0.317-0.05,0.45c0,0.167,0,0.3,0,0.4v1.45
	c0,0.1,0,0.217,0,0.35s0.033,0.267,0.1,0.4c0.034,0.1,0.1,0.184,0.2,0.25c0.1,0.1,0.233,0.15,0.4,0.15c0.167,0,0.3-0.05,0.4-0.15
	c0.1-0.066,0.167-0.167,0.2-0.3c0.033-0.1,0.067-0.233,0.1-0.4c0-0.133,0-0.267,0-0.4v-1.35c0-0.1,0-0.217,0-0.35
	C46.65,10.333,46.617,10.183,46.55,10.05z M44.3,10.1c0.033-0.267,0.1-0.5,0.2-0.7C44.633,9.167,44.8,9,45,8.9
	c0.233-0.1,0.55-0.167,0.95-0.2c0.367,0.033,0.667,0.1,0.9,0.2c0.233,0.1,0.4,0.267,0.5,0.5c0.133,0.2,0.217,0.434,0.25,0.7
	c0.034,0.3,0.05,0.617,0.05,0.95v0.75c0,0.367-0.017,0.684-0.05,0.95c-0.033,0.3-0.1,0.567-0.2,0.8c-0.1,0.2-0.267,0.367-0.5,0.5
	c-0.233,0.1-0.55,0.167-0.95,0.2c-0.4-0.033-0.717-0.1-0.95-0.2c-0.233-0.133-0.4-0.3-0.5-0.5c-0.133-0.233-0.217-0.5-0.25-0.8
	c-0.034-0.267-0.034-0.583,0-0.95v-0.75C44.25,10.717,44.267,10.4,44.3,10.1z M43.3,10.1c0,0.2-0.017,0.383-0.05,0.55
	c-0.034,0.2-0.117,0.367-0.25,0.5c-0.1,0.1-0.267,0.184-0.5,0.25c0.3,0.033,0.5,0.133,0.6,0.3c0.1,0.167,0.15,0.383,0.15,0.65
	c0,0.033,0,0.117,0,0.25c0,0.1,0,0.233,0,0.4c0,0.133,0.017,0.267,0.05,0.4c0,0.167,0.017,0.3,0.05,0.4
	c0.034,0.1,0.067,0.167,0.1,0.2v0.1H42.4c-0.033-0.1-0.067-0.233-0.1-0.4c0-0.167,0-0.333,0-0.5c0-0.167,0-0.317,0-0.45
	c0-0.1-0.017-0.2-0.05-0.3c0-0.133-0.017-0.25-0.05-0.35c-0.066-0.1-0.15-0.167-0.25-0.2c-0.133-0.033-0.267-0.05-0.4-0.05
	s-0.283,0-0.45,0h-0.15v2.25h-1V8.85h1.85c0.3,0,0.567,0.033,0.8,0.1c0.2,0.1,0.367,0.233,0.5,0.4C43.233,9.55,43.3,9.8,43.3,10.1z
	 M28.6,8.9c0.233-0.1,0.55-0.167,0.95-0.2c0.367,0.033,0.667,0.1,0.9,0.2s0.4,0.267,0.5,0.5c0.133,0.2,0.217,0.434,0.25,0.7
	c0.033,0.3,0.05,0.617,0.05,0.95v0.75c0,0.367-0.017,0.684-0.05,0.95c-0.033,0.3-0.1,0.567-0.2,0.8c-0.1,0.2-0.267,0.367-0.5,0.5
	c-0.233,0.1-0.55,0.167-0.95,0.2c-0.4-0.033-0.717-0.1-0.95-0.2c-0.233-0.133-0.4-0.3-0.5-0.5c-0.133-0.233-0.216-0.5-0.25-0.8
	c-0.033-0.267-0.033-0.583,0-0.95v-0.75c0-0.333,0.017-0.65,0.05-0.95c0.033-0.267,0.1-0.5,0.2-0.7C28.233,9.167,28.4,9,28.6,8.9z
	 M28.9,10c-0.033,0.167-0.05,0.317-0.05,0.45c0,0.167,0,0.3,0,0.4v1.45c0,0.1,0,0.217,0,0.35s0.034,0.267,0.1,0.4
	c0.033,0.1,0.1,0.184,0.2,0.25c0.1,0.1,0.233,0.15,0.4,0.15s0.3-0.05,0.4-0.15c0.1-0.066,0.167-0.167,0.2-0.3
	c0.033-0.1,0.066-0.233,0.1-0.4c0-0.133,0-0.267,0-0.4v-1.35c0-0.1,0-0.217,0-0.35c0-0.167-0.034-0.317-0.1-0.45
	c-0.033-0.167-0.1-0.3-0.2-0.4s-0.233-0.15-0.4-0.15c-0.2,0-0.35,0.05-0.45,0.15C29,9.75,28.933,9.867,28.9,10z M27.05,10.1
	c0,0.066,0,0.133,0,0.2c0,0.067,0,0.133,0,0.2H26.1c0-0.1-0.017-0.2-0.05-0.3c0-0.133-0.017-0.25-0.05-0.35
	c-0.034-0.1-0.067-0.184-0.1-0.25c-0.067-0.067-0.167-0.1-0.3-0.1c-0.2,0-0.35,0.05-0.45,0.15s-0.167,0.217-0.2,0.35
	c-0.033,0.167-0.05,0.317-0.05,0.45c0,0.167,0,0.3,0,0.4v1.45c0,0.1,0,0.217,0,0.35c0.033,0.133,0.066,0.267,0.1,0.4
	c0.033,0.1,0.1,0.184,0.2,0.25c0.1,0.1,0.233,0.15,0.4,0.15c0.133,0,0.233-0.05,0.3-0.15c0.066-0.1,0.117-0.216,0.15-0.35
	s0.05-0.267,0.05-0.4s0-0.233,0-0.3h1c0,0.033,0,0.083,0,0.15c-0.033,0.033-0.05,0.083-0.05,0.15c0,0.3-0.05,0.583-0.15,0.85
	s-0.25,0.467-0.45,0.6c-0.2,0.133-0.483,0.217-0.85,0.25c-0.4-0.033-0.716-0.1-0.95-0.2c-0.233-0.133-0.4-0.3-0.5-0.5
	c-0.1-0.233-0.167-0.5-0.2-0.8c-0.033-0.267-0.05-0.583-0.05-0.95v-0.75c0-0.333,0.017-0.65,0.05-0.95c0.033-0.267,0.1-0.5,0.2-0.7
	c0.133-0.233,0.316-0.4,0.55-0.5c0.2-0.1,0.5-0.167,0.9-0.2c0.434,0.033,0.767,0.15,1,0.35C26.867,9.283,27.017,9.633,27.05,10.1z
	 M34.5,9.9V8.85h1v5.25h-1l-0.8-1.85c-0.133-0.333-0.25-0.667-0.35-1c-0.1-0.333-0.216-0.7-0.35-1.1
	c0.033,0.233,0.05,0.467,0.05,0.7c0.033,0.267,0.05,0.533,0.05,0.8c0.034,0.267,0.05,0.517,0.05,0.75c0,0.267,0,0.5,0,0.7v1H32.2
	V8.85h1l0.75,1.9c0.133,0.3,0.25,0.617,0.35,0.95c0.133,0.333,0.25,0.716,0.35,1.15c0-0.233-0.017-0.483-0.05-0.75
	c0-0.233-0.017-0.483-0.05-0.75c0-0.233,0-0.483,0-0.75C34.517,10.367,34.5,10.133,34.5,9.9z M36.1,9.6V8.85h3.3V9.6h-1.15v4.5h-1
	V9.6H36.1z"/>
<rect x="0.05" y="0.05" fill-rule="evenodd" clip-rule="evenodd" fill="none" stroke="#000000" stroke-width="0.1" stroke-linecap="round" stroke-linejoin="round" stroke-miterlimit="3" width="54" height="33.95"/>
</svg>
