<?xml version="1.0" encoding="utf-8"?>
<!-- Generator: Adobe Illustrator 15.0.2, SVG Export Plug-In . SVG Version: 6.00 Build 0)  -->
<!DOCTYPE svg PUBLIC "-//W3C//DTD SVG 1.1//EN" "http://www.w3.org/Graphics/SVG/1.1/DTD/svg11.dtd">
<svg version="1.1" id="Layer_1" xmlns="http://www.w3.org/2000/svg" xmlns:xlink="http://www.w3.org/1999/xlink" x="0px" y="0px"
	 width="24.058px" height="44.516px" viewBox="0 0 24.058 44.516" enable-background="new 0 0 24.058 44.516" xml:space="preserve">
<path fill-rule="evenodd" clip-rule="evenodd" fill="#F7F619" d="M6.909,11.6v12.45h4.05h-4.05V11.6V6.35V3.875
	C7.043,2.76,7.668,2.135,8.784,2c1.26,0.135,1.96,0.76,2.1,1.875l0.075,2.475l-0.075-2.475c-0.14-1.115-0.84-1.74-2.1-1.875
	c-1.115,0.135-1.74,0.76-1.875,1.875V6.35h-2.4v-6.3h9l-0.075,6.3h-2.475v5.25v12.45h0.6v1.05h5.025h-5.025v-1.05h-0.6V11.6
	c0.97,0.14,1.87,0.49,2.7,1.05c2.095,1.38,3.42,3.18,3.975,5.4c0.56,2.395,0.21,4.745-1.05,7.05h6.525v1.05h-7.35h-4.2h4.2
	c-1.25,1.535-2.85,2.51-4.8,2.925V27.2v1.875V29.9l-0.075,7.35c-0.14,1.115-0.84,1.74-2.1,1.875c-1.115-0.135-1.74-0.76-1.875-1.875
	V29.9V29v-1.8h4.05h0.6v-1.05V25.1v1.05v1.05h-0.6h-4.05V29c-3.582-1.015-5.781-3.265-6.6-6.75c-0.56-2.505-0.21-4.73,1.05-6.675
	C2.59,13.501,4.44,12.176,6.909,11.6z M6.159,24.05v3.15V24.05z M16.358,21.35c0.415,0.005,0.69-0.27,0.825-0.825
	c0.004-0.555-0.271-0.83-0.825-0.825h-1.575c0.052,0.212,0.077,0.462,0.075,0.75c0.003,0.355-0.047,0.656-0.15,0.9H16.358h-1.65
	c0.103-0.244,0.153-0.544,0.15-0.9c0.002-0.288-0.022-0.538-0.075-0.75h1.575c0.555-0.005,0.83,0.27,0.825,0.825
	C17.048,21.08,16.773,21.355,16.358,21.35z M14.784,19.7c-0.228-0.607-0.753-0.908-1.575-0.9c-1.11-0.01-1.66,0.54-1.65,1.65
	c-0.01,1.109,0.54,1.66,1.65,1.65c0.754,0.006,1.254-0.244,1.5-0.75c-0.246,0.506-0.746,0.756-1.5,0.75
	c-1.11,0.01-1.66-0.541-1.65-1.65c-0.01-1.11,0.54-1.66,1.65-1.65C14.031,18.792,14.556,19.093,14.784,19.7z M1.284,19.7h1.5
	c0.227-0.607,0.752-0.908,1.575-0.9c1.11-0.01,1.66,0.54,1.65,1.65c0.01,1.109-0.54,1.66-1.65,1.65
	c-0.751,0.006-1.251-0.244-1.5-0.75H1.284c-0.555,0.005-0.83-0.27-0.825-0.825C0.454,19.97,0.729,19.695,1.284,19.7
	c-0.555-0.005-0.83,0.27-0.825,0.825c-0.005,0.555,0.27,0.83,0.825,0.825h1.575c0.249,0.506,0.749,0.756,1.5,0.75
	c1.11,0.01,1.66-0.541,1.65-1.65c0.01-1.11-0.54-1.66-1.65-1.65c-0.823-0.007-1.348,0.293-1.575,0.9H1.284z M2.784,19.7
	c-0.053,0.212-0.078,0.462-0.075,0.75c-0.003,0.359,0.047,0.659,0.15,0.9c-0.103-0.241-0.153-0.541-0.15-0.9
	C2.706,20.163,2.731,19.913,2.784,19.7z M10.958,29.9c2.611,0.863,4.261,2.613,4.95,5.25c0.569,1.945,0.369,3.82-0.6,5.625
	c-0.985,1.685-2.46,2.81-4.425,3.375c-2.11,0.57-4.01,0.37-5.7-0.6c-1.806-0.985-2.98-2.46-3.525-4.425
	c-0.57-2.11-0.371-4.01,0.6-5.7c0.99-1.805,2.54-2.98,4.65-3.525v7.35c0.135,1.115,0.76,1.74,1.875,1.875
	c1.26-0.135,1.96-0.76,2.1-1.875L10.958,29.9z"/>
<path fill-rule="evenodd" clip-rule="evenodd" fill="none" stroke="#000000" stroke-width="0.1" stroke-linecap="round" stroke-linejoin="round" stroke-miterlimit="3" d="
	M10.958,6.35h2.475l0.075-6.3h-9v6.3h2.4V3.875C7.043,2.76,7.668,2.135,8.784,2c1.26,0.135,1.96,0.76,2.1,1.875L10.958,6.35z
	 M16.358,21.35c0.415,0.005,0.69-0.27,0.825-0.825c0.004-0.555-0.271-0.83-0.825-0.825h-1.575c0.052,0.212,0.077,0.462,0.075,0.75
	c0.003,0.355-0.047,0.656-0.15,0.9H16.358z M14.784,19.7c-0.228-0.607-0.753-0.908-1.575-0.9c-1.11-0.01-1.66,0.54-1.65,1.65
	c-0.01,1.109,0.54,1.66,1.65,1.65c0.754,0.006,1.254-0.244,1.5-0.75 M16.583,25.1c1.26-2.305,1.61-4.655,1.05-7.05
	c-0.555-2.22-1.88-4.02-3.975-5.4c-0.83-0.56-1.73-0.91-2.7-1.05v12.45h0.6v1.05H16.583z M1.284,19.7h1.5
	c0.227-0.607,0.752-0.908,1.575-0.9c1.11-0.01,1.66,0.54,1.65,1.65c0.01,1.109-0.54,1.66-1.65,1.65
	c-0.751,0.006-1.251-0.244-1.5-0.75H1.284c-0.555,0.005-0.83-0.27-0.825-0.825C0.454,19.97,0.729,19.695,1.284,19.7z M2.784,19.7
	c-0.053,0.212-0.078,0.462-0.075,0.75c-0.003,0.359,0.047,0.659,0.15,0.9 M10.958,11.6V6.35 M6.909,11.6
	c-2.468,0.576-4.318,1.901-5.55,3.975c-1.26,1.945-1.61,4.17-1.05,6.675c0.819,3.485,3.019,5.735,6.6,6.75v-1.8h4.05h0.6v-1.05V25.1
	 M6.909,6.35v5.25v12.45h4.05 M6.159,24.05v3.15 M10.958,29.9v-0.825V27.2 M6.909,29v0.9v7.35c0.135,1.115,0.76,1.74,1.875,1.875
	c1.26-0.135,1.96-0.76,2.1-1.875l0.075-7.35 M6.909,29.9c-2.11,0.544-3.66,1.72-4.65,3.525c-0.97,1.69-1.17,3.59-0.6,5.7
	c0.544,1.965,1.719,3.44,3.525,4.425c1.69,0.97,3.59,1.17,5.7,0.6c1.965-0.565,3.44-1.69,4.425-3.375
	c0.969-1.805,1.169-3.68,0.6-5.625c-0.689-2.637-2.339-4.387-4.95-5.25 M15.758,26.15h7.35V25.1h-6.525 M23.108,26.15v3.75
	 M24.008,21.8v8.175 M23.108,25.1v-3.3 M15.758,26.15h-4.2 M10.958,29.075c1.95-0.416,3.55-1.391,4.8-2.925"/>
</svg>
