<?xml version="1.0" encoding="utf-8"?>
<!-- Generator: Adobe Illustrator 15.0.2, SVG Export Plug-In . SVG Version: 6.00 Build 0)  -->
<!DOCTYPE svg PUBLIC "-//W3C//DTD SVG 1.1//EN" "http://www.w3.org/Graphics/SVG/1.1/DTD/svg11.dtd">
<svg version="1.1" xmlns="http://www.w3.org/2000/svg" xmlns:xlink="http://www.w3.org/1999/xlink" x="0px" y="0px" width="71.3px"
	 height="69.8px" viewBox="0 0 71.3 69.8" enable-background="new 0 0 71.3 69.8" xml:space="preserve">
<g id="Layer_1">
	<polygon fill-rule="evenodd" clip-rule="evenodd" fill="#B9B288" points="37.1,69.3 0.5,35.35 19.05,0.5 54.65,0.5 70.8,35.55 	"/>
	
		<polygon fill-rule="evenodd" clip-rule="evenodd" fill="none" stroke="#000000" stroke-linecap="round" stroke-linejoin="round" stroke-miterlimit="3" points="
		37.1,69.3 70.8,35.55 54.65,0.5 19.05,0.5 0.5,35.35 	"/>
</g>
<g id="Layer_2">
	<g>
		<path fill-rule="evenodd" clip-rule="evenodd" fill="#FFCC00" d="M13.8,14.35h3.375v4.375H13.8V14.35z M55.05,15.85
			c-0.017-0.683,0.317-1.017,1-1c0.583-0.017,0.875,0.317,0.875,1c0,0.583-0.292,0.875-0.875,0.875
			C55.367,16.725,55.033,16.434,55.05,15.85z"/>
		<path fill-rule="evenodd" clip-rule="evenodd" fill="#E7E7E7" d="M37.3,24.1c0.89-0.129,1.39-0.646,1.5-1.55v-0.075h1.125H38.8
			c-0.103-0.686-0.437-1.145-1-1.375v-2.25h9c0.367-0.017,0.617,0.025,0.75,0.125c0.225,0.25,0.333,0.5,0.325,0.75v5.25
			c0.008,0.35-0.1,0.583-0.325,0.7c-0.133,0.216-0.383,0.316-0.75,0.3H27.425c-0.25,0.017-0.5-0.083-0.75-0.3
			c-0.1-0.117-0.142-0.35-0.125-0.7v-5.25c-0.017-0.25,0.025-0.5,0.125-0.75c0.25-0.1,0.5-0.142,0.75-0.125h9.5v2.125
			c-0.718,0.117-1.135,0.617-1.25,1.5v0.075c0,0.925,0.525,1.442,1.575,1.55H37.3v1V24.1z M35.675,22.475h-1H35.675z"/>
		<path fill-rule="evenodd" clip-rule="evenodd" fill="#B9B288" d="M56.05,18.075v0.15c-0.054,0.004-0.113,0.004-0.175,0
			c-0.225-0.108-0.333-0.275-0.325-0.5c-0.002-0.052-0.002-0.11,0-0.175c-0.008-0.225,0.1-0.333,0.325-0.325
			c0.062-0.034,0.121-0.059,0.175-0.075v0.075c-0.053-0.001-0.111-0.001-0.175,0c0.064-0.001,0.122-0.001,0.175,0V18.075
			c-0.053,0.015-0.111,0.023-0.175,0.025c-0.184-0.01-0.292-0.135-0.325-0.375c0.034,0.24,0.142,0.365,0.325,0.375
			C55.939,18.099,55.997,18.09,56.05,18.075z M56.05,20.25v0.475h-0.125L56.05,20.25z M56.05,31.9
			c-0.175-0.151-0.258-0.376-0.25-0.675c-0.008-0.35,0.075-0.608,0.25-0.775V31.9z"/>
		
			<path fill-rule="evenodd" clip-rule="evenodd" fill="none" stroke="#000000" stroke-width="0.1" stroke-linecap="round" stroke-linejoin="round" stroke-miterlimit="3" d="
			M13.8,14.35h3.375v4.375H13.8V14.35z M38.125,14.725c-0.458-0.333-0.917-0.375-1.375-0.125c-0.467,0.225-0.7,0.625-0.7,1.2
			c-0.002,0.231,0.123,0.44,0.375,0.625c-0.159-0.579-0.009-0.979,0.45-1.2c0.35-0.242,0.7-0.133,1.05,0.325
			c0.178,0.276,0.136,0.543-0.125,0.8v0.375c0.137-0.034,0.245-0.051,0.325-0.05c0.008-0.125,0.133-0.192,0.375-0.2H39v-1.5v-0.05
			h-0.5C38.375,14.917,38.25,14.85,38.125,14.725z M36.925,15.675v1c0.201,0.061,0.434,0.12,0.7,0.175v-0.3v-0.875
			c-0.009-0.225-0.134-0.333-0.375-0.325C37.025,15.342,36.917,15.45,36.925,15.675z M36.425,16.425
			c0.131,0.087,0.298,0.17,0.5,0.25v2.175 M37.8,18.85v-2.125c-0.052,0.047-0.111,0.088-0.175,0.125v2v1v1.2
			c0.061,0.015,0.12,0.032,0.175,0.05 M37.8,16.35c-0.049,0.073-0.107,0.14-0.175,0.2 M37.8,18.85v2.25
			c0.563,0.23,0.897,0.689,1,1.375h1.125 M37.3,24.1h-0.05c-1.05-0.108-1.575-0.625-1.575-1.55v-0.075h-1 M37.625,21.05v0.625
			c0.064,0.009,0.123,0.026,0.175,0.05V21.1 M37.625,19.85l-0.2,1.125c0.064,0.032,0.13,0.057,0.2,0.075 M37.425,20.975
			c-0.062,0.007-0.121,0.007-0.175,0c-0.114,0-0.222,0-0.325,0v0.7c0.108-0.046,0.233-0.071,0.375-0.075L37.425,20.975z M37.3,21.6
			c0.12,0.004,0.228,0.029,0.325,0.075v0.8H37.3v0.875h0.05c0.103-0.002,0.195-0.02,0.275-0.05 M36.925,23.3v-0.825h-0.5
			C36.425,22.92,36.591,23.195,36.925,23.3z M37.3,24.1v-0.55h-0.05c-0.175,0.005-0.284-0.062-0.325-0.2V23.3 M38.175,22.475H37.8
			v0.75c0.157-0.074,0.266-0.199,0.325-0.375C38.162,22.746,38.179,22.621,38.175,22.475V22.3c-0.042-0.282-0.167-0.474-0.375-0.575
			v0.75h-0.175V23.3c0.065-0.018,0.124-0.043,0.175-0.075V23.3 M37.35,23.35c0.099,0,0.191,0,0.275,0V23.3 M38.125,22.85
			c-0.058,0.193-0.166,0.343-0.325,0.45c-0.051,0.017-0.11,0.034-0.175,0.05c-0.045,0.125-0.154,0.192-0.325,0.2v-0.2
			c-0.142,0.004-0.267-0.012-0.375-0.05 M37.3,21.6v0.875h-0.375v-0.8c-0.333,0.096-0.5,0.363-0.5,0.8h-0.75
			c0.115-0.883,0.532-1.383,1.25-1.5V18.85 M37.3,24.1v1 M56.05,18.225c-0.054,0.004-0.113,0.004-0.175,0
			c-0.225-0.108-0.333-0.275-0.325-0.5c-0.002-0.052-0.002-0.11,0-0.175c-0.008-0.225,0.1-0.333,0.325-0.325
			c0.062-0.034,0.121-0.059,0.175-0.075c0.157-0.028,0.282,0.039,0.375,0.2l2.625,0.2c0.1,0,0.142,0.059,0.125,0.175l-2.625,0.2
			L56.425,18.1C56.332,18.174,56.207,18.216,56.05,18.225z M56.05,17.225c-0.053-0.001-0.111-0.001-0.175,0 M55.05,15.85
			c-0.017-0.683,0.317-1.017,1-1c0.583-0.017,0.875,0.317,0.875,1c0,0.583-0.292,0.875-0.875,0.875
			C55.367,16.725,55.033,16.434,55.05,15.85z M56.05,18.075c0.243-0.056,0.368-0.231,0.375-0.525
			c-0.007-0.185-0.132-0.293-0.375-0.325 M40.75,14.1h-0.575v0.325L40.05,14.6v2.125l0.125,0.125v0.375h0.575V17.05h0.175v-0.5
			h0.125v-1.575L40.925,14.8v-0.575H40.75V14.1z M39,16.475c0.716-0.421,0.716-0.921,0-1.5 M38.8,22.475v0.075
			c-0.11,0.904-0.61,1.42-1.5,1.55 M55.55,17.725c0.034,0.24,0.142,0.365,0.325,0.375c0.064-0.001,0.122-0.01,0.175-0.025
			 M56.05,20.725h-0.125l0.125-0.475l0.45-1.7l-0.2,2.175H56.05z M38.8,22.475h-0.625 M56.05,31.9c0.167,0.133,0.417,0.2,0.75,0.2
			c0.583,0,0.875-0.292,0.875-0.875c0-0.683-0.292-1.017-0.875-1c-0.333-0.008-0.583,0.067-0.75,0.225
			c-0.175,0.167-0.258,0.425-0.25,0.775C55.792,31.524,55.875,31.749,56.05,31.9z M56.625,31.6c0.358-0.008,0.542-0.192,0.55-0.55
			c-0.008-0.225-0.192-0.333-0.55-0.325c-0.225-0.008-0.333,0.1-0.325,0.325C56.292,31.408,56.4,31.592,56.625,31.6z M14.8,30.225
			c-0.683-0.017-1.017,0.317-1,1c-0.017,0.583,0.317,0.875,1,0.875c0.583,0,0.875-0.292,0.875-0.875
			C15.675,30.542,15.383,30.208,14.8,30.225z M14.625,30.725c-0.225-0.008-0.333,0.1-0.325,0.325c-0.008,0.358,0.1,0.542,0.325,0.55
			c0.358-0.008,0.542-0.192,0.55-0.55C15.167,30.825,14.983,30.717,14.625,30.725z"/>
		
			<path fill-rule="evenodd" clip-rule="evenodd" fill="none" stroke="#2CB0CF" stroke-width="0.1" stroke-linecap="round" stroke-linejoin="round" stroke-miterlimit="3" d="
			M37.625,18.85H37.8 M36.925,18.85h-9.5c-0.25-0.017-0.5,0.025-0.75,0.125c-0.1,0.25-0.142,0.5-0.125,0.75v5.25
			c-0.017,0.35,0.025,0.583,0.125,0.7c0.25,0.216,0.5,0.316,0.75,0.3H46.8c0.367,0.017,0.617-0.083,0.75-0.3
			c0.225-0.117,0.333-0.35,0.325-0.7v-5.25c0.008-0.25-0.1-0.5-0.325-0.75c-0.133-0.1-0.383-0.142-0.75-0.125h-9"/>
	</g>
</g>
</svg>
