<?xml version="1.0" encoding="utf-8"?>
<!-- Generator: Adobe Illustrator 15.0.2, SVG Export Plug-In . SVG Version: 6.00 Build 0)  -->
<!DOCTYPE svg PUBLIC "-//W3C//DTD SVG 1.1//EN" "http://www.w3.org/Graphics/SVG/1.1/DTD/svg11.dtd">
<svg version="1.1" id="Layer_1" xmlns="http://www.w3.org/2000/svg" xmlns:xlink="http://www.w3.org/1999/xlink" x="0px" y="0px"
	 width="24.325px" height="26.05px" viewBox="0 0 24.325 26.05" enable-background="new 0 0 24.325 26.05" xml:space="preserve">
<path fill-rule="evenodd" clip-rule="evenodd" fill="#852364" d="M24.225,0.125h0.05V25.9H24.2v0.075V26H0.05V0.125
	c0.029,0,0.045-0.008,0.05-0.025h24.1v0.025H24.225z M15.7,4.7l-0.65,3.85C15.017,8.717,15,8.883,15,9.05
	c-0.033,0.167-0.067,0.333-0.1,0.5c0,0.1,0,0.184,0,0.25c-0.032,0.096-0.048,0.179-0.05,0.25c0-0.071,0-0.154,0-0.25
	c-0.034-0.066-0.05-0.15-0.05-0.25c0-0.167-0.017-0.333-0.05-0.5c-0.033-0.167-0.067-0.333-0.1-0.5l-0.7-3.85h-1.2l1.35,6h1.5l1.3-6
	H15.7z M18.9,15.55v5.1H20v-5.1h1.35v-0.9H17.6v0.9H18.9z M15.45,15.6c0.1,0.033,0.184,0.1,0.25,0.2c0.067,0.133,0.1,0.3,0.1,0.5
	c0,0.3-0.066,0.517-0.2,0.65s-0.284,0.216-0.45,0.25h-0.9v-1.65h0.85C15.233,15.55,15.35,15.567,15.45,15.6z M16.75,15.2
	c-0.167-0.2-0.383-0.333-0.65-0.4c-0.233-0.1-0.517-0.15-0.85-0.15h-2.1v6h1.1v-2.6h0.2c0.167,0,0.333,0,0.5,0
	c0.133,0.034,0.284,0.067,0.45,0.1c0.133,0.033,0.217,0.1,0.25,0.2c0.067,0.133,0.1,0.267,0.1,0.4c0.033,0.133,0.05,0.267,0.05,0.4
	s0,0.283,0,0.45c0,0.2,0,0.383,0,0.55c0.033,0.2,0.067,0.367,0.1,0.5h1.25v-0.1c-0.067-0.033-0.117-0.117-0.15-0.25
	s-0.05-0.283-0.05-0.45c-0.033-0.167-0.05-0.333-0.05-0.5c0-0.167,0-0.317,0-0.45s0-0.217,0-0.25c0-0.3-0.067-0.55-0.2-0.75
	c-0.133-0.2-0.35-0.316-0.65-0.35c0.233-0.033,0.417-0.133,0.55-0.3c0.133-0.133,0.233-0.3,0.3-0.5c0.033-0.233,0.05-0.45,0.05-0.65
	C16.95,15.733,16.883,15.433,16.75,15.2z M10.5,6.6l0.3,1.7H9.85l0.35-1.7c0-0.133,0.017-0.267,0.05-0.4
	c0-0.167,0.017-0.317,0.05-0.45c0-0.067,0-0.133,0-0.2c0-0.066,0.017-0.133,0.05-0.2c0,0.066,0,0.133,0,0.2
	c0.033,0.067,0.05,0.133,0.05,0.2c0,0.133,0.017,0.283,0.05,0.45C10.45,6.333,10.467,6.467,10.5,6.6z M9.6,4.7l-1.45,6h1.2l0.3-1.5
	H11l0.3,1.5h1.2l-1.4-6H9.6z M10.5,16.55l0.3,1.7H9.85l0.35-1.7c0-0.133,0.017-0.267,0.05-0.4c0-0.167,0.017-0.316,0.05-0.45
	c0-0.067,0-0.133,0-0.2s0.017-0.133,0.05-0.2c0,0.067,0,0.133,0,0.2c0.033,0.067,0.05,0.133,0.05,0.2c0,0.133,0.017,0.283,0.05,0.45
	C10.45,16.283,10.467,16.417,10.5,16.55z M7.7,16.3c0-0.1,0-0.183,0-0.25c-0.033-0.5-0.2-0.883-0.5-1.15
	c-0.267-0.267-0.65-0.4-1.15-0.4c-0.433,0-0.783,0.067-1.05,0.2s-0.467,0.316-0.6,0.55c-0.1,0.233-0.183,0.517-0.25,0.85
	c-0.033,0.333-0.05,0.683-0.05,1.05v0.9c0,0.4,0.017,0.767,0.05,1.1C4.183,19.483,4.267,19.767,4.4,20
	c0.1,0.267,0.283,0.467,0.55,0.6c0.267,0.133,0.633,0.2,1.1,0.2c0.4,0,0.733-0.083,1-0.25c0.233-0.167,0.4-0.4,0.5-0.7
	c0.1-0.3,0.15-0.633,0.15-1c0.034-0.033,0.05-0.083,0.05-0.15c0-0.067,0-0.133,0-0.2H6.6c0,0.1,0,0.233,0,0.4
	c0,0.133-0.017,0.283-0.05,0.45c-0.033,0.167-0.083,0.3-0.15,0.4S6.217,19.9,6.05,19.9c-0.2,0-0.35-0.05-0.45-0.15
	c-0.1-0.067-0.184-0.167-0.25-0.3c-0.034-0.167-0.067-0.317-0.1-0.45c0-0.133,0-0.267,0-0.4v-1.7c0-0.1,0-0.233,0-0.4
	S5.267,16.167,5.3,16c0.067-0.167,0.15-0.3,0.25-0.4c0.1-0.133,0.267-0.2,0.5-0.2c0.133,0,0.233,0.05,0.3,0.15
	c0.066,0.067,0.117,0.15,0.15,0.25c0.033,0.133,0.066,0.267,0.1,0.4c0,0.1,0,0.2,0,0.3h1.1C7.7,16.433,7.7,16.367,7.7,16.3z
	 M11,19.15l0.3,1.5h1.2l-1.4-6H9.6l-1.45,6h1.2l0.3-1.5H11z"/>
<path fill-rule="evenodd" clip-rule="evenodd" fill="#FFFFFF" d="M16.75,15.2c0.133,0.233,0.2,0.533,0.2,0.9
	c0,0.2-0.017,0.417-0.05,0.65c-0.067,0.2-0.167,0.367-0.3,0.5c-0.133,0.167-0.317,0.267-0.55,0.3c0.3,0.034,0.517,0.15,0.65,0.35
	c0.133,0.2,0.2,0.45,0.2,0.75c0,0.033,0,0.117,0,0.25s0,0.283,0,0.45c0,0.167,0.017,0.333,0.05,0.5c0,0.167,0.017,0.316,0.05,0.45
	s0.083,0.217,0.15,0.25v0.1H15.9c-0.033-0.133-0.067-0.3-0.1-0.5c0-0.167,0-0.35,0-0.55c0-0.167,0-0.317,0-0.45
	s-0.017-0.267-0.05-0.4c0-0.133-0.033-0.267-0.1-0.4c-0.033-0.1-0.117-0.167-0.25-0.2c-0.167-0.033-0.317-0.066-0.45-0.1
	c-0.167,0-0.333,0-0.5,0h-0.2v2.6h-1.1v-6h2.1c0.333,0,0.617,0.05,0.85,0.15C16.367,14.867,16.583,15,16.75,15.2z M15.45,15.6
	c-0.1-0.033-0.216-0.05-0.35-0.05h-0.85v1.65h0.9c0.167-0.034,0.317-0.117,0.45-0.25s0.2-0.35,0.2-0.65c0-0.2-0.033-0.367-0.1-0.5
	C15.633,15.7,15.55,15.633,15.45,15.6z M18.9,15.55h-1.3v-0.9h3.75v0.9H20v5.1h-1.1V15.55z M15.7,4.7h1.2l-1.3,6h-1.5l-1.35-6h1.2
	l0.7,3.85c0.033,0.167,0.067,0.333,0.1,0.5c0.033,0.167,0.05,0.333,0.05,0.5c0,0.1,0.017,0.184,0.05,0.25c0,0.096,0,0.179,0,0.25
	c0.001-0.071,0.018-0.154,0.05-0.25c0-0.066,0-0.15,0-0.25c0.033-0.167,0.067-0.333,0.1-0.5c0-0.167,0.017-0.333,0.05-0.5L15.7,4.7z
	 M11,19.15H9.65l-0.3,1.5h-1.2l1.45-6h1.5l1.4,6h-1.2L11,19.15z M7.7,16.3c0,0.067,0,0.133,0,0.2H6.6c0-0.1,0-0.2,0-0.3
	c-0.034-0.133-0.067-0.267-0.1-0.4c-0.033-0.1-0.083-0.183-0.15-0.25c-0.067-0.1-0.167-0.15-0.3-0.15c-0.233,0-0.4,0.067-0.5,0.2
	c-0.1,0.1-0.183,0.233-0.25,0.4c-0.033,0.167-0.05,0.333-0.05,0.5s0,0.3,0,0.4v1.7c0,0.133,0,0.267,0,0.4
	c0.033,0.133,0.066,0.283,0.1,0.45c0.066,0.133,0.15,0.233,0.25,0.3c0.1,0.1,0.25,0.15,0.45,0.15c0.167,0,0.283-0.05,0.35-0.15
	s0.117-0.233,0.15-0.4c0.033-0.167,0.05-0.317,0.05-0.45c0-0.167,0-0.3,0-0.4h1.15c0,0.067,0,0.133,0,0.2
	c0,0.066-0.017,0.117-0.05,0.15c0,0.367-0.05,0.7-0.15,1c-0.1,0.3-0.267,0.533-0.5,0.7c-0.267,0.167-0.6,0.25-1,0.25
	c-0.467,0-0.833-0.066-1.1-0.2C4.683,20.467,4.5,20.267,4.4,20c-0.133-0.233-0.217-0.517-0.25-0.85c-0.033-0.333-0.05-0.7-0.05-1.1
	v-0.9c0-0.367,0.017-0.717,0.05-1.05c0.067-0.333,0.15-0.617,0.25-0.85c0.133-0.233,0.333-0.417,0.6-0.55s0.617-0.2,1.05-0.2
	c0.5,0,0.883,0.133,1.15,0.4c0.3,0.267,0.467,0.65,0.5,1.15C7.7,16.117,7.7,16.2,7.7,16.3z M10.5,16.55
	c-0.033-0.133-0.05-0.267-0.05-0.4c-0.033-0.167-0.05-0.316-0.05-0.45c0-0.067-0.017-0.133-0.05-0.2c0-0.067,0-0.133,0-0.2
	c-0.034,0.067-0.05,0.133-0.05,0.2s0,0.133,0,0.2c-0.033,0.133-0.05,0.283-0.05,0.45c-0.033,0.133-0.05,0.267-0.05,0.4l-0.35,1.7
	h0.95L10.5,16.55z M9.6,4.7h1.5l1.4,6h-1.2L11,9.2H9.65l-0.3,1.5h-1.2L9.6,4.7z M10.5,6.6c-0.033-0.133-0.05-0.267-0.05-0.4
	c-0.033-0.167-0.05-0.317-0.05-0.45c0-0.067-0.017-0.133-0.05-0.2c0-0.066,0-0.133,0-0.2c-0.034,0.066-0.05,0.133-0.05,0.2
	c0,0.067,0,0.133,0,0.2c-0.033,0.133-0.05,0.283-0.05,0.45c-0.033,0.133-0.05,0.267-0.05,0.4L9.85,8.3h0.95L10.5,6.6z"/>
<path fill-rule="evenodd" clip-rule="evenodd" fill="none" stroke="#000000" stroke-width="0.1" stroke-linecap="round" stroke-linejoin="round" stroke-miterlimit="3" d="
	M24.225,0.125H24.2V0.1H0.1C0.095,0.117,0.079,0.125,0.05,0.125V26H24.2h0.075v-0.1c-0.001,0.05-0.026,0.075-0.075,0.075V25.9h0.075
	V0.125V0.1 M24.275,0.05c0,0.021-0.009,0.039-0.025,0.05h0.025V0.05z M24.25,0.1l-0.025,0.025c0.018-0.002,0.034-0.011,0.05-0.025
	 M24.2,0.1V0.05h0.075 M24.25,0.1H24.2 M0.05,0.1H0.1c0.017-0.012,0.025-0.029,0.025-0.05H0.05V0.1z M0.05,0.125V0.1"/>
</svg>
