<?xml version="1.0" encoding="utf-8"?>
<!-- Generator: Adobe Illustrator 15.0.2, SVG Export Plug-In . SVG Version: 6.00 Build 0)  -->
<!DOCTYPE svg PUBLIC "-//W3C//DTD SVG 1.1//EN" "http://www.w3.org/Graphics/SVG/1.1/DTD/svg11.dtd">
<svg version="1.1" id="Layer_1" xmlns="http://www.w3.org/2000/svg" xmlns:xlink="http://www.w3.org/1999/xlink" x="0px" y="0px"
	 width="97.1px" height="1.174px" viewBox="0 0 97.1 1.174" enable-background="new 0 0 97.1 1.174" xml:space="preserve">
<path fill-rule="evenodd" clip-rule="evenodd" fill="#993300" d="M97,1.1c0.017-0.012,0.025-0.029,0.025-0.05H96.95V1.1H0.15v-0.95
	h96.825L97.05,1.1H97z"/>
<path fill-rule="evenodd" clip-rule="evenodd" fill="none" stroke="#000000" stroke-width="0.1" stroke-linecap="round" stroke-linejoin="round" stroke-miterlimit="3" d="
	M96.95,0.125V0.05h0.075C97.025,0.1,97,0.125,96.95,0.125z M97,1.1h0.05l-0.075-0.95H0.15V1.1h96.8V1.05h0.075
	C97.025,1.071,97.017,1.087,97,1.1c-0.005,0.017-0.021,0.025-0.05,0.025V1.1H97z M0.05,0.125V0.05h0.075
	C0.125,0.1,0.1,0.125,0.05,0.125z"/>
</svg>
