<?xml version="1.0" encoding="utf-8"?>
<!-- Generator: Adobe Illustrator 15.0.2, SVG Export Plug-In . SVG Version: 6.00 Build 0)  -->
<!DOCTYPE svg PUBLIC "-//W3C//DTD SVG 1.1//EN" "http://www.w3.org/Graphics/SVG/1.1/DTD/svg11.dtd">
<svg version="1.1" id="Layer_1" xmlns="http://www.w3.org/2000/svg" xmlns:xlink="http://www.w3.org/1999/xlink" x="0px" y="0px"
	 width="25.3px" height="27px" viewBox="0 0 25.3 27" enable-background="new 0 0 25.3 27" xml:space="preserve">
<path fill-rule="evenodd" clip-rule="evenodd" fill="#852364" d="M0.55,0.125c0.029,0,0.045-0.008,0.05-0.025h24.1v0.025h0.025h0.05
	V25.9H24.7v0.075V26H0.55V0.125z M17.075,9.025c-1.037-1.034-2.303-1.551-3.8-1.55c-1.497-0.001-2.763,0.516-3.8,1.55
	c-1.035,1.075-1.551,2.342-1.55,3.8c-0.001,1.488,0.516,2.747,1.55,3.775c1.037,1.078,2.303,1.62,3.8,1.625
	c1.497-0.005,2.763-0.547,3.8-1.625c1.034-1.031,1.551-2.272,1.55-3.725C18.625,11.381,18.109,10.097,17.075,9.025z"/>
<path fill-rule="evenodd" clip-rule="evenodd" d="M17.075,9.025c1.034,1.072,1.551,2.356,1.55,3.85c0,1.453-0.516,2.694-1.55,3.725
	c-1.037,1.078-2.303,1.62-3.8,1.625c-1.497-0.005-2.763-0.547-3.8-1.625c-1.035-1.028-1.551-2.287-1.55-3.775
	c-0.001-1.458,0.516-2.725,1.55-3.8c1.037-1.034,2.303-1.551,3.8-1.55C14.771,7.474,16.038,7.991,17.075,9.025z"/>
<path fill-rule="evenodd" clip-rule="evenodd" fill="none" stroke="#000000" stroke-width="0.1" stroke-linecap="round" stroke-linejoin="round" stroke-miterlimit="3" d="
	M24.7,0.1V0.05h0.075V0.1v0.025V25.9V26H24.7H0.55V0.125V0.1V0.05h0.075c0,0.021-0.008,0.038-0.025,0.05H24.7h0.05
	c0.016-0.012,0.024-0.029,0.025-0.05 M24.725,0.125H24.7V0.1 M24.775,0.1H24.75l-0.025,0.025C24.743,0.123,24.759,0.114,24.775,0.1z
	 M17.075,9.025c1.034,1.072,1.551,2.356,1.55,3.85c0,1.453-0.516,2.694-1.55,3.725c-1.037,1.078-2.303,1.62-3.8,1.625
	c-1.497-0.005-2.763-0.547-3.8-1.625c-1.035-1.028-1.551-2.287-1.55-3.775c-0.001-1.458,0.516-2.725,1.55-3.8
	c1.037-1.034,2.303-1.551,3.8-1.55C14.771,7.474,16.038,7.991,17.075,9.025z M24.7,25.975V25.9h0.075 M24.7,25.975
	c0.049,0,0.074-0.025,0.075-0.075 M0.6,0.1C0.595,0.117,0.579,0.125,0.55,0.125 M0.55,0.1H0.6 M25.25,26.95H0.05"/>
<text transform="matrix(1 0 0 1 8.6997 12.377)" fill="#FFFFFF" font-family="'Helvetica-Condensed'" font-size="8.05">D</text>
</svg>
