<?xml version="1.0" encoding="utf-8"?>
<!-- Generator: Adobe Illustrator 15.0.2, SVG Export Plug-In . SVG Version: 6.00 Build 0)  -->
<!DOCTYPE svg PUBLIC "-//W3C//DTD SVG 1.1//EN" "http://www.w3.org/Graphics/SVG/1.1/DTD/svg11.dtd">
<svg version="1.1" id="Layer_1" xmlns="http://www.w3.org/2000/svg" xmlns:xlink="http://www.w3.org/1999/xlink" x="0px" y="0px"
	 width="239.1px" height="61.175px" viewBox="0 0 239.1 61.175" enable-background="new 0 0 239.1 61.175" xml:space="preserve">
<path fill-rule="evenodd" clip-rule="evenodd" fill="#660000" d="M234.675,4.425V1.3h3.125v3.125H234.675z M237.8,59.925h-3.125
	V56.8h3.125V59.925z M4.425,4.425H1.3V1.3h3.125V4.425z M1.3,59.925V56.8h3.125v3.125H1.3z"/>
<path fill-rule="evenodd" clip-rule="evenodd" fill="#B9B288" d="M239.05,61.125h-239V0.05h239V61.125z M182.925,29.8
	c-0.717,0.579-0.717,1.079,0,1.5h0.5c0.125,0.008,0.25,0.075,0.375,0.2c0.414,0.32,0.831,0.403,1.25,0.25
	c0.039-0.024,0.081-0.049,0.125-0.075c0.127-0.06,0.252-0.118,0.375-0.175c0.141-0.172,0.225-0.38,0.25-0.625h2.75V34
	c-0.017,0.342,0.025,0.567,0.125,0.675c0.25,0.242,0.5,0.367,0.75,0.375h16.75c0.367-0.008,0.617-0.133,0.75-0.375
	c0.225-0.108,0.333-0.333,0.325-0.675v-3.125h2.425c0.087,0.328,0.337,0.595,0.75,0.8h0.125c0.349,0.113,0.749,0.055,1.2-0.175
	c0.125-0.125,0.25-0.192,0.375-0.2h0.5h0.05v2.75V31.3v-0.05c0.657-0.401,0.641-0.884-0.05-1.45v-0.05h-0.5
	c-0.125-0.008-0.25-0.075-0.375-0.2c-0.458-0.333-0.917-0.375-1.375-0.125c-0.127,0.043-0.252,0.084-0.375,0.125
	c-0.134,0.176-0.217,0.384-0.25,0.625h-2.5v-3c-0.108-0.25-0.217-0.5-0.325-0.75c-0.25-0.1-0.5-0.142-0.75-0.125h-16.75
	c-0.25-0.017-0.5,0.025-0.75,0.125c-0.1,0.25-0.142,0.5-0.125,0.75v3h-2.675c-0.078-0.238-0.228-0.446-0.45-0.625
	c-0.458-0.425-1-0.425-1.625,0c-0.125,0.125-0.25,0.192-0.375,0.2h-0.5V29.8z M134.375,31.3c0.716-0.421,0.716-0.921,0-1.5v-0.05
	h-0.5c-0.125-0.008-0.25-0.075-0.375-0.2c-0.458-0.333-0.917-0.375-1.375-0.125c-0.127,0.043-0.252,0.084-0.375,0.125
	c-0.134,0.176-0.217,0.384-0.25,0.625H129v-3c-0.108-0.25-0.217-0.5-0.325-0.75c-0.25-0.1-0.5-0.142-0.75-0.125h-16.75
	c-0.25-0.017-0.5,0.025-0.75,0.125c-0.1,0.25-0.142,0.5-0.125,0.75v3h-2.675c-0.078-0.238-0.228-0.446-0.45-0.625
	c-0.458-0.425-1-0.425-1.625,0c-0.125,0.125-0.25,0.192-0.375,0.2h-0.5v0.05c-0.717,0.579-0.717,1.079,0,1.5h0.5
	c0.125,0.008,0.25,0.075,0.375,0.2c0.414,0.32,0.831,0.403,1.25,0.25c0.039-0.024,0.081-0.049,0.125-0.075
	c0.127-0.06,0.252-0.118,0.375-0.175c0.141-0.172,0.225-0.38,0.25-0.625h2.75V34c-0.017,0.342,0.025,0.567,0.125,0.675
	c0.25,0.242,0.5,0.367,0.75,0.375h16.75c0.367-0.008,0.617-0.133,0.75-0.375C128.9,34.567,129.008,34.342,129,34v-3.125h2.425
	c0.087,0.328,0.337,0.595,0.75,0.8h0.125c0.349,0.113,0.749,0.055,1.2-0.175c0.008-0.125,0.133-0.192,0.375-0.2H134.375z
	 M136.3,29.625V29.05h-0.175v-0.125h-0.575v0.325l-0.125,0.175v2.125l0.125,0.125v0.375h0.575v-0.175h0.175v-0.5h0.125V29.8
	L136.3,29.625z M142.05,16.55c-0.683-0.017-1.017,0.317-1,1c-0.017,0.583,0.317,0.875,1,0.875c0.583,0,0.875-0.292,0.875-0.875
	C142.925,16.867,142.633,16.533,142.05,16.55z M145.925,25.675l0.575,2l-0.2-2H145.925z M145.675,28.8
	c-0.008,0.225,0.1,0.392,0.325,0.5c0.241,0.017,0.424-0.025,0.55-0.125L146.675,29l2.625-0.2c0.017-0.117-0.025-0.175-0.125-0.175
	l-2.5-0.2c0.017,0.117-0.025,0.117-0.125,0c-0.125-0.217-0.309-0.258-0.55-0.125c-0.225-0.008-0.333,0.1-0.325,0.325
	C145.672,28.689,145.672,28.748,145.675,28.8z M175.3,16.55c-0.683-0.017-1.017,0.317-1,1c-0.017,0.583,0.317,0.875,1,0.875
	c0.583,0,0.875-0.292,0.875-0.875C176.175,16.867,175.883,16.533,175.3,16.55z M169.425,28.425V32.8h3.375v-4.375H169.425z
	 M181.675,29.625V29.05H181.5v-0.125h-0.575v0.325l-0.125,0.175v2.125l0.125,0.125v0.375h0.575v-0.175h0.175v-0.5h0.125V29.8
	L181.675,29.625z M234.675,4.425h3.125V1.3h-3.125V4.425z M219.175,17.55c-0.017,0.583,0.317,0.875,1,0.875
	c0.583,0,0.875-0.292,0.875-0.875c0-0.683-0.292-1.017-0.875-1C219.492,16.533,219.158,16.867,219.175,17.55z M212.675,21.3v1V21.3z
	 M213.675,29.425v2.125l0.125,0.125v0.375h0.575v-0.175h0.175v-0.5h0.125V29.8l-0.125-0.175V29.05h-0.175v-0.125H213.8v0.325
	L213.675,29.425z M219.425,25.675l0.575,2l-0.2-2H219.425z M220,28.375c-0.116-0.165-0.282-0.189-0.5-0.075
	c-0.225-0.008-0.333,0.158-0.325,0.5c-0.008,0.225,0.1,0.392,0.325,0.5c0.241,0.017,0.424-0.025,0.55-0.125L220.175,29l2.625-0.2
	c0.017-0.117-0.025-0.175-0.125-0.175l-2.5-0.2L220,28.375z M212.675,24.25v3.875V24.25z M220.675,30.675
	c0-0.683-0.292-1.017-0.875-1c-0.683-0.017-1.017,0.317-1,1c-0.017,0.583,0.317,0.875,1,0.875
	C220.383,31.55,220.675,31.258,220.675,30.675z M219.3,32.925c0.117,0.1,0.35,0.142,0.7,0.125c0.1-0.108,0.2-0.275,0.3-0.5
	c0.017-0.342-0.083-0.508-0.3-0.5c-0.35-0.133-0.583-0.092-0.7,0.125l-2.625,0.2v0.175l2.45,0.2
	C219.242,32.75,219.3,32.808,219.3,32.925z M219.8,35.8l-0.5-2.175l0.125,2.175H219.8z M212.675,36v3.8V36z M220.175,44.675
	c0.583,0,0.875-0.292,0.875-0.875c0-0.683-0.292-1.017-0.875-1c-0.683-0.017-1.017,0.317-1,1
	C219.158,44.383,219.492,44.675,220.175,44.675z M237.8,59.925V56.8h-3.125v3.125H237.8z M176.175,43.8c0-0.683-0.292-1.017-0.875-1
	c-0.683-0.017-1.017,0.317-1,1c-0.017,0.583,0.317,0.875,1,0.875C175.883,44.675,176.175,44.383,176.175,43.8z M146.05,31.55
	c0.583,0,0.875-0.292,0.875-0.875c0-0.683-0.292-1.017-0.875-1c-0.683-0.017-1.017,0.317-1,1
	C145.033,31.258,145.367,31.55,146.05,31.55z M145.675,32.925c0.117,0.1,0.35,0.142,0.7,0.125c0.1-0.108,0.2-0.275,0.3-0.5
	c0.017-0.342-0.083-0.508-0.3-0.5c-0.35-0.133-0.583-0.092-0.7,0.125l-2.625,0.2v0.175l2.45,0.2
	C145.617,32.75,145.675,32.808,145.675,32.925z M146.3,35.8l-0.5-2.175l0.125,2.175H146.3z M142.05,44.675
	c0.583,0,0.875-0.292,0.875-0.875c0-0.683-0.292-1.017-0.875-1c-0.683-0.017-1.017,0.317-1,1
	C141.033,44.383,141.367,44.675,142.05,44.675z M4.425,4.425V1.3H1.3v3.125H4.425z M18.925,16.55c-0.683-0.017-1.017,0.317-1,1
	c-0.017,0.583,0.317,0.875,1,0.875c0.583,0,0.875-0.292,0.875-0.875C19.8,16.867,19.508,16.533,18.925,16.55z M19.05,25.675l0.575,2
	l-0.2-2H19.05z M19.625,28.375c-0.123-0.16-0.29-0.185-0.5-0.075c-0.225-0.008-0.333,0.158-0.325,0.5
	c-0.008,0.225,0.1,0.392,0.325,0.5c0.241,0.017,0.424-0.025,0.55-0.125L19.8,29l2.625-0.2c0.017-0.117-0.025-0.175-0.125-0.175
	l-2.5-0.2l-0.025,0.05C19.745,28.423,19.695,28.389,19.625,28.375z M25.25,29.05v-0.125h-0.575v0.325l-0.125,0.175v2.125
	l0.125,0.125v0.375h0.575v-0.175h0.175v-0.5h0.125V29.8l-0.125-0.175V29.05H25.25z M28.925,29.55c-0.458-0.425-1-0.425-1.625,0
	c-0.125,0.125-0.25,0.192-0.375,0.2h-0.5v0.05c-0.717,0.579-0.717,1.079,0,1.5h0.5c0.125,0.008,0.25,0.075,0.375,0.2
	c0.458,0.35,0.917,0.408,1.375,0.175c0.127-0.06,0.252-0.118,0.375-0.175c0.141-0.172,0.225-0.38,0.25-0.625h2.75V34
	c-0.017,0.342,0.025,0.567,0.125,0.675c0.25,0.242,0.5,0.367,0.75,0.375h16.75c0.367-0.008,0.617-0.133,0.75-0.375
	c0.225-0.108,0.333-0.333,0.325-0.675v-3.125h2.425c0.087,0.328,0.337,0.595,0.75,0.8h0.125c0.349,0.113,0.749,0.055,1.2-0.175
	c0.125-0.125,0.25-0.192,0.375-0.2h0.5c0.716-0.421,0.716-0.921,0-1.5v-0.05h-0.5c-0.125-0.008-0.25-0.075-0.375-0.2
	c-0.458-0.333-0.917-0.375-1.375-0.125c-0.127,0.043-0.252,0.084-0.375,0.125c-0.134,0.176-0.217,0.384-0.25,0.625h-2.5v-3
	c-0.108-0.25-0.217-0.5-0.325-0.75c-0.25-0.1-0.5-0.142-0.75-0.125h-16.75c-0.25-0.017-0.5,0.025-0.75,0.125
	c-0.1,0.25-0.142,0.5-0.125,0.75v3h-2.675C29.297,29.937,29.147,29.729,28.925,29.55z M57.425,29.25L57.3,29.425v2.125l0.125,0.125
	v0.375H58v-0.175h0.175v-0.5H58.3V29.8l-0.125-0.175V29.05H58v-0.125h-0.575V29.25z M62.8,17.55c-0.017,0.583,0.317,0.875,1,0.875
	c0.583,0,0.875-0.292,0.875-0.875c0-0.683-0.292-1.017-0.875-1C63.117,16.533,62.783,16.867,62.8,17.55z M66.175,28.425V32.8h3.375
	v-4.375H66.175z M96.05,17.55c-0.017,0.583,0.317,0.875,1,0.875c0.583,0,0.875-0.292,0.875-0.875c0-0.683-0.292-1.017-0.875-1
	C96.367,16.533,96.033,16.867,96.05,17.55z M92.55,25.675l0.575,2l-0.2-2H92.55z M93.125,28.375c-0.116-0.165-0.282-0.189-0.5-0.075
	c-0.225-0.008-0.333,0.158-0.325,0.5c-0.008,0.225,0.1,0.392,0.325,0.5c0.241,0.017,0.424-0.025,0.55-0.125L93.3,29l2.625-0.2
	c0.017-0.117-0.025-0.175-0.125-0.175l-2.5-0.2l-0.025,0.05C93.238,28.436,93.188,28.402,93.125,28.375z M102.675,28.925v0.325
	l-0.125,0.175v2.125l0.125,0.125v0.375h0.575v-0.175h0.175v-0.5h0.125V29.8l-0.125-0.175V29.05h-0.175v-0.125H102.675z
	 M92.925,31.55c0.583,0,0.875-0.292,0.875-0.875c0-0.683-0.292-1.017-0.875-1c-0.683-0.017-1.017,0.317-1,1
	C91.908,31.258,92.242,31.55,92.925,31.55z M92.425,32.925c0.117,0.1,0.35,0.142,0.7,0.125c0.1-0.108,0.2-0.275,0.3-0.5
	c0.017-0.342-0.083-0.508-0.3-0.5c-0.35-0.133-0.583-0.092-0.7,0.125l-2.625,0.2v0.175l2.45,0.2
	C92.367,32.75,92.425,32.808,92.425,32.925z M92.925,35.8l-0.5-2.175L92.55,35.8H92.925z M97.925,43.8c0-0.683-0.292-1.017-0.875-1
	c-0.683-0.017-1.017,0.317-1,1c-0.017,0.583,0.317,0.875,1,0.875C97.633,44.675,97.925,44.383,97.925,43.8z M64.675,43.8
	c0-0.683-0.292-1.017-0.875-1c-0.683-0.017-1.017,0.317-1,1c-0.017,0.583,0.317,0.875,1,0.875
	C64.383,44.675,64.675,44.383,64.675,43.8z M19.425,31.55c0.583,0,0.875-0.292,0.875-0.875c0-0.683-0.292-1.017-0.875-1
	c-0.683-0.017-1.017,0.317-1,1C18.408,31.258,18.742,31.55,19.425,31.55z M18.925,32.925c0.117,0.1,0.35,0.142,0.7,0.125
	c0.1-0.108,0.2-0.275,0.3-0.5c0.017-0.342-0.083-0.508-0.3-0.5c-0.35-0.133-0.583-0.092-0.7,0.125l-2.625,0.2v0.175l2.45,0.2
	C18.867,32.75,18.925,32.808,18.925,32.925z M19.425,35.8l-0.5-2.175L19.05,35.8H19.425z M19.8,43.8c0-0.683-0.292-1.017-0.875-1
	c-0.683-0.017-1.017,0.317-1,1c-0.017,0.583,0.317,0.875,1,0.875C19.508,44.675,19.8,44.383,19.8,43.8z M1.3,59.925h3.125V56.8H1.3
	V59.925z"/>
<path fill-rule="evenodd" clip-rule="evenodd" fill="none" stroke="#2CB0CF" stroke-width="0.1" stroke-linecap="round" stroke-linejoin="round" stroke-miterlimit="3" d="
	M129,30.175v-3c-0.108-0.25-0.217-0.5-0.325-0.75c-0.25-0.1-0.5-0.142-0.75-0.125h-16.75c-0.25-0.017-0.5,0.025-0.75,0.125
	c-0.1,0.25-0.142,0.5-0.125,0.75v3v0.7V34c-0.017,0.342,0.025,0.567,0.125,0.675c0.25,0.242,0.5,0.367,0.75,0.375h16.75
	c0.367-0.008,0.617-0.133,0.75-0.375C128.9,34.567,129.008,34.342,129,34v-3.125V30.175z M188.55,30.175v-3
	c-0.017-0.25,0.025-0.5,0.125-0.75c0.25-0.1,0.5-0.142,0.75-0.125h16.75c0.25-0.017,0.5,0.025,0.75,0.125
	c0.108,0.25,0.217,0.5,0.325,0.75v3 M188.55,30.175v0.7V34c-0.017,0.342,0.025,0.567,0.125,0.675c0.25,0.242,0.5,0.367,0.75,0.375
	h16.75c0.367-0.008,0.617-0.133,0.75-0.375c0.225-0.108,0.333-0.333,0.325-0.675v-3.125v-0.7 M50.75,30.175v-3
	c-0.108-0.25-0.217-0.5-0.325-0.75c-0.25-0.1-0.5-0.142-0.75-0.125h-16.75c-0.25-0.017-0.5,0.025-0.75,0.125
	c-0.1,0.25-0.142,0.5-0.125,0.75v3v0.7V34c-0.017,0.342,0.025,0.567,0.125,0.675c0.25,0.242,0.5,0.367,0.75,0.375h16.75
	c0.367-0.008,0.617-0.133,0.75-0.375c0.225-0.108,0.333-0.333,0.325-0.675v-3.125V30.175z"/>
<path fill-rule="evenodd" clip-rule="evenodd" fill="none" stroke="#000000" stroke-width="0.1" stroke-linecap="round" stroke-linejoin="round" stroke-miterlimit="3" d="
	M110.3,30.175h3.625c0.225-0.008,0.333,0.1,0.325,0.325c0.008,0.241-0.1,0.366-0.325,0.375H110.3h-2.75h-1.175
	c-0.225-0.009-0.333-0.134-0.325-0.375c-0.008-0.225,0.1-0.333,0.325-0.325h1.175c-0.683-0.33-1.2-0.371-1.55-0.125
	c-0.459,0.217-0.567,0.55-0.325,1c0.217,0.479,0.592,0.712,1.125,0.7c0.039-0.024,0.081-0.049,0.125-0.075
	c0.127-0.06,0.252-0.118,0.375-0.175c0.141-0.172,0.225-0.38,0.25-0.625c0.043-0.102,0.068-0.21,0.075-0.325v-0.125
	c0-0.086,0-0.17,0-0.25h-0.075c0.036,0.09,0.061,0.173,0.075,0.25 M129,30.875h-1.95h-1c-0.145,0.786-0.603,1.261-1.375,1.425v0.875
	 M124.675,29.675c0.299,0.069,0.491,0.235,0.575,0.5h0.675c-0.215-0.532-0.632-0.865-1.25-1V29.675v1h0.125
	c-0.004-0.047-0.004-0.105,0-0.175c-0.008-0.225,0.1-0.333,0.325-0.325h0.125 M121.8,30.675h1.125c0.135-1.004,0.66-1.504,1.575-1.5
	c0.061,0.008,0.119,0.008,0.175,0v-1.25 M129,30.175h-3.075c0.056,0.151,0.098,0.318,0.125,0.5l1,0.2 M124.675,29.675
	c-0.076,0-0.159,0-0.25,0c-0.583,0-0.875,0.292-0.875,0.875v0.125h1.125v0.75c0.32-0.069,0.511-0.252,0.575-0.55h-0.125
	c-0.158-0.01-0.267-0.077-0.325-0.2h0.5V30.55c0.004-0.142-0.013-0.267-0.05-0.375 M134.375,29.8v-0.05h-0.5
	c-0.125-0.008-0.25-0.075-0.375-0.2c-0.458-0.333-0.917-0.375-1.375-0.125c-0.127,0.043-0.252,0.084-0.375,0.125
	c-0.134,0.176-0.217,0.384-0.25,0.625h0.75c0.35-0.325,0.7-0.259,1.05,0.2c0.225,0.35,0.1,0.7-0.375,1.05
	c-0.419,0.212-0.811,0.17-1.175-0.125c0.133,0.146,0.275,0.271,0.425,0.375h0.125c0.349,0.113,0.749,0.055,1.2-0.175
	c0.008-0.125,0.133-0.192,0.375-0.2h0.5V29.8z M132.25,30.175h0.425c0.225-0.008,0.333,0.1,0.325,0.325
	c0.008,0.241-0.1,0.366-0.325,0.375H131.5c0.038,0.121,0.096,0.246,0.175,0.375l0.075,0.05 M136.3,29.625V29.05h-0.175v-0.125
	h-0.575v0.325l-0.125,0.175v2.125l0.125,0.125v0.375h0.575v-0.175h0.175v-0.5h0.125V29.8L136.3,29.625z M129,30.175h2.5
	c-0.043,0.118-0.068,0.243-0.075,0.375v0.075c0.015,0.082,0.04,0.165,0.075,0.25h-0.075c0.087,0.328,0.337,0.595,0.75,0.8
	 M141.55,17.375c-0.008,0.358,0.1,0.542,0.325,0.55c0.358-0.008,0.542-0.192,0.55-0.55c-0.008-0.225-0.192-0.333-0.55-0.325
	C141.65,17.042,141.542,17.15,141.55,17.375z M142.05,16.55c-0.683-0.017-1.017,0.317-1,1c-0.017,0.583,0.317,0.875,1,0.875
	c0.583,0,0.875-0.292,0.875-0.875C142.925,16.867,142.633,16.533,142.05,16.55z M145.925,25.675l0.575,2l-0.2-2H145.925z
	 M145.675,28.8c-0.008,0.225,0.1,0.392,0.325,0.5c0.241,0.017,0.424-0.025,0.55-0.125L146.675,29l2.625-0.2
	c0.017-0.117-0.025-0.175-0.125-0.175l-2.5-0.2c0.017,0.117-0.025,0.117-0.125,0c-0.125-0.217-0.309-0.258-0.55-0.125
	c0.358-0.008,0.542,0.1,0.55,0.325c-0.008,0.358-0.192,0.542-0.55,0.55C145.816,29.165,145.708,29.04,145.675,28.8z M146,28.3
	c-0.225-0.008-0.333,0.1-0.325,0.325c-0.002,0.064-0.002,0.123,0,0.175 M175.125,17.05c-0.225-0.008-0.333,0.1-0.325,0.325
	c-0.008,0.358,0.1,0.542,0.325,0.55c0.358-0.008,0.542-0.192,0.55-0.55C175.667,17.15,175.483,17.042,175.125,17.05z M175.3,16.55
	c-0.683-0.017-1.017,0.317-1,1c-0.017,0.583,0.317,0.875,1,0.875c0.583,0,0.875-0.292,0.875-0.875
	C176.175,16.867,175.883,16.533,175.3,16.55z M169.425,28.425V32.8h3.375v-4.375H169.425z M181.675,29.625V29.05H181.5v-0.125
	h-0.575v0.325l-0.125,0.175v2.125l0.125,0.125v0.375h0.575v-0.175h0.175v-0.5h0.125V29.8L181.675,29.625z M184.3,30.5
	c-0.008,0.241,0.1,0.366,0.325,0.375h1.175c0.043-0.102,0.068-0.21,0.075-0.325v-0.125c-0.014-0.077-0.039-0.16-0.075-0.25h-1.175
	C184.4,30.167,184.292,30.275,184.3,30.5z M185.425,29.55c-0.458-0.425-1-0.425-1.625,0c-0.125,0.125-0.25,0.192-0.375,0.2h-0.5
	v0.05v1.5h0.5c0.125,0.008,0.25,0.075,0.375,0.2c0.414,0.32,0.831,0.403,1.25,0.25c-0.533,0.012-0.908-0.221-1.125-0.7
	c-0.242-0.45-0.134-0.783,0.325-1c0.35-0.246,0.867-0.205,1.55,0.125c-0.049-0.133-0.132-0.275-0.25-0.425
	C185.496,29.689,185.454,29.623,185.425,29.55z M207.25,30.175h2.5c0.033-0.241,0.116-0.449,0.25-0.625
	c0.123-0.041,0.248-0.082,0.375-0.125c0.458-0.25,0.917-0.208,1.375,0.125c0.125,0.125,0.25,0.192,0.375,0.2h0.5v0.05
	c0.69,0.566,0.707,1.049,0.05,1.45v0.05v2.75 M185.875,30.175c-0.078-0.238-0.228-0.446-0.45-0.625 M185.875,30.175
	c0,0.08,0,0.164,0,0.25 M185.8,30.175h0.075h2.675 M188.55,30.875h3.625c0.225-0.009,0.333-0.134,0.325-0.375
	c0.008-0.225-0.1-0.333-0.325-0.325h-3.625 M234.675,4.425V1.3h3.125v3.125H234.675z M220.125,17.925
	c0.358-0.008,0.542-0.192,0.55-0.55c-0.008-0.225-0.192-0.333-0.55-0.325c-0.225-0.008-0.333,0.1-0.325,0.325
	C219.792,17.733,219.9,17.917,220.125,17.925z M219.175,17.55c-0.017,0.583,0.317,0.875,1,0.875c0.583,0,0.875-0.292,0.875-0.875
	c0-0.683-0.292-1.017-0.875-1C219.492,16.533,219.158,16.867,219.175,17.55z M202.675,29.675c-0.583,0-0.875,0.292-0.875,0.875
	v0.125h1v-1H202.675z M200.05,30.675h1c0.135-1.004,0.66-1.504,1.575-1.5c0.061,0.008,0.119,0.008,0.175,0v-1.25 M202.8,29.675
	c0.372,0.033,0.605,0.2,0.7,0.5h0.55c-0.215-0.532-0.632-0.865-1.25-1V29.675z M203.375,30.175c-0.225-0.008-0.333,0.1-0.325,0.325
	c-0.004,0.069-0.004,0.127,0,0.175h0.5V30.55c0.004-0.142-0.013-0.267-0.05-0.375H203.375z M209.75,30.175h0.75
	c0.466-0.325,0.816-0.259,1.05,0.2c0.225,0.35,0.1,0.7-0.375,1.05c-0.419,0.212-0.811,0.17-1.175-0.125
	c0.133,0.146,0.275,0.271,0.425,0.375h0.125c0.349,0.113,0.749,0.055,1.2-0.175c0.125-0.125,0.25-0.192,0.375-0.2h0.5v-1.125V29.8
	 M207.25,30.175h-3.2c0.056,0.151,0.098,0.318,0.125,0.5l1.125,0.2h1.95 M212.675,21.3v1 M210.5,30.175h0.425
	c0.225-0.008,0.333,0.1,0.325,0.325c0.008,0.241-0.1,0.366-0.325,0.375h-1.175c0.038,0.121,0.096,0.246,0.175,0.375L210,31.3
	 M213.675,29.425v2.125l0.125,0.125v0.375h0.575v-0.175h0.175v-0.5h0.125V29.8l-0.125-0.175V29.05h-0.175v-0.125H213.8v0.325
	L213.675,29.425z M219.425,25.675l0.575,2l-0.2-2H219.425z M220,28.375c0.063,0.027,0.113,0.061,0.15,0.1l0.025,0.025v-0.075
	 M219.625,28.3H219.5c-0.14,0.033-0.207,0.141-0.2,0.325c-0.008,0.358,0.1,0.542,0.325,0.55c0.358-0.008,0.542-0.192,0.55-0.55V28.5
	l-0.125-0.075l-0.05-0.05C219.918,28.323,219.793,28.298,219.625,28.3z M219.5,28.3c-0.225-0.008-0.333,0.158-0.325,0.5
	c-0.008,0.225,0.1,0.392,0.325,0.5c0.241,0.017,0.424-0.025,0.55-0.125L220.175,29l2.625-0.2c0.017-0.117-0.025-0.175-0.125-0.175
	l-2.5-0.2 M219.5,28.3c0.218-0.114,0.384-0.089,0.5,0.075 M212.675,24.25v3.875 M220.675,30.675c0-0.683-0.292-1.017-0.875-1
	c-0.683-0.017-1.017,0.317-1,1c-0.017,0.583,0.317,0.875,1,0.875C220.383,31.55,220.675,31.258,220.675,30.675z M219.3,32.925
	c0.117,0.1,0.35,0.142,0.7,0.125c0.1-0.108,0.2-0.275,0.3-0.5c0.017-0.342-0.083-0.508-0.3-0.5c-0.35-0.133-0.583-0.092-0.7,0.125
	l-2.625,0.2v0.175l2.45,0.2C219.242,32.75,219.3,32.808,219.3,32.925z M220.175,32.375c-0.008-0.225-0.192-0.333-0.55-0.325
	c-0.225-0.008-0.333,0.1-0.325,0.325c-0.008,0.358,0.1,0.542,0.325,0.55C219.983,32.917,220.167,32.733,220.175,32.375z M219.8,35.8
	l-0.5-2.175l0.125,2.175H219.8z M212.625,31.3l0.05-0.05l-0.05-1.075 M212.675,36v3.8 M209.75,30.875
	c-0.035-0.085-0.06-0.168-0.075-0.25c-0.002,0.087-0.002,0.17,0,0.25H209.75z M209.675,30.625V30.55
	c0.007-0.132,0.032-0.257,0.075-0.375 M209.675,30.875c0.087,0.328,0.337,0.595,0.75,0.8 M209.675,30.875h-2.425 M204.175,30.875
	v-0.2h-0.625c-0.011,0.071-0.028,0.138-0.05,0.2H204.175z M205.3,30.875h-1.125c-0.145,0.786-0.603,1.261-1.375,1.425v0.875
	 M203.375,30.875c-0.158-0.01-0.267-0.077-0.325-0.2h-0.25v0.75c0.396-0.031,0.629-0.214,0.7-0.55H203.375z M202.675,31.425
	c-0.54,0-0.832-0.25-0.875-0.75h-0.75v0.075c0,0.925,0.525,1.442,1.575,1.55c0.061-0.008,0.119-0.008,0.175,0v-0.875H202.675z
	 M220.175,44.675c0.583,0,0.875-0.292,0.875-0.875c0-0.683-0.292-1.017-0.875-1c-0.683-0.017-1.017,0.317-1,1
	C219.158,44.383,219.492,44.675,220.175,44.675z M219.8,43.625c-0.008,0.358,0.1,0.542,0.325,0.55
	c0.358-0.008,0.542-0.192,0.55-0.55c-0.008-0.225-0.192-0.333-0.55-0.325C219.9,43.292,219.792,43.4,219.8,43.625z M237.8,59.925
	h-3.125V56.8h3.125V59.925z M185.8,30.875h2.75 M185.05,31.75c0.039-0.024,0.081-0.049,0.125-0.075
	c0.127-0.06,0.252-0.118,0.375-0.175c0.141-0.172,0.225-0.38,0.25-0.625 M176.175,43.8c0-0.683-0.292-1.017-0.875-1
	c-0.683-0.017-1.017,0.317-1,1c-0.017,0.583,0.317,0.875,1,0.875C175.883,44.675,176.175,44.383,176.175,43.8z M175.125,44.175
	c0.358-0.008,0.542-0.192,0.55-0.55c-0.008-0.225-0.192-0.333-0.55-0.325c-0.225-0.008-0.333,0.1-0.325,0.325
	C174.792,43.983,174.9,44.167,175.125,44.175z M146.05,31.55c0.583,0,0.875-0.292,0.875-0.875c0-0.683-0.292-1.017-0.875-1
	c-0.683-0.017-1.017,0.317-1,1C145.033,31.258,145.367,31.55,146.05,31.55z M145.675,32.925c0.117,0.1,0.35,0.142,0.7,0.125
	c0.1-0.108,0.2-0.275,0.3-0.5c0.017-0.342-0.083-0.508-0.3-0.5c-0.35-0.133-0.583-0.092-0.7,0.125l-2.625,0.2v0.175l2.45,0.2
	C145.617,32.75,145.675,32.808,145.675,32.925z M146,32.925c0.358-0.008,0.542-0.192,0.55-0.55c-0.008-0.225-0.192-0.333-0.55-0.325
	c-0.225-0.008-0.333,0.1-0.325,0.325C145.667,32.733,145.775,32.917,146,32.925z M146.3,35.8l-0.5-2.175l0.125,2.175H146.3z
	 M141.875,43.3c-0.225-0.008-0.333,0.1-0.325,0.325c-0.008,0.358,0.1,0.542,0.325,0.55c0.358-0.008,0.542-0.192,0.55-0.55
	C142.417,43.4,142.233,43.292,141.875,43.3z M142.05,44.675c0.583,0,0.875-0.292,0.875-0.875c0-0.683-0.292-1.017-0.875-1
	c-0.683-0.017-1.017,0.317-1,1C141.033,44.383,141.367,44.675,142.05,44.675z M131.425,30.625c-0.002,0.087-0.002,0.17,0,0.25H129
	 M126.05,30.675h-0.75c-0.011,0.071-0.028,0.138-0.05,0.2h0.8V30.675z M124.675,31.425c-0.076,0-0.159,0-0.25,0
	c-0.54,0-0.832-0.25-0.875-0.75h-0.625v0.075c0,0.925,0.525,1.442,1.575,1.55c0.061-0.008,0.119-0.008,0.175,0V31.425z
	 M239.05,61.125h-239V0.05h239V61.125z M182.925,29.8c-0.717,0.579-0.717,1.079,0,1.5 M134.375,31.3c0.716-0.421,0.716-0.921,0-1.5
	 M4.425,4.425V1.3H1.3v3.125H4.425z M18.75,17.925c0.358-0.008,0.542-0.192,0.55-0.55c-0.008-0.225-0.192-0.333-0.55-0.325
	c-0.225-0.008-0.333,0.1-0.325,0.325C18.417,17.733,18.525,17.917,18.75,17.925z M18.925,16.55c-0.683-0.017-1.017,0.317-1,1
	c-0.017,0.583,0.317,0.875,1,0.875c0.583,0,0.875-0.292,0.875-0.875C19.8,16.867,19.508,16.533,18.925,16.55z M19.05,25.675l0.575,2
	l-0.2-2H19.05z M19.775,28.475L19.8,28.5v-0.075l2.5,0.2c0.1,0,0.142,0.058,0.125,0.175L19.8,29l-0.125,0.175
	c-0.125,0.1-0.309,0.142-0.55,0.125c-0.225-0.108-0.333-0.275-0.325-0.5c-0.008-0.342,0.1-0.508,0.325-0.5
	c0.21-0.11,0.377-0.085,0.5,0.075 M19.8,28.5l-0.125-0.075l-0.05-0.05c-0.093-0.051-0.218-0.077-0.375-0.075h-0.125
	c-0.14,0.033-0.207,0.141-0.2,0.325c-0.008,0.358,0.1,0.542,0.325,0.55c0.358-0.008,0.542-0.192,0.55-0.55V28.5z M19.775,28.475
	c-0.03-0.052-0.08-0.085-0.15-0.1 M25.25,29.05v-0.125h-0.575v0.325l-0.125,0.175v2.125l0.125,0.125v0.375h0.575v-0.175h0.175v-0.5
	h0.125V29.8l-0.125-0.175V29.05H25.25z M28.925,29.55c-0.458-0.425-1-0.425-1.625,0c-0.125,0.125-0.25,0.192-0.375,0.2h-0.5v0.05
	v1.5h0.5c0.125,0.008,0.25,0.075,0.375,0.2c0.458,0.35,0.917,0.408,1.375,0.175c-0.533,0.058-0.908-0.15-1.125-0.625
	c-0.242-0.45-0.134-0.783,0.325-1c0.329-0.232,0.762-0.19,1.3,0.125H29.3c-0.055-0.141-0.138-0.282-0.25-0.425
	C28.996,29.689,28.954,29.623,28.925,29.55z M29.3,30.875h-1.175C27.9,30.866,27.792,30.741,27.8,30.5
	c-0.008-0.225,0.1-0.333,0.325-0.325h1.05L29.3,30.25v-0.075h0.075c-0.078-0.238-0.228-0.446-0.45-0.625 M32.05,30.175h3.625
	c0.225-0.008,0.333,0.1,0.325,0.325c0.008,0.241-0.1,0.366-0.325,0.375H32.05H29.3c-0.025,0.245-0.109,0.453-0.25,0.625
	c-0.123,0.057-0.248,0.115-0.375,0.175 M50.75,30.875H48.8h-0.875c-0.148,0.826-0.648,1.301-1.5,1.425v0.875 M29.3,30.875
	c0.043-0.102,0.068-0.21,0.075-0.325v-0.125c-0.013-0.06-0.038-0.119-0.075-0.175 M29.375,30.175c0,0.08,0,0.164,0,0.25
	 M32.05,30.175h-2.675 M43.55,30.675h1.25c0.135-1.004,0.66-1.504,1.575-1.5h0.05v-1.25 M46.425,29.675
	c0.3,0.064,0.492,0.231,0.575,0.5h0.8c-0.23-0.564-0.688-0.897-1.375-1V29.675z M46.175,29.675c-0.583,0-0.875,0.292-0.875,0.875
	v0.125h1.125v-1C46.349,29.675,46.266,29.675,46.175,29.675z M46.875,30.175c-0.225-0.008-0.333,0.1-0.325,0.325
	c-0.004,0.069-0.004,0.127,0,0.175l0.5,0.075c0-0.052,0-0.119,0-0.2c0.004-0.143-0.013-0.268-0.05-0.375H46.875z M50.75,30.175h2.5
	c0.033-0.241,0.116-0.449,0.25-0.625c0.123-0.041,0.248-0.082,0.375-0.125c0.458-0.25,0.917-0.208,1.375,0.125
	c0.125,0.125,0.25,0.192,0.375,0.2h0.5v0.05c0.716,0.579,0.716,1.079,0,1.5h-0.5c-0.125,0.008-0.25,0.075-0.375,0.2
	c-0.452,0.229-0.852,0.288-1.2,0.175h-0.125c-0.413-0.205-0.663-0.472-0.75-0.8H50.75 M54.425,30.175
	c0.225-0.008,0.333,0.1,0.325,0.325c0.008,0.241-0.1,0.366-0.325,0.375H53.8c0.217,0.596,0.55,0.779,1,0.55
	c0.475-0.35,0.6-0.7,0.375-1.05c-0.35-0.459-0.7-0.525-1.05-0.2H54.425z M57.425,29.25L57.3,29.425v2.125l0.125,0.125v0.375H58
	v-0.175h0.175v-0.5H58.3V29.8l-0.125-0.175V29.05H58v-0.125h-0.575V29.25z M53.25,30.175h0.875 M50.75,30.175H47.8
	c0.058,0.171,0.1,0.363,0.125,0.575v0.05l0.875,0.075 M63.75,17.925c0.358-0.008,0.542-0.192,0.55-0.55
	c-0.008-0.225-0.192-0.333-0.55-0.325c-0.225-0.008-0.333,0.1-0.325,0.325C63.417,17.733,63.525,17.917,63.75,17.925z M62.8,17.55
	c-0.017,0.583,0.317,0.875,1,0.875c0.583,0,0.875-0.292,0.875-0.875c0-0.683-0.292-1.017-0.875-1
	C63.117,16.533,62.783,16.867,62.8,17.55z M66.175,28.425V32.8h3.375v-4.375H66.175z M97,17.925c0.358-0.008,0.542-0.192,0.55-0.55
	c-0.008-0.225-0.192-0.333-0.55-0.325c-0.225-0.008-0.333,0.1-0.325,0.325C96.667,17.733,96.775,17.917,97,17.925z M96.05,17.55
	c-0.017,0.583,0.317,0.875,1,0.875c0.583,0,0.875-0.292,0.875-0.875c0-0.683-0.292-1.017-0.875-1
	C96.367,16.533,96.033,16.867,96.05,17.55z M92.55,25.675l0.575,2l-0.2-2H92.55z M93.275,28.475L93.3,28.5v-0.075l2.5,0.2
	c0.1,0,0.142,0.058,0.125,0.175L93.3,29l-0.125,0.175c-0.125,0.1-0.309,0.142-0.55,0.125c-0.225-0.108-0.333-0.275-0.325-0.5
	c-0.008-0.342,0.1-0.508,0.325-0.5c0.218-0.114,0.384-0.089,0.5,0.075c-0.082-0.052-0.207-0.077-0.375-0.075h-0.125
	c-0.14,0.033-0.207,0.141-0.2,0.325c-0.008,0.358,0.1,0.542,0.325,0.55c0.358-0.008,0.542-0.192,0.55-0.55V28.5l-0.125-0.075
	l-0.05-0.05 M93.275,28.475c-0.037-0.039-0.087-0.073-0.15-0.1 M102.675,28.925v0.325l-0.125,0.175v2.125l0.125,0.125v0.375h0.575
	v-0.175h0.175v-0.5h0.125V29.8l-0.125-0.175V29.05h-0.175v-0.125H102.675z M106.8,31.75c-0.419,0.153-0.836,0.07-1.25-0.25
	c-0.125-0.125-0.25-0.192-0.375-0.2h-0.5c-0.717-0.421-0.717-0.921,0-1.5v-0.05h0.5c0.125-0.008,0.25-0.075,0.375-0.2
	c0.625-0.425,1.167-0.425,1.625,0c0.223,0.179,0.373,0.387,0.45,0.625h2.675 M107.175,29.55c0.029,0.073,0.071,0.14,0.125,0.2
	c0.118,0.15,0.201,0.292,0.25,0.425 M92.925,31.55c0.583,0,0.875-0.292,0.875-0.875c0-0.683-0.292-1.017-0.875-1
	c-0.683-0.017-1.017,0.317-1,1C91.908,31.258,92.242,31.55,92.925,31.55z M92.425,32.925c0.117,0.1,0.35,0.142,0.7,0.125
	c0.1-0.108,0.2-0.275,0.3-0.5c0.017-0.342-0.083-0.508-0.3-0.5c-0.35-0.133-0.583-0.092-0.7,0.125l-2.625,0.2v0.175l2.45,0.2
	C92.367,32.75,92.425,32.808,92.425,32.925z M92.75,32.925c0.358-0.008,0.542-0.192,0.55-0.55c-0.008-0.225-0.192-0.333-0.55-0.325
	c-0.225-0.008-0.333,0.1-0.325,0.325C92.417,32.733,92.525,32.917,92.75,32.925z M92.925,35.8l-0.5-2.175L92.55,35.8H92.925z
	 M97.925,43.8c0-0.683-0.292-1.017-0.875-1c-0.683-0.017-1.017,0.317-1,1c-0.017,0.583,0.317,0.875,1,0.875
	C97.633,44.675,97.925,44.383,97.925,43.8z M96.675,43.625c-0.008,0.358,0.1,0.542,0.325,0.55c0.358-0.008,0.542-0.192,0.55-0.55
	C97.542,43.4,97.358,43.292,97,43.3C96.775,43.292,96.667,43.4,96.675,43.625z M63.75,43.3c-0.225-0.008-0.333,0.1-0.325,0.325
	c-0.008,0.358,0.1,0.542,0.325,0.55c0.358-0.008,0.542-0.192,0.55-0.55C64.292,43.4,64.108,43.292,63.75,43.3z M64.675,43.8
	c0-0.683-0.292-1.017-0.875-1c-0.683-0.017-1.017,0.317-1,1c-0.017,0.583,0.317,0.875,1,0.875
	C64.383,44.675,64.675,44.383,64.675,43.8z M53.175,30.625c-0.002,0.087-0.002,0.17,0,0.25h0.075
	C53.215,30.791,53.19,30.707,53.175,30.625z M53.25,30.175c-0.043,0.118-0.068,0.243-0.075,0.375v0.075 M53.8,30.875h-0.55
	c0.054,0.139,0.137,0.281,0.25,0.425c0.133,0.146,0.275,0.271,0.425,0.375 M47.925,30.8v0.075H47.05
	c-0.063,0.182-0.164,0.315-0.3,0.4 M47.05,30.875V30.75c-0.017,0.038-0.034,0.08-0.05,0.125H47.05z M46.875,30.875
	c-0.158-0.01-0.267-0.077-0.325-0.2h-0.125v0.75c0.098-0.021,0.182-0.063,0.25-0.125l0.075-0.025c0.129-0.086,0.212-0.22,0.25-0.4
	H46.875z M46.175,31.425c-0.54,0-0.832-0.25-0.875-0.75h-0.5v0.075c0,0.925,0.525,1.442,1.575,1.55h0.05v-0.875
	C46.349,31.425,46.265,31.425,46.175,31.425z M47.925,30.8l-0.875-0.05 M19.425,31.55c0.583,0,0.875-0.292,0.875-0.875
	c0-0.683-0.292-1.017-0.875-1c-0.683-0.017-1.017,0.317-1,1C18.408,31.258,18.742,31.55,19.425,31.55z M19.25,32.925
	c0.358-0.008,0.542-0.192,0.55-0.55c-0.008-0.225-0.192-0.333-0.55-0.325c-0.225-0.008-0.333,0.1-0.325,0.325
	C18.917,32.733,19.025,32.917,19.25,32.925z M18.925,32.925c0.117,0.1,0.35,0.142,0.7,0.125c0.1-0.108,0.2-0.275,0.3-0.5
	c0.017-0.342-0.083-0.508-0.3-0.5c-0.35-0.133-0.583-0.092-0.7,0.125l-2.625,0.2v0.175l2.45,0.2
	C18.867,32.75,18.925,32.808,18.925,32.925z M19.425,35.8l-0.5-2.175L19.05,35.8H19.425z M19.8,43.8c0-0.683-0.292-1.017-0.875-1
	c-0.683-0.017-1.017,0.317-1,1c-0.017,0.583,0.317,0.875,1,0.875C19.508,44.675,19.8,44.383,19.8,43.8z M18.75,43.3
	c-0.225-0.008-0.333,0.1-0.325,0.325c-0.008,0.358,0.1,0.542,0.325,0.55c0.358-0.008,0.542-0.192,0.55-0.55
	C19.292,43.4,19.108,43.292,18.75,43.3z M1.3,59.925h3.125V56.8H1.3V59.925z M56.125,29.8v1.5 M26.425,29.8
	c-0.717,0.579-0.717,1.079,0,1.5 M104.675,31.3v-1.5"/>
</svg>
