<?xml version="1.0" encoding="utf-8"?>
<!-- Generator: Adobe Illustrator 15.0.2, SVG Export Plug-In . SVG Version: 6.00 Build 0)  -->
<!DOCTYPE svg PUBLIC "-//W3C//DTD SVG 1.1//EN" "http://www.w3.org/Graphics/SVG/1.1/DTD/svg11.dtd">
<svg version="1.1" id="Layer_1" xmlns="http://www.w3.org/2000/svg" xmlns:xlink="http://www.w3.org/1999/xlink" x="0px" y="0px"
	 width="72.825px" height="24.375px" viewBox="0 0 72.825 24.375" enable-background="new 0 0 72.825 24.375" xml:space="preserve">
<path fill-rule="evenodd" clip-rule="evenodd" fill="#FFCC00" d="M70.7,20v2.25h-2.25V20H70.7z M2.15,2.05H4.4V4.3L2.15,4.4V2.05z"
	/>
<path fill-rule="evenodd" clip-rule="evenodd" fill="#B9B288" d="M72.7,0.05v0.075V24.25H0.1V0.1
	c0.017-0.004,0.025-0.021,0.025-0.05H72.7z M68.45,2.05V4.4h2.25V2.05V4.4h-2.25V2.05z M68.45,22.25H10.175H68.45h2.25V20V4.4V20
	h-2.25V22.25z M2.15,2.05V4.4L4.4,4.3V2.05H2.15z M4.4,22.25V20H2.15v2.225V20H4.4V22.25z M2.15,4.4V20V4.4z M4.4,2.05h58.275H4.4z"
	/>
<path fill-rule="evenodd" clip-rule="evenodd" fill="none" stroke="#000000" stroke-width="0.1" stroke-linecap="round" stroke-linejoin="round" stroke-miterlimit="3" d="
	M72.7,0.05v0.075c0.05,0,0.075-0.025,0.075-0.075H72.7z M68.45,2.05V4.4h2.25V2.05 M68.45,22.25V20h2.25V4.4 M70.7,20v2.25h-2.25
	H10.175 M72.7,24.25h0.075c0,0.05-0.025,0.075-0.075,0.075V24.25H0.1V0.1C0.088,0.116,0.071,0.125,0.05,0.125V0.05H0.1h0.025H72.7
	 M72.7,0.125V24.25 M2.15,2.05V4.4L4.4,4.3V2.05H2.15z M0.1,0.1c0.017-0.004,0.025-0.021,0.025-0.05 M0.1,0.05V0.1 M4.4,22.25V20
	H2.15v2.225 M2.15,4.4V20 M4.4,2.05h58.275"/>
</svg>
