<?xml version="1.0" encoding="utf-8"?>
<!-- Generator: Adobe Illustrator 15.0.2, SVG Export Plug-In . SVG Version: 6.00 Build 0)  -->
<!DOCTYPE svg PUBLIC "-//W3C//DTD SVG 1.1//EN" "http://www.w3.org/Graphics/SVG/1.1/DTD/svg11.dtd">
<svg version="1.1" id="Layer_1" xmlns="http://www.w3.org/2000/svg" xmlns:xlink="http://www.w3.org/1999/xlink" x="0px" y="0px"
	 width="66.725px" height="30.475px" viewBox="0 0 66.725 30.475" enable-background="new 0 0 66.725 30.475" xml:space="preserve">
<path fill-rule="evenodd" clip-rule="evenodd" fill="#FFCC00" d="M45.75,2.45h5.55v3.375h-5.55V2.45z M65.7,14l-0.075,2.5h-2.475V14
	H65.7z M1.1,16.475V14h2.5l-0.025,2.5L1.1,16.475z"/>
<path fill-rule="evenodd" clip-rule="evenodd" fill="#E7E7E7" d="M33.05,7.2v1.9c-0.69,0.132-1.057,0.59-1.1,1.375
	c0.043,0.741,0.41,1.199,1.1,1.375V12c-0.045,0.06-0.079,0.118-0.1,0.175c-0.023,0.144,0.035,0.285,0.175,0.425
	c0.2,0.15,0.4,0.125,0.6-0.075c0.061-0.122,0.086-0.229,0.075-0.325c-0.009-0.056-0.026-0.105-0.05-0.15v-0.225
	c0.616-0.185,0.966-0.635,1.05-1.35c-0.084-0.758-0.435-1.216-1.05-1.375V7.2h8.15c0.367,0,0.55,0.167,0.55,0.5v5.55
	c0,0.3-0.184,0.45-0.55,0.45H24.75c-0.3,0-0.45-0.15-0.45-0.45V7.7c0-0.333,0.167-0.5,0.5-0.5H33.05z"/>
<polygon fill-rule="evenodd" clip-rule="evenodd" points="53.149,4.3 52.05,4.3 52.05,4.95 53.25,4.95 53.25,5.2 51.8,5.2 
	51.8,3.25 53.2,3.25 53.2,3.5 52.05,3.5 52.05,4.1 53.149,4.1 "/>
<path fill-rule="evenodd" clip-rule="evenodd" fill="#B9B288" d="M45.75,2.45v3.375h5.55V2.45H45.75z M35.899,2.85v0.075h-0.075V3
	H35.75v0.15h-0.075v0.3H35.6v1.425h0.075v0.3h0.075v0.15h0.075V5.4h0.075v0.075h0.225V5.4H36.2V5.325h0.075v-0.15h0.075v-0.3h0.075
	V3.45H36.35v-0.3h-0.075V3H36.2V2.925h-0.075V2.85H35.899z M32.55,4.625c0.112,0.177,0.279,0.318,0.5,0.425V7.2H24.8
	c-0.333,0-0.5,0.167-0.5,0.5v5.55c0,0.3,0.15,0.45,0.45,0.45h17.15c0.367,0,0.55-0.15,0.55-0.45V7.7c0-0.333-0.184-0.5-0.55-0.5
	h-8.15V5.075c0.1-0.05,0.2-0.125,0.3-0.225c0.1-0.1,0.225-0.15,0.375-0.15H34.8c0.55-0.383,0.55-0.775,0-1.175v-0.1h-0.375
	c-0.15,0.05-0.275,0.025-0.375-0.075C33.7,3.05,33.325,3,32.925,3.2c-0.35,0.2-0.525,0.525-0.525,0.975
	C32.42,4.342,32.47,4.492,32.55,4.625z M53.149,4.3V4.1h-1.1V3.5h1.15V3.25h-1.4V5.2h1.45V4.95h-1.2V4.3H53.149z M65.7,16.5V14V1.1
	V14h-2.55v2.5h2.475H65.7v12.8l-20.2,0.025l-24.2,0.05L5.075,29.4L21.3,29.375l24.2-0.05L65.7,29.3V16.5z M1.1,14V1.1h20.2h24.2
	h16.125H45.5H21.3H1.1V14v2.475V29.3V16.475L3.575,16.5L3.6,14H1.1z M66.6,30.35H0.05V0.15h66.6v30.2H66.6z M48.524,18.3
	c-0.6,0.05-0.925,0.375-0.975,0.975c0.05,0.65,0.375,1,0.975,1.05c0.65-0.1,1-0.45,1.05-1.05
	C49.475,18.675,49.125,18.35,48.524,18.3z M45.5,29.325V1.1V29.325z M18.2,4.95c-0.2,0-0.3,0.1-0.3,0.3
	c0,0.144,0.05,0.235,0.15,0.275L18.3,6.6l0.075-1.075L18.8,5.4h0.675l-1.05-0.375l-0.05-0.175c0.356-0.086,0.556-0.328,0.6-0.725
	c-0.05-0.4-0.3-0.625-0.75-0.675c-0.4,0.05-0.625,0.275-0.675,0.675c0.05,0.45,0.275,0.7,0.675,0.75L18.2,4.95z M18.225,18.3
	c-0.6,0.05-0.925,0.375-0.975,0.975c0.05,0.65,0.375,1,0.975,1.05c0.65-0.1,1-0.45,1.05-1.05
	C19.175,18.675,18.825,18.35,18.225,18.3z M21.3,1.1v28.275V1.1z"/>
<path fill-rule="evenodd" clip-rule="evenodd" fill="none" stroke="#000000" stroke-width="0.1" stroke-linecap="round" stroke-linejoin="round" stroke-miterlimit="3" d="
	M45.75,2.45v3.375h5.55V2.45H45.75z M35.899,2.85v0.075h-0.075V3H35.75v0.15h-0.075v0.3H35.6v1.425h0.075v0.3h0.075v0.15h0.075V5.4
	h0.075v0.075h0.225V5.4H36.2V5.325h0.075v-0.15h0.075v-0.3h0.075V3.45H36.35v-0.3h-0.075V3H36.2V2.925h-0.075V2.85H35.899z
	 M33.05,7.2H24.8c-0.333,0-0.5,0.167-0.5,0.5v5.55c0,0.3,0.15,0.45,0.45,0.45h17.15c0.367,0,0.55-0.15,0.55-0.45V7.7
	c0-0.333-0.184-0.5-0.55-0.5h-8.15v1.9c0.616,0.159,0.966,0.617,1.05,1.375c-0.084,0.715-0.435,1.166-1.05,1.35v0.225
	c0.024,0.045,0.041,0.095,0.05,0.15c0.011,0.095-0.014,0.203-0.075,0.325c-0.2,0.2-0.4,0.225-0.6,0.075
	c-0.14-0.14-0.198-0.282-0.175-0.425c0.021-0.057,0.055-0.115,0.1-0.175v-0.15c-0.69-0.176-1.057-0.634-1.1-1.375
	c0.043-0.785,0.41-1.243,1.1-1.375V7.2z M34.8,3.525v-0.1h-0.375c-0.15,0.05-0.275,0.025-0.375-0.075C33.7,3.05,33.325,3,32.925,3.2
	c-0.35,0.2-0.525,0.525-0.525,0.975c0.021,0.167,0.071,0.317,0.15,0.45C32.483,4.142,32.625,3.8,32.975,3.6
	c0.4-0.2,0.7-0.125,0.9,0.225c0.038,0.076,0.063,0.151,0.075,0.225c0.014,0.047,0.022,0.089,0.025,0.125
	c0.017,0.196-0.058,0.354-0.225,0.475v0.425c0.1-0.05,0.2-0.125,0.3-0.225c0.1-0.1,0.225-0.15,0.375-0.15H34.8V3.525z M33.95,4.05
	c-0.2-0.167-0.4-0.25-0.6-0.25s-0.3,0.1-0.3,0.3v0.95V7.2h0.7V5.075 M34.8,4.7c0.55-0.383,0.55-0.775,0-1.175 M33.399,9.5h-0.025
	c-0.026,0.002-0.051,0.002-0.075,0c-0.1,0.029-0.15,0.104-0.15,0.225c0,0.1,0.075,0.15,0.225,0.15c0.1,0,0.15-0.05,0.15-0.15
	C33.524,9.594,33.483,9.519,33.399,9.5c0.132,0.016,0.249,0.049,0.35,0.1V9.1c-0.116-0.025-0.241-0.042-0.375-0.05
	c-0.115,0.006-0.224,0.023-0.325,0.05v0.45c0.077-0.021,0.16-0.037,0.25-0.05 M33.75,9.65c0.022,0,0.048,0,0.075,0h0.025
	c-0.031-0.02-0.065-0.037-0.1-0.05V9.65v0.375c0.022,0,0.048,0,0.075,0c0.1,0,0.15-0.05,0.15-0.15c0-0.069-0.008-0.119-0.025-0.15
	c-0.03-0.026-0.063-0.051-0.1-0.075 M33.75,9.65c-0.1,0.027-0.15,0.103-0.15,0.225c0,0.082,0.05,0.132,0.15,0.15v0.825
	c0.022,0,0.048,0,0.075,0c0.1,0,0.15,0.075,0.15,0.225c0,0.037-0.008,0.07-0.025,0.1c0.097-0.083,0.172-0.183,0.225-0.3h-0.05
	c-0.15,0-0.225-0.05-0.225-0.15c0-0.15,0.075-0.225,0.225-0.225c0.066,0,0.108,0.033,0.125,0.1c0.013-0.041,0.021-0.082,0.025-0.125
	c-0.003-0.042-0.012-0.083-0.025-0.125c0.017-0.019,0.025-0.044,0.025-0.075c0-0.121-0.033-0.196-0.1-0.225
	c-0.053-0.136-0.128-0.244-0.225-0.325 M34.25,10.35c-0.015-0.107-0.04-0.207-0.075-0.3h-0.05c-0.15,0-0.225,0.075-0.225,0.225
	c0,0.1,0.075,0.15,0.225,0.15C34.194,10.425,34.235,10.4,34.25,10.35z M34.274,10.725c0-0.05-0.008-0.092-0.025-0.125
	c-0.012,0.099-0.037,0.191-0.075,0.275C34.241,10.856,34.274,10.806,34.274,10.725z M33.425,11.375c0.066-0.02,0.1-0.069,0.1-0.15
	c0-0.15-0.05-0.225-0.15-0.225c-0.15,0-0.225,0.075-0.225,0.225c0,0.071,0.042,0.121,0.125,0.15c0.029-0.003,0.062-0.003,0.1,0
	H33.425z M33.75,11.225V11.3c0.045-0.025,0.087-0.05,0.125-0.075h-0.05C33.797,11.225,33.772,11.225,33.75,11.225z M33.875,11.225
	c0.027-0.018,0.052-0.035,0.075-0.05 M33.75,10.85c-0.1,0.027-0.15,0.103-0.15,0.225c0,0.082,0.05,0.131,0.15,0.15V10.85z
	 M33.274,11.375c-0.08-0.013-0.155-0.03-0.225-0.05v0.525c0.101,0.021,0.209,0.037,0.325,0.05c0.134-0.016,0.259-0.041,0.375-0.075
	V11.3c-0.094,0.034-0.202,0.059-0.325,0.075 M32.95,12.175c0.066,0.217,0.2,0.325,0.4,0.325s0.35-0.1,0.45-0.3 M66.675,0.05
	c0,0.05-0.025,0.075-0.075,0.075V0.05H66.675z M65.625,16.5h-2.475V14h2.55V1.1 M1.1,14V1.1h20.2h24.2h16.125 M65.7,16.5v12.8
	l-20.2,0.025l-24.2,0.05L5.075,29.4 M66.649,30.35H66.6v0.075c0.05,0,0.075-0.025,0.075-0.075H66.649z M48.45,18.8
	c-0.3,0-0.45,0.15-0.45,0.45c0,0.35,0.15,0.525,0.45,0.525c0.35,0,0.525-0.175,0.525-0.525C48.975,18.95,48.8,18.8,48.45,18.8z
	 M48.524,18.3c-0.6,0.05-0.925,0.375-0.975,0.975c0.05,0.65,0.375,1,0.975,1.05c0.65-0.1,1-0.45,1.05-1.05
	C49.475,18.675,49.125,18.35,48.524,18.3z M65.7,14l-0.075,2.5 M66.6,30.35H0.05V0.15h66.6v30.2 M45.5,29.325V1.1 M65.7,14v2.5
	 M1.1,14h2.5l-0.025,2.5L1.1,16.475V29.3 M0.125,0.05c0,0.05-0.025,0.075-0.075,0.075V0.05H0.125z M18.375,4.85
	c0.356-0.086,0.556-0.328,0.6-0.725c-0.05-0.4-0.3-0.625-0.75-0.675c-0.4,0.05-0.625,0.275-0.675,0.675
	c0.05,0.45,0.275,0.7,0.675,0.75C18.277,4.869,18.327,4.861,18.375,4.85z M18.2,4.95c0.1,0,0.175,0.025,0.225,0.075 M18.05,5.525
	L18.1,5.55l0.25-0.025c0.1-0.038,0.15-0.129,0.15-0.275c0-0.1-0.025-0.175-0.075-0.225 M18.1,5.55c0.029,0,0.062,0,0.1,0
	c0.055,0,0.104-0.008,0.15-0.025h0.025L18.8,5.4h0.675l-1.05-0.375 M18.375,5.525L18.3,6.6l-0.25-1.075
	c-0.1-0.04-0.15-0.131-0.15-0.275c0-0.2,0.1-0.3,0.3-0.3 M32.55,4.625c0.112,0.177,0.279,0.318,0.5,0.425 M33.05,9.55
	c-0.394,0.137-0.61,0.445-0.65,0.925c0.008,0.09,0.025,0.174,0.05,0.25c0-0.15,0.075-0.225,0.225-0.225c0.1,0,0.15,0.075,0.15,0.225
	c0,0.1-0.05,0.15-0.15,0.15c-0.094,0-0.161-0.017-0.2-0.05c0.102,0.241,0.294,0.408,0.575,0.5V11.2
	c-0.021,0.017-0.046,0.025-0.075,0.025c-0.15,0-0.225-0.05-0.225-0.15c0-0.15,0.075-0.225,0.225-0.225
	c0.029,0,0.054,0.008,0.075,0.025V10c-0.021,0.017-0.046,0.025-0.075,0.025c-0.15,0-0.225-0.05-0.225-0.15
	c0-0.15,0.075-0.225,0.225-0.225c0.029,0,0.054,0.008,0.075,0.025V9.55z M32.45,10.275c0,0.1,0.075,0.15,0.225,0.15
	c0.1,0,0.15-0.05,0.15-0.15c0-0.15-0.05-0.225-0.15-0.225C32.524,10.05,32.45,10.125,32.45,10.275z M33.125,9.875
	c0-0.106-0.025-0.173-0.075-0.2V10C33.1,9.987,33.125,9.946,33.125,9.875z M33.125,11.075c0-0.106-0.025-0.173-0.075-0.2V11.2
	C33.1,11.188,33.125,11.146,33.125,11.075z M32.45,10.725c0.009,0.031,0.018,0.065,0.025,0.1 M18.725,19.25
	c0-0.3-0.15-0.45-0.45-0.45c-0.35,0-0.525,0.15-0.525,0.45c0,0.35,0.175,0.525,0.525,0.525C18.575,19.775,18.725,19.6,18.725,19.25z
	 M18.225,18.3c-0.6,0.05-0.925,0.375-0.975,0.975c0.05,0.65,0.375,1,0.975,1.05c0.65-0.1,1-0.45,1.05-1.05
	C19.175,18.675,18.825,18.35,18.225,18.3z M21.3,1.1v28.275 M1.1,16.475V14"/>
</svg>
