<?xml version="1.0" encoding="utf-8"?>
<!-- Generator: Adobe Illustrator 15.0.2, SVG Export Plug-In . SVG Version: 6.00 Build 0)  -->
<!DOCTYPE svg PUBLIC "-//W3C//DTD SVG 1.1//EN" "http://www.w3.org/Graphics/SVG/1.1/DTD/svg11.dtd">
<svg version="1.1" id="Layer_1" xmlns="http://www.w3.org/2000/svg" xmlns:xlink="http://www.w3.org/1999/xlink" x="0px" y="0px"
	 width="112.225px" height="104.725px" viewBox="0 0 112.225 104.725" enable-background="new 0 0 112.225 104.725"
	 xml:space="preserve">
<rect x="0.05" y="0.05" fill-rule="evenodd" clip-rule="evenodd" fill="#660000" width="112.125" height="1.25"/>
<path fill-rule="evenodd" clip-rule="evenodd" fill="#B9B288" d="M112.175,1.3v21.125H82.3v82.25H29.925v-82.25H0.05V1.3H112.175z
	 M65.8,38.675c0-0.683-0.292-1.017-0.875-1c-0.683-0.017-1.017,0.317-1,1c-0.017,0.583,0.317,0.875,1,0.875
	C65.508,39.55,65.8,39.258,65.8,38.675z M61.3,42.175l-2.175,0.575l2.175-0.2V42.175z M54.55,42.175h0.575V42.3h1.75v-0.125h0.5V42
	h0.175v-0.575h-0.375L57.05,41.3h-2.125l-0.175,0.125h-0.325V42L54.4,42.125c-0.065-0.14-0.24-0.207-0.525-0.2
	c-0.225-0.008-0.333,0.1-0.325,0.325c-0.008,0.358,0.1,0.542,0.325,0.55c0.358-0.008,0.542-0.192,0.55-0.55L54.55,42.175z
	 M55.375,45c-0.048,0.127-0.031,0.252,0.05,0.375c0.064,0.058,0.147,0.116,0.25,0.175v6.125v3.2c-0.008,0.216,0.1,0.316,0.325,0.3
	c0.241,0.017,0.366-0.083,0.375-0.3v-3.2h2.3c0.35-0.017,0.583,0.025,0.7,0.125c0.216,0.25,0.316,0.5,0.3,0.75v19.375
	c0.017,0.367-0.083,0.617-0.3,0.75c-0.117,0.225-0.35,0.333-0.7,0.325h-2.3h2.3c0.35,0.008,0.583-0.1,0.7-0.325
	c0.216-0.133,0.316-0.383,0.3-0.75V52.55c0.017-0.25-0.083-0.5-0.3-0.75c-0.117-0.1-0.35-0.142-0.7-0.125h-2.3V45.55
	c0.065-0.047,0.124-0.088,0.175-0.125l0.075-0.05l0.025-0.05c0.013-0.051,0.021-0.101,0.025-0.15
	c0.022-0.042,0.047-0.083,0.075-0.125c0.026-0.157-0.015-0.298-0.125-0.425l0.05-1.2l0.075-0.5c-0.467-0.467-0.992-0.467-1.575,0
	L55.375,45z M54.425,62.3v0.075c0,0.925,0.525,1.442,1.575,1.55h0.05c0.89-0.129,1.39-0.646,1.5-1.55V62.3
	c-0.13-0.87-0.63-1.37-1.5-1.5v-1.125V60.8H56C55.087,60.91,54.562,61.41,54.425,62.3h-1H54.425z M57.675,42.25l-0.925,2.8
	L57.675,42.25c-0.012,0.335,0.071,0.519,0.25,0.55H58c0.358-0.008,0.542-0.192,0.55-0.55c-0.008-0.225-0.192-0.333-0.55-0.325
	C57.775,41.917,57.667,42.025,57.675,42.25z M50.925,42.55l2-0.5l-2,0.125V42.55z M64.925,84.925c-0.683-0.017-1.017,0.317-1,1
	c-0.017,0.583,0.317,0.875,1,0.875c0.583,0,0.875-0.292,0.875-0.875C65.8,85.242,65.508,84.908,64.925,84.925z M56.375,73v-3.375
	C56.366,69.4,56.241,69.292,56,69.3c-0.225-0.008-0.333,0.1-0.325,0.325V73h-2.25c-0.25,0.008-0.5-0.1-0.75-0.325
	c-0.1-0.133-0.142-0.383-0.125-0.75v-9.25v9.25c-0.017,0.367,0.025,0.617,0.125,0.75c0.25,0.225,0.5,0.333,0.75,0.325h2.25v5.925
	c-0.164,0.05-0.247,0.134-0.25,0.25v0.075L55,82.3h-0.075l-0.175,0.125h-0.325V83h0.125v0.175h0.575L55.3,83.3h1.575v-0.125h0.5V83
	h0.175v-0.575h-0.375L57.05,82.3l-0.3-2.675c0.001-0.153-0.024-0.278-0.075-0.375c-0.031-0.154-0.131-0.263-0.3-0.325V73z
	 M57.925,42.8l0.2,2.625L57.925,42.8z M57.55,62.3h1.125H57.55z M56.05,63.925v1V63.925z M61.3,82.05l-2.175,0.575l2.175-0.2V82.05z
	 M58,81.8c-0.225-0.008-0.333,0.1-0.325,0.325c-0.008,0.358,0.1,0.542,0.325,0.55c0.358-0.008,0.542-0.192,0.55-0.55
	C58.542,81.9,58.358,81.792,58,81.8z M58.175,85.3L57.8,82.8l0.2,2.5H58.175z M47.425,39.55c0.583,0,0.875-0.292,0.875-0.875
	c0-0.683-0.292-1.017-0.875-1c-0.683-0.017-1.017,0.317-1,1C46.408,39.258,46.742,39.55,47.425,39.55z M53.875,39.3l0.375,2.45
	l-0.2-2.45H53.875z M55.675,51.675h-2.25c-0.25-0.017-0.5,0.025-0.75,0.125c-0.1,0.25-0.142,0.5-0.125,0.75v9.25v-9.25
	c-0.017-0.25,0.025-0.5,0.125-0.75c0.25-0.1,0.5-0.142,0.75-0.125H55.675z M53.875,79.175l0.375,2.45l-0.2-2.45H53.875z
	 M54.425,82.125c-0.008-0.225-0.192-0.333-0.55-0.325c-0.225-0.008-0.333,0.1-0.325,0.325c-0.008,0.358,0.1,0.542,0.325,0.55
	c0.261-0.006,0.428-0.106,0.5-0.3C54.406,82.305,54.422,82.222,54.425,82.125z M50.925,82.425l2-0.5l-2,0.125V82.425z
	 M47.425,84.925c-0.683-0.017-1.017,0.317-1,1c-0.017,0.583,0.317,0.875,1,0.875c0.583,0,0.875-0.292,0.875-0.875
	C48.3,85.242,48.008,84.908,47.425,84.925z"/>
<path fill-rule="evenodd" clip-rule="evenodd" fill="none" stroke="#000000" stroke-width="0.1" stroke-linecap="round" stroke-linejoin="round" stroke-miterlimit="3" d="
	M112.175,1.3V0.05H0.05V1.3H112.175z M65.8,38.675c0-0.683-0.292-1.017-0.875-1c-0.683-0.017-1.017,0.317-1,1
	c-0.017,0.583,0.317,0.875,1,0.875C65.508,39.55,65.8,39.258,65.8,38.675z M64.75,39.05c0.358-0.008,0.542-0.192,0.55-0.55
	c-0.008-0.225-0.192-0.333-0.55-0.325c-0.225-0.008-0.333,0.1-0.325,0.325C64.417,38.858,64.525,39.042,64.75,39.05z M61.3,42.175
	l-2.175,0.575l2.175-0.2V42.175z M54.55,42.175h0.575V42.3h1.75v-0.125h0.5V42h0.175v-0.575h-0.375L57.05,41.3h-2.125l-0.175,0.125
	h-0.325V42h0.125V42.175z M57.675,42.25c-0.012,0.335,0.071,0.519,0.25,0.55H58c0.358-0.008,0.542-0.192,0.55-0.55
	c-0.008-0.225-0.192-0.333-0.55-0.325C57.775,41.917,57.667,42.025,57.675,42.25l-0.925,2.8 M56.65,45.325
	c0.013-0.051,0.021-0.101,0.025-0.15c0.022-0.042,0.047-0.083,0.075-0.125c0.026-0.157-0.015-0.298-0.125-0.425L56.55,44.55
	c-0.35-0.233-0.642-0.233-0.875,0l-0.05,0.075L55.55,44.75c-0.088,0.197-0.046,0.421,0.125,0.675v-0.55
	c-0.008-0.225,0.1-0.333,0.325-0.325c0.211-0.011,0.336,0.072,0.375,0.25C56.598,44.976,56.69,45.15,56.65,45.325l-0.025,0.05
	l-0.075,0.05c-0.051,0.037-0.109,0.078-0.175,0.125v6.125 M56.375,45.55V44.8 M56.375,73v5.925c0.168,0.062,0.269,0.171,0.3,0.325
	c0.051,0.097,0.076,0.222,0.075,0.375l0.3,2.675l0.125,0.125h0.375V83h-0.175v0.175h-0.5V83.3H55.3l-0.175-0.125H54.55V83h-0.125
	v-0.575h0.325l0.175-0.125H55l0.425-3.05v-0.075c0.003-0.116,0.086-0.2,0.25-0.25V73v-3.375C55.667,69.4,55.775,69.292,56,69.3
	c0.241-0.008,0.366,0.1,0.375,0.325V73z M56.625,44.625l0.05-1.2H55.3l0.325,1.2 M57.925,42.8l0.2,2.625 M56.675,43.425l0.075-0.5
	c-0.467-0.467-0.992-0.467-1.575,0l0.125,0.5 M0.05,1.3v21.125h29.875v82.25H82.3v-82.25h29.875V1.3 M56.05,59.675V60.8
	c0.87,0.13,1.37,0.63,1.5,1.5h1.125 M54.425,62.3h0.75c0-0.583,0.292-0.875,0.875-0.875V60.8H56
	C55.087,60.91,54.562,61.41,54.425,62.3v0.075c0,0.925,0.525,1.442,1.575,1.55h0.05v1 M57.55,62.3h-0.625
	c0,0.583-0.292,0.875-0.875,0.875v0.75c0.89-0.129,1.39-0.646,1.5-1.55V62.3z M56.925,62.3H56.05v0.875
	c-0.583,0-0.875-0.292-0.875-0.875h0.875 M56.925,62.3c0-0.583-0.292-0.875-0.875-0.875V62.3 M61.3,82.05l-2.175,0.575l2.175-0.2
	V82.05z M56.375,79.625c-0.009,0.216-0.134,0.316-0.375,0.3c-0.184,0.014-0.292-0.044-0.325-0.175
	c-0.061-0.072-0.103-0.139-0.125-0.2c-0.075,0.18-0.033,0.388,0.125,0.625c0.233,0.233,0.525,0.233,0.875,0
	c0.089-0.133,0.13-0.258,0.125-0.375c0.018-0.189-0.082-0.355-0.3-0.5V79.625z M56.375,78.925V79.3 M56.675,79.8
	c0.026-0.07,0.051-0.128,0.075-0.175 M55.675,80.175L55.3,81.3h1.375l-0.125-1.125 M55.3,81.3l-0.125,0.325
	c0.583,0.466,1.108,0.466,1.575,0L56.675,81.3 M58,81.8c-0.225-0.008-0.333,0.1-0.325,0.325c-0.008,0.358,0.1,0.542,0.325,0.55
	c0.358-0.008,0.542-0.192,0.55-0.55C58.542,81.9,58.358,81.792,58,81.8z M58.175,85.3L57.8,82.8l0.2,2.5H58.175z M64.75,85.675
	c-0.225-0.008-0.333,0.1-0.325,0.325c-0.008,0.358,0.1,0.542,0.325,0.55c0.358-0.008,0.542-0.192,0.55-0.55
	C65.292,85.775,65.108,85.667,64.75,85.675z M64.925,84.925c-0.683-0.017-1.017,0.317-1,1c-0.017,0.583,0.317,0.875,1,0.875
	c0.583,0,0.875-0.292,0.875-0.875C65.8,85.242,65.508,84.908,64.925,84.925z M55.675,51.675v3.2c-0.008,0.216,0.1,0.316,0.325,0.3
	c0.241,0.017,0.366-0.083,0.375-0.3v-3.2 M47.425,39.55c0.583,0,0.875-0.292,0.875-0.875c0-0.683-0.292-1.017-0.875-1
	c-0.683-0.017-1.017,0.317-1,1C46.408,39.258,46.742,39.55,47.425,39.55z M47.25,39.05c0.358-0.008,0.542-0.192,0.55-0.55
	c-0.008-0.225-0.192-0.333-0.55-0.325c-0.225-0.008-0.333,0.1-0.325,0.325C46.917,38.858,47.025,39.042,47.25,39.05z M53.875,39.3
	l0.375,2.45l-0.2-2.45H53.875z M54.4,42.125c0.015,0.037,0.023,0.079,0.025,0.125 M54.4,42.125c-0.065-0.14-0.24-0.207-0.525-0.2
	c-0.225-0.008-0.333,0.1-0.325,0.325c-0.008,0.358,0.1,0.542,0.325,0.55c0.358-0.008,0.542-0.192,0.55-0.55 M55.375,45
	c-0.048,0.127-0.031,0.252,0.05,0.375c0.064,0.058,0.147,0.116,0.25,0.175v-0.125 M55.375,45c0.043-0.086,0.102-0.17,0.175-0.25
	 M55.175,42.925l0.2,2.075 M50.925,42.55l2-0.5l-2,0.125V42.55z M55.675,45.55v6.125 M54.425,62.3h-1 M53.875,79.175l0.375,2.45
	l-0.2-2.45H53.875z M55.425,79.25c-0.006,0.082,0.035,0.182,0.125,0.3c0.008-0.091,0.049-0.174,0.125-0.25v-0.375 M55.675,79.75
	c-0.002-0.042-0.002-0.084,0-0.125V79.3 M54.425,82.125c-0.008-0.225-0.192-0.333-0.55-0.325c-0.225-0.008-0.333,0.1-0.325,0.325
	c-0.008,0.358,0.1,0.542,0.325,0.55c0.261-0.006,0.428-0.106,0.5-0.3C54.406,82.305,54.422,82.222,54.425,82.125z M50.925,82.425
	l2-0.5l-2,0.125V82.425z M46.925,86c-0.008,0.358,0.1,0.542,0.325,0.55c0.358-0.008,0.542-0.192,0.55-0.55
	c-0.008-0.225-0.192-0.333-0.55-0.325C47.025,85.667,46.917,85.775,46.925,86z M47.425,84.925c-0.683-0.017-1.017,0.317-1,1
	c-0.017,0.583,0.317,0.875,1,0.875c0.583,0,0.875-0.292,0.875-0.875C48.3,85.242,48.008,84.908,47.425,84.925z M57.05,82.3H55"/>
<path fill-rule="evenodd" clip-rule="evenodd" fill="none" stroke="#2CB0CF" stroke-width="0.1" stroke-linecap="round" stroke-linejoin="round" stroke-miterlimit="3" d="
	M56.375,51.675h2.3c0.35-0.017,0.583,0.025,0.7,0.125c0.216,0.25,0.316,0.5,0.3,0.75v19.375c0.017,0.367-0.083,0.617-0.3,0.75
	c-0.117,0.225-0.35,0.333-0.7,0.325h-2.3h-0.7h-2.25c-0.25,0.008-0.5-0.1-0.75-0.325c-0.1-0.133-0.142-0.383-0.125-0.75v-9.25
	 M56.375,51.675h-0.7h-2.25c-0.25-0.017-0.5,0.025-0.75,0.125c-0.1,0.25-0.142,0.5-0.125,0.75v9.25"/>
</svg>
