<?xml version="1.0" encoding="utf-8"?>
<!-- Generator: Adobe Illustrator 15.0.2, SVG Export Plug-In . SVG Version: 6.00 Build 0)  -->
<!DOCTYPE svg PUBLIC "-//W3C//DTD SVG 1.1//EN" "http://www.w3.org/Graphics/SVG/1.1/DTD/svg11.dtd">
<svg version="1.1" id="Layer_1" xmlns="http://www.w3.org/2000/svg" xmlns:xlink="http://www.w3.org/1999/xlink" x="0px" y="0px"
	 width="48.649px" height="24.375px" viewBox="0 0 48.649 24.375" enable-background="new 0 0 48.649 24.375" xml:space="preserve">
<path fill-rule="evenodd" clip-rule="evenodd" fill="#FFCC00" d="M44.3,22.25V20h2.25v2.25H44.3z M44.3,2.05h2.25V4.4H44.3V2.05z
	 M4.4,2.05V4.3L2.15,4.4V2.05H4.4z M4.4,22.25H2.15V20H4.4V22.25z"/>
<path fill-rule="evenodd" clip-rule="evenodd" fill="#B9B288" d="M48.575,24.25H48.5H0.15V0.05H48.5v0.075
	c0.05,0,0.075-0.025,0.075-0.075H48.6v24.2H48.575z M44.3,2.05V4.4h2.25V2.05H44.3H4.4H2.15V4.4L4.4,4.3V2.05H44.3z M44.3,22.25
	h2.25V20H44.3V22.25H4.4V20H2.15v2.25H4.4H44.3z M46.55,4.4V20V4.4z M2.15,20V4.4V20z"/>
<path fill-rule="evenodd" clip-rule="evenodd" fill="none" stroke="#000000" stroke-width="0.1" stroke-linecap="round" stroke-linejoin="round" stroke-miterlimit="3" d="
	M48.575,0.05H48.5v0.075C48.55,0.125,48.575,0.1,48.575,0.05H48.6v24.2h-0.025c0,0.05-0.025,0.075-0.075,0.075V24.25H0.15V0.05H48.5
	 M44.3,2.05V4.4h2.25V2.05H44.3H4.4H2.15V4.4L4.4,4.3V2.05 M44.3,22.25h2.25V20H44.3V22.25z M48.575,24.25H48.5 M46.55,4.4V20
	 M0.05,0.125V0.05h0.075C0.125,0.1,0.1,0.125,0.05,0.125z M2.15,20H4.4v2.25h39.9 M4.4,22.25H2.15V20V4.4"/>
</svg>
