<?xml version="1.0" encoding="utf-8"?>
<!-- Generator: Adobe Illustrator 15.0.2, SVG Export Plug-In . SVG Version: 6.00 Build 0)  -->
<!DOCTYPE svg PUBLIC "-//W3C//DTD SVG 1.1//EN" "http://www.w3.org/Graphics/SVG/1.1/DTD/svg11.dtd">
<svg version="1.1" id="Layer_1" xmlns="http://www.w3.org/2000/svg" xmlns:xlink="http://www.w3.org/1999/xlink" x="0px" y="0px"
	 width="157.925px" height="37.35px" viewBox="0 0 157.925 37.35" enable-background="new 0 0 157.925 37.35" xml:space="preserve">
<path fill-rule="evenodd" clip-rule="evenodd" fill="#E7E7E7" d="M119.675,12.8c0.89-0.129,1.39-0.646,1.5-1.55v-0.075h1.125h-1.125
	c-0.103-0.686-0.437-1.145-1-1.375V7.55h9c0.367-0.017,0.617,0.025,0.75,0.125c0.225,0.25,0.333,0.5,0.325,0.75v5.25
	c0.008,0.35-0.1,0.583-0.325,0.7c-0.133,0.216-0.383,0.316-0.75,0.3H109.8c-0.25,0.017-0.5-0.083-0.75-0.3
	c-0.1-0.117-0.142-0.35-0.125-0.7v-5.25c-0.017-0.25,0.025-0.5,0.125-0.75c0.25-0.1,0.5-0.142,0.75-0.125h9.5v2.125
	c-0.718,0.117-1.135,0.617-1.25,1.5v0.075c0,0.925,0.525,1.442,1.575,1.55H119.675v1V12.8z M118.05,11.175h-1H118.05z M41.05,9.675
	c-0.718,0.117-1.135,0.617-1.25,1.5h-1h1v0.075c0,0.925,0.525,1.442,1.575,1.55h0.05c0.89-0.129,1.39-0.646,1.5-1.55v-0.075
	c-0.103-0.686-0.437-1.145-1-1.375V7.55h9c0.367-0.017,0.617,0.025,0.75,0.125c0.225,0.25,0.333,0.5,0.325,0.75v5.25
	c0.008,0.35-0.1,0.583-0.325,0.7c-0.133,0.216-0.383,0.316-0.75,0.3H31.55c-0.25,0.017-0.5-0.083-0.75-0.3
	c-0.1-0.117-0.142-0.35-0.125-0.7v-5.25c-0.017-0.25,0.025-0.5,0.125-0.75c0.25-0.1,0.5-0.142,0.75-0.125h9.5V9.675z M42.925,11.175
	h1.125H42.925z M41.425,12.8v1V12.8z"/>
<path fill-rule="evenodd" clip-rule="evenodd" fill="#FFCC00" d="M99.55,3.05v4.375h-3.375V3.05H99.55z M137.425,4.55
	c-0.017-0.683,0.317-1.017,1-1c0.583-0.017,0.875,0.317,0.875,1c0,0.583-0.292,0.875-0.875,0.875
	C137.742,5.425,137.408,5.133,137.425,4.55z M20.55,4.55c0,0.583-0.292,0.875-0.875,0.875c-0.683,0-1.017-0.292-1-0.875
	c-0.017-0.683,0.317-1.017,1-1C20.258,3.533,20.55,3.867,20.55,4.55z M61.425,3.05H64.8v4.375h-3.375V3.05z"/>
<path fill-rule="evenodd" clip-rule="evenodd" fill="#B9B288" d="M99.55,3.05h-3.375v4.375h3.375V3.05z M82.425,5.55l1.625-1.875
	c0-0.117-0.058-0.117-0.175,0l-1.75,1.575h-0.2c-0.225-0.017-0.392,0.083-0.5,0.3c-0.117,0.25-0.117,0.5,0,0.75
	c0.233,0.117,0.467,0.117,0.7,0c0.216-0.125,0.316-0.309,0.3-0.55C82.308,5.625,82.308,5.558,82.425,5.55z M80.55,3.55
	c-0.683-0.017-1.017,0.317-1,1c-0.017,0.583,0.317,0.875,1,0.875c0.583,0,0.875-0.292,0.875-0.875
	C81.425,3.867,81.133,3.533,80.55,3.55z M82.175,6.625L83.925,8l0.2-0.2l-1.75-1.175H82.175z M121.375,3.675v-0.05h-0.5
	c-0.125-0.008-0.25-0.075-0.375-0.2c-0.458-0.333-0.917-0.375-1.375-0.125c-0.467,0.225-0.7,0.625-0.7,1.2
	c-0.002,0.231,0.123,0.44,0.375,0.625c0.131,0.087,0.298,0.17,0.5,0.25V7.55h-9.5c-0.25-0.017-0.5,0.025-0.75,0.125
	c-0.1,0.25-0.142,0.5-0.125,0.75v5.25c-0.017,0.35,0.025,0.583,0.125,0.7c0.25,0.216,0.5,0.316,0.75,0.3h19.375
	c0.367,0.017,0.617-0.083,0.75-0.3c0.225-0.117,0.333-0.35,0.325-0.7v-5.25c0.008-0.25-0.1-0.5-0.325-0.75
	c-0.133-0.1-0.383-0.142-0.75-0.125h-9V5.425c0.137-0.034,0.245-0.051,0.325-0.05c0.008-0.125,0.133-0.192,0.375-0.2h0.5
	C122.091,4.754,122.091,4.254,121.375,3.675z M137.425,4.55c-0.017,0.583,0.317,0.875,1,0.875c0.583,0,0.875-0.292,0.875-0.875
	c0-0.683-0.292-1.017-0.875-1C137.742,3.533,137.408,3.867,137.425,4.55z M138.425,5.85c-0.054,0.016-0.113,0.041-0.175,0.075
	c0.064-0.001,0.122-0.001,0.175,0c-0.053-0.001-0.111-0.001-0.175,0C138.312,5.891,138.371,5.866,138.425,5.85v0.075v0.85v0.15
	c0.157-0.009,0.282-0.051,0.375-0.125l0.125-0.175l2.625-0.2c0.017-0.116-0.025-0.175-0.125-0.175l-2.625-0.2
	C138.707,5.889,138.582,5.822,138.425,5.85z M138.25,5.925c-0.225-0.008-0.333,0.1-0.325,0.325c-0.002,0.064-0.002,0.123,0,0.175
	c0.034,0.24,0.142,0.365,0.325,0.375c0.064-0.001,0.122-0.01,0.175-0.025c-0.053,0.015-0.111,0.023-0.175,0.025
	c-0.184-0.01-0.292-0.135-0.325-0.375c-0.002-0.052-0.002-0.11,0-0.175C137.917,6.025,138.025,5.917,138.25,5.925z M122.55,3.125
	L122.425,3.3v2.125l0.125,0.125v0.375h0.575V5.75h0.175v-0.5h0.125V3.675L123.3,3.5V2.925h-0.175V2.8h-0.575V3.125z M137.925,6.425
	c-0.008,0.225,0.1,0.392,0.325,0.5c0.062,0.004,0.121,0.004,0.175,0c-0.054,0.004-0.113,0.004-0.175,0
	C138.025,6.816,137.917,6.65,137.925,6.425z M138.425,9.425H138.3l0.125-0.475L138.3,9.425H138.425z M138.425,8.95v0.475h0.25
	l0.2-2.175L138.425,8.95z M138.425,19.15c-0.175,0.167-0.258,0.425-0.25,0.775c-0.008,0.299,0.075,0.524,0.25,0.675
	c-0.175-0.151-0.258-0.376-0.25-0.675C138.167,19.575,138.25,19.317,138.425,19.15v1.45c0.167,0.133,0.417,0.2,0.75,0.2
	c0.583,0,0.875-0.292,0.875-0.875c0-0.683-0.292-1.017-0.875-1C138.841,18.917,138.591,18.992,138.425,19.15z M98.05,19.925
	c0-0.683-0.292-1.017-0.875-1c-0.683-0.017-1.017,0.317-1,1c-0.017,0.583,0.317,0.875,1,0.875
	C97.758,20.8,98.05,20.508,98.05,19.925z M157.875,37.3H0.05V0.05h157.825V37.3z M19.3,9.425h0.375l-0.5-2.175L19.3,9.425z
	 M16.55,6.25v0.175l2.45,0.2c0.117,0,0.175,0.058,0.175,0.175c0.117,0.1,0.35,0.142,0.7,0.125c0.1-0.108,0.2-0.275,0.3-0.5
	c0.017-0.342-0.083-0.508-0.3-0.5c-0.35-0.133-0.583-0.092-0.7,0.125L16.55,6.25z M20.55,4.55c0-0.683-0.292-1.017-0.875-1
	c-0.683-0.017-1.017,0.317-1,1c-0.017,0.583,0.317,0.875,1,0.875C20.258,5.425,20.55,5.133,20.55,4.55z M41.05,7.55h-9.5
	c-0.25-0.017-0.5,0.025-0.75,0.125c-0.1,0.25-0.142,0.5-0.125,0.75v5.25c-0.017,0.35,0.025,0.583,0.125,0.7
	c0.25,0.216,0.5,0.316,0.75,0.3h19.375c0.367,0.017,0.617-0.083,0.75-0.3c0.225-0.117,0.333-0.35,0.325-0.7v-5.25
	c0.008-0.25-0.1-0.5-0.325-0.75c-0.133-0.1-0.383-0.142-0.75-0.125h-9V5.425c0.137-0.034,0.245-0.051,0.325-0.05
	c0.008-0.125,0.133-0.192,0.375-0.2h0.5c0.716-0.421,0.716-0.921,0-1.5v-0.05h-0.5c-0.125-0.008-0.25-0.075-0.375-0.2
	C41.792,3.092,41.333,3.05,40.875,3.3c-0.467,0.225-0.7,0.625-0.7,1.2c-0.002,0.231,0.123,0.44,0.375,0.625
	c0.131,0.087,0.298,0.17,0.5,0.25V7.55z M78.125,6.05l-1.2,1.75L77.05,8l1.25-1.75L78.125,6.05z M78.5,5.75
	c-0.017,0.241,0.083,0.424,0.3,0.55c0.25,0.117,0.5,0.117,0.75,0c0.117-0.25,0.117-0.5,0-0.75c-0.125-0.217-0.309-0.317-0.55-0.3
	h-0.2l-1.875-1.575L78.5,5.55V5.75z M44.875,2.8H44.3v0.325L44.175,3.3v2.125L44.3,5.55v0.375h0.575V5.75h0.175v-0.5h0.125V3.675
	L45.05,3.5V2.925h-0.175V2.8z M61.425,3.05v4.375H64.8V3.05H61.425z M64.8,19.925c0-0.683-0.292-1.017-0.875-1
	c-0.683-0.017-1.017,0.317-1,1c-0.017,0.583,0.317,0.875,1,0.875C64.508,20.8,64.8,20.508,64.8,19.925z M18.925,20.8
	c0.583,0,0.875-0.292,0.875-0.875c0-0.683-0.292-1.017-0.875-1c-0.683-0.017-1.017,0.317-1,1C17.908,20.508,18.242,20.8,18.925,20.8
	z"/>
<path fill-rule="evenodd" clip-rule="evenodd" fill="none" stroke="#000000" stroke-width="0.1" stroke-linecap="round" stroke-linejoin="round" stroke-miterlimit="3" d="
	M99.55,3.05v4.375h-3.375V3.05H99.55z M82.425,5.55l1.625-1.875c0-0.117-0.058-0.117-0.175,0l-1.75,1.575h-0.2
	c-0.225-0.017-0.392,0.083-0.5,0.3c-0.117,0.25-0.117,0.5,0,0.75c0.233,0.117,0.467,0.117,0.7,0c0.216-0.125,0.316-0.309,0.3-0.55
	C82.308,5.625,82.308,5.558,82.425,5.55z M81.425,5.75c-0.008,0.358,0.1,0.542,0.325,0.55c0.358-0.008,0.542-0.192,0.55-0.55
	c-0.008-0.225-0.192-0.333-0.55-0.325C81.525,5.417,81.417,5.525,81.425,5.75z M80.55,3.55c-0.683-0.017-1.017,0.317-1,1
	c-0.017,0.583,0.317,0.875,1,0.875c0.583,0,0.875-0.292,0.875-0.875C81.425,3.867,81.133,3.533,80.55,3.55z M82.175,6.625L83.925,8
	l0.2-0.2l-1.75-1.175H82.175z M121.375,3.675v-0.05h-0.5c-0.125-0.008-0.25-0.075-0.375-0.2c-0.458-0.333-0.917-0.375-1.375-0.125
	c-0.467,0.225-0.7,0.625-0.7,1.2c-0.002,0.231,0.123,0.44,0.375,0.625c-0.159-0.579-0.009-0.979,0.45-1.2
	c0.35-0.242,0.7-0.133,1.05,0.325c0.178,0.276,0.136,0.543-0.125,0.8v0.375c0.137-0.034,0.245-0.051,0.325-0.05
	c0.008-0.125,0.133-0.192,0.375-0.2h0.5V3.675z M119.3,4.375v1c0.201,0.061,0.434,0.12,0.7,0.175v-0.3V4.375
	c-0.009-0.225-0.134-0.333-0.375-0.325C119.4,4.042,119.292,4.15,119.3,4.375z M118.8,5.125c0.131,0.087,0.298,0.17,0.5,0.25V7.55
	 M120.175,5.425c-0.052,0.047-0.111,0.088-0.175,0.125v2v1v1.2c0.061,0.015,0.12,0.032,0.175,0.05v0.625
	c0.208,0.102,0.333,0.293,0.375,0.575v0.175h0.625v0.075c-0.11,0.904-0.61,1.42-1.5,1.55h-0.05c-1.05-0.108-1.575-0.625-1.575-1.55
	v-0.075h-1 M120.175,7.55V5.425 M120,5.25c0.068-0.06,0.126-0.127,0.175-0.2 M120.175,7.55V9.8c0.563,0.23,0.897,0.689,1,1.375
	h1.125 M120,10.375v0.8h0.175v-0.75C120.123,10.401,120.064,10.384,120,10.375c-0.097-0.046-0.206-0.071-0.325-0.075v0.875H120V12
	c0.065-0.018,0.124-0.043,0.175-0.075v-0.75h0.375c0.004,0.146-0.013,0.271-0.05,0.375c-0.058,0.193-0.166,0.343-0.325,0.45
	c-0.051,0.017-0.11,0.034-0.175,0.05c-0.045,0.125-0.154,0.192-0.325,0.2 M119.8,9.675c-0.062,0.007-0.121,0.007-0.175,0
	c-0.114,0-0.222,0-0.325,0v0.7c0.108-0.046,0.233-0.071,0.375-0.075L119.8,9.675z M120,8.55l-0.2,1.125
	c0.064,0.032,0.13,0.057,0.2,0.075v0.625 M119.675,12.8v-0.55h-0.05c-0.175,0.005-0.284-0.062-0.325-0.2V12
	c-0.333-0.105-0.5-0.38-0.5-0.825h-0.75c0.115-0.883,0.532-1.383,1.25-1.5V7.55 M119.3,12c0.108,0.038,0.233,0.054,0.375,0.05
	v-0.875H119.3V12z M119.3,11.175h-0.5c0-0.437,0.167-0.704,0.5-0.8V11.175z M120.5,11.55c-0.06,0.176-0.168,0.301-0.325,0.375V12
	 M120,12c-0.081,0.03-0.172,0.047-0.275,0.05c0.099,0,0.191,0,0.275,0V12z M119.675,12.05h0.05 M119.675,12.05v0.2 M119.675,12.8v1
	 M137.425,4.55c-0.017-0.683,0.317-1.017,1-1c0.583-0.017,0.875,0.317,0.875,1c0,0.583-0.292,0.875-0.875,0.875
	C137.742,5.425,137.408,5.133,137.425,4.55z M138.425,5.85c-0.054,0.016-0.113,0.041-0.175,0.075c0.064-0.001,0.122-0.001,0.175,0
	 M138.25,5.925c-0.225-0.008-0.333,0.1-0.325,0.325c-0.002,0.064-0.002,0.123,0,0.175c0.034,0.24,0.142,0.365,0.325,0.375
	c0.064-0.001,0.122-0.01,0.175-0.025c0.243-0.056,0.368-0.231,0.375-0.525c-0.007-0.185-0.132-0.293-0.375-0.325 M138.425,6.925
	c0.157-0.009,0.282-0.051,0.375-0.125l0.125-0.175l2.625-0.2c0.017-0.116-0.025-0.175-0.125-0.175l-2.625-0.2
	c-0.093-0.161-0.218-0.228-0.375-0.2 M122.55,3.125L122.425,3.3v2.125l0.125,0.125v0.375h0.575V5.75h0.175v-0.5h0.125V3.675
	L123.3,3.5V2.925h-0.175V2.8h-0.575V3.125z M121.375,5.175c0.716-0.421,0.716-0.921,0-1.5 M137.925,6.425
	c-0.008,0.225,0.1,0.392,0.325,0.5c0.062,0.004,0.121,0.004,0.175,0 M138.425,9.425H138.3l0.125-0.475l0.45-1.7l-0.2,2.175H138.425z
	 M139,19.425c-0.225-0.008-0.333,0.1-0.325,0.325c-0.008,0.358,0.1,0.542,0.325,0.55c0.358-0.008,0.542-0.192,0.55-0.55
	C139.542,19.525,139.358,19.417,139,19.425z M138.425,20.6c0.167,0.133,0.417,0.2,0.75,0.2c0.583,0,0.875-0.292,0.875-0.875
	c0-0.683-0.292-1.017-0.875-1c-0.333-0.008-0.583,0.067-0.75,0.225c-0.175,0.167-0.258,0.425-0.25,0.775
	C138.167,20.224,138.25,20.449,138.425,20.6z M98.05,19.925c0-0.683-0.292-1.017-0.875-1c-0.683-0.017-1.017,0.317-1,1
	c-0.017,0.583,0.317,0.875,1,0.875C97.758,20.8,98.05,20.508,98.05,19.925z M97.55,19.75c-0.008-0.225-0.192-0.333-0.55-0.325
	c-0.225-0.008-0.333,0.1-0.325,0.325c-0.008,0.358,0.1,0.542,0.325,0.55C97.358,20.292,97.542,20.108,97.55,19.75z M157.875,37.3
	H0.05V0.05h157.825V37.3z M19.3,9.425h0.375l-0.5-2.175L19.3,9.425z M19.5,6.8c0.358-0.008,0.542-0.192,0.55-0.55
	c-0.008-0.225-0.192-0.333-0.55-0.325c-0.225-0.008-0.333,0.1-0.325,0.325C19.167,6.608,19.275,6.792,19.5,6.8z M16.55,6.25v0.175
	l2.45,0.2c0.117,0,0.175,0.058,0.175,0.175c0.117,0.1,0.35,0.142,0.7,0.125c0.1-0.108,0.2-0.275,0.3-0.5
	c0.017-0.342-0.083-0.508-0.3-0.5c-0.35-0.133-0.583-0.092-0.7,0.125L16.55,6.25z M20.55,4.55c0-0.683-0.292-1.017-0.875-1
	c-0.683-0.017-1.017,0.317-1,1c-0.017,0.583,0.317,0.875,1,0.875C20.258,5.425,20.55,5.133,20.55,4.55z M39.8,11.175h-1
	 M41.425,12.8h-0.05c-1.05-0.108-1.575-0.625-1.575-1.55v-0.075 M41.925,7.55V9.8c0.563,0.23,0.897,0.689,1,1.375h1.125 M44.875,2.8
	H44.3v0.325L44.175,3.3v2.125L44.3,5.55v0.375h0.575V5.75h0.175v-0.5h0.125V3.675L45.05,3.5V2.925h-0.175V2.8z M41.375,4.05
	c-0.225-0.008-0.333,0.1-0.325,0.325v1c0.201,0.061,0.434,0.12,0.7,0.175v-0.3V4.375C41.741,4.15,41.616,4.042,41.375,4.05z
	 M43.125,3.675v-0.05h-0.5c-0.125-0.008-0.25-0.075-0.375-0.2C41.792,3.092,41.333,3.05,40.875,3.3c-0.467,0.225-0.7,0.625-0.7,1.2
	c-0.002,0.231,0.123,0.44,0.375,0.625c-0.159-0.579-0.009-0.979,0.45-1.2c0.35-0.242,0.7-0.133,1.05,0.325
	c0.178,0.276,0.136,0.543-0.125,0.8v0.375c0.137-0.034,0.245-0.051,0.325-0.05c0.008-0.125,0.133-0.192,0.375-0.2h0.5V3.675z
	 M40.55,5.125c0.131,0.087,0.298,0.17,0.5,0.25V7.55v2.125 M41.925,5.425c-0.052,0.047-0.111,0.088-0.175,0.125v2v1v1.2
	c0.061,0.015,0.12,0.032,0.175,0.05 M41.925,7.55V5.425 M41.75,5.25c0.068-0.06,0.126-0.127,0.175-0.2 M43.125,5.175
	c0.716-0.421,0.716-0.921,0-1.5 M41.75,9.75v0.625c0.064,0.009,0.123,0.026,0.175,0.05V9.8 M41.375,9.675c-0.114,0-0.222,0-0.325,0
	v0.7c0.108-0.046,0.233-0.071,0.375-0.075l0.125-0.625C41.488,9.682,41.429,9.682,41.375,9.675z M41.425,10.3v0.875h0.325v-0.8
	C41.653,10.329,41.544,10.304,41.425,10.3z M41.75,8.55l-0.2,1.125c0.064,0.032,0.13,0.057,0.2,0.075 M41.05,11.175h-0.5
	c0,0.445,0.167,0.72,0.5,0.825V11.175z M41.05,12.05c0.042,0.139,0.149,0.206,0.325,0.2h0.05v-0.2
	c-0.142,0.004-0.267-0.012-0.375-0.05V12.05z M42.925,11.175H42.3L42.25,11.5c-0.039,0.225-0.147,0.392-0.325,0.5
	c-0.052,0.017-0.11,0.034-0.175,0.05c-0.045,0.125-0.154,0.192-0.325,0.2v0.55c0.89-0.129,1.39-0.646,1.5-1.55V11.175z M42.3,11.175
	V11c-0.034-0.277-0.159-0.469-0.375-0.575v0.75H42.3z M41.425,11.175v0.875h0.05c0.104-0.002,0.195-0.02,0.275-0.05v-0.825h0.175
	 M41.475,12.05c0.1,0,0.191,0,0.275,0V12c0.064-0.018,0.123-0.043,0.175-0.075v-0.75 M42.25,11.5
	c-0.041,0.206-0.149,0.348-0.325,0.425V12 M41.05,10.375v0.8h0.375 M41.05,10.375c-0.333,0.096-0.5,0.363-0.5,0.8H39.8
	c0.115-0.883,0.532-1.383,1.25-1.5 M41.425,12.8v1 M78.125,6.05l-1.2,1.75L77.05,8l1.25-1.75L78.125,6.05z M78.5,5.75
	c-0.017,0.241,0.083,0.424,0.3,0.55c0.25,0.117,0.5,0.117,0.75,0c0.117-0.25,0.117-0.5,0-0.75c-0.125-0.217-0.309-0.317-0.55-0.3
	h-0.2l-1.875-1.575L78.5,5.55V5.75z M79,5.425c-0.225-0.008-0.333,0.1-0.325,0.325C78.667,6.108,78.775,6.292,79,6.3
	c0.358-0.008,0.542-0.192,0.55-0.55C79.542,5.525,79.358,5.417,79,5.425z M61.425,3.05v4.375H64.8V3.05H61.425z M64.8,19.925
	c0-0.683-0.292-1.017-0.875-1c-0.683-0.017-1.017,0.317-1,1c-0.017,0.583,0.317,0.875,1,0.875C64.508,20.8,64.8,20.508,64.8,19.925z
	 M63.75,20.3c0.358-0.008,0.542-0.192,0.55-0.55c-0.008-0.225-0.192-0.333-0.55-0.325c-0.225-0.008-0.333,0.1-0.325,0.325
	C63.417,20.108,63.525,20.292,63.75,20.3z M18.75,20.3c0.358-0.008,0.542-0.192,0.55-0.55c-0.008-0.225-0.192-0.333-0.55-0.325
	c-0.225-0.008-0.333,0.1-0.325,0.325C18.417,20.108,18.525,20.292,18.75,20.3z M18.925,20.8c0.583,0,0.875-0.292,0.875-0.875
	c0-0.683-0.292-1.017-0.875-1c-0.683-0.017-1.017,0.317-1,1C17.908,20.508,18.242,20.8,18.925,20.8z"/>
<path fill-rule="evenodd" clip-rule="evenodd" fill="none" stroke="#2CB0CF" stroke-width="0.1" stroke-linecap="round" stroke-linejoin="round" stroke-miterlimit="3" d="
	M120,7.55h0.175 M119.3,7.55h-9.5c-0.25-0.017-0.5,0.025-0.75,0.125c-0.1,0.25-0.142,0.5-0.125,0.75v5.25
	c-0.017,0.35,0.025,0.583,0.125,0.7c0.25,0.216,0.5,0.316,0.75,0.3h19.375c0.367,0.017,0.617-0.083,0.75-0.3
	c0.225-0.117,0.333-0.35,0.325-0.7v-5.25c0.008-0.25-0.1-0.5-0.325-0.75c-0.133-0.1-0.383-0.142-0.75-0.125h-9 M41.05,7.55h-9.5
	c-0.25-0.017-0.5,0.025-0.75,0.125c-0.1,0.25-0.142,0.5-0.125,0.75v5.25c-0.017,0.35,0.025,0.583,0.125,0.7
	c0.25,0.216,0.5,0.316,0.75,0.3h19.375c0.367,0.017,0.617-0.083,0.75-0.3c0.225-0.117,0.333-0.35,0.325-0.7v-5.25
	c0.008-0.25-0.1-0.5-0.325-0.75c-0.133-0.1-0.383-0.142-0.75-0.125h-9 M41.75,7.55h0.175"/>
</svg>
