<?xml version="1.0" encoding="utf-8"?>
<!-- Generator: Adobe Illustrator 15.0.2, SVG Export Plug-In . SVG Version: 6.00 Build 0)  -->
<!DOCTYPE svg PUBLIC "-//W3C//DTD SVG 1.1//EN" "http://www.w3.org/Graphics/SVG/1.1/DTD/svg11.dtd">
<svg version="1.1" id="Layer_1" xmlns="http://www.w3.org/2000/svg" xmlns:xlink="http://www.w3.org/1999/xlink" x="0px" y="0px"
	 width="77px" height="55px" viewBox="0 0 37 25" enable-background="new 0 0 37 25" xml:space="preserve">
<path fill-rule="evenodd" clip-rule="evenodd" fill="#996600" d="M16.15-10.125c0-0.3,0.15-0.45,0.45-0.45
	c0.35,0,0.525,0.15,0.525,0.45c0,0.35-0.175,0.525-0.525,0.525C16.3-9.6,16.15-9.775,16.15-10.125z M16.6,9.6
	c0.35,0,0.525,0.15,0.525,0.45c0,0.35-0.175,0.525-0.525,0.525c-0.3,0-0.45-0.175-0.45-0.525C16.15,9.75,16.3,9.6,16.6,9.6z
	 M-16.7-9.6c-0.3,0-0.45-0.175-0.45-0.525c0-0.3,0.15-0.45,0.45-0.45c0.35,0,0.525,0.15,0.525,0.45
	C-16.175-9.775-16.35-9.6-16.7-9.6z M-16.7,9.6c0.35,0,0.525,0.15,0.525,0.45c0,0.35-0.175,0.525-0.525,0.525
	c-0.3,0-0.45-0.175-0.45-0.525C-17.15,9.75-17,9.6-16.7,9.6z"/>
<path fill-rule="evenodd" clip-rule="evenodd" fill="#FFFFFF" d="M16.675-9.075c-0.6-0.05-0.925-0.4-0.975-1.05
	c0.05-0.6,0.375-0.925,0.975-0.975c0.6,0.05,0.95,0.375,1.05,0.975C17.675-9.525,17.325-9.175,16.675-9.075z M16.15-10.125
	c0,0.35,0.15,0.525,0.45,0.525c0.35,0,0.525-0.175,0.525-0.525c0-0.3-0.175-0.45-0.525-0.45C16.3-10.575,16.15-10.425,16.15-10.125z
	 M17.725,10.05c-0.05,0.6-0.4,0.95-1.05,1.05c-0.6-0.05-0.925-0.4-0.975-1.05c0.05-0.6,0.375-0.925,0.975-0.975
	C17.275,9.125,17.625,9.45,17.725,10.05z M16.6,9.6c-0.3,0-0.45,0.15-0.45,0.45c0,0.35,0.15,0.525,0.45,0.525
	c0.35,0,0.525-0.175,0.525-0.525C17.125,9.75,16.95,9.6,16.6,9.6z M-16.625-11.1c0.6,0.05,0.95,0.375,1.05,0.975
	c-0.05,0.6-0.4,0.95-1.05,1.05c-0.6-0.05-0.925-0.4-0.975-1.05C-17.55-10.725-17.225-11.05-16.625-11.1z M-16.7-9.6
	c0.35,0,0.525-0.175,0.525-0.525c0-0.3-0.175-0.45-0.525-0.45c-0.3,0-0.45,0.15-0.45,0.45C-17.15-9.775-17-9.6-16.7-9.6z
	 M-16.625,11.1c-0.6-0.05-0.925-0.4-0.975-1.05c0.05-0.6,0.375-0.925,0.975-0.975c0.6,0.05,0.95,0.375,1.05,0.975
	C-15.625,10.65-15.975,11-16.625,11.1z M-16.7,9.6c-0.3,0-0.45,0.15-0.45,0.45c0,0.35,0.15,0.525,0.45,0.525
	c0.35,0,0.525-0.175,0.525-0.525C-16.175,9.75-16.35,9.6-16.7,9.6z"/>
<path fill-rule="evenodd" clip-rule="evenodd" fill="#BDB186" d="M32.8-17.7h2.4H32.8v-2.475h2.4v2.475l0.15,35.325H32.8V-17.7z
	 M-32.75,20.175h-2.55v-2.55V-17.7h2.55v35.325h-2.55h2.55V20.175z"/>
<path fill-rule="evenodd" clip-rule="evenodd" fill="#B9B288" d="M16.675-9.075c0.65-0.1,1-0.45,1.05-1.05
	c-0.1-0.6-0.45-0.925-1.05-0.975c-0.6,0.05-0.925,0.375-0.975,0.975C15.75-9.475,16.075-9.125,16.675-9.075z M36.325-21.15v42.3
	h-72.6v-42.375h72.6V-21.15z M35.2-17.7v-2.475h-2.4v2.475v35.325v2.55v-2.55h2.55L35.2-17.7z M35.35,17.625v2.55V17.625z
	 M17.725,10.05c-0.1-0.6-0.45-0.925-1.05-0.975c-0.6,0.05-0.925,0.375-0.975,0.975c0.05,0.65,0.375,1,0.975,1.05
	C17.325,11,17.675,10.65,17.725,10.05z M-35.3-20.175v2.475V-20.175z M-35.3-17.7v35.325v2.55h2.55h57.975H-32.75v-2.55V-17.7
	v-2.475v2.475H-35.3z M-16.625-11.1c-0.6,0.05-0.925,0.375-0.975,0.975c0.05,0.65,0.375,1,0.975,1.05c0.65-0.1,1-0.45,1.05-1.05
	C-15.675-10.725-16.025-11.05-16.625-11.1z M-16.625,11.1c0.65-0.1,1-0.45,1.05-1.05c-0.1-0.6-0.45-0.925-1.05-0.975
	c-0.6,0.05-0.925,0.375-0.975,0.975C-17.55,10.7-17.225,11.05-16.625,11.1z M32.8-20.175h-58.125H32.8z"/>
<path fill-rule="evenodd" clip-rule="evenodd" fill="none" stroke="#000000" stroke-width="0.1" stroke-linecap="round" stroke-linejoin="round" stroke-miterlimit="3" d="
	M16.675-9.075c0.65-0.1,1-0.45,1.05-1.05c-0.1-0.6-0.45-0.925-1.05-0.975c-0.6,0.05-0.925,0.375-0.975,0.975
	C15.75-9.475,16.075-9.125,16.675-9.075z M16.15-10.125c0,0.35,0.15,0.525,0.45,0.525c0.35,0,0.525-0.175,0.525-0.525
	c0-0.3-0.175-0.45-0.525-0.45C16.3-10.575,16.15-10.425,16.15-10.125z M36.325-21.225v0.075c0.05,0,0.075-0.025,0.075-0.075H36.325z
	 M35.2-17.7v-2.475h-2.4v2.475H35.2l0.15,35.325H32.8v2.55 M35.35,17.625v2.55 M36.325,21.15H36.4c0,0.05-0.025,0.075-0.075,0.075
	V21.15h-72.6v-42.375c-0.001,0.05-0.027,0.075-0.075,0.075v-0.075h0.075h72.6 M17.725,10.05c-0.1-0.6-0.45-0.925-1.05-0.975
	c-0.6,0.05-0.925,0.375-0.975,0.975c0.05,0.65,0.375,1,0.975,1.05C17.325,11,17.675,10.65,17.725,10.05z M16.6,9.6
	c-0.3,0-0.45,0.15-0.45,0.45c0,0.35,0.15,0.525,0.45,0.525c0.35,0,0.525-0.175,0.525-0.525C17.125,9.75,16.95,9.6,16.6,9.6z
	 M36.325-21.15v42.3 M32.8,17.625V-17.7 M-35.3-20.175v2.475h2.55v-2.475 M-16.625-11.1c-0.6,0.05-0.925,0.375-0.975,0.975
	c0.05,0.65,0.375,1,0.975,1.05c0.65-0.1,1-0.45,1.05-1.05C-15.675-10.725-16.025-11.05-16.625-11.1z M-16.7-9.6
	c0.35,0,0.525-0.175,0.525-0.525c0-0.3-0.175-0.45-0.525-0.45c-0.3,0-0.45,0.15-0.45,0.45C-17.15-9.775-17-9.6-16.7-9.6z
	 M-16.625,11.1c0.65-0.1,1-0.45,1.05-1.05c-0.1-0.6-0.45-0.925-1.05-0.975c-0.6,0.05-0.925,0.375-0.975,0.975
	C-17.55,10.7-17.225,11.05-16.625,11.1z M-16.7,9.6c-0.3,0-0.45,0.15-0.45,0.45c0,0.35,0.15,0.525,0.45,0.525
	c0.35,0,0.525-0.175,0.525-0.525C-16.175,9.75-16.35,9.6-16.7,9.6z M-35.3,17.625h2.55V-17.7 M-32.75,17.625v2.55h57.975
	 M-32.75,20.175h-2.55v-2.55V-17.7 M32.8-20.175h-58.125"/>
</svg>
