<?xml version="1.0" encoding="utf-8"?>
<!-- Generator: Adobe Illustrator 15.0.2, SVG Export Plug-In . SVG Version: 6.00 Build 0)  -->
<!DOCTYPE svg PUBLIC "-//W3C//DTD SVG 1.1//EN" "http://www.w3.org/Graphics/SVG/1.1/DTD/svg11.dtd">
<svg version="1.1" id="Layer_1" xmlns="http://www.w3.org/2000/svg" xmlns:xlink="http://www.w3.org/1999/xlink" x="0px" y="0px"
	 width="69.475px" height="69.35px" viewBox="0 0 69.475 69.35" enable-background="new 0 0 69.475 69.35" xml:space="preserve">
<path fill-rule="evenodd" clip-rule="evenodd" fill="#E7E7E7" d="M37.55,39.25v0.05l1.2,0.7L40,38.75l-0.7-1.2h-0.05
	c-0.119,0-0.285,0-0.5,0c-0.459,0.341-0.859,0.741-1.2,1.2C37.55,38.959,37.55,39.125,37.55,39.25z M43,42.25l-0.625-0.625
	l0.05-0.075v-0.175L40.25,39.3l0.125-0.125V39.05h-0.2l-1,0.875v0.125l0.125,0.2l2.075,2.175h0.175l0.2-0.125l0.625,0.575
	c-2.067,1.93-4.608,2.946-7.625,3.05c-3.15-0.108-5.775-1.208-7.875-3.3c-2.1-2.1-3.208-4.725-3.325-7.875
	c-0.004-3.012,0.996-5.554,3-7.625l0.575,0.55l-0.575-0.55c0.116-0.075,0.224-0.158,0.325-0.25c0.132-0.137,0.274-0.262,0.425-0.375
	c2.018-1.857,4.501-2.841,7.45-2.95c3.15,0,5.775,1.108,7.875,3.325c2.091,2.1,3.191,4.725,3.3,7.875
	C45.824,37.703,44.849,40.203,43,42.25z M27.125,27.675L27.05,27.75v0.3l2.125,2l0.075,0.075l0.05,0.125l0.1-0.1l0.15,0.15v0.125
	l0.7,1.45c0.1-0.008,0.2-0.075,0.3-0.2c0.113-0.082,0.221-0.165,0.325-0.25c0.242-0.208,0.467-0.434,0.675-0.675
	c0.084-0.104,0.168-0.212,0.25-0.325c0.125-0.1,0.192-0.2,0.2-0.3l-1.45-0.7h-0.125l-0.15-0.15l0.1-0.1V29.05h-0.25l-2.075-2h-0.3
	L27.125,27.675z"/>
<path fill-rule="evenodd" clip-rule="evenodd" fill="#B9B288" d="M58.675,0.05l10.75,10.625v47.95L58.675,69.3L10.55,69.175
	l-10.5-10.55v-47.95L10.55,0.05H58.675z M34.675,6.925c-0.683-0.017-1.017,0.317-1,1c-0.017,0.583,0.317,0.875,1,0.875
	c0.583,0,0.875-0.292,0.875-0.875C35.55,7.242,35.258,6.908,34.675,6.925z M44.125,43.425L43,42.25
	c1.849-2.047,2.824-4.547,2.925-7.5c-0.108-3.15-1.208-5.775-3.3-7.875c-2.1-2.217-4.725-3.325-7.875-3.325
	c-2.949,0.109-5.433,1.093-7.45,2.95l-1.55-1.575l-1-1.225l-0.125,0.1H24.05v0.125h-0.125V24.5l2.625,2.625
	c-2.004,2.071-3.004,4.613-3,7.625c0.117,3.15,1.225,5.775,3.325,7.875c2.1,2.091,4.725,3.191,7.875,3.3
	c3.017-0.104,5.558-1.12,7.625-3.05L43.55,44l2.25,3.25c0.108,0,0.216,0,0.325,0H46.3l1.075-1.075V46c0-0.109,0-0.217,0-0.325
	L44.125,43.425z M47.875,45.175l1.75,1.625H49.8v-0.175l-1.625-1.75c-0.117-0.008-0.117-0.075,0-0.2
	c0.017-0.225-0.083-0.392-0.3-0.5c-0.233-0.117-0.467-0.117-0.7,0c-0.117,0.233-0.117,0.467,0,0.7
	c0.049,0.195,0.157,0.294,0.325,0.3h0.05h0.125l0.075-0.05l0.025-0.025L47.875,45.175z M61.425,35.55
	c0.583,0,0.875-0.292,0.875-0.875c0-0.683-0.292-1.017-0.875-1c-0.683-0.017-1.017,0.317-1,1
	C60.408,35.258,60.742,35.55,61.425,35.55z M49.55,42.425l-1.175,1.75V44.3l1.375-1.75L49.55,42.425z M42.675,45.425L44.25,47.3v0.2
	c-0.017,0.241,0.083,0.424,0.3,0.55c0.25,0.117,0.5,0.117,0.75,0c0.117-0.25,0.117-0.5,0-0.75c-0.125-0.217-0.309-0.317-0.55-0.3
	c-0.125,0.117-0.192,0.117-0.2,0L42.675,45.425z M24.75,23.7l-1.45-1.775h-0.375l-1,1V23.3l2.625,2.825L21.925,23.3v-0.375l1-1H23.3
	L24.75,23.7z M43.8,48l-0.175-0.2l-1.2,1.75l0.125,0.2L43.8,48z M35.55,61.425c0-0.683-0.292-1.017-0.875-1
	c-0.683-0.017-1.017,0.317-1,1c-0.017,0.583,0.317,0.875,1,0.875C35.258,62.3,35.55,62.008,35.55,61.425z M25.625,21.175V21.3
	L27,19.55l-0.2-0.125L25.625,21.175z M25.3,21.925c0.017-0.225-0.083-0.392-0.3-0.5c-0.233-0.117-0.467-0.117-0.7,0
	c-0.117,0.233-0.117,0.467,0,0.7c0.108,0.216,0.275,0.316,0.5,0.3c0.125-0.117,0.192-0.117,0.2,0l1.75,1.625h0.175v-0.175
	l-1.625-1.75C25.183,22.117,25.183,22.05,25.3,21.925z M22.3,24.3c-0.125-0.217-0.309-0.317-0.55-0.3
	c-0.125,0.117-0.192,0.117-0.2,0l-1.875-1.575L21.25,24.3v0.2c-0.017,0.241,0.083,0.424,0.3,0.55c0.25,0.117,0.5,0.117,0.75,0
	C22.417,24.8,22.417,24.55,22.3,24.3z M20.75,24.8l-1.2,1.75l0.125,0.2l1.25-1.75L20.75,24.8z M7.925,35.55
	c0.583,0,0.875-0.292,0.875-0.875c0-0.683-0.292-1.017-0.875-1c-0.683-0.017-1.017,0.317-1,1C6.908,35.258,7.242,35.55,7.925,35.55z
	"/>
<path fill-rule="evenodd" clip-rule="evenodd" fill="none" stroke="#000000" stroke-width="0.1" stroke-linecap="round" stroke-linejoin="round" stroke-miterlimit="3" d="
	M58.675,0.05H10.55L0.05,10.675v47.95l10.5,10.55L58.675,69.3l10.75-10.675v-47.95L58.675,0.05z M61.5,34.175
	c-0.225-0.008-0.333,0.1-0.325,0.325c-0.008,0.358,0.1,0.542,0.325,0.55c0.358-0.008,0.542-0.192,0.55-0.55
	C62.042,34.275,61.858,34.167,61.5,34.175z M34.675,6.925c-0.683-0.017-1.017,0.317-1,1c-0.017,0.583,0.317,0.875,1,0.875
	c0.583,0,0.875-0.292,0.875-0.875C35.55,7.242,35.258,6.908,34.675,6.925z M43,42.25c1.849-2.047,2.824-4.547,2.925-7.5
	c-0.108-3.15-1.208-5.775-3.3-7.875c-2.1-2.217-4.725-3.325-7.875-3.325c-2.949,0.109-5.433,1.093-7.45,2.95
	c-0.151,0.113-0.292,0.238-0.425,0.375c-0.102,0.092-0.209,0.175-0.325,0.25l0.575,0.55l0.625-0.625h0.3l2.075,2h0.25v0.125
	l-0.1,0.1 M30.425,29.425h0.125l1.45,0.7c-0.008,0.1-0.075,0.2-0.2,0.3c-0.082,0.113-0.166,0.221-0.25,0.325
	c-0.208,0.241-0.433,0.466-0.675,0.675c-0.104,0.085-0.212,0.168-0.325,0.25c-0.1,0.125-0.2,0.192-0.3,0.2l-0.7-1.45V30.3
	 M29.4,30.15l-0.1,0.1l-0.05-0.125l-0.075-0.075l-2.125-2v-0.3l0.075-0.075 M61.425,35.55c0.583,0,0.875-0.292,0.875-0.875
	c0-0.683-0.292-1.017-0.875-1c-0.683-0.017-1.017,0.317-1,1C60.408,35.258,60.742,35.55,61.425,35.55z M49.55,42.425l-1.175,1.75
	V44.3l1.375-1.75L49.55,42.425z M44.125,43.425l1.3,1.375h0.2v0.375c-0.008,0.1-0.075,0.142-0.2,0.125
	c0.017,0.125-0.025,0.192-0.125,0.2h-0.375v-0.2L43.55,44l2.25,3.25c0.108,0,0.216,0,0.325,0H46.3l1.075-1.075V46
	c0-0.109,0-0.217,0-0.325L44.125,43.425z M47.875,45.175l1.75,1.625H49.8v-0.175l-1.625-1.75c-0.117-0.008-0.117-0.075,0-0.2
	c0.017-0.225-0.083-0.392-0.3-0.5c-0.233-0.117-0.467-0.117-0.7,0c-0.117,0.233-0.117,0.467,0,0.7c-0.003-0.072-0.003-0.155,0-0.25
	c-0.008-0.225,0.1-0.333,0.325-0.325c0.358-0.008,0.542,0.1,0.55,0.325c-0.008,0.23-0.091,0.372-0.25,0.425
	C47.844,45.073,47.869,45.115,47.875,45.175z M47.775,45.1l-0.025,0.025l-0.075,0.05H47.55H47.5c-0.168-0.005-0.276-0.105-0.325-0.3
	 M47.75,45.125c-0.068,0.03-0.135,0.047-0.2,0.05 M47.8,45.05l-0.025,0.05 M39.25,37.55l0.5,1.2c0.116,0,0.116,0.058,0,0.175h-0.5
	c-0.17-0.152-0.362-0.319-0.575-0.5c-0.059,0.3,0.025,0.575,0.25,0.825v0.5c-0.117,0.116-0.175,0.116-0.175,0l-1.2-0.5v0.05l1.2,0.7
	L40,38.75l-0.7-1.2H39.25z M42.375,42.875L41.75,42.3l-0.2,0.125h-0.175L39.3,40.25l-0.125-0.2v-0.125l1-0.875h0.2v0.125L40.25,39.3
	l2.175,2.075v0.175l-0.05,0.075L43,42.25l1.125,1.175 M37.55,39.25c0-0.125,0-0.291,0-0.5c0.341-0.459,0.741-0.859,1.2-1.2
	c0.215,0,0.381,0,0.5,0 M42.375,42.875c0.078-0.078,0.161-0.161,0.25-0.25c0.131-0.131,0.256-0.256,0.375-0.375 M42.675,45.425
	L44.25,47.3v0.2c-0.017,0.241,0.083,0.424,0.3,0.55c0.25,0.117,0.5,0.117,0.75,0c0.117-0.25,0.117-0.5,0-0.75
	c-0.125-0.217-0.309-0.317-0.55-0.3c-0.125,0.117-0.192,0.117-0.2,0L42.675,45.425z M43.55,44l-1.175-1.125
	c-2.067,1.93-4.608,2.946-7.625,3.05c-3.15-0.108-5.775-1.208-7.875-3.3c-2.1-2.1-3.208-4.725-3.325-7.875
	c-0.004-3.012,0.996-5.554,3-7.625L23.925,24.5v-0.575h0.125V23.8h0.575 M24.75,23.7l-1.45-1.775h-0.375l-1,1V23.3l2.625,2.825
	 M42.375,41.625L41.75,42.3 M40.25,39.3l-0.95,0.95 M44.425,47.5c-0.008,0.358,0.1,0.542,0.325,0.55
	c0.358-0.008,0.542-0.192,0.55-0.55c-0.008-0.225-0.192-0.333-0.55-0.325C44.525,47.167,44.417,47.275,44.425,47.5z M43.8,48
	l-0.175-0.2l-1.2,1.75l0.125,0.2L43.8,48z M35.55,61.425c0-0.683-0.292-1.017-0.875-1c-0.683-0.017-1.017,0.317-1,1
	c-0.017,0.583,0.317,0.875,1,0.875C35.258,62.3,35.55,62.008,35.55,61.425z M34.175,7.75c-0.008,0.358,0.1,0.542,0.325,0.55
	c0.358-0.008,0.542-0.192,0.55-0.55c-0.008-0.225-0.192-0.333-0.55-0.325C34.275,7.417,34.167,7.525,34.175,7.75z M7.75,34.175
	c-0.225-0.008-0.333,0.1-0.325,0.325c-0.008,0.358,0.1,0.542,0.325,0.55c0.358-0.008,0.542-0.192,0.55-0.55
	C8.292,34.275,8.108,34.167,7.75,34.175z M25.625,21.175V21.3L27,19.55l-0.2-0.125L25.625,21.175z M25.3,21.925
	c0.017-0.225-0.083-0.392-0.3-0.5c-0.233-0.117-0.467-0.117-0.7,0c-0.117,0.233-0.117,0.467,0,0.7c0.108,0.216,0.275,0.316,0.5,0.3
	c0.125-0.117,0.192-0.117,0.2,0l1.75,1.625h0.175v-0.175l-1.625-1.75C25.183,22.117,25.183,22.05,25.3,21.925z M24.625,21.425
	c-0.225-0.008-0.333,0.1-0.325,0.325c-0.008,0.358,0.1,0.542,0.325,0.55c0.358-0.008,0.542-0.192,0.55-0.55
	C25.167,21.525,24.983,21.417,24.625,21.425z M22.3,24.3c-0.125-0.217-0.309-0.317-0.55-0.3c-0.125,0.117-0.192,0.117-0.2,0
	l-1.875-1.575L21.25,24.3v0.2c-0.017,0.241,0.083,0.424,0.3,0.55c0.25,0.117,0.5,0.117,0.75,0C22.417,24.8,22.417,24.55,22.3,24.3z
	 M21.425,24.5c-0.008,0.358,0.1,0.542,0.325,0.55c0.358-0.008,0.542-0.192,0.55-0.55c-0.008-0.225-0.192-0.333-0.55-0.325
	C21.525,24.167,21.417,24.275,21.425,24.5z M20.75,24.8l-1.2,1.75l0.125,0.2l1.25-1.75L20.75,24.8z M24.75,23.7l1,1.225L27.3,26.5
	 M25.75,24.925L24.625,23.8 M30.125,29.05l-0.95,0.875v0.125 M30.55,29.425l-0.125,0.125v0.375c0.088,0.187,0.213,0.337,0.375,0.45
	c-0.275,0.062-0.525,0.037-0.75-0.075h-0.375l-0.125,0.125 M30.425,29.425c-0.117,0.1-0.117,0.142,0,0.125l-0.75,0.75
	c0.017-0.117-0.025-0.117-0.125,0 M29.4,30.15l0.875-0.875 M7.925,35.55c0.583,0,0.875-0.292,0.875-0.875
	c0-0.683-0.292-1.017-0.875-1c-0.683-0.017-1.017,0.317-1,1C6.908,35.258,7.242,35.55,7.925,35.55z M34.175,61.25
	c-0.008,0.358,0.1,0.542,0.325,0.55c0.358-0.008,0.542-0.192,0.55-0.55c-0.008-0.225-0.192-0.333-0.55-0.325
	C34.275,60.917,34.167,61.025,34.175,61.25z"/>
</svg>
