<?xml version="1.0" encoding="utf-8"?>
<!-- Generator: Adobe Illustrator 15.0.2, SVG Export Plug-In . SVG Version: 6.00 Build 0)  -->
<!DOCTYPE svg PUBLIC "-//W3C//DTD SVG 1.1//EN" "http://www.w3.org/Graphics/SVG/1.1/DTD/svg11.dtd">
<svg version="1.1" id="Layer_1" xmlns="http://www.w3.org/2000/svg" xmlns:xlink="http://www.w3.org/1999/xlink" x="0px" y="0px"
	 width="82.175px" height="61.1px" viewBox="0 0 82.175 61.1" enable-background="new 0 0 82.175 61.1" xml:space="preserve">
<path fill-rule="evenodd" clip-rule="evenodd" fill="#E7E7E7" d="M46.05,29.05v-1V29.05c-0.89,0.024-1.39,0.549-1.5,1.575v0.05
	c0.019,0.872,0.519,1.372,1.5,1.5h0.075c0.795-0.092,1.295-0.483,1.5-1.175h1.05h1.95v3c0.008,0.225-0.1,0.45-0.325,0.675
	c-0.133,0.125-0.383,0.25-0.75,0.375H32.8c-0.25-0.008-0.5-0.133-0.75-0.375c-0.1-0.108-0.142-0.333-0.125-0.675v-3h3.625
	c0.225-0.009,0.333-0.134,0.325-0.375c0.008-0.225-0.1-0.333-0.325-0.325h-3.625v-3.125c-0.017-0.25,0.025-0.5,0.125-0.75
	c0.25-0.1,0.5-0.142,0.75-0.125h16.75c0.25-0.017,0.5,0.025,0.75,0.125c0.108,0.25,0.217,0.5,0.325,0.75V30.3h-3
	c-0.181-0.734-0.681-1.151-1.5-1.25H46.05z M46.05,32.175V33.3V32.175z M44.55,30.675h-1.125H44.55z"/>
<path fill-rule="evenodd" clip-rule="evenodd" fill="#B9B288" d="M81.3,4.55V1.425h-3.125V4.55H81.3z M53.05,31
	c0.087,0.329,0.337,0.595,0.75,0.8h0.125c0.349,0.113,0.749,0.055,1.2-0.175c0.008-0.125,0.133-0.192,0.375-0.2H56v-1.55h-0.5
	c-0.125-0.008-0.25-0.075-0.375-0.2c-0.458-0.333-0.917-0.375-1.375-0.125c-0.127,0.043-0.252,0.085-0.375,0.125
	c-0.134,0.176-0.217,0.385-0.25,0.625h-2.5v-3.125c-0.108-0.25-0.217-0.5-0.325-0.75c-0.25-0.1-0.5-0.142-0.75-0.125H32.8
	c-0.25-0.017-0.5,0.025-0.75,0.125c-0.1,0.25-0.142,0.5-0.125,0.75V30.3H29.25c-0.04-0.415-0.249-0.682-0.625-0.8
	c-0.418-0.329-0.902-0.312-1.45,0.05c-0.125,0.125-0.25,0.192-0.375,0.2h-0.5v0.05c-0.717,0.579-0.717,1.079,0,1.5h0.5
	c0.125,0.008,0.25,0.075,0.375,0.2c0.458,0.35,0.917,0.408,1.375,0.175c0.021-0.008,0.046-0.008,0.075,0
	c0.097-0.067,0.197-0.126,0.3-0.175c0.117-0.142,0.2-0.308,0.25-0.5h2.75v3c-0.017,0.342,0.025,0.567,0.125,0.675
	c0.25,0.242,0.5,0.367,0.75,0.375h16.75c0.367-0.125,0.617-0.25,0.75-0.375c0.225-0.225,0.333-0.45,0.325-0.675v-3H53.05z
	 M82.125,61.05H0.05v-61h82.075V61.05z M56.925,29.55v2.125L57.05,31.8v0.375h0.575V32H57.8v-0.5h0.125v-1.575L57.8,29.75v-0.575
	h-0.175V29.05H57.05v0.325L56.925,29.55z M62.55,17.425c-0.017,0.583,0.317,0.875,1,0.875c0.583,0,0.875-0.292,0.875-0.875
	c0-0.683-0.292-1.017-0.875-1C62.867,16.408,62.533,16.742,62.55,17.425z M67.425,28.3v4.375H70.8V28.3H67.425z M63.55,44.55
	c0.583,0,0.875-0.292,0.875-0.875c0-0.683-0.292-1.017-0.875-1c-0.683-0.017-1.017,0.317-1,1
	C62.533,44.258,62.867,44.55,63.55,44.55z M18.8,16.425c-0.683-0.017-1.017,0.317-1,1c-0.017,0.583,0.317,0.875,1,0.875
	c0.583,0,0.875-0.292,0.875-0.875C19.675,16.742,19.383,16.408,18.8,16.425z M12.8,25.55l0.575,2l-0.2-2H12.8z M12.675,28.675
	c-0.008,0.225,0.1,0.392,0.325,0.5c0.241,0.017,0.424-0.025,0.55-0.125l0.125-0.175l2.625-0.2c0.017-0.116-0.025-0.175-0.125-0.175
	l-2.5-0.2c0.017,0.117-0.025,0.117-0.125,0c-0.125-0.217-0.309-0.258-0.55-0.125c-0.225-0.008-0.333,0.1-0.325,0.325
	C12.672,28.564,12.672,28.623,12.675,28.675z M25.05,29.175h-0.175V29.05H24.3v0.325l-0.125,0.175v2.125L24.3,31.8v0.375h0.575V32
	h0.175v-0.5h0.125v-1.575L25.05,29.75V29.175z M13.375,32.05c-0.35-0.133-0.583-0.092-0.7,0.125l-2.625,0.2v0.175l2.45,0.2
	c0.117,0,0.175,0.058,0.175,0.175c0.117,0.1,0.35,0.142,0.7,0.125c0.216-0.108,0.316-0.275,0.3-0.5
	C13.691,32.208,13.591,32.042,13.375,32.05z M13.175,31.425c0.583,0,0.875-0.292,0.875-0.875c0-0.683-0.292-1.017-0.875-1
	c-0.683-0.017-1.017,0.317-1,1C12.158,31.133,12.492,31.425,13.175,31.425z M13.175,35.675l-0.5-2.175l0.125,2.175H13.175z
	 M19.675,43.675c0-0.683-0.292-1.017-0.875-1c-0.683-0.017-1.017,0.317-1,1c-0.017,0.583,0.317,0.875,1,0.875
	C19.383,44.55,19.675,44.258,19.675,43.675z"/>
<path fill-rule="evenodd" clip-rule="evenodd" fill="none" stroke="#000000" stroke-width="0.1" stroke-linecap="round" stroke-linejoin="round" stroke-miterlimit="3" d="
	M81.3,4.55h-3.125V1.425H81.3V4.55z M46.05,29.05v-1 M44.55,30.675h0.625c0-0.583,0.292-0.875,0.875-0.875v-0.75
	c-0.89,0.024-1.39,0.549-1.5,1.575V30.675z M46.875,30.3c0.037,0.108,0.054,0.233,0.05,0.375h0.75v-0.05
	c-0.009-0.114-0.026-0.222-0.05-0.325H46.875c-0.105-0.333-0.38-0.5-0.825-0.5v0.875h0.375v-0.05
	c-0.008-0.225,0.1-0.333,0.325-0.325H46.875z M47.625,30.3c-0.181-0.734-0.681-1.151-1.5-1.25H46.05 M50.625,30.3h-3 M31.925,30.3
	h3.625c0.225-0.008,0.333,0.1,0.325,0.325c0.008,0.241-0.1,0.366-0.325,0.375h-3.625h-2.75c-0.05,0.192-0.133,0.358-0.25,0.5
	c-0.103,0.049-0.203,0.107-0.3,0.175c-0.029-0.008-0.054-0.008-0.075,0c-0.458,0.233-0.917,0.175-1.375-0.175
	c-0.125-0.125-0.25-0.192-0.375-0.2h-0.5c-0.717-0.421-0.717-0.921,0-1.5v-0.05h0.5c0.125-0.008,0.25-0.075,0.375-0.2
	c0.548-0.362,1.032-0.378,1.45-0.05c0.376,0.118,0.585,0.385,0.625,0.8H31.925z M50.625,31h-1.95h-1.05
	c-0.205,0.691-0.705,1.083-1.5,1.175H46.05V33.3 M53.8,31.8h0.125c0.349,0.113,0.749,0.055,1.2-0.175
	c0.008-0.125,0.133-0.192,0.375-0.2H56v-1.55h-0.5c-0.125-0.008-0.25-0.075-0.375-0.2c-0.458-0.333-0.917-0.375-1.375-0.125
	c-0.127,0.043-0.252,0.085-0.375,0.125c-0.134,0.176-0.217,0.385-0.25,0.625H54c0.35-0.492,0.7-0.508,1.05-0.05
	c0.225,0.35,0.1,0.7-0.375,1.05c-0.429,0.219-0.762,0.119-1-0.3h-0.55c0.054,0.139,0.137,0.281,0.25,0.425
	C53.508,31.571,53.65,31.696,53.8,31.8z M54,30.3h0.3c0.225-0.008,0.333,0.1,0.325,0.325c0.008,0.241-0.1,0.366-0.325,0.375h-0.625
	 M56.925,29.55v2.125L57.05,31.8v0.375h0.575V32H57.8v-0.5h0.125v-1.575L57.8,29.75v-0.575h-0.175V29.05H57.05v0.325L56.925,29.55z
	 M50.625,30.3h2.5c-0.043,0.118-0.068,0.243-0.075,0.375v0.075c0.015,0.083,0.04,0.166,0.075,0.25H53.05
	c0.087,0.329,0.337,0.595,0.75,0.8 M63.3,17.25c-0.008,0.358,0.1,0.542,0.325,0.55c0.358-0.008,0.542-0.192,0.55-0.55
	c-0.008-0.225-0.192-0.333-0.55-0.325C63.4,16.917,63.292,17.025,63.3,17.25z M62.55,17.425c-0.017,0.583,0.317,0.875,1,0.875
	c0.583,0,0.875-0.292,0.875-0.875c0-0.683-0.292-1.017-0.875-1C62.867,16.408,62.533,16.742,62.55,17.425z M67.425,28.3v4.375H70.8
	V28.3H67.425z M64.175,43.5c-0.008-0.225-0.192-0.333-0.55-0.325c-0.225-0.008-0.333,0.1-0.325,0.325
	c-0.008,0.358,0.1,0.542,0.325,0.55C63.983,44.042,64.167,43.858,64.175,43.5z M63.55,44.55c0.583,0,0.875-0.292,0.875-0.875
	c0-0.683-0.292-1.017-0.875-1c-0.683-0.017-1.017,0.317-1,1C62.533,44.258,62.867,44.55,63.55,44.55z M53.05,30.75
	c-0.002,0.087-0.002,0.17,0,0.25 M48.675,31l-1-0.325c-0.012,0.115-0.029,0.223-0.05,0.325 M46.425,30.675h0.5
	c0.004,0.12-0.013,0.228-0.05,0.325h0.75 M46.05,30.675v0.875c0.472,0.004,0.747-0.179,0.825-0.55H46.75
	c-0.205-0.012-0.313-0.121-0.325-0.325 M45.175,30.675h0.875 M46.05,32.175V31.55c-0.583,0-0.875-0.292-0.875-0.875 M46.05,32.175
	c-0.981-0.128-1.481-0.628-1.5-1.5h-1.125 M50.625,31h2.425 M82.125,61.05H0.05v-61h82.075V61.05z M18.8,16.425
	c-0.683-0.017-1.017,0.317-1,1c-0.017,0.583,0.317,0.875,1,0.875c0.583,0,0.875-0.292,0.875-0.875
	C19.675,16.742,19.383,16.408,18.8,16.425z M18.3,17.25c-0.008,0.358,0.1,0.542,0.325,0.55c0.358-0.008,0.542-0.192,0.55-0.55
	c-0.008-0.225-0.192-0.333-0.55-0.325C18.4,16.917,18.292,17.025,18.3,17.25z M12.8,25.55l0.575,2l-0.2-2H12.8z M13,28.175
	c0.358-0.008,0.542,0.1,0.55,0.325c-0.008,0.358-0.192,0.542-0.55,0.55c-0.184-0.01-0.292-0.135-0.325-0.375
	c-0.008,0.225,0.1,0.392,0.325,0.5c0.241,0.017,0.424-0.025,0.55-0.125l0.125-0.175l2.625-0.2c0.017-0.116-0.025-0.175-0.125-0.175
	l-2.5-0.2c0.017,0.117-0.025,0.117-0.125,0C13.424,28.083,13.241,28.042,13,28.175c-0.225-0.008-0.333,0.1-0.325,0.325
	c-0.002,0.064-0.002,0.123,0,0.175 M25.05,29.175h-0.175V29.05H24.3v0.325l-0.125,0.175v2.125L24.3,31.8v0.375h0.575V32h0.175v-0.5
	h0.125v-1.575L25.05,29.75V29.175z M28.55,31.675c-0.541-0.042-0.916-0.292-1.125-0.75c-0.242-0.45-0.134-0.783,0.325-1
	c0.354-0.242,0.812-0.175,1.375,0.2c-0.039-0.131-0.105-0.256-0.2-0.375c-0.105-0.112-0.205-0.195-0.3-0.25 M29.175,31H28
	c-0.225-0.009-0.333-0.134-0.325-0.375C27.667,30.4,27.775,30.292,28,30.3h1.25c-0.041-0.061-0.083-0.119-0.125-0.175 M29.175,31
	c0.042-0.138,0.067-0.288,0.075-0.45V30.3 M13.375,32.05c-0.35-0.133-0.583-0.092-0.7,0.125l-2.625,0.2v0.175l2.45,0.2
	c0.117,0,0.175,0.058,0.175,0.175c0.117,0.1,0.35,0.142,0.7,0.125c0.216-0.108,0.316-0.275,0.3-0.5
	C13.691,32.208,13.591,32.042,13.375,32.05z M13.175,31.425c0.583,0,0.875-0.292,0.875-0.875c0-0.683-0.292-1.017-0.875-1
	c-0.683-0.017-1.017,0.317-1,1C12.158,31.133,12.492,31.425,13.175,31.425z M13,32.925c0.358-0.008,0.542-0.192,0.55-0.55
	c-0.008-0.225-0.192-0.333-0.55-0.325c-0.225-0.008-0.333,0.1-0.325,0.325C12.667,32.733,12.775,32.917,13,32.925z M13.175,35.675
	l-0.5-2.175l0.125,2.175H13.175z M19.175,43.5c-0.008-0.225-0.192-0.333-0.55-0.325c-0.225-0.008-0.333,0.1-0.325,0.325
	c-0.008,0.358,0.1,0.542,0.325,0.55C18.983,44.042,19.167,43.858,19.175,43.5z M19.675,43.675c0-0.683-0.292-1.017-0.875-1
	c-0.683-0.017-1.017,0.317-1,1c-0.017,0.583,0.317,0.875,1,0.875C19.383,44.55,19.675,44.258,19.675,43.675z M26.3,31.3v-1.5"/>
<path fill-rule="evenodd" clip-rule="evenodd" fill="none" stroke="#2CB0CF" stroke-width="0.1" stroke-linecap="round" stroke-linejoin="round" stroke-miterlimit="3" d="
	M50.625,30.3v-3.125c-0.108-0.25-0.217-0.5-0.325-0.75c-0.25-0.1-0.5-0.142-0.75-0.125H32.8c-0.25-0.017-0.5,0.025-0.75,0.125
	c-0.1,0.25-0.142,0.5-0.125,0.75V30.3V31v3c-0.017,0.342,0.025,0.567,0.125,0.675c0.25,0.242,0.5,0.367,0.75,0.375h16.75
	c0.367-0.125,0.617-0.25,0.75-0.375c0.225-0.225,0.333-0.45,0.325-0.675v-3V30.3z"/>
</svg>
