<?xml version="1.0" encoding="utf-8"?>
<!-- Generator: Adobe Illustrator 15.0.2, SVG Export Plug-In . SVG Version: 6.00 Build 0)  -->
<!DOCTYPE svg PUBLIC "-//W3C//DTD SVG 1.1//EN" "http://www.w3.org/Graphics/SVG/1.1/DTD/svg11.dtd">
<svg version="1.1" id="Layer_1" xmlns="http://www.w3.org/2000/svg" xmlns:xlink="http://www.w3.org/1999/xlink" x="0px" y="0px"
	 width="239.3px" height="37.35px" viewBox="0 0 239.3 37.35" enable-background="new 0 0 239.3 37.35" xml:space="preserve">
<path fill-rule="evenodd" clip-rule="evenodd" fill="#FFCC00" d="M169.55,2.925h3.375V7.3h-3.375V2.925z M66.05,2.925h3.375V7.3
	H66.05V2.925z"/>
<path fill-rule="evenodd" clip-rule="evenodd" fill="#E7E7E7" d="M119.3,7.55v2.2c-0.642,0.123-1.017,0.598-1.125,1.425h-1.125
	h1.125v0.075c-0.004,0.907,0.496,1.423,1.5,1.55v0.875V12.8h0.075c0.925-0.108,1.442-0.625,1.55-1.55v-0.075
	c-0.117-0.778-0.534-1.252-1.25-1.425v-2.2h9.25c0.367-0.017,0.617,0.025,0.75,0.125c0.225,0.25,0.333,0.5,0.325,0.75v5.25
	c0.008,0.35-0.1,0.583-0.325,0.7c-0.133,0.216-0.383,0.316-0.75,0.3h-19.375c-0.25,0.017-0.5-0.083-0.75-0.3
	c-0.1-0.117-0.142-0.35-0.125-0.7v-5.25c-0.017-0.25,0.025-0.5,0.125-0.75c0.25-0.1,0.5-0.142,0.75-0.125H119.3z M121.3,11.175h1
	H121.3z M197.925,12.8v0.875V12.8c0.891-0.129,1.391-0.646,1.5-1.55v-0.075h1.125h-1.125c-0.11-0.731-0.485-1.206-1.125-1.425V8.425
	V7.55h9.25c0.367-0.017,0.617,0.025,0.75,0.125c0.225,0.25,0.333,0.5,0.325,0.75v5.25c0.008,0.35-0.1,0.583-0.325,0.7
	c-0.133,0.216-0.383,0.316-0.75,0.3h-19.375c-0.25,0.017-0.5-0.083-0.75-0.3c-0.1-0.117-0.142-0.35-0.125-0.7v-5.25
	c-0.017-0.25,0.025-0.5,0.125-0.75c0.25-0.1,0.5-0.142,0.75-0.125h9.375v2.125c-0.718,0.117-1.135,0.617-1.25,1.5v0.075
	c0,0.925,0.525,1.442,1.575,1.55H197.925z M196.3,11.175h-1H196.3z M41.3,12.8v0.875V12.8c0.891-0.129,1.391-0.646,1.5-1.55v-0.075
	h1.125H42.8c-0.11-0.731-0.485-1.206-1.125-1.425V8.425V7.55h9.25c0.367-0.017,0.617,0.025,0.75,0.125
	c0.225,0.25,0.333,0.5,0.325,0.75v5.25c0.008,0.35-0.1,0.583-0.325,0.7c-0.133,0.216-0.383,0.316-0.75,0.3H31.55
	c-0.25,0.017-0.5-0.083-0.75-0.3c-0.1-0.117-0.142-0.35-0.125-0.7v-5.25c-0.017-0.25,0.025-0.5,0.125-0.75
	c0.25-0.1,0.5-0.142,0.75-0.125h9.375v2.125c-0.718,0.117-1.135,0.617-1.25,1.5h-1h1v0.075c0,0.925,0.525,1.442,1.575,1.55H41.3z"/>
<path fill-rule="evenodd" clip-rule="evenodd" fill="#BDB186" d="M122.675,2.8v0.325L122.55,3.3v2.125l0.125,0.125v0.375h0.575V5.75
	h0.175v-0.5h0.125V3.675L123.425,3.5V2.925h-0.175V2.8H122.675z M121.375,3.625h-0.5c-0.125-0.008-0.25-0.075-0.375-0.2
	c-0.458-0.333-0.917-0.375-1.375-0.125c-0.467,0.225-0.7,0.625-0.7,1.2c-0.003,0.353,0.289,0.645,0.875,0.875V7.55h-9.375
	c-0.25-0.017-0.5,0.025-0.75,0.125c-0.1,0.25-0.142,0.5-0.125,0.75v5.25c-0.017,0.35,0.025,0.583,0.125,0.7
	c0.25,0.216,0.5,0.316,0.75,0.3H129.3c0.367,0.017,0.617-0.083,0.75-0.3c0.225-0.117,0.333-0.35,0.325-0.7v-5.25
	c0.008-0.25-0.1-0.5-0.325-0.75c-0.133-0.1-0.383-0.142-0.75-0.125h-9.25V5.5c0.198-0.08,0.348-0.121,0.45-0.125
	c0.008-0.125,0.133-0.192,0.375-0.2h0.5v-0.05C122.091,4.663,122.091,4.163,121.375,3.625z M96.05,19.925
	c-0.017,0.583,0.317,0.875,1,0.875c0.583,0,0.875-0.292,0.875-0.875c0-0.683-0.292-1.017-0.875-1
	C96.367,18.908,96.033,19.242,96.05,19.925z M144,5.75c-0.017,0.241,0.083,0.424,0.3,0.55c0.25,0.117,0.5,0.117,0.75,0
	c0.117-0.25,0.117-0.5,0-0.75c-0.125-0.217-0.309-0.317-0.55-0.3h-0.2l-1.875-1.575L144,5.55V5.75z M143.625,6.05l-1.2,1.75
	L142.55,8l1.25-1.75L143.625,6.05z M146.05,5.425c0.583,0,0.875-0.292,0.875-0.875c0-0.683-0.292-1.017-0.875-1
	c-0.683-0.017-1.017,0.317-1,1C145.033,5.133,145.367,5.425,146.05,5.425z M147.55,5.25c-0.225-0.017-0.392,0.083-0.5,0.3
	c-0.117,0.25-0.117,0.5,0,0.75c0.233,0.117,0.467,0.117,0.7,0c0.216-0.125,0.316-0.309,0.3-0.55c-0.116-0.125-0.116-0.192,0-0.2
	l1.625-1.875c0-0.117-0.058-0.117-0.175,0l-1.75,1.575H147.55z M148,6.625h-0.2L149.55,8l0.2-0.2L148,6.625z M169.55,2.925V7.3
	h3.375V2.925H169.55z M198.3,7.55l-0.05-2c0.225-0.116,0.392-0.175,0.5-0.175c0.008-0.125,0.133-0.192,0.375-0.2h0.5v-0.05
	c0.716-0.462,0.716-0.962,0-1.5h-0.5c-0.125-0.008-0.25-0.075-0.375-0.2c-0.458-0.333-0.917-0.375-1.375-0.125
	c-0.467,0.225-0.7,0.625-0.7,1.2c-0.003,0.353,0.289,0.645,0.875,0.875V7.55h-9.375c-0.25-0.017-0.5,0.025-0.75,0.125
	c-0.1,0.25-0.142,0.5-0.125,0.75v5.25c-0.017,0.35,0.025,0.583,0.125,0.7c0.25,0.216,0.5,0.316,0.75,0.3h19.375
	c0.367,0.017,0.617-0.083,0.75-0.3c0.225-0.117,0.333-0.35,0.325-0.7v-5.25c0.008-0.25-0.1-0.5-0.325-0.75
	c-0.133-0.1-0.383-0.142-0.75-0.125H198.3z M219.375,5.925c-0.225-0.008-0.333,0.1-0.325,0.325c-0.002,0.064-0.002,0.123,0,0.175
	c-0.008,0.225,0.1,0.392,0.325,0.5c0.241,0.017,0.424-0.025,0.55-0.125l0.125-0.175l2.625-0.2c0.017-0.116-0.025-0.175-0.125-0.175
	l-2.625-0.2C219.799,5.833,219.616,5.792,219.375,5.925z M219.55,3.55c-0.683-0.017-1.017,0.317-1,1
	c-0.017,0.583,0.317,0.875,1,0.875c0.583,0,0.875-0.292,0.875-0.875C220.425,3.867,220.133,3.533,219.55,3.55z M200.8,3.125
	L200.675,3.3v2.125L200.8,5.55v0.375h0.575V5.75h0.175v-0.5h0.125V3.675L201.55,3.5V2.925h-0.175V2.8H200.8V3.125z M220,7.25
	l-0.575,2.175h0.375L220,7.25z M219.3,19.925c-0.017,0.583,0.317,0.875,1,0.875c0.583,0,0.875-0.292,0.875-0.875
	c0-0.683-0.292-1.017-0.875-1C219.617,18.908,219.283,19.242,219.3,19.925z M175.425,18.925c-0.683-0.017-1.017,0.317-1,1
	c-0.017,0.583,0.317,0.875,1,0.875c0.583,0,0.875-0.292,0.875-0.875C176.3,19.242,176.008,18.908,175.425,18.925z M141.05,19.925
	c-0.017,0.583,0.317,0.875,1,0.875c0.583,0,0.875-0.292,0.875-0.875c0-0.683-0.292-1.017-0.875-1
	C141.367,18.908,141.033,19.242,141.05,19.925z M239.25,0.05V37.3H0.05V0.05H239.25z M16.425,6.425l2.45,0.2
	c0.117,0,0.175,0.058,0.175,0.175c0.117,0.1,0.35,0.142,0.7,0.125c0.1-0.108,0.2-0.275,0.3-0.5c0.017-0.342-0.083-0.508-0.3-0.5
	c-0.35-0.133-0.583-0.092-0.7,0.125l-2.625,0.2V6.425z M19.55,5.425c0.583,0,0.875-0.292,0.875-0.875c0-0.683-0.292-1.017-0.875-1
	c-0.683-0.017-1.017,0.317-1,1C18.533,5.133,18.867,5.425,19.55,5.425z M19.3,7.25l0.125,2.175H19.8L19.3,7.25z M41.675,7.55
	l-0.05-2c0.225-0.116,0.392-0.175,0.5-0.175c0.008-0.125,0.133-0.192,0.375-0.2H43v-0.05c0.716-0.462,0.716-0.962,0-1.5h-0.5
	c-0.125-0.008-0.25-0.075-0.375-0.2C41.667,3.092,41.208,3.05,40.75,3.3c-0.467,0.225-0.7,0.625-0.7,1.2
	c-0.003,0.353,0.289,0.645,0.875,0.875V7.55H31.55c-0.25-0.017-0.5,0.025-0.75,0.125c-0.1,0.25-0.142,0.5-0.125,0.75v5.25
	c-0.017,0.35,0.025,0.583,0.125,0.7c0.25,0.216,0.5,0.316,0.75,0.3h19.375c0.367,0.017,0.617-0.083,0.75-0.3
	c0.225-0.117,0.333-0.35,0.325-0.7v-5.25c0.008-0.25-0.1-0.5-0.325-0.75c-0.133-0.1-0.383-0.142-0.75-0.125H41.675z M44.75,2.925
	V2.8h-0.575v0.325L44.05,3.3v2.125l0.125,0.125v0.375h0.575V5.75h0.175v-0.5h0.125V3.675L44.925,3.5V2.925H44.75z M66.05,2.925V7.3
	h3.375V2.925H66.05z M89.55,3.675l1.575,1.875v0.2c-0.017,0.241,0.083,0.424,0.3,0.55c0.25,0.117,0.5,0.117,0.75,0
	c0.117-0.25,0.117-0.5,0-0.75c-0.125-0.217-0.309-0.317-0.55-0.3h-0.2L89.55,3.675z M90.625,6.05l-1.2,1.75L89.55,8l1.25-1.75
	L90.625,6.05z M93.05,5.425c0.583,0,0.875-0.292,0.875-0.875c0-0.683-0.292-1.017-0.875-1c-0.683-0.017-1.017,0.317-1,1
	C92.033,5.133,92.367,5.425,93.05,5.425z M96.55,3.675L94.625,5.25h-0.2c-0.225-0.017-0.392,0.083-0.5,0.3
	c-0.117,0.25-0.117,0.5,0,0.75c0.233,0.117,0.467,0.117,0.7,0c0.216-0.125,0.316-0.309,0.3-0.55c-0.116-0.125-0.116-0.192,0-0.2
	L96.55,3.675z M96.55,8l0.2-0.2L95,6.625h-0.2L96.55,8z M63.8,18.925c-0.683-0.017-1.017,0.317-1,1
	c-0.017,0.583,0.317,0.875,1,0.875c0.583,0,0.875-0.292,0.875-0.875C64.675,19.242,64.383,18.908,63.8,18.925z M17.8,19.925
	c-0.017,0.583,0.317,0.875,1,0.875c0.583,0,0.875-0.292,0.875-0.875c0-0.683-0.292-1.017-0.875-1
	C18.117,18.908,17.783,19.242,17.8,19.925z"/>
<path fill-rule="evenodd" clip-rule="evenodd" fill="none" stroke="#000000" stroke-width="0.1" stroke-linecap="round" stroke-linejoin="round" stroke-miterlimit="3" d="
	M122.675,2.8v0.325L122.55,3.3v2.125l0.125,0.125v0.375h0.575V5.75h0.175v-0.5h0.125V3.675L123.425,3.5V2.925h-0.175V2.8H122.675z
	 M121.375,3.625h-0.5c-0.125-0.008-0.25-0.075-0.375-0.2c-0.458-0.333-0.917-0.375-1.375-0.125c-0.467,0.225-0.7,0.625-0.7,1.2
	c-0.003,0.353,0.289,0.645,0.875,0.875v-0.7c-0.409-0.45-0.383-0.783,0.075-1c0.35-0.242,0.7-0.133,1.05,0.325
	c0.216,0.339,0.091,0.672-0.375,1v0.5c0.198-0.08,0.348-0.121,0.45-0.125c0.008-0.125,0.133-0.192,0.375-0.2h0.5v-0.05V3.625z
	 M120.05,5.5L120,5.55v2 M120.05,7.55V5.5 M119.3,5.375c0.201,0.061,0.434,0.12,0.7,0.175v-0.5V4.375
	c-0.009-0.225-0.134-0.333-0.375-0.325c-0.225-0.008-0.333,0.1-0.325,0.325v0.3 M120,5.05L120.05,5 M121.375,5.125
	c0.716-0.462,0.716-0.962,0-1.5 M119.3,9.75c0.117-0.043,0.242-0.068,0.375-0.075L120,8.425V7.55 M120.05,9.75v0.5
	c0.333,0.097,0.5,0.363,0.5,0.8v0.125h0.75C121.183,10.397,120.766,9.922,120.05,9.75H120c-0.08-0.036-0.163-0.061-0.25-0.075
	h-0.075v0.5c0.12,0.004,0.228,0.029,0.325,0.075v-0.5V8.425 M120,10.25h0.05v0.925 M120,11.175v0.7c0.337-0.07,0.52-0.303,0.55-0.7
	h-0.5H120z M119.675,10.175v1H120V10.25 M119.675,11.925c-0.142,0.004-0.267-0.012-0.375-0.05v0.05
	c-0.008,0.225,0.1,0.333,0.325,0.325h0.05V11.925z M120,11.875v0.05c-0.012,0.205-0.121,0.313-0.325,0.325v0.55h0.075
	c0.925-0.108,1.442-0.625,1.55-1.55v-0.075h1 M119.675,11.175v0.75c0.12,0.004,0.229-0.012,0.325-0.05 M120.05,9.75v-2.2
	 M119.675,12.8v0.875 M144,5.75c-0.017,0.241,0.083,0.424,0.3,0.55c0.25,0.117,0.5,0.117,0.75,0c0.117-0.25,0.117-0.5,0-0.75
	c-0.125-0.217-0.309-0.317-0.55-0.3h-0.2l-1.875-1.575L144,5.55V5.75z M143.625,6.05l-1.2,1.75L142.55,8l1.25-1.75L143.625,6.05z
	 M144.175,5.75c-0.008,0.358,0.1,0.542,0.325,0.55c0.358-0.008,0.542-0.192,0.55-0.55c-0.008-0.225-0.192-0.333-0.55-0.325
	C144.275,5.417,144.167,5.525,144.175,5.75z M146.05,5.425c0.583,0,0.875-0.292,0.875-0.875c0-0.683-0.292-1.017-0.875-1
	c-0.683-0.017-1.017,0.317-1,1C145.033,5.133,145.367,5.425,146.05,5.425z M147.05,5.75c-0.008,0.358,0.1,0.542,0.325,0.55
	c0.358-0.008,0.542-0.192,0.55-0.55c-0.008-0.225-0.192-0.333-0.55-0.325C147.15,5.417,147.042,5.525,147.05,5.75z M147.55,5.25
	c-0.225-0.017-0.392,0.083-0.5,0.3c-0.117,0.25-0.117,0.5,0,0.75c0.233,0.117,0.467,0.117,0.7,0c0.216-0.125,0.316-0.309,0.3-0.55
	c-0.116-0.125-0.116-0.192,0-0.2l1.625-1.875c0-0.117-0.058-0.117-0.175,0l-1.75,1.575H147.55z M148,6.625h-0.2L149.55,8l0.2-0.2
	L148,6.625z M169.55,2.925V7.3h3.375V2.925H169.55z M199.625,3.625h-0.5c-0.125-0.008-0.25-0.075-0.375-0.2
	c-0.458-0.333-0.917-0.375-1.375-0.125c-0.467,0.225-0.7,0.625-0.7,1.2c-0.003,0.353,0.289,0.645,0.875,0.875v-0.7
	c-0.492-0.45-0.508-0.783-0.05-1c0.35-0.242,0.7-0.133,1.05,0.325c0.219,0.338,0.119,0.671-0.3,1v0.55
	c0.225-0.116,0.392-0.175,0.5-0.175c0.008-0.125,0.133-0.192,0.375-0.2h0.5v-0.05V3.625z M197.55,4.675v-0.3
	c-0.008-0.225,0.1-0.333,0.325-0.325c0.241-0.008,0.366,0.1,0.375,0.325V5 M199.625,5.125c0.716-0.462,0.716-0.962,0-1.5
	 M197.55,9.675c0.103,0,0.211,0,0.325,0h0.05l0.325-1.05V5.55c-0.266-0.055-0.5-0.114-0.7-0.175V7.55V9.675v0.575
	c0.108-0.046,0.233-0.071,0.375-0.075v-0.5 M198.3,7.55v0.875V9.75c0.64,0.219,1.015,0.694,1.125,1.425h1.125 M198.3,8.425
	l-0.05,0.2V9.75h0.05v0.5c0.333,0.097,0.5,0.363,0.5,0.8v0.125h0.625v0.075c-0.109,0.904-0.609,1.42-1.5,1.55v0.875 M196.3,11.175
	v0.075c0,0.925,0.525,1.442,1.575,1.55h0.05v-0.55h-0.05c-0.225,0.008-0.333-0.1-0.325-0.325v-0.05
	c-0.301-0.094-0.468-0.328-0.5-0.7H196.3h-1 M197.55,10.25v0.925h0.375v-1c0.12,0.004,0.229,0.029,0.325,0.075v-0.5
	c-0.102-0.029-0.21-0.054-0.325-0.075 M197.55,10.25c-0.333,0.096-0.5,0.363-0.5,0.8v0.125h0.5v0.7
	c0.108,0.038,0.233,0.054,0.375,0.05v-0.75h0.325v0.7c0.337-0.07,0.52-0.303,0.55-0.7h-0.5 M197.925,12.25
	c0.205-0.012,0.313-0.121,0.325-0.325v-0.05c-0.097,0.038-0.205,0.054-0.325,0.05V12.25z M197.55,9.675
	c-0.718,0.117-1.135,0.617-1.25,1.5 M198.25,10.25v0.925h0.05V10.25H198.25z M198.3,7.55l-0.05-2 M219.05,6.425
	c0.034,0.24,0.142,0.365,0.325,0.375c0.358-0.008,0.542-0.192,0.55-0.55c-0.008-0.225-0.192-0.333-0.55-0.325
	c-0.225-0.008-0.333,0.1-0.325,0.325C219.048,6.314,219.048,6.373,219.05,6.425c-0.008,0.225,0.1,0.392,0.325,0.5
	c0.241,0.017,0.424-0.025,0.55-0.125l0.125-0.175l2.625-0.2c0.017-0.116-0.025-0.175-0.125-0.175l-2.625-0.2
	c-0.125-0.217-0.309-0.258-0.55-0.125 M219.55,3.55c0.583-0.017,0.875,0.317,0.875,1c0,0.583-0.292,0.875-0.875,0.875
	c-0.683,0-1.017-0.292-1-0.875C218.533,3.867,218.867,3.533,219.55,3.55z M200.8,3.125L200.675,3.3v2.125L200.8,5.55v0.375h0.575
	V5.75h0.175v-0.5h0.125V3.675L201.55,3.5V2.925h-0.175V2.8H200.8V3.125z M220,7.25l-0.2,2.175h-0.375L220,7.25z M219.8,19.75
	c-0.008,0.358,0.1,0.542,0.325,0.55c0.358-0.008,0.542-0.192,0.55-0.55c-0.008-0.225-0.192-0.333-0.55-0.325
	C219.9,19.417,219.792,19.525,219.8,19.75z M219.3,19.925c-0.017,0.583,0.317,0.875,1,0.875c0.583,0,0.875-0.292,0.875-0.875
	c0-0.683-0.292-1.017-0.875-1C219.617,18.908,219.283,19.242,219.3,19.925z M175.425,18.925c-0.683-0.017-1.017,0.317-1,1
	c-0.017,0.583,0.317,0.875,1,0.875c0.583,0,0.875-0.292,0.875-0.875C176.3,19.242,176.008,18.908,175.425,18.925z M175.375,19.425
	c-0.225-0.008-0.333,0.1-0.325,0.325c-0.008,0.358,0.1,0.542,0.325,0.55c0.358-0.008,0.542-0.192,0.55-0.55
	C175.917,19.525,175.733,19.417,175.375,19.425z M141.55,19.75c-0.008,0.358,0.1,0.542,0.325,0.55
	c0.358-0.008,0.542-0.192,0.55-0.55c-0.008-0.225-0.192-0.333-0.55-0.325C141.65,19.417,141.542,19.525,141.55,19.75z
	 M141.05,19.925c-0.017,0.583,0.317,0.875,1,0.875c0.583,0,0.875-0.292,0.875-0.875c0-0.683-0.292-1.017-0.875-1
	C141.367,18.908,141.033,19.242,141.05,19.925z M239.25,0.05H0.05V37.3h239.2V0.05z M16.425,6.425l2.45,0.2
	c0.117,0,0.175,0.058,0.175,0.175c0.117,0.1,0.35,0.142,0.7,0.125c0.1-0.108,0.2-0.275,0.3-0.5c0.017-0.342-0.083-0.508-0.3-0.5
	c-0.35-0.133-0.583-0.092-0.7,0.125l-2.625,0.2V6.425z M19.05,6.25c-0.008,0.358,0.1,0.542,0.325,0.55
	c0.358-0.008,0.542-0.192,0.55-0.55c-0.008-0.225-0.192-0.333-0.55-0.325C19.15,5.917,19.042,6.025,19.05,6.25z M19.55,5.425
	c0.583,0,0.875-0.292,0.875-0.875c0-0.683-0.292-1.017-0.875-1c-0.683-0.017-1.017,0.317-1,1C18.533,5.133,18.867,5.425,19.55,5.425
	z M19.3,7.25l0.125,2.175H19.8L19.3,7.25z M41.675,7.55v0.875V9.75c0.64,0.219,1.015,0.694,1.125,1.425h1.125 M40.925,5.375v-0.7
	c-0.492-0.45-0.508-0.783-0.05-1c0.35-0.242,0.7-0.133,1.05,0.325c0.219,0.338,0.119,0.671-0.3,1v0.55
	c0.225-0.116,0.392-0.175,0.5-0.175c0.008-0.125,0.133-0.192,0.375-0.2H43v-0.05v-1.5h-0.5c-0.125-0.008-0.25-0.075-0.375-0.2
	C41.667,3.092,41.208,3.05,40.75,3.3c-0.467,0.225-0.7,0.625-0.7,1.2C40.047,4.853,40.338,5.145,40.925,5.375z M41.625,5V4.375
	C41.616,4.15,41.491,4.042,41.25,4.05c-0.225-0.008-0.333,0.1-0.325,0.325v0.3 M43,5.125c0.716-0.462,0.716-0.962,0-1.5
	 M40.925,9.675c0.103,0,0.211,0,0.325,0h0.05l0.325-1.05V5.55c-0.266-0.055-0.5-0.114-0.7-0.175V7.55V9.675v0.575
	c0.108-0.046,0.233-0.071,0.375-0.075v-0.5c0.115,0.021,0.223,0.046,0.325,0.075v0.5h0.05v-0.5 M44.75,2.925V2.8h-0.575v0.325
	L44.05,3.3v2.125l0.125,0.125v0.375h0.575V5.75h0.175v-0.5h0.125V3.675L44.925,3.5V2.925H44.75z M41.675,8.425l-0.05,0.2V9.75h0.05
	 M39.675,11.175h-1 M39.675,11.175v0.075c0,0.925,0.525,1.442,1.575,1.55h0.05v-0.55h-0.05c-0.225,0.008-0.333-0.1-0.325-0.325
	v-0.05c-0.301-0.094-0.468-0.328-0.5-0.7H39.675z M40.425,11.175h0.5V10.25c-0.333,0.096-0.5,0.363-0.5,0.8V11.175z M40.925,11.875
	v-0.7H41.3v-1c0.12,0.004,0.229,0.029,0.325,0.075v0.925 M40.925,9.675c-0.718,0.117-1.135,0.617-1.25,1.5 M42.175,11.05
	c0-0.437-0.167-0.703-0.5-0.8v0.925h0.5V11.05z M41.3,11.175v0.75c0.12,0.004,0.229-0.012,0.325-0.05v-0.7H41.3z M41.675,11.175
	h-0.05 M41.3,12.25v-0.325c-0.142,0.004-0.267-0.012-0.375-0.05 M42.8,11.175h-0.625c-0.03,0.397-0.213,0.63-0.55,0.7v0.05
	c-0.012,0.205-0.121,0.313-0.325,0.325 M42.8,11.175v0.075c-0.109,0.904-0.609,1.42-1.5,1.55v0.875 M41.675,7.55l-0.05-2
	 M66.05,2.925V7.3h3.375V2.925H66.05z M91.3,5.75c-0.008,0.358,0.1,0.542,0.325,0.55c0.358-0.008,0.542-0.192,0.55-0.55
	c-0.008-0.225-0.192-0.333-0.55-0.325C91.4,5.417,91.292,5.525,91.3,5.75z M89.55,3.675l1.575,1.875v0.2
	c-0.017,0.241,0.083,0.424,0.3,0.55c0.25,0.117,0.5,0.117,0.75,0c0.117-0.25,0.117-0.5,0-0.75c-0.125-0.217-0.309-0.317-0.55-0.3
	h-0.2L89.55,3.675z M90.625,6.05l-1.2,1.75L89.55,8l1.25-1.75L90.625,6.05z M93.05,5.425c0.583,0,0.875-0.292,0.875-0.875
	c0-0.683-0.292-1.017-0.875-1c-0.683-0.017-1.017,0.317-1,1C92.033,5.133,92.367,5.425,93.05,5.425z M93.925,5.75
	c-0.008,0.358,0.1,0.542,0.325,0.55c0.358-0.008,0.542-0.192,0.55-0.55c-0.008-0.225-0.192-0.333-0.55-0.325
	C94.025,5.417,93.917,5.525,93.925,5.75z M96.55,3.675L94.625,5.25h-0.2c-0.225-0.017-0.392,0.083-0.5,0.3
	c-0.117,0.25-0.117,0.5,0,0.75c0.233,0.117,0.467,0.117,0.7,0c0.216-0.125,0.316-0.309,0.3-0.55c-0.116-0.125-0.116-0.192,0-0.2
	L96.55,3.675z M96.55,8l0.2-0.2L95,6.625h-0.2L96.55,8z M119.3,9.75v0.5c0.108-0.046,0.233-0.071,0.375-0.075 M119.675,12.8
	c-1.004-0.126-1.504-0.643-1.5-1.55v-0.075h-1.125 M119.675,11.175H119.3v0.7 M118.8,11.175h0.5V10.25
	c-0.333,0.096-0.5,0.363-0.5,0.8V11.175c0.032,0.373,0.199,0.606,0.5,0.7 M119.3,9.75c-0.642,0.123-1.017,0.598-1.125,1.425h0.625
	 M119.3,7.55v2.2 M119.3,5.375V7.55 M96.05,19.925c-0.017,0.583,0.317,0.875,1,0.875c0.583,0,0.875-0.292,0.875-0.875
	c0-0.683-0.292-1.017-0.875-1C96.367,18.908,96.033,19.242,96.05,19.925z M96.875,19.425c-0.225-0.008-0.333,0.1-0.325,0.325
	c-0.008,0.358,0.1,0.542,0.325,0.55c0.358-0.008,0.542-0.192,0.55-0.55C97.417,19.525,97.233,19.417,96.875,19.425z M63.8,18.925
	c-0.683-0.017-1.017,0.317-1,1c-0.017,0.583,0.317,0.875,1,0.875c0.583,0,0.875-0.292,0.875-0.875
	C64.675,19.242,64.383,18.908,63.8,18.925z M63.625,19.425c-0.225-0.008-0.333,0.1-0.325,0.325c-0.008,0.358,0.1,0.542,0.325,0.55
	c0.358-0.008,0.542-0.192,0.55-0.55C64.167,19.525,63.983,19.417,63.625,19.425z M17.8,19.925c-0.017,0.583,0.317,0.875,1,0.875
	c0.583,0,0.875-0.292,0.875-0.875c0-0.683-0.292-1.017-0.875-1C18.117,18.908,17.783,19.242,17.8,19.925z M18.75,19.425
	c-0.225-0.008-0.333,0.1-0.325,0.325c-0.008,0.358,0.1,0.542,0.325,0.55c0.358-0.008,0.542-0.192,0.55-0.55
	C19.292,19.525,19.108,19.417,18.75,19.425z"/>
<path fill-rule="evenodd" clip-rule="evenodd" fill="none" stroke="#2CB0CF" stroke-width="0.1" stroke-linecap="round" stroke-linejoin="round" stroke-miterlimit="3" d="
	M120,7.55h0.05 M119.3,7.55h-9.375c-0.25-0.017-0.5,0.025-0.75,0.125c-0.1,0.25-0.142,0.5-0.125,0.75v5.25
	c-0.017,0.35,0.025,0.583,0.125,0.7c0.25,0.216,0.5,0.316,0.75,0.3H129.3c0.367,0.017,0.617-0.083,0.75-0.3
	c0.225-0.117,0.333-0.35,0.325-0.7v-5.25c0.008-0.25-0.1-0.5-0.325-0.75c-0.133-0.1-0.383-0.142-0.75-0.125h-9.25 M197.55,7.55
	h-9.375c-0.25-0.017-0.5,0.025-0.75,0.125c-0.1,0.25-0.142,0.5-0.125,0.75v5.25c-0.017,0.35,0.025,0.583,0.125,0.7
	c0.25,0.216,0.5,0.316,0.75,0.3h19.375c0.367,0.017,0.617-0.083,0.75-0.3c0.225-0.117,0.333-0.35,0.325-0.7v-5.25
	c0.008-0.25-0.1-0.5-0.325-0.75c-0.133-0.1-0.383-0.142-0.75-0.125h-9.25 M40.925,7.55H31.55c-0.25-0.017-0.5,0.025-0.75,0.125
	c-0.1,0.25-0.142,0.5-0.125,0.75v5.25c-0.017,0.35,0.025,0.583,0.125,0.7c0.25,0.216,0.5,0.316,0.75,0.3h19.375
	c0.367,0.017,0.617-0.083,0.75-0.3c0.225-0.117,0.333-0.35,0.325-0.7v-5.25c0.008-0.25-0.1-0.5-0.325-0.75
	c-0.133-0.1-0.383-0.142-0.75-0.125h-9.25"/>
</svg>
