<?xml version="1.0" encoding="UTF-8" standalone="no"?>
<!-- Generator: Adobe Illustrator 15.0.2, SVG Export Plug-In . SVG Version: 6.00 Build 0)  -->

<svg
   xmlns:dc="http://purl.org/dc/elements/1.1/"
   xmlns:cc="http://creativecommons.org/ns#"
   xmlns:rdf="http://www.w3.org/1999/02/22-rdf-syntax-ns#"
   xmlns:svg="http://www.w3.org/2000/svg"
   xmlns="http://www.w3.org/2000/svg"
   xmlns:sodipodi="http://sodipodi.sourceforge.net/DTD/sodipodi-0.dtd"
   xmlns:inkscape="http://www.inkscape.org/namespaces/inkscape"
   version="1.1"
   x="0px"
   y="0px"
   width="89.975px"
   height="33.35px"
   viewBox="0 0 89.975 33.35"
   enable-background="new 0 0 89.975 33.35"
   xml:space="preserve"
   id="svg3336"
   inkscape:version="0.91 r13725"
   sodipodi:docname="sw_ADA_workstation_grn.svg"><metadata
     id="metadata3352"><rdf:RDF><cc:Work
         rdf:about=""><dc:format>image/svg+xml</dc:format><dc:type
           rdf:resource="http://purl.org/dc/dcmitype/StillImage" /><dc:title></dc:title></cc:Work></rdf:RDF></metadata><defs
     id="defs3350" /><sodipodi:namedview
     pagecolor="#ffffff"
     bordercolor="#666666"
     borderopacity="1"
     objecttolerance="10"
     gridtolerance="10"
     guidetolerance="10"
     inkscape:pageopacity="0"
     inkscape:pageshadow="2"
     inkscape:window-width="1360"
     inkscape:window-height="705"
     id="namedview3348"
     showgrid="false"
     inkscape:zoom="13.392609"
     inkscape:cx="44.987499"
     inkscape:cy="16.674999"
     inkscape:window-x="-8"
     inkscape:window-y="-8"
     inkscape:window-maximized="1"
     inkscape:current-layer="svg3336" /><g
     id="Layer_1"><polygon
       fill-rule="evenodd"
       clip-rule="evenodd"
       fill="#D6EE7D"
       points="89.8,0.05 89.925,33.3 0.05,33.3 0.05,0.05  "
       id="polygon3339" /><polygon
       fill-rule="evenodd"
       clip-rule="evenodd"
       fill="none"
       stroke="#000000"
       stroke-width="0.1"
       stroke-linecap="round"
       stroke-linejoin="round"
       stroke-miterlimit="3"
       points="   89.8,0.05 89.925,33.3 0.05,33.3 0.05,0.05  "
       id="polygon3341" /></g><g
     id="Layer_2"><g
       id="g3344"><path
         fill-rule="evenodd"
         clip-rule="evenodd"
         d="M52.11,16.97l3.9,5.72h0.9c0.373,0,0.613,0.053,0.72,0.16    c0.107,0.107,0.16,0.354,0.16,0.74v1.1h-3.12c-0.547,1.613-1.52,2.926-2.92,3.94c-1.427,1.04-3.027,1.56-4.8,1.56    c-2.227,0-4.133-0.787-5.72-2.36c-1.587-1.56-2.38-3.44-2.38-5.64c0-1.627,0.367-3.007,1.1-4.14c0.347,0.173,1.04,0.24,2.08,0.2    l-0.88-1.56c0.253-0.253,0.633-0.606,1.14-1.06v-4.6l1.16-0.62v-0.26l-4.92,2.54l3.06,5.34c-1.293,0.054-2.167-0.253-2.62-0.92    l-2.3-3.46c-0.307-0.44-0.46-0.873-0.46-1.3c0-0.534,0.227-0.92,0.68-1.16l5.14-2.94c0.773-0.427,1.5-0.64,2.18-0.64    c0.56,0,1.027,0.193,1.4,0.58c0.347,0.333,0.52,0.733,0.52,1.2v6.42h4.22C50.99,15.811,51.577,16.197,52.11,16.97z M45.65,3.19    c0.4,0.494,0.6,1.087,0.6,1.78c0,0.707-0.2,1.307-0.6,1.8c-0.414,0.507-0.907,0.76-1.48,0.76c-0.56,0-1.033-0.253-1.42-0.76    c-0.413-0.493-0.62-1.093-0.62-1.8c0-0.693,0.207-1.287,0.62-1.78c0.387-0.493,0.86-0.74,1.42-0.74    C44.744,2.451,45.237,2.697,45.65,3.19z M42.73,26.35c1.16,1.16,2.566,1.74,4.22,1.74s3.066-0.574,4.24-1.72    c1.173-1.16,1.76-2.553,1.76-4.18l-2.86-3.94h-7.62c-1,1.133-1.5,2.446-1.5,3.94C40.97,23.804,41.557,25.19,42.73,26.35z"
         id="path3346" /></g></g><path
     style="fill:#99ff55"
     d="m 0.11200207,16.652599 0,-16.53897293 44.79168793,0 44.791684,0 0.045,9.05350093 c 0.02475,4.979425 0.06051,12.421963 0.07947,16.538973 l 0.03447,7.485472 -44.871159,0 -44.87115893,0 0,-16.538973 z M 49.02845,29.958261 c 2.363981,-0.618298 4.456603,-2.393884 5.411979,-4.592054 l 0.249817,-0.574791 1.577899,-0.02017 1.577899,-0.02018 -0.02649,-0.891852 c -0.03414,-1.149454 -0.03073,-1.145581 -1.051002,-1.195838 l -0.757921,-0.03733 -2.02505,-2.968256 c -1.113778,-1.632541 -2.139471,-3.086308 -2.279318,-3.230593 -0.139846,-0.144285 -0.421753,-0.345798 -0.626457,-0.447808 -0.371743,-0.185246 -0.374918,-0.18547 -2.634906,-0.18547 l -2.262715,0 0,-3.252329 c 0,-2.165204 -0.02813,-3.3640446 -0.08416,-3.5865442 C 45.993797,8.5410869 45.482887,7.9524047 45.086345,7.7893544 44.425446,7.517606 44.422526,7.5160574 44.561133,7.5108164 c 0.43467,-0.016436 1.201218,-0.7012179 1.491802,-1.332674 0.134655,-0.2926119 0.162547,-0.4917811 0.16438,-1.1737591 0.002,-0.7313613 -0.01907,-0.8667155 -0.192013,-1.23543 -0.400266,-0.8533767 -1.072727,-1.3406177 -1.850237,-1.3406177 -1.296381,0 -2.303676,1.5243163 -2.024536,3.0636833 0.168232,0.9277413 0.798777,1.765531 1.47941,1.9656569 l 0.349542,0.1027755 -0.448009,0.093484 c -0.246404,0.051417 -0.616011,0.1593125 -0.821348,0.2397689 -0.505179,0.1979412 -5.843795,3.2432915 -6.113309,3.4872655 -0.430457,0.389662 -0.53173,0.981619 -0.280882,1.641797 0.07659,0.201581 0.729255,1.258302 1.450357,2.348269 0.953964,1.441944 1.39389,2.041735 1.615049,2.201941 0.406519,0.294481 1.112593,0.476752 1.732385,0.447208 l 0.494305,-0.02356 -1.51459,-2.647924 -1.514591,-2.647925 1.580296,-0.81099 c 0.869162,-0.446044 1.958302,-1.008651 2.420311,-1.250236 0.495052,-0.258865 0.840015,-0.40049 0.840015,-0.344871 0,0.05191 -0.268805,0.237602 -0.597344,0.412654 l -0.597345,0.318279 0,2.299992 0,2.299992 -0.561566,0.533433 -0.561566,0.533433 0.414622,0.718136 c 0.228041,0.394975 0.393834,0.738812 0.368428,0.764083 -0.071,0.07062 -1.359359,0.02066 -1.665628,-0.06459 -0.321329,-0.08944 -0.363835,-0.05029 -0.687328,0.633216 -0.755178,1.595598 -0.917018,3.903047 -0.399103,5.690263 0.822412,2.837972 3.346588,5.098535 6.325705,5.665079 0.866572,0.164797 2.6752,0.09368 3.570105,-0.140385 z"
     id="path3354"
     inkscape:connector-curvature="0" /></svg>