<?xml version="1.0" encoding="utf-8"?>
<!-- Generator: Adobe Illustrator 15.0.2, SVG Export Plug-In . SVG Version: 6.00 Build 0)  -->
<!DOCTYPE svg PUBLIC "-//W3C//DTD SVG 1.1//EN" "http://www.w3.org/Graphics/SVG/1.1/DTD/svg11.dtd">
<svg version="1.1" xmlns="http://www.w3.org/2000/svg" xmlns:xlink="http://www.w3.org/1999/xlink" x="0px" y="0px"
	 width="89.975px" height="33.35px" viewBox="0 0 89.975 33.35" enable-background="new 0 0 89.975 33.35" xml:space="preserve">
<g id="Layer_1">
	<polygon fill-rule="evenodd" clip-rule="evenodd" fill="#D6EE7D" points="89.8,0.05 89.925,33.3 0.05,33.3 0.05,0.05 	"/>
	
		<polygon fill-rule="evenodd" clip-rule="evenodd" fill="none" stroke="#000000" stroke-width="0.1" stroke-linecap="round" stroke-linejoin="round" stroke-miterlimit="3" points="
		89.8,0.05 89.925,33.3 0.05,33.3 0.05,0.05 	"/>
</g>
<g id="Layer_2">
	<g>
		<path fill-rule="evenodd" clip-rule="evenodd" d="M52.11,16.97l3.9,5.72h0.9c0.373,0,0.613,0.053,0.72,0.16
			c0.107,0.107,0.16,0.354,0.16,0.74v1.1h-3.12c-0.547,1.613-1.52,2.926-2.92,3.94c-1.427,1.04-3.027,1.56-4.8,1.56
			c-2.227,0-4.133-0.787-5.72-2.36c-1.587-1.56-2.38-3.44-2.38-5.64c0-1.627,0.367-3.007,1.1-4.14c0.347,0.173,1.04,0.24,2.08,0.2
			l-0.88-1.56c0.253-0.253,0.633-0.606,1.14-1.06v-4.6l1.16-0.62v-0.26l-4.92,2.54l3.06,5.34c-1.293,0.054-2.167-0.253-2.62-0.92
			l-2.3-3.46c-0.307-0.44-0.46-0.873-0.46-1.3c0-0.534,0.227-0.92,0.68-1.16l5.14-2.94c0.773-0.427,1.5-0.64,2.18-0.64
			c0.56,0,1.027,0.193,1.4,0.58c0.347,0.333,0.52,0.733,0.52,1.2v6.42h4.22C50.99,15.811,51.577,16.197,52.11,16.97z M45.65,3.19
			c0.4,0.494,0.6,1.087,0.6,1.78c0,0.707-0.2,1.307-0.6,1.8c-0.414,0.507-0.907,0.76-1.48,0.76c-0.56,0-1.033-0.253-1.42-0.76
			c-0.413-0.493-0.62-1.093-0.62-1.8c0-0.693,0.207-1.287,0.62-1.78c0.387-0.493,0.86-0.74,1.42-0.74
			C44.744,2.451,45.237,2.697,45.65,3.19z M42.73,26.35c1.16,1.16,2.566,1.74,4.22,1.74s3.066-0.574,4.24-1.72
			c1.173-1.16,1.76-2.553,1.76-4.18l-2.86-3.94h-7.62c-1,1.133-1.5,2.446-1.5,3.94C40.97,23.804,41.557,25.19,42.73,26.35z"/>
	</g>
</g>
</svg>
