<?xml version="1.0" encoding="utf-8"?>
<!-- Generator: Adobe Illustrator 15.0.2, SVG Export Plug-In . SVG Version: 6.00 Build 0)  -->
<!DOCTYPE svg PUBLIC "-//W3C//DTD SVG 1.1//EN" "http://www.w3.org/Graphics/SVG/1.1/DTD/svg11.dtd">
<svg version="1.1" id="Layer_1" xmlns="http://www.w3.org/2000/svg" xmlns:xlink="http://www.w3.org/1999/xlink" x="0px" y="0px"
	 width="24.5px" height="31.975px" viewBox="0 0 24.5 31.975" enable-background="new 0 0 24.5 31.975" xml:space="preserve">
<path fill-rule="evenodd" clip-rule="evenodd" fill="#BDB186" d="M12.75,1.6h7.875c0.35,0,0.525,0.15,0.525,0.45
	c0,0.35-0.175,0.517-0.525,0.5H3.75C3.45,2.567,3.3,2.4,3.3,2.05c0-0.3,0.15-0.45,0.45-0.45h7.95H12.75H11.7V1.05H1.65
	c-0.333,0-0.5,0.184-0.5,0.55v12.05H0.6c-0.279,0-0.429,0.158-0.45,0.475V0.55c0-0.3,0.15-0.45,0.45-0.45h11.55
	c0.367,0,0.567,0.15,0.6,0.45V1.6z"/>
<path fill-rule="evenodd" clip-rule="evenodd" fill="#1375B2" d="M20.7,13.65H3.75v-9.6c0-0.3,0.183-0.45,0.55-0.45h15.9
	c0.3,0,0.466,0.15,0.5,0.45V13.65z"/>
<path fill-rule="evenodd" clip-rule="evenodd" fill="#706988" d="M1.15,13.65h2.6H20.7h3v0.025c0.029,0,0.045-0.008,0.05-0.025
	h0.025c0.35,0,0.559,0.184,0.625,0.55v17.1c-0.011,0.055-0.028,0.105-0.05,0.15c-0.091,0.233-0.283,0.35-0.575,0.35H23.7H0.6
	c-0.281,0-0.432-0.15-0.45-0.45c0.017-0.006,0.025-0.022,0.025-0.05H0.15V14.2c0-0.026,0-0.051,0-0.075
	c0.021-0.317,0.171-0.475,0.45-0.475H1.15z M24.3,31.3v0.075c0.05,0,0.075-0.025,0.075-0.075H24.3z"/>
<path fill-rule="evenodd" clip-rule="evenodd" fill="none" stroke="#000000" stroke-width="0.2" stroke-linecap="round" stroke-linejoin="round" stroke-miterlimit="3" d="
	M12.75,1.6V0.55c-0.033-0.3-0.233-0.45-0.6-0.45H0.6c-0.3,0-0.45,0.15-0.45,0.45v13.575c0.021-0.317,0.171-0.475,0.45-0.475h0.55
	V1.6c0-0.367,0.167-0.55,0.5-0.55H11.7V1.6H12.75z M11.7,1.6H3.75c-0.3,0-0.45,0.15-0.45,0.45c0,0.35,0.15,0.517,0.45,0.5h16.875
	c0.35,0.017,0.525-0.15,0.525-0.5c0-0.3-0.175-0.45-0.525-0.45H12.75 M20.7,13.65v-9.6c-0.034-0.3-0.2-0.45-0.5-0.45H4.3
	c-0.367,0-0.55,0.15-0.55,0.45v9.6H20.7z M23.7,13.65v0.025c0.029,0,0.045-0.008,0.05-0.025H23.7h-3 M23.75,13.65
	c0.017-0.012,0.025-0.029,0.025-0.05H23.7v0.05 M0.15,14.125c0,0.024,0,0.049,0,0.075v17.1h0.025c0,0.028-0.008,0.044-0.025,0.05
	c0.019,0.3,0.169,0.45,0.45,0.45h23.1h0.075c0.292,0,0.484-0.117,0.575-0.35c0.022-0.045,0.039-0.095,0.05-0.15V14.2
	c-0.066-0.367-0.275-0.55-0.625-0.55H23.75 M1.15,13.65h2.6 M0.15,31.3H0.1v0.075c0.022,0,0.039-0.008,0.05-0.025V31.3z M24.3,31.3
	h0.075c0,0.05-0.025,0.075-0.075,0.075V31.3z M23.7,31.8v0.075c0.05,0,0.075-0.025,0.075-0.075"/>
</svg>
