<?xml version="1.0" encoding="utf-8"?>
<!-- Generator: Adobe Illustrator 15.0.2, SVG Export Plug-In . SVG Version: 6.00 Build 0)  -->
<!DOCTYPE svg PUBLIC "-//W3C//DTD SVG 1.1//EN" "http://www.w3.org/Graphics/SVG/1.1/DTD/svg11.dtd">
<svg version="1.1" id="Layer_1" xmlns="http://www.w3.org/2000/svg" xmlns:xlink="http://www.w3.org/1999/xlink" x="0px" y="0px"
	 width="24.375px" height="18.375px" viewBox="0 0 24.375 18.375" enable-background="new 0 0 24.375 18.375" xml:space="preserve">
<path fill-rule="evenodd" clip-rule="evenodd" fill="#706900" d="M0.05,17.75V0.65c0-0.367,0.167-0.55,0.5-0.55h23.1v0.025
	c0.029,0,0.045-0.008,0.05-0.025h0.025c0.317,0,0.492,0.184,0.525,0.55v17.1c-0.033,0.333-0.208,0.5-0.525,0.5H23.65H0.55
	c-0.308,0-0.474-0.142-0.5-0.425c0.05,0,0.075-0.025,0.075-0.075H0.05z"/>
<path fill-rule="evenodd" clip-rule="evenodd" fill="none" stroke="#000000" stroke-width="0.1" stroke-linecap="round" stroke-linejoin="round" stroke-miterlimit="3" d="
	M23.65,0.1V0.05h0.075c0,0.021-0.008,0.038-0.025,0.05h0.025c0.317,0,0.492,0.184,0.525,0.55v17.1h0.075
	c0,0.05-0.025,0.075-0.075,0.075V17.75c-0.033,0.333-0.208,0.5-0.525,0.5c0,0.05-0.025,0.075-0.075,0.075V18.25H0.55
	c-0.308,0-0.474-0.142-0.5-0.425c0-0.024,0-0.049,0-0.075V0.65c0-0.367,0.167-0.55,0.5-0.55H23.65z M23.7,0.1h-0.05v0.025
	C23.679,0.125,23.695,0.116,23.7,0.1z M23.65,18.25h0.075 M0.05,17.75h0.075c0,0.05-0.025,0.075-0.075,0.075"/>
</svg>
