<?xml version="1.0" encoding="utf-8"?>
<!-- Generator: Adobe Illustrator 15.0.2, SVG Export Plug-In . SVG Version: 6.00 Build 0)  -->
<!DOCTYPE svg PUBLIC "-//W3C//DTD SVG 1.1//EN" "http://www.w3.org/Graphics/SVG/1.1/DTD/svg11.dtd">
<svg version="1.1" id="Layer_1" xmlns="http://www.w3.org/2000/svg" xmlns:xlink="http://www.w3.org/1999/xlink" x="0px" y="0px"
	 width="17.425px" height="17.425px" viewBox="0 0 17.425 17.425" enable-background="new 0 0 17.425 17.425" xml:space="preserve">
<path fill-rule="evenodd" clip-rule="evenodd" fill="#1375B2" d="M8.8,0.05c2.45,0,4.492,0.817,6.125,2.45
	c1.633,1.75,2.45,3.85,2.45,6.3c0,2.45-0.817,4.492-2.45,6.125s-3.675,2.45-6.125,2.45c-2.567,0-4.667-0.817-6.3-2.45
	C0.867,13.292,0.05,11.25,0.05,8.8c0-2.567,0.817-4.667,2.45-6.3C4.25,0.867,6.35,0.05,8.8,0.05z"/>
<path fill-rule="evenodd" clip-rule="evenodd" fill="none" stroke="#000000" stroke-width="0.1" stroke-linecap="round" stroke-linejoin="round" stroke-miterlimit="3" d="
	M8.8,0.05c-2.45,0-4.55,0.817-6.3,2.45C0.867,4.133,0.05,6.233,0.05,8.8c0,2.45,0.817,4.492,2.45,6.125
	c1.633,1.633,3.733,2.45,6.3,2.45c2.45,0,4.492-0.817,6.125-2.45s2.45-3.675,2.45-6.125c0-2.45-0.817-4.55-2.45-6.3
	C13.292,0.867,11.25,0.05,8.8,0.05z"/>
</svg>
