<?xml version="1.0" encoding="utf-8"?>
<!-- Generator: Adobe Illustrator 15.0.2, SVG Export Plug-In . SVG Version: 6.00 Build 0)  -->
<!DOCTYPE svg PUBLIC "-//W3C//DTD SVG 1.1//EN" "http://www.w3.org/Graphics/SVG/1.1/DTD/svg11.dtd">
<svg version="1.1" id="Layer_1" xmlns="http://www.w3.org/2000/svg" xmlns:xlink="http://www.w3.org/1999/xlink" x="0px" y="0px"
	 width="22.975px" height="28.771px" viewBox="0 0 22.975 28.771" enable-background="new 0 0 22.975 28.771" xml:space="preserve">
<path fill-rule="evenodd" clip-rule="evenodd" fill="#1375B2" d="M12.8,8.096h-2.625H12.8h7.25h0.5l0.2-0.25
	c1.454,0.283,2.179,0.95,2.175,2v17c-0.117,1.167-0.742,1.792-1.875,1.875H1.8c-1.05-0.2-1.633-0.825-1.75-1.875v-16.75
	c0.087-0.91,0.454-1.51,1.1-1.8c0.099-0.039,0.199-0.072,0.3-0.1c0.149-0.049,0.307-0.083,0.475-0.1h1.5h6.75
	c0.717-1.517,0.675-2.975-0.125-4.375C8.45,3.974,6.933,4.599,5.5,5.596C4.691,6.188,4,7.021,3.425,8.096h-1.5
	c-0.168,0.018-0.326,0.051-0.475,0.1c1.394-3.81,3.552-6.276,6.475-7.4c2.8-1.05,5.425-0.992,7.875,0.175
	c2.558,1.042,4.417,2.958,5.575,5.75L20.75,7.846l-0.2,0.25h-0.5c-1.883-2.575-4.175-4.033-6.875-4.375
	c-0.082-0.011-0.166-0.011-0.25,0c-0.982-0.116-1.94-0.116-2.875,0c0.935-0.116,1.893-0.116,2.875,0
	C12.008,5.122,11.967,6.58,12.8,8.096z"/>
<path fill-rule="evenodd" clip-rule="evenodd" fill="none" stroke="#000000" stroke-width="0.1" stroke-linecap="round" stroke-linejoin="round" stroke-miterlimit="3" d="
	M20.05,8.096H12.8h-2.625h-6.75h-1.5c-0.168,0.018-0.326,0.051-0.475,0.1c-0.101,0.028-0.201,0.062-0.3,0.1
	c-0.646,0.29-1.013,0.89-1.1,1.8v16.75c0.117,1.05,0.7,1.675,1.75,1.875h19.25c1.133-0.083,1.758-0.708,1.875-1.875v-17
	c0.004-1.05-0.721-1.717-2.175-2l-0.2,0.25H20.05z M20.75,7.846l0.625-1.125c-1.159-2.792-3.017-4.708-5.575-5.75
	c-2.45-1.167-5.075-1.225-7.875-0.175c-2.923,1.124-5.081,3.59-6.475,7.4 M12.925,3.721c0.084-0.011,0.168-0.011,0.25,0
	c2.7,0.342,4.992,1.8,6.875,4.375 M12.8,8.096c-0.833-1.517-0.792-2.975,0.125-4.375c-0.982-0.116-1.94-0.116-2.875,0
	c0.8,1.4,0.842,2.858,0.125,4.375 M3.425,8.096C4,7.021,4.691,6.188,5.5,5.596c1.433-0.998,2.95-1.623,4.55-1.875"/>
</svg>
