<?xml version="1.0" encoding="utf-8"?>
<!-- Generator: Adobe Illustrator 15.0.2, SVG Export Plug-In . SVG Version: 6.00 Build 0)  -->
<!DOCTYPE svg PUBLIC "-//W3C//DTD SVG 1.1//EN" "http://www.w3.org/Graphics/SVG/1.1/DTD/svg11.dtd">
<svg version="1.1" id="Layer_1" xmlns="http://www.w3.org/2000/svg" xmlns:xlink="http://www.w3.org/1999/xlink" x="0px" y="0px"
	 width="33.85px" height="38.975px" viewBox="0 0 33.85 38.975" enable-background="new 0 0 33.85 38.975" xml:space="preserve">
<path fill-rule="evenodd" clip-rule="evenodd" fill="#852364" d="M21.9,14.375c-1.194-1.195-2.652-1.795-4.375-1.8
	c-1.714,0.005-3.165,0.605-4.35,1.8c-1.195,1.229-1.795,2.68-1.8,4.35c0.004,1.723,0.604,3.181,1.8,4.375
	c1.186,1.233,2.636,1.85,4.35,1.85c1.723,0,3.181-0.616,4.375-1.85c1.187-1.191,1.778-2.625,1.775-4.3
	C23.678,17.083,23.086,15.607,21.9,14.375z M33.8,0.05l-0.175,38.875H0.05V0.05H33.8z"/>
<path fill-rule="evenodd" clip-rule="evenodd" d="M21.9,14.375c1.187,1.232,1.778,2.708,1.775,4.425
	c0.003,1.676-0.588,3.109-1.775,4.3c-1.194,1.233-2.652,1.85-4.375,1.85c-1.714,0-3.165-0.616-4.35-1.85
	c-1.195-1.194-1.795-2.652-1.8-4.375c0.004-1.67,0.604-3.121,1.8-4.35c1.186-1.195,2.636-1.795,4.35-1.8
	C19.248,12.58,20.706,13.18,21.9,14.375z"/>
<path fill-rule="evenodd" clip-rule="evenodd" fill="none" stroke="#000000" stroke-width="0.1" stroke-linecap="round" stroke-linejoin="round" stroke-miterlimit="3" d="
	M21.9,14.375c1.187,1.232,1.778,2.708,1.775,4.425c0.003,1.676-0.588,3.109-1.775,4.3c-1.194,1.233-2.652,1.85-4.375,1.85
	c-1.714,0-3.165-0.616-4.35-1.85c-1.195-1.194-1.795-2.652-1.8-4.375c0.004-1.67,0.604-3.121,1.8-4.35
	c1.186-1.195,2.636-1.795,4.35-1.8C19.248,12.58,20.706,13.18,21.9,14.375z M33.8,0.05H0.05v38.875h33.575L33.8,0.05z"/>
<text transform="matrix(1 0 0 1 12.5747 18.4907)" fill="#FFFFFF" font-family="'Helvetica-Condensed'" font-size="9.2574">R</text>
</svg>
