<?xml version="1.0" encoding="utf-8"?>
<!-- Generator: Adobe Illustrator 15.0.2, SVG Export Plug-In . SVG Version: 6.00 Build 0)  -->
<!DOCTYPE svg PUBLIC "-//W3C//DTD SVG 1.1//EN" "http://www.w3.org/Graphics/SVG/1.1/DTD/svg11.dtd">
<svg version="1.1" xmlns="http://www.w3.org/2000/svg" xmlns:xlink="http://www.w3.org/1999/xlink" x="0px" y="0px" width="54.1px"
	 height="34.05px" viewBox="0 0 54.1 34.05" enable-background="new 0 0 54.1 34.05" xml:space="preserve">
<g id="Layer_1">
	
		<radialGradient id="SVGID_1_" cx="-85" cy="-155" r="639.15" gradientTransform="matrix(1 0 0 1.2817 0 43.6638)" gradientUnits="userSpaceOnUse">
		<stop  offset="0" style="stop-color:#FFFFFF"/>
		<stop  offset="1" style="stop-color:#000000"/>
	</radialGradient>
	<rect x="0.05" y="0.05" fill-rule="evenodd" clip-rule="evenodd" fill="url(#SVGID_1_)" width="54" height="33.95"/>
	
		<rect x="0.05" y="0.05" fill-rule="evenodd" clip-rule="evenodd" fill="none" stroke="#000000" stroke-width="0.1" stroke-linecap="round" stroke-linejoin="round" stroke-miterlimit="3" width="54" height="33.95"/>
</g>
<g id="Layer_2">
	<path fill-rule="evenodd" clip-rule="evenodd" fill="#FF0000" d="M26.225,10.225c1.947,0,3.605,0.684,4.975,2.05
		c1.385,1.39,2.077,3.056,2.075,5c0.001,1.938-0.69,3.588-2.075,4.95c-1.37,1.385-3.028,2.077-4.975,2.075
		c-1.936,0.002-3.594-0.69-4.975-2.075c-1.366-1.362-2.049-3.012-2.05-4.95c0.001-1.944,0.684-3.61,2.05-5
		C22.631,10.909,24.289,10.226,26.225,10.225z"/>
</g>
</svg>
