<?xml version="1.0" encoding="utf-8"?>
<!-- Generator: Adobe Illustrator 15.0.2, SVG Export Plug-In . SVG Version: 6.00 Build 0)  -->
<!DOCTYPE svg PUBLIC "-//W3C//DTD SVG 1.1//EN" "http://www.w3.org/Graphics/SVG/1.1/DTD/svg11.dtd">
<svg version="1.1" id="Layer_1" xmlns="http://www.w3.org/2000/svg" xmlns:xlink="http://www.w3.org/1999/xlink" x="0px" y="0px"
	 width="19.1px" height="19.1px" viewBox="0 0 19.1 19.1" enable-background="new 0 0 19.1 19.1" xml:space="preserve">
<path fill-rule="evenodd" clip-rule="evenodd" fill="#66CCFF" d="M18.3,4.8h-3l-1.8,7.8l-2-7.8H8.6l-2.1,7.8L4.8,4.8H1.75L4.8,16.1
	H8l2-7.35l2,7.35h3.25L18.3,4.8z M19.05,19.05h-19v-19h19V19.05z"/>
<polygon fill-rule="evenodd" clip-rule="evenodd" points="18.3,4.8 15.25,16.1 12,16.1 10,8.75 8,16.1 4.8,16.1 1.75,4.8 4.8,4.8 
	6.5,12.6 8.6,4.8 11.5,4.8 13.5,12.6 15.3,4.8 "/>
<rect x="0.05" y="0.05" fill-rule="evenodd" clip-rule="evenodd" fill="none" stroke="#000000" stroke-width="0.1" stroke-linecap="round" stroke-linejoin="round" stroke-miterlimit="3" width="19" height="19"/>
</svg>
