<?xml version="1.0" encoding="utf-8"?>
<!-- Generator: Adobe Illustrator 15.0.2, SVG Export Plug-In . SVG Version: 6.00 Build 0)  -->
<!DOCTYPE svg PUBLIC "-//W3C//DTD SVG 1.1//EN" "http://www.w3.org/Graphics/SVG/1.1/DTD/svg11.dtd">
<svg version="1.1" id="Layer_1" xmlns="http://www.w3.org/2000/svg" xmlns:xlink="http://www.w3.org/1999/xlink" x="0px" y="0px"
	 width="63.8px" height="7.199px" viewBox="0 0 63.8 7.199" enable-background="new 0 0 63.8 7.199" xml:space="preserve">
<g>
	<path fill-rule="evenodd" clip-rule="evenodd" fill="#FFFFFF" d="M1.8,1v5.3h0.9V3.45V1H1.8V0.05H62h1.75v7.1H62H1.8H0.05v-7.1H1.8
		V1z M1.8,6.3v0.85V6.3z M62,0.05V1V0.05z M61.1,3.899H32H61.1v2.4H62v0.85V6.3V1h-0.9V3.899z M2.7,3.45h27.55v1.3H32v-0.85V2.55
		h-1.75v0.9v-0.9H32v1.35v0.85h-1.75v-1.3H2.7z"/>
	
		<path fill-rule="evenodd" clip-rule="evenodd" fill="none" stroke="#000000" stroke-width="0.1" stroke-linecap="round" stroke-linejoin="round" stroke-miterlimit="3" d="
		M1.8,1v5.3h0.9V3.45V1H1.8z M1.8,0.05H62h1.75v7.1H62H1.8H0.05v-7.1H1.8V1 M1.8,6.3v0.85 M62,0.05V1v5.3v0.85 M61.1,3.899V1H62
		 M30.25,3.45v1.3H32v-0.85V2.55h-1.75V3.45z M62,6.3h-0.9v-2.4H32 M2.7,3.45h27.55"/>
</g>
</svg>
